<?xml version="1.0" encoding="UTF-8"?>
<svg width="115" height="40" fill="none" viewBox="0 0 115 40" xmlns="http://www.w3.org/2000/svg" xmlns:xlink="http://www.w3.org/1999/xlink">
<path d="M13.952 2.024s5.972-4.809 11.804.399c0 0 7.646.527 5.734 7.138 0 0 7.078 2.575 4.019 9.811 0 0 4.052 6.163-2.632 8.858 0 0 .309 6.198-6.665 4.544 0 0-3.277 5.751-8.487.857 0 0-7.419 6.649-11.146-2.326 0 0-7.976-1.614-4.986-8.618 0 0-5.33-6.507 3.506-11.927-.011 0-.77-8.214 8.852-8.735z" fill="#232222"/>
<path d="M10.747 10.07c-1.537 1.985-1.638 4.724-1.092 7.099a7.24 7.24 0 0 0 .819 2.165c.546.879 1.393 1.483 2.457 1.442.474-.02.938-.136 1.365-.341.724-.347 1.259-.983 1.99-1.313a5.46 5.46 0 0 1 3.634-.317c1.253.328 2.209 1.092 3.277 1.799 1.177.784 2.477.994 3.629.06 1.415-1.147 1.81-3.045 2.043-4.762.199-1.48.191-3.004-.358-4.413-.058-.165-.137-.322-.235-.467-.292-.401-.759-.68-1.092-1.049a8.52 8.52 0 0 1-1.13-1.521s-5.663 2.676-12.809-.767c-.117-.057-1.944 1.764-2.13 1.963a5.13 5.13 0 0 0-.369.42z" fill="#fff" stroke="#232222" stroke-linejoin="round" stroke-width="1.49"/>
<g fill="#232222">
<use xlink:href="#a"/>
<use x="-11.475" y="-0.561" xlink:href="#a"/>
</g>
<path d="M25.336 17.135a.48.48 0 0 0 .478-.478.48.48 0 0 0-.478-.478.48.48 0 0 0-.478.478.48.48 0 0 0 .478.478zm-11.549-.62a.48.48 0 0 0 .478-.478.48.48 0 0 0-.478-.478.48.48 0 0 0-.478.478.48.48 0 0 0 .478.478z" fill="#fff"/>
<g stroke-linecap="round" stroke-linejoin="round">
<path d="M17.147 21.095c1.417.377 2.184.445 3.602.096" stroke="#fff"/>
<path d="M14.977 12.973c-.661.027-1.365-.055-1.996.15-.524.166-.999.546-1.466.841m11.905-.8c.658.068 1.365.024 1.985.273.513.197.967.614 1.417.923" stroke="#232222" stroke-width="1.4"/>
</g>
<path d="M63.112 23.232v-.064c-.032-.576-.192-1.152-.416-1.152-.096 0-.16.064-.256.256-.992 1.856-2.304 3.712-3.2 3.712-1.856 0 .576-7.392-2.88-7.392-2.368 0-4.096 3.2-4.992 5.248.16-3.424.352-8.416.352-11.648 0-2.368-.096-3.872-.16-4.096-.096-.16-.608-.544-1.12-.544-.32 0-1.216.416-1.376.64-.192.416-.384 3.808-.384 6.784 0 8.16.544 12.64.576 12.672.096.352.928.352.928.352s.864 0 .992-.352v-.064c.192-.512 2.24-6.112 3.808-6.112 1.632 0-.832 6.528 3.648 6.528 2.4 0 3.808-2.944 4.288-3.84.128-.224.192-.576.192-.928zm12.235-.064c0-.576-.192-1.152-.416-1.152-.096 0-.16.064-.256.256-.992 1.856-2.272 3.712-3.2 3.712-.672 0-.832-1.216-.832-2.656 0-.992.096-2.656.096-3.584 0-.384-.032-.672-.064-.736-.16-.32-.64-.416-1.344-.416-.736 0-.896.128-1.088.416-.032.064-.064.192-.096.416-.8-.512-1.76-.832-2.784-.832-2.816 0-5.12 2.112-5.12 4.704S62.547 28 65.363 28c1.28 0 2.464-.512 3.36-1.28.448.832 1.152 1.28 2.144 1.28 2.432 0 3.84-2.944 4.288-3.84.128-.256.192-.64.192-.992zm-7.36.032v.096c0 1.44-.8 2.592-2.624 2.592-1.152 0-2.112-1.184-2.112-2.592 0-1.44.96-2.592 2.112-2.592 1.76 0 2.56 1.088 2.624 2.432v.064zm19.441-.032c0-.576-.192-1.152-.416-1.152-.096 0-.16.064-.256.256-.832 1.824-2.016 3.168-3.328 4.256v-1.664c0-3.136-.064-5.728-.128-5.856-.16-.32-.64-.416-1.344-.416-.736 0-.96.128-1.152.416-.032.064-.064.192-.096.384-.768-.512-1.696-.8-2.72-.8-2.816 0-5.12 2.112-5.12 4.704S75.172 28 77.988 28c1.024 0 1.952-.32 2.72-.8l.032 1.216c-2.848 1.824-5.44 3.232-5.44 6.432 0 2.4 1.504 4.192 3.68 4.192 1.536 0 3.84-1.152 4.16-4.928.128-1.376.224-3.36.256-5.408 1.408-1.12 2.784-2.528 3.84-4.544.128-.256.192-.64.192-.992zm-6.816.128c0 1.408-.8 2.592-2.624 2.592-1.152 0-2.112-1.184-2.112-2.592 0-1.44.96-2.592 2.112-2.592 1.824 0 2.624 1.152 2.624 2.592zm.256 9.44c0 2.432-.672 3.872-1.824 3.872-1.312 0-1.6-1.248-1.6-1.76 0-1.952 1.472-3.04 3.36-4.32l.064 2.208zm15.823-9.568c0-.576-.192-1.152-.416-1.152-.096 0-.16.064-.256.256-.992 1.856-2.272 3.712-3.2 3.712-.224 0-.32-.192-.32-.416 0-.8 1.472-3.456 1.472-4.448 0-1.024-.672-1.568-1.952-1.568-.8 0-2.56-.096-3.072-.448 0-1.248-.48-2.144-1.504-2.144-.8 0-1.216 1.024-1.216 1.632 0 1.536.896 2.048 1.088 2.208-.544 1.76-1.728 3.328-1.728 3.552 0 .288.128 1.28.416 1.28.704 0 2.208-3.296 2.464-4.224.256.128 1.408.352 2.144.384.192 0 .352.096.352.256 0 .064-.032.128-.064.224-.384.864-1.12 2.4-1.12 3.36 0 1.248.832 2.368 2.464 2.368 2.4 0 3.808-2.944 4.256-3.84.128-.256.192-.64.192-.992zm1.954-9.088c0-1.12-.8-2.048-1.824-2.08h-.096c-1.024 0-1.856.864-1.888 2.016v.096c0 1.152.768 2.048 1.824 2.08h.064c1.024 0 1.888-.896 1.92-2.016v-.096zm3.776 9.152v-.064c-.032-.576-.192-1.152-.416-1.152-.096 0-.16.064-.256.256-.992 1.856-2.304 3.712-3.2 3.712-.672 0-.832-1.216-.832-2.656 0-.992.096-2.656.096-3.584 0-.384-.032-.672-.064-.736-.16-.32-.64-.416-1.344-.416-.736 0-1.088.128-1.28.416-.16.256-.256 2.912-.256 3.648 0 3.04.864 5.344 3.072 5.344 2.432 0 3.84-2.944 4.288-3.84.128-.224.192-.576.192-.928zm11.983-.064c0-.576-.192-1.152-.416-1.152-.096 0-.16.064-.224.256-1.024 1.856-2.304 3.712-3.232 3.712-.544 0-.704-.928-.704-2.112 0-.736.032-1.152.032-1.152l.256-10.528c0-2.368-.064-3.872-.128-4.096-.096-.16-.608-.544-1.12-.544-.32 0-1.216.416-1.408.64-.16.416-.352 3.808-.352 6.784l.032 4.256c-.736-.384-1.568-.64-2.464-.64-2.816 0-5.12 2.112-5.12 4.704S101.859 28 104.675 28c1.344 0 2.528-.544 3.456-1.344.384.768.96 1.344 1.824 1.344 2.4 0 3.808-2.944 4.256-3.84.128-.256.192-.64.192-.992zm-7.104.128c0 1.408-.8 2.592-2.624 2.592-1.152 0-2.112-1.184-2.112-2.592 0-1.44.96-2.592 2.112-2.592 1.824 0 2.624 1.152 2.624 2.592z" fill="#232222"/>
<defs>
<path id="a" d="m24.828 18.006a1.31 1.31 0 0 0 1.308-1.308 1.31 1.31 0 0 0-1.308-1.308 1.31 1.31 0 0 0-1.308 1.308 1.31 1.31 0 0 0 1.308 1.308z"/>
</defs>
</svg>
