<svg xmlns="http://www.w3.org/2000/svg" width="164" height="96" fill="#ea552b" xmlnsV="https://vecta.io/nano"><path d="M59.08 66.859c-.046-.255-.059-.52-.041-.793l.027-.793a5.9 5.9 0 0 0-.055-.779l-.082-.807-.027-.697c.009-.219.041-.387.096-.506.073-.137.164-.242.274-.315a2.93 2.93 0 0 0 .314-.273.86.86 0 0 1 .314.109.64.64 0 0 1 .246.191.6.6 0 0 1 .15.232c.036.082.045.164.027.246.228.137.41.323.547.56.146.228.255.483.328.766.082.273.137.565.164.875l.082.916.068.861c.027.264.073.497.137.697l1.012-1.545.848-1.299.943-1.272c.355-.428.807-.911 1.353-1.449.118.018.21.041.273.068l.191.082c.064.027.132.05.205.068a1.2 1.2 0 0 0 .301-.014l.096.246a.95.95 0 0 1 .068.137l.068.178.123.328c.027.036.037.087.027.15a.77.77 0 0 1-.014.15.59.59 0 0 0-.014.109c.009.027.041.027.096 0-.036.155-.096.296-.178.424-.082.119-.118.264-.109.438l-.82 1.012-.902 1.094-.875 1.176a7.27 7.27 0 0 0-.697 1.285c-.055 0-.096.014-.123.041s-.055.059-.082.096a.71.71 0 0 1-.068.109c-.018.037-.055.055-.109.055-.018.292-.128.57-.328.834a4.67 4.67 0 0 1-.588.656.77.77 0 0 1 .027.178c0 .046-.005.091-.014.137l-.027.15c0 .046.005.105.014.178a1.62 1.62 0 0 1-.328.547c-.128.146-.269.255-.424.328s-.315.1-.479.082c-.164-.009-.319-.064-.465-.164-.064-.036-.118-.087-.164-.15a1.41 1.41 0 0 0-.15-.178.87.87 0 0 0-.15-.164c-.046-.055-.105-.091-.178-.109a.76.76 0 0 0 0-.287 1.21 1.21 0 0 0-.055-.273c-.027-.082-.059-.15-.096-.205s-.073-.082-.109-.082l-.15-.738-.178-.807-.137-.779c-.037-.255-.05-.492-.041-.711.009-.109-.014-.205-.068-.287-.046-.091-.078-.196-.096-.314zm9.994 4.184c.046.273.027.488-.055.642-.073.155-.182.269-.328.342-.137.082-.296.128-.478.137s-.356 0-.52-.027c-.091-.128-.173-.287-.246-.479l-.205-.588-.178-.615-.123-.533c.046-.109.073-.232.082-.369a3.51 3.51 0 0 0 .027-.437l.014-.437.041-.437a6.85 6.85 0 0 1 .273-1.094c.128-.346.228-.706.301-1.08a.34.34 0 0 0-.027-.232c-.027-.073-.032-.141-.014-.205.009-.037.036-.059.082-.068.046-.018.073-.05.082-.096.027-.1.032-.182.014-.246-.009-.064.009-.141.055-.233.046-.073.1-.178.164-.314.073-.146.1-.296.082-.451.082-.055.16-.118.232-.191s.146-.137.219-.191c.082-.064.169-.118.26-.164.1-.045.219-.068.355-.068.073.091.118.191.137.301l.068.328a1.83 1.83 0 0 0 .109.314c.046.091.123.164.233.219v.273l.014.328c.009.1.027.196.055.287a.29.29 0 0 0 .164.164l-.465 1.299a12.99 12.99 0 0 0-.342 1.299c-.091.428-.15.861-.178 1.299-.018.438.014.88.096 1.326zm4.389-1.531c-.082.018-.141.068-.178.15l-.109.232a1.79 1.79 0 0 1-.096.233.14.14 0 0 1-.137.096c-.009.073-.037.137-.082.191l-.109.178a.61.61 0 0 0-.082.191c-.018.064-.009.141.027.232-.073.055-.118.132-.137.232a2.65 2.65 0 0 1-.068.287.5.5 0 0 1-.109.232c-.055.064-.155.091-.301.082-.027.037-.032.059-.014.068s.032.041.041.096c-.1-.018-.178-.014-.232.014-.046.037-.105.059-.178.068-.173-.055-.319-.15-.437-.287-.109-.137-.21-.287-.301-.451l-.232-.519-.191-.451a.62.62 0 0 0 .014-.287c-.018-.1-.05-.182-.096-.246l1.463-3.035 1.504-3.186c.21.082.415.178.615.287.21.1.397.219.561.356.173.137.319.296.438.478a1.45 1.45 0 0 1 .232.588c-.018.055-.041.078-.068.068-.018-.018-.036-.014-.055.014.037.046.055.078.055.096.009.018.009.037 0 .055v.082c0 .027.014.068.041.123-.036-.009-.064-.005-.082.014-.009.018-.036.018-.082 0 .036.1.046.182.027.246-.009.064-.027.123-.055.178-.027.046-.05.1-.068.164-.018.055-.014.128.014.219-.027 0-.05.009-.068.027a.16.16 0 0 0-.027.041l-.041.041c-.009.009-.027.009-.055 0a3.32 3.32 0 0 1 .027.602l-.027.615.014.643a3.73 3.73 0 0 0 .096.684c.328-.191.588-.437.779-.738.201-.301.36-.638.478-1.012.128-.374.223-.775.287-1.203l.205-1.312a.85.85 0 0 0 .191-.301l.123-.369.109-.397c.037-.137.082-.26.137-.369a.68.68 0 0 1 .342.137 1.6 1.6 0 0 1 .273.219l.26.219c.091.064.205.105.342.123l.301.451a1.26 1.26 0 0 1 .178.465c-.046.073-.082.155-.109.246l-.068.273a1.31 1.31 0 0 1-.109.26.64.64 0 0 1-.191.191 6.16 6.16 0 0 1-.109.656l-.123.574-.096.602c-.027.2-.036.424-.027.67l-.232.67-.191.643c-.146.118-.26.26-.342.424l-.26.492c-.037.037-.059.046-.068.027s-.041-.032-.096-.041c.009.036.009.064 0 .082s-.023.037-.041.055c-.009.009-.018.027-.027.055 0 .027.009.064.027.109-.128.055-.242.132-.342.233a2.37 2.37 0 0 1-.328.273c-.109.082-.246.137-.41.164-.155.027-.36-.005-.615-.096a5.44 5.44 0 0 1-.998-.943c-.283-.355-.515-.779-.697-1.271zm13.07-1.613c-.009.109 0 .214.027.315l.096.301c.046.091.087.187.123.287s.064.201.082.301a1.64 1.64 0 0 1 0 .424c-.018.146-.05.292-.096.438a1.83 1.83 0 0 1-.178.383.74.74 0 0 1-.26.246c-.128.164-.283.292-.465.383a2.68 2.68 0 0 0-.506.328c-.1.064-.214.109-.342.137l-.369.082-.356.178-.424.164c-.146.046-.292.082-.437.109-.146.018-.273.023-.383.014-.273.1-.542.164-.807.191-.255.037-.556.018-.902-.055-.328.046-.633.032-.916-.041a2.28 2.28 0 0 1-.738-.342c-.21-.164-.397-.355-.561-.574a3.84 3.84 0 0 1-.383-.711c-.073-.52-.055-.989.055-1.408.109-.428.264-.82.465-1.176a6.15 6.15 0 0 1 .711-.998l.766-.902c.055.018.096.018.123 0 .036-.027.068-.059.096-.096l.082-.123c.037-.036.078-.059.123-.068a.63.63 0 0 1 .273-.301c.128-.073.228-.173.301-.301.082-.018.15-.045.205-.082a.99.99 0 0 0 .15-.123 1.93 1.93 0 0 1 .164-.123c.055-.046.118-.078.191-.096v-.15c.164-.073.283-.155.355-.246l.287-.356.191-.014a1.39 1.39 0 0 0 .232-.027c.073-.128.137-.223.191-.287.064-.064.155-.132.273-.205a1.15 1.15 0 0 0 .355.109c.137.018.255.078.356.178.009.091.037.164.082.219l.15.137c.055.036.105.078.15.123.055.046.091.109.109.191.036.009.059.004.068-.014.018-.018.046-.023.082-.014.027.128.059.214.096.26.036.037.073.114.109.232-.046.091-.082.187-.109.287-.018.091-.073.16-.164.205-.009.064.009.1.055.109.046 0 .073.023.082.068.009.082-.004.141-.041.178.219.355.415.734.588 1.135.173.392.369.766.588 1.121zm-1.709 1.299a.79.79 0 0 1 .137-.246c.064-.064.1-.159.109-.287-.046-.073-.073-.128-.082-.164-.009-.046-.014-.114-.014-.205a5.52 5.52 0 0 1-.519-.902c-.146-.328-.31-.633-.492-.916-.018.036-.05.073-.096.109s-.096.027-.15-.027c-.018.073-.05.128-.096.164-.046.027-.096.041-.15.041-.055-.009-.114-.023-.178-.041a.85.85 0 0 1-.15-.096l-.793.615c-.264.201-.501.433-.711.697-.037.018-.059.027-.068.027-.009-.009-.036-.005-.082.014-.073.173-.164.333-.273.478l-.301.424c-.1.146-.187.301-.26.465s-.114.355-.123.574c.155.128.337.205.547.232s.424.032.643.014l.656-.082c.219-.045.419-.068.602-.068.383-.091.711-.21.984-.356l.861-.465zm9.283-.889l-.027.123-.027.082c-.009.027-.014.064-.014.109v.15c-.273.483-.62.889-1.039 1.217a7.96 7.96 0 0 1-1.367.875l-1.545.684-1.572.656c-.219-.055-.387-.146-.506-.273-.109-.128-.196-.273-.26-.437-.055-.173-.096-.36-.123-.561l-.055-.643a.77.77 0 0 1 .109-.246c.055-.073.082-.173.082-.301l.219-.697c.073-.228.118-.46.137-.697.027-.073.078-.123.15-.15.046-.437.046-.88 0-1.326-.036-.456-.109-.88-.219-1.271l.027-.191c.018-.046.018-.078 0-.096-.009-.073.014-.109.068-.109h.191a1.1 1.1 0 0 0-.082-.41l-.137-.465a1.41 1.41 0 0 0 .123-.397c.018-.137.059-.255.123-.355a10.07 10.07 0 0 1 1.408.561 6.42 6.42 0 0 0 1.34.478l1.012.711c.346.228.661.483.943.766a3.83 3.83 0 0 1 .711.943c.191.356.301.779.328 1.272zm-3.24.752l.561-.232a3.48 3.48 0 0 0 .52-.273c.164-.109.31-.232.438-.369s.232-.301.314-.492c-.055-.109-.128-.205-.219-.287-.091-.091-.182-.173-.274-.246l-.273-.246c-.082-.082-.15-.182-.205-.301-.118-.018-.223-.05-.314-.096l-.273-.15a1.94 1.94 0 0 0-.273-.15c-.091-.046-.2-.073-.328-.082-.201-.1-.383-.173-.547-.219-.155-.046-.273-.105-.355-.178-.064 0-.114.014-.15.041.091.346.159.674.205.984.046.301.068.606.068.916a6.47 6.47 0 0 1-.041.93l-.15 1.039a.98.98 0 0 0 .246-.055l.232-.109.246-.096c.091-.037.196-.059.314-.068.027-.055.064-.1.109-.137.055-.037.105-.078.15-.123zm3.582.902c.055.046.146.1.273.164l.424.178.41.15c.128.046.219.073.273.082.1.182.155.346.164.492l.068.438c-.046.046-.078.123-.096.232l-.014.219c-.009.073-.027.114-.055.123-.027.018-.05.059-.068.123-.009.018-.005.045.014.082s.023.064.014.082c-.009.046-.032.068-.068.068-.027.009-.05.036-.068.082a.65.65 0 0 1-.082.178c-.009.027-.018.041-.027.041 0 .009-.009.018-.027.027l-.082.164a2.5 2.5 0 0 1-.233.397 1.16 1.16 0 0 0-.178.396l-.479.41c-.182.173-.355.292-.519.355l-.383-.178c-.182-.082-.351-.173-.506-.273a1.2 1.2 0 0 1-.369-.328.23.23 0 0 1 .027-.328c.164-.173.31-.383.438-.629a5.82 5.82 0 0 0 .314-.766l.246-.861.191-.861c.037.036.073.05.109.041a.72.72 0 0 0 .109-.068.64.64 0 0 0 .096-.123c.027-.046.055-.082.082-.109zM59.272 90.811a2.49 2.49 0 0 1-.656-.752 4.92 4.92 0 0 1-.396-.957 6.53 6.53 0 0 1-.192-1.039L58 87.023c.082-.246.182-.469.301-.67a4.42 4.42 0 0 1 .396-.588 6.62 6.62 0 0 1 .451-.533l.479-.519c.055 0 .105.014.15.041a.7.7 0 0 1 .164-.26c.073-.073.15-.137.232-.191l.246-.178a.93.93 0 0 0 .205-.219c.228-.055.428-.132.602-.232a5 5 0 0 0 .52-.328 5.97 5.97 0 0 1 .506-.328 2.23 2.23 0 0 1 .601-.232c.082-.091.182-.169.301-.233l.369-.178c.128-.055.246-.114.355-.178a.79.79 0 0 0 .287-.26c.055.073.132.1.232.082l.273-.082c.055-.009.1 0 .137.027s.068.059.096.096c.036.027.064.046.082.055.027.009.055-.018.082-.082.073.009.091.041.055.096l-.055.109c.091-.018.164 0 .219.055.064.045.16.077.287.096.046.046.059.082.041.109s-.032.073-.041.137c.328.1.538.26.629.478.091.21.1.433.027.67-.073.228-.21.442-.41.643-.191.191-.406.319-.643.383l-.793.219-.697.246a4.13 4.13 0 0 0-.629.328c-.191.118-.36.26-.506.424-.255.073-.488.173-.697.301a5.18 5.18 0 0 0-.574.424l-.506.492-.492.492c0 .155-.027.273-.082.355l-.178.246a1.56 1.56 0 0 0 .109.451l.191.369c.729.219 1.499.356 2.311.41l2.434.082a2.93 2.93 0 0 0 .273.315c.109.091.205.187.287.287.091.1.159.219.205.356a.85.85 0 0 1 .041.465c-.155.155-.324.305-.506.451l-.547.41a1.63 1.63 0 0 1-.301 0l-.356-.014c-.118 0-.241.009-.369.027-.118.009-.232.037-.342.082a10.91 10.91 0 0 1-1.764-.205c-.602-.128-1.157-.278-1.668-.451a3.57 3.57 0 0 0-.314-.328c-.109-.109-.255-.187-.437-.233zm7.916.725a.7.7 0 0 1-.164-.26c-.027-.1-.1-.182-.219-.246l-.082-.465-.096-.547-.068-.561a2.36 2.36 0 0 1 .027-.519c.018-.082.046-.159.082-.232l.123-.205a.76.76 0 0 0 .096-.219.36.36 0 0 0 .014-.219c.055-.009.087-.037.096-.082.018-.055.064-.073.137-.055l.205-.561.232-.506.246-.492c.091-.173.173-.365.246-.574-.155-.146-.269-.301-.342-.465-.064-.173-.114-.346-.15-.52s-.064-.346-.082-.519c-.018-.182-.055-.365-.109-.547a1.37 1.37 0 0 1 .397-.397 2.04 2.04 0 0 1 .506-.26 3.2 3.2 0 0 1 .615-.164l.697-.15 1.176-.315 1.012-.191 1.025-.137 1.23-.191c.009.027.023.041.041.041h.096c.027.064.078.096.15.096 0-.027-.005-.05-.014-.068v-.068c.018 0 .041.005.068.014.037.009.064.018.082.027.027.009.05.009.068 0 .018-.018.023-.05.014-.096a1.53 1.53 0 0 0 .424.478c.173.118.365.223.574.314a.56.56 0 0 1 0 .178c0 .037-.004.073-.014.109-.009.027-.014.064-.014.109a.75.75 0 0 0 .027.164c-.146.246-.314.438-.506.574-.182.137-.378.242-.588.314s-.433.128-.67.164l-.711.123a5.5 5.5 0 0 0-.725.164c-.246.073-.488.182-.725.328-.073-.027-.141-.037-.205-.027a.65.65 0 0 0-.178.027l-.219.055c-.073.018-.164.018-.273 0-.073.064-.159.109-.26.137l-.287.082a.59.59 0 0 1 .055.301.74.74 0 0 0 .041.26 7.4 7.4 0 0 0 1.272 0l1.367-.096c.009.046.005.078-.014.096s-.027.05-.027.096a1.21 1.21 0 0 1 .232.205l.219.246c.082.073.164.137.246.191.082.045.178.064.287.055.046.091.078.187.096.287a.55.55 0 0 1-.041.314l-.533.369a5.44 5.44 0 0 1-.547.328c-.182.1-.383.182-.602.246a2.24 2.24 0 0 1-.711.082h-.123c-.027 0-.064-.018-.109-.055-.091.046-.214.064-.369.055a.68.68 0 0 0-.369.041c-.128-.046-.278-.068-.451-.068-.164 0-.31-.023-.437-.068a8.72 8.72 0 0 0-.465.752 5.65 5.65 0 0 0-.383.82c.374.055.684.077.93.068l.697-.055.67-.082c.237-.027.524-.037.861-.027a2.51 2.51 0 0 1 .779-.219c.301-.046.579-.109.834-.191.091.027.169.082.232.164a2.24 2.24 0 0 1 .178.232 1.9 1.9 0 0 0 .191.191c.064.055.146.073.246.055.046.046.073.1.082.164.018.064.032.123.041.178.018.055.041.1.068.137.027.027.077.037.15.027-.173.356-.369.629-.588.82a2.37 2.37 0 0 1-.725.451c-.264.1-.565.178-.902.232l-1.107.178a.62.62 0 0 1-.26 0c-.064-.027-.132-.041-.205-.041l-.916.137a6.73 6.73 0 0 1-1.053.055c-.355-.009-.697-.055-1.025-.137s-.602-.228-.82-.437zm11.17.519A2.7 2.7 0 0 1 77.264 92a2.76 2.76 0 0 1-.889-.424 3.18 3.18 0 0 1-.67-.684 4.2 4.2 0 0 1-.451-.848c-.082-.62-.059-1.18.068-1.682.128-.51.314-.98.561-1.408a8.56 8.56 0 0 1 .834-1.203l.916-1.08c.064.027.114.027.15 0 .046-.027.082-.064.109-.109l.109-.137c.046-.046.096-.078.15-.096.037-.082.082-.15.137-.205l.191-.15a1.79 1.79 0 0 0 .191-.164c.064-.055.119-.123.164-.205.091-.018.169-.05.233-.096.073-.046.137-.096.191-.15l.191-.15c.064-.046.141-.082.232-.109v-.178c.201-.091.346-.191.438-.301l.328-.424.232-.014a2.22 2.22 0 0 0 .287-.027c.082-.155.159-.269.232-.342s.178-.155.314-.246a1.23 1.23 0 0 0 .438.137c.155.009.296.078.424.205.009.109.041.196.096.26l.178.164.191.15c.064.055.105.132.123.232.046 0 .073-.009.082-.027.018-.018.05-.023.096-.014.018.073.036.132.055.178l.055.123c.027.036.05.077.068.123.027.046.05.1.068.164-.046.109-.087.228-.123.355a.37.37 0 0 1-.219.246c0 .073.027.114.082.123.055 0 .087.032.096.096a.3.3 0 0 1-.041.205 12.6 12.6 0 0 1 .697 1.353 11.74 11.74 0 0 0 .711 1.34 1.08 1.08 0 0 0 .014.383l.123.355.15.356c.046.118.078.237.096.355.018.155.018.324 0 .506a2.38 2.38 0 0 1-.109.506 2.17 2.17 0 0 1-.219.465c-.091.137-.196.242-.315.315a1.77 1.77 0 0 1-.547.451 2.99 2.99 0 0 0-.602.397 1.61 1.61 0 0 1-.41.164l-.451.096c-.118.073-.26.146-.424.219l-.506.178-.52.137c-.173.027-.328.032-.465.014-.328.118-.647.201-.957.246s-.674.023-1.094-.068zm.178-4.977a2.94 2.94 0 0 1-.328.574l-.355.506c-.119.173-.223.36-.315.561-.082.191-.128.419-.137.683.182.155.396.251.643.287.255.027.515.032.779.014l.793-.109c.264-.046.501-.068.711-.068 0-.082.036-.123.109-.123.383-.036.738-.141 1.066-.314l1.025-.547c.046-.109.105-.205.178-.287s.114-.201.123-.356a1.29 1.29 0 0 1-.096-.205 1.63 1.63 0 0 1-.014-.246c-.237-.328-.442-.684-.615-1.066-.173-.392-.374-.761-.602-1.108-.018.046-.055.091-.109.137s-.114.036-.178-.027c-.027.091-.068.155-.123.191-.055.027-.119.041-.191.041-.064 0-.132-.014-.205-.041-.064-.027-.123-.064-.178-.109l-.957.738a4.89 4.89 0 0 0-.848.834c-.046.027-.073.037-.082.027s-.041-.005-.096.014zm19.797.574c.137.009.233.041.287.096.064.046.105.105.123.178.027.064.036.137.027.219a1.88 1.88 0 0 0-.014.233c-.137.091-.31.169-.52.232-.201.055-.424.1-.67.137l-.779.082-.793.014-.164.82c-.064.292-.169.638-.314 1.039-.128.282-.273.483-.437.602a.92.92 0 0 1-.52.164c-.173 0-.351-.041-.533-.123a4.84 4.84 0 0 1-.52-.301 2.65 2.65 0 0 1-.014-.711l.123-.902c-.055-.109-.128-.182-.219-.219-.091-.045-.191-.068-.301-.068a1 1 0 0 0-.287.014.85.85 0 0 0-.191.055c-.173-.009-.355-.05-.547-.123-.182-.073-.36-.155-.533-.246a3.75 3.75 0 0 1-.465-.315 1.54 1.54 0 0 1-.287-.342c.045-.073.055-.178.027-.314-.018-.137-.068-.237-.15-.301.073-.018.123-.073.15-.164.037-.091.041-.159.014-.205a.54.54 0 0 0 .342-.26l.314-.465c.118-.164.283-.319.492-.465.21-.155.52-.26.93-.314l.629.369.397.205.246.109c.009-.037.036-.064.082-.082.055-.018.087-.05.096-.096.037-.119.046-.21.027-.273-.018-.073 0-.159.055-.26l.178-.273c.082-.118.114-.264.096-.437a1.84 1.84 0 0 0 .246-.205c.082-.082.164-.155.246-.219.091-.073.187-.132.287-.178.109-.055.242-.082.397-.082.082.1.141.196.178.287l.109.26a1.19 1.19 0 0 0 .137.232c.064.073.155.141.273.205a.92.92 0 0 1-.027.301l-.068.355a1.23 1.23 0 0 0-.014.315c.009.091.055.15.137.178l-.205.588c.155.027.333.046.533.055.201 0 .392.014.574.041s.346.082.492.164c.155.082.264.214.328.396zm-5.769-.068c0 .082.068.123.205.123h.109l.137-.027.137-.027a.98.98 0 0 0-.137-.137 1.27 1.27 0 0 0-.137-.096c-.036-.036-.073-.055-.109-.055s-.082.032-.137.096c-.046.064-.068.105-.068.123zm17.459 1.641c-.273-.155-.483-.374-.628-.656s-.228-.551-.247-.807c.028-.219.087-.387.178-.506.082-.128.183-.228.301-.301a1.25 1.25 0 0 1 .369-.178 3.38 3.38 0 0 1 .369-.109l.205.068.137.123.15.109c.092-.037.146-.091.165-.164l.082-.219.095-.301a2.22 2.22 0 0 1 .137-.301c-.009-.082-.005-.155.014-.219l.054-.164c-.054-.046-.095-.068-.123-.068-.018-.009-.054-.023-.109-.041h-.082l-.096-.027c-.137-.1-.228-.182-.273-.246l-.123-.219-.123-.191c-.037-.055-.078-.105-.123-.15l-.164-.109.082-.164c.018-.018.027-.041.027-.068 0-.037-.018-.087-.055-.15-.027-.118-.032-.205-.013-.26l.027-.164.15-.205.137-.137.643-.178.642-.219.643-.219.656-.191a.42.42 0 0 1 .232-.109l.247-.041c.063 0 .123-.005.177-.014s.096-.032.123-.068l.451-.137 1.081-.26a10.99 10.99 0 0 1 1.503-.219l.288-.014a.99.99 0 0 0 .164.014.99.99 0 0 1 .164-.014c.474 0 .788.146.943.438.091.046.173.105.246.178l.205.191.123.123.096.068.109.109c.101.219.119.433.055.643-.055.109-.114.173-.178.191l-.191.055-.178.096-.273-.014h-.192c-.273 0-.592.018-.957.055l-1.093.137c-.374.055-.739.128-1.094.219-.356.082-.666.173-.93.273-.073.055-.169.105-.287.15-.027.009-.068.032-.123.068a.89.89 0 0 1 0 .219c-.009.064-.023.128-.041.191l-.027.15c0 .046-.005.096-.014.15-.192.228-.283.497-.274.807l-.068.137c-.036.036-.068.091-.096.164-.018.064-.018.132 0 .205l.055.164.533-.055.575-.082.765-.109a5.99 5.99 0 0 1 .82-.055h.534l-.123.123.15.014-.082.219c.064.027.109.05.137.068.036.009.068.023.095.041l.096.137c.046.027.087.073.123.137.037.055.059.132.068.232l-.041.137-.642.82-.082.109-.137-.041a1.46 1.46 0 0 0-.492.055l-.232.068a1.14 1.14 0 0 1-.247.027l-.546.096-.438.055-.588.109c-.182.027-.355.073-.519.137l-.178.014c-.018-.009-.037-.014-.055-.014-.091 0-.182.014-.273.041l-.26.082c-.055.046-.091.096-.109.15l-.055.15c-.018.064-.046.128-.082.191-.027.055-.064.114-.109.178l.013.246c-.082.018-.123.032-.123.041-.013.073-.027.141-.055.205l-.054.178a.76.76 0 0 0-.041.096c-.009.027-.014.055-.014.082.091.164.114.351.068.561-.036.173-.104.328-.205.465a1.11 1.11 0 0 1-.355.301c-.146.018-.255.014-.328-.014l-.205-.082c-.046-.018-.091-.032-.137-.041-.046-.018-.091-.032-.137-.041l-.164-.137a.85.85 0 0 0-.095-.15l-.11-.164-.137-.191c-.045-.064-.086-.137-.123-.219-.063-.319-.077-.583-.041-.793.046-.219.105-.433.178-.642l.055-.205.054-.205zm15.149-1.326c-.009.109 0 .214.027.315l.096.301a2.54 2.54 0 0 1 .123.287c.036.1.064.201.082.301.018.128.018.269 0 .424a2.45 2.45 0 0 1-.096.438 1.8 1.8 0 0 1-.177.383c-.073.109-.16.191-.26.246a1.35 1.35 0 0 1-.465.383 2.69 2.69 0 0 0-.506.328 1.03 1.03 0 0 1-.342.137l-.369.082-.355.178-.424.164a3.85 3.85 0 0 1-.438.109 1.87 1.87 0 0 1-.382.014c-.274.1-.543.164-.807.191-.255.037-.556.018-.902-.055-.329.046-.634.032-.916-.041a2.28 2.28 0 0 1-.739-.342c-.209-.164-.396-.355-.56-.574-.155-.228-.283-.465-.383-.711-.073-.52-.055-.989.055-1.408a4.8 4.8 0 0 1 .464-1.176c.21-.365.447-.697.711-.998l.766-.902c.055.018.096.018.123 0a.48.48 0 0 0 .096-.096c.027-.046.054-.087.082-.123.036-.036.077-.059.123-.068.064-.137.155-.237.273-.301.128-.073.228-.173.301-.301.082-.018.15-.045.205-.082a1 1 0 0 0 .151-.123 1.78 1.78 0 0 1 .164-.123c.054-.046.118-.078.191-.096v-.15c.164-.073.283-.155.356-.246l.287-.356.191-.014a1.38 1.38 0 0 0 .232-.027c.073-.128.137-.223.192-.287.064-.064.155-.132.273-.205a1.16 1.16 0 0 0 .356.109c.136.018.255.078.355.178.009.091.037.164.082.219l.151.137a1.04 1.04 0 0 1 .15.123.33.33 0 0 1 .109.191c.037.009.06.004.069-.014.018-.018.045-.023.082-.014.027.128.059.214.095.26.037.037.073.114.11.232-.046.091-.082.187-.11.287-.018.091-.072.16-.164.205-.009.064.01.1.055.109.046 0 .073.023.082.068.009.082-.004.141-.041.178.219.355.415.734.588 1.135.173.392.369.766.588 1.121zm-1.709 1.299c.036-.1.082-.182.137-.246.063-.064.1-.159.109-.287-.046-.073-.073-.128-.082-.164-.009-.046-.014-.114-.014-.205a5.57 5.57 0 0 1-.519-.902 6.77 6.77 0 0 0-.492-.916c-.019.036-.051.073-.096.109s-.096.027-.15-.027c-.019.073-.051.128-.096.164a.29.29 0 0 1-.151.041 1.61 1.61 0 0 1-.177-.041.86.86 0 0 1-.151-.096l-.793.615a3.98 3.98 0 0 0-.711.697c-.036.018-.059.027-.068.027-.009-.009-.036-.005-.082.014-.073.173-.164.333-.273.478l-.301.424c-.1.146-.187.301-.26.465s-.114.355-.123.574c.155.128.337.205.547.232s.424.032.642.014l.657-.082c.218-.045.419-.068.601-.068.383-.091.711-.21.985-.356l.861-.465zm10.336-4.977c.018.201.05.374.096.52l.15.424.123.383a1.75 1.75 0 0 1 .096.438 5.63 5.63 0 0 0-.164.656l-.096.629-.424.848-.328.643a.74.74 0 0 0-.123.164l-.096.178c-.018.027-.041.068-.068.123s-.05.091-.068.109l-.274-.096-.055.342-.191.055-.137.164c-.173.301-.355.556-.547.766-.191.201-.41.383-.656.547a5.7 5.7 0 0 1-.82.438l-1.026.451a3.54 3.54 0 0 0-.41-.027l-.314-.027c-.173 0-.388-.014-.643-.041-.027-.073-.068-.123-.123-.15a.34.34 0 0 0-.15-.041.8.8 0 0 1-.356-.315l-.218-.465-.137-.273-.15-.273.232-.068-.301-.328c-.018-.027-.041-.05-.068-.068-.028-.027-.05-.055-.069-.082l-.013-.219-.041-1.723c.009-.529.082-.998.218-1.408v-.15l.083-.492.068-.383a3.31 3.31 0 0 1 .123-.56c.128-.027.223-.078.287-.15l.164-.219c.128-.009.214.009.26.055a.78.78 0 0 1 .137.219l.164.273c.073.1.177.178.314.233l.068.232.11.246a3.82 3.82 0 0 1 .191.492c.064.164.1.323.11.478a2.56 2.56 0 0 0-.219.602c-.046.228-.078.46-.096.697a5.51 5.51 0 0 0 .014.67 2.39 2.39 0 0 0 .123.533l.082.178.232-.027.739-.232a4.12 4.12 0 0 0 .629-.314c.191-.118.373-.255.546-.41l.547-.561c.192-.21.356-.447.492-.711.146-.273.265-.556.356-.848a5.26 5.26 0 0 0 .219-.861c.054-.292.091-.565.109-.82.155-.055.232-.164.232-.328l-.027-.15c-.036-.055-.036-.118 0-.191.055-.173.182-.305.383-.396.146.091.273.191.383.301l.328.328zm2.926 5.291c-.082.018-.142.068-.178.15l-.109.232a1.94 1.94 0 0 1-.096.233c-.028.064-.073.096-.137.096a.36.36 0 0 1-.082.191l-.109.178a.59.59 0 0 0-.082.191.36.36 0 0 0 .027.232.36.36 0 0 0-.137.232c-.018.1-.041.196-.068.287-.018.091-.055.169-.109.232s-.155.091-.301.082c-.028.037-.032.059-.014.068s.032.041.041.096c-.1-.018-.178-.014-.232.014a.35.35 0 0 1-.178.068.95.95 0 0 1-.438-.287 3.25 3.25 0 0 1-.3-.451l-.233-.519-.191-.451c.027-.1.032-.196.014-.287-.019-.1-.051-.182-.096-.246l1.463-3.035 1.504-3.186a5.45 5.45 0 0 1 .615.287c.21.1.396.219.56.356a1.98 1.98 0 0 1 .438.478 1.45 1.45 0 0 1 .232.588c-.018.055-.041.078-.068.068-.018-.018-.036-.014-.055.014.037.046.055.078.055.096.009.018.009.037 0 .055v.082c0 .027.014.068.041.123-.036-.009-.064-.005-.082.014-.009.018-.036.018-.082 0 .036.1.046.182.027.246a.58.58 0 0 1-.054.178.65.65 0 0 0-.069.164c-.018.055-.013.128.014.219-.027 0-.05.009-.068.027-.01.009-.019.023-.028.041l-.041.041c-.009.009-.027.009-.055 0 .028.2.037.401.028.602l-.028.615.014.643a3.7 3.7 0 0 0 .096.684c.328-.191.588-.437.779-.738.201-.301.36-.638.479-1.012.127-.374.223-.775.287-1.203l.205-1.312a.84.84 0 0 0 .191-.301l.123-.369.11-.397a1.96 1.96 0 0 1 .136-.369c.137.018.251.064.342.137.1.064.192.137.274.219l.259.219c.092.064.205.105.342.123l.301.451c.091.146.15.301.178.465-.046.073-.082.155-.11.246l-.068.273a1.32 1.32 0 0 1-.109.26c-.046.073-.11.137-.192.191-.027.237-.064.456-.109.656l-.123.574-.096.602a3.96 3.96 0 0 0-.027.67l-.233.67-.191.643c-.146.118-.26.26-.342.424l-.26.492c-.036.037-.059.046-.068.027s-.041-.032-.096-.041c.009.036.009.064 0 .082s-.022.037-.041.055c-.009.009-.018.027-.027.055 0 .027.009.064.027.109a1.1 1.1 0 0 0-.342.233 2.33 2.33 0 0 1-.328.273c-.109.082-.246.137-.41.164-.155.027-.36-.005-.615-.096-.374-.273-.706-.588-.998-.943-.283-.355-.515-.779-.697-1.271zm11.839-1.203l-.027.123-.027.082c-.009.027-.014.064-.014.109v.15a4.07 4.07 0 0 1-1.039 1.217c-.41.328-.866.62-1.367.875l-1.545.684-1.572.656c-.219-.055-.388-.146-.506-.273-.11-.128-.196-.273-.26-.437-.055-.173-.096-.36-.123-.561l-.055-.643c.028-.1.064-.182.11-.246.054-.073.082-.173.082-.301l.219-.697c.072-.228.118-.46.136-.697.028-.073.078-.123.151-.15a6.53 6.53 0 0 0 0-1.326c-.037-.456-.11-.88-.219-1.271l.027-.191c.018-.046.018-.078 0-.096-.009-.073.014-.109.069-.109h.191a1.09 1.09 0 0 0-.082-.41l-.137-.465a1.4 1.4 0 0 0 .123-.397c.018-.137.06-.255.123-.355a10.11 10.11 0 0 1 1.409.561c.455.219.902.378 1.339.478l1.012.711c.346.228.661.483.943.766a3.81 3.81 0 0 1 .711.943c.192.356.301.779.328 1.272zm-3.24.752l.561-.232a3.49 3.49 0 0 0 .519-.273c.164-.109.31-.232.438-.369s.232-.301.314-.492a.95.95 0 0 0-.218-.287l-.274-.246-.273-.246a1.02 1.02 0 0 1-.205-.301c-.119-.018-.224-.05-.315-.096l-.273-.15c-.082-.055-.173-.105-.274-.15-.091-.046-.2-.073-.328-.082-.2-.1-.383-.173-.547-.219-.155-.046-.273-.105-.355-.178-.064 0-.114.014-.151.041.092.346.16.674.205.984a6.05 6.05 0 0 1 .069.916c.009.301-.005.611-.041.93l-.151 1.039c.092-.009.174-.027.247-.055l.232-.109.246-.096c.091-.037.196-.059.314-.068a.41.41 0 0 1 .11-.137.94.94 0 0 0 .15-.123zm10.951-4.758c.01.064.01.114 0 .15a.26.26 0 0 1-.013.082v.096c0 .027.009.073.027.137-.191.31-.415.524-.67.643-.246.109-.515.191-.806.246l-.903.15c-.301.055-.601.173-.902.355a.41.41 0 0 0-.328 0c-.091.046-.228.059-.41.041-.055.055-.123.096-.206.123a2.48 2.48 0 0 0-.246.068.49.49 0 0 1 .041.26.46.46 0 0 0 .041.205 5.87 5.87 0 0 0 1.053-.014l1.149-.068c.009.046.004.078-.014.096-.018.009-.023.032-.014.068a1.14 1.14 0 0 1 .192.178l.191.191c.064.064.128.118.191.164.073.037.155.05.247.041a.71.71 0 0 1 .068.246.44.44 0 0 1-.027.26l-.438.314c-.146.1-.301.191-.465.273a2.78 2.78 0 0 1-.506.205c-.173.046-.369.064-.587.055h-.11c-.018 0-.045-.014-.082-.041-.073.046-.178.059-.314.041-.128-.018-.228-.005-.301.041a.77.77 0 0 0-.369-.055 1.16 1.16 0 0 1-.369-.055c-.146.191-.278.397-.397.615s-.223.451-.314.697c.31.046.565.064.765.055l.588-.041.561-.068a4.31 4.31 0 0 1 .724-.027c.183-.1.397-.164.643-.191.255-.036.488-.091.697-.164a.43.43 0 0 1 .192.15l.15.191.164.15c.055.045.123.064.205.055a.24.24 0 0 1 .068.137.71.71 0 0 1 .041.137c.01.046.023.087.041.123.028.027.069.037.124.027-.137.301-.297.533-.479.697a1.81 1.81 0 0 1-.602.355c-.227.082-.483.146-.765.191l-.916.164c-.082.018-.151.014-.205-.014a.61.61 0 0 0-.192-.027 8.6 8.6 0 0 1-.752.123 5.74 5.74 0 0 1-.888.041c-.301-.009-.588-.05-.862-.123-.273-.064-.496-.182-.67-.355-.072-.064-.123-.137-.15-.219-.018-.091-.077-.16-.178-.205-.009-.119-.027-.251-.054-.397l-.082-.451-.069-.478c-.009-.155 0-.296.028-.424a.9.9 0 0 1 .164-.369c.091-.109.123-.228.095-.355.046-.009.073-.032.082-.068.01-.046.046-.064.11-.055l.178-.465.191-.424.205-.41c.073-.146.141-.305.205-.478a1.24 1.24 0 0 1-.287-.383 2.67 2.67 0 0 1-.123-.424l-.068-.438c-.019-.155-.051-.31-.096-.465a1.12 1.12 0 0 1 .328-.328c.137-.091.283-.164.437-.219a3.72 3.72 0 0 1 .506-.137l.575-.123.97-.273.848-.15.875-.123 1.025-.164c.082.082.16.123.233.123.036-.082.077-.105.123-.068.054.027.077 0 .068-.082a1.43 1.43 0 0 0 .342.397 2.68 2.68 0 0 0 .478.26zm1.737 6.275l-.274.834c-.073.182-.187.374-.341.574-.119-.018-.201-.004-.247.041a.94.94 0 0 1-.15.123c-.082.018-.141.018-.178 0a.36.36 0 0 1-.095-.068l-.11-.068c-.036-.018-.095-.027-.177-.027-.019-.073-.042-.141-.069-.205-.018-.064-.077-.087-.178-.068a.41.41 0 0 0 .014-.178.49.49 0 0 0-.041-.137l-.027-.123c-.009-.046-.005-.1.013-.164-.045 0-.082-.032-.109-.096a1.71 1.71 0 0 0-.096-.191l.082-.465.096-.41c.046-.128.082-.255.109-.383s.014-.26-.041-.397c.037.027.064.023.082-.014.019-.046.032-.1.041-.164.01-.073.014-.141.014-.205 0-.073-.004-.132-.014-.178.092-.237.165-.478.219-.725l.164-.752.164-.725c.055-.237.128-.456.219-.656.1-.018.21-.005.328.041.128.036.205.087.233.15.237-.182.446-.401.629-.656l.56-.766a4.28 4.28 0 0 1 .629-.656c.237-.191.533-.305.889-.342l.601.424c.228.137.415.319.561.547.073.037.132.078.178.123l.191.123v.164a1.13 1.13 0 0 1 .26.355c.073.128.136.269.191.424l.164.451c.055.146.119.287.192.424-.019.046-.028.087-.028.123a.41.41 0 0 0 .014.096c.018.037.032.073.041.109s.009.087 0 .15c-.027.401-.16.725-.397.971a2.85 2.85 0 0 1-.834.615c-.328.155-.679.287-1.052.396a9.26 9.26 0 0 0-1.012.356c0 .037.014.055.041.055.036 0 .05.023.041.068l.52.328.355.205.369.15.561.137.547.137.369.082.328.055.492.041c.082.082.15.182.205.301.064.109.105.223.123.342a1.34 1.34 0 0 1 .014.328c-.009.1-.041.182-.096.246.009.027.027.041.055.041a.22.22 0 0 1 .109 0c-.055.036-.1.082-.137.137l-.109.164c-.036.055-.077.1-.123.137a.31.31 0 0 1-.191.082c-.283.109-.638.114-1.067.014-.428-.091-.97-.264-1.627-.519l-.806-.328-.534-.287-.41-.315-.437-.396zm1.955-4.689a2.35 2.35 0 0 1-.342.397l-.355.369c-.11.118-.21.255-.301.41a1.48 1.48 0 0 0-.192.52c.319-.037.652-.123.998-.26l.985-.41c-.037-.283-.137-.511-.301-.684-.155-.173-.319-.287-.492-.342z"/><path d="M41.498 33.533l4.278 2.849c-1.259-1.2-2.696-2.138-4.278-2.849zm-7.369-8.51l4.392 3.91c-1.083-1.739-2.704-2.876-4.392-3.91zm-1.915 7.361c-.616.445-.247.782.074 1.104 1.083 1.09 2.491 1.019 3.836.937.98-.059 1.992-.245 2.833-.854.321-.232.51-.505-.022-.747-1.454-.662-2.958-1.112-4.575-1.041-.77.034-1.511.21-2.146.601zm5.58-2.922c-.689-1.03-1.671-1.779-2.62-2.551-4.1-3.334-8.861-5.171-13.985-6.234-3.423-.71-6.88-1.087-10.357-1.343-.317-.024-.639-.035-.914-.221-.309-.209-.435-.425.041-.572.117-.037.299.028.223-.188-.265-.746.3-.91.782-1.101.905-.359 1.875-.296 2.816-.324 2.635-.079 5.276-.058 7.891.309 2.428.341 4.779 1.03 7.109 1.784 1.483.48 2.986.989 4.206 1.946.81.636 1.776.918 2.576 1.531 1.533 1.176 3.048 2.363 4.293 3.857 1.024 1.23 1.671 2.63 1.862 4.221.063.524.305.881.736 1.14 1.162.699 2.306 1.437 3.43 2.184 1.829 1.215 3.457 2.716 5.016 4.269 2.487 2.477 4.693 5.17 6.212 8.368.893 1.88 1.651 3.791 1.324 5.944-.086.567-.268 1.075-.765 1.421-.214.149-.422.201-.662.061-.283-.166-.127-.314-.053-.543.508-1.566-.258-2.892-.881-4.229-1.717-3.685-4.383-6.641-7.296-9.401-2.229-2.112-4.643-3.986-7.273-5.575-.209-.126-.388-.381-.618.024-.802 1.413-2.084 2.234-3.59 2.689-2.323.701-4.608.729-6.646-.827-1.095-.836-1.276-1.802-.834-3.098 1.126-3.303 4.258-4.278 7.091-3.572l.76.19.127-.158zm-31.127-8.63c-1.316-.953-2.732-1.707-4.291-2.17l4.291 2.17zm3.315-6.457c-1.342.953-2.824 1.659-4.274 2.422-.217.114-.531.133-.52.503.011.356.312.413.535.494 1.212.443 2.226 1.216 3.317 1.869.689.412 1.462.697 2.157 1.142l3.31 1.902c.566.309.962.87 1.678.973.702.101.904.626.598 1.62-.156.508-.537.951-1.182.765-.53-.154-1.058-.351-1.547-.605l-9.7-5.069-2.224-1.05c-1.354-.623-1.53-1.182-.885-2.532.501-1.048 1.289-1.688 2.385-2.048 2.11-.694 4.2-1.447 6.15-2.53.391-.217.751-.489 1.133-.722.443-.27.693-.154.714.383.046 1.191-.086 1.393-1.645 2.483z" fill-rule="evenodd"/></svg>