<svg xmlns="http://www.w3.org/2000/svg" width="40" height="39" fill="none" xmlnsV="https://vecta.io/nano"><path d="M15.115 2.192s6.469-5.209 12.788.432c0 0 8.283.571 6.212 7.733 0 0 7.667 2.789 4.354 10.628 0 0 4.39 6.677-2.852 9.596 0 0 .334 6.715-7.221 4.922 0 0-3.55 6.23-9.194.929 0 0-8.037 7.203-12.075-2.52 0 0-8.641-1.748-5.402-9.336 0 0-5.774-7.049 3.798-12.921-.012 0-.834-8.898 9.59-9.463z" fill="#232222"/><path d="M11.641 10.908c-1.665 2.151-1.775 5.118-1.183 7.691.168.824.468 1.616.887 2.346.592.953 1.509 1.606 2.662 1.562.513-.022 1.016-.147 1.479-.37.784-.376 1.364-1.065 2.156-1.423 1.234-.562 2.624-.683 3.937-.343 1.358.355 2.393 1.183 3.55 1.949 1.275.849 2.683 1.077 3.931.065 1.532-1.242 1.961-3.298 2.213-5.159.216-1.603.207-3.254-.387-4.78-.063-.179-.149-.349-.254-.506-.317-.435-.822-.737-1.183-1.136-.468-.502-.879-1.055-1.225-1.648 0 0-6.135 2.899-13.876-.831-.127-.062-2.106 1.911-2.307 2.127-.141.144-.275.297-.399.456z" fill="#fff" stroke="#232222" stroke-width="1.49" stroke-linejoin="round"/><path d="M26.897 19.506c.783 0 1.417-.634 1.417-1.417s-.634-1.417-1.417-1.417-1.417.634-1.417 1.417.634 1.417 1.417 1.417zm-12.431-.608c.783 0 1.417-.634 1.417-1.417s-.634-1.417-1.417-1.417-1.417.634-1.417 1.417.634 1.417 1.417 1.417z" fill="#232222"/><path d="M27.447 18.563a.52.52 0 0 0 .518-.518.52.52 0 0 0-.518-.518.52.52 0 0 0-.518.518.52.52 0 0 0 .518.518zm-12.509-.672a.52.52 0 0 0 .518-.518.52.52 0 0 0-.518-.518.52.52 0 0 0-.518.518.52.52 0 0 0 .518.518z" fill="#fff"/><g stroke-linejoin="round" stroke-linecap="round"><path d="M18.576 22.854c1.535.408 2.366.482 3.902.104" stroke="#fff"/><path d="M16.227 14.055c-.716.03-1.479-.059-2.162.163-.568.18-1.083.592-1.588.911m12.894-.869c.713.074 1.479.027 2.151.296.556.213 1.047.666 1.535 1" stroke="#232222" stroke-width="1.4"/></g></svg>