<svg width="77" height="62" viewBox="0 0 77 62" fill="none" xmlns="http://www.w3.org/2000/svg">
<path d="M23.8 62C52.6 62 68.3 38.1 68.3 17.5V15.5C71.4 13.3 74 10.5 76.1 7.4C73.3 8.6 70.3 9.5 67.1 9.9C70.3 8 72.8 4.9 74 1.2C71 3 67.6 4.3 64.1 5C61.2 1.9 57.2 0 52.7 0C44 0 37 7 37 15.7C37 16.9 37.1 18.1 37.4 19.3C24.4 18.6 12.9 12.4 5.1 2.9C3.8 5.2 3 7.9 3 10.7C3 16.1 5.8 20.9 10 23.7C7.4 23.6 5 22.9 2.9 21.7V21.9C2.9 29.5 8.3 35.8 15.5 37.2C14.2 37.6 12.8 37.8 11.4 37.8C10.4 37.8 9.4 37.7 8.5 37.5C10.5 43.7 16.3 48.2 23.1 48.4C17.7 52.6 11 55.1 3.7 55.1C2.4 55.1 1.2 55 0 54.9C6.8 59.4 15 62 23.8 62Z" fill="#1DA1F2"/>
</svg>
