<?xml version="1.0" encoding="UTF-8"?>
<svg fill="none" viewBox="0 0 247 172" xmlns="http://www.w3.org/2000/svg">
<path d="M132.732 109.027c1.607.371 5.104-.997 5.958-2.256.152-.226.326-.492.063-.669-.182-.121-.635-.158-.723-.045-1.325 1.718-3.524 1.896-5.298 2.97m81.136-8.001c2.214.483 4.243.058 6.16-.906.506-.254 1.68-.28 1.152-1.17-.489-.824-.868.386-1.373.492-.258.055-.528.093-.764.199-1.657.745-3.561.546-5.175 1.385m-44.441-25.534c-1.362-.523-7.178.656-7.837 1.522-.105.136-.201.391-.142.519.213.465.662.398 1.028.279l6.951-2.32m-90.665 5.36c-1.061-.279-1.523-.022-1.989.234-4.109 2.271-8.042 4.768-11.638 7.841-4.856 4.151-9.438 8.624-14.579 12.448-.857.638-2.193.792-2.752 2.332 2.242-.944 3.993-2.069 5.571-3.469l10.681-9.475c4.417-3.799 9.266-6.992 14.706-9.911m-66.423-4.456c1.987-.921 2.836-.493 2.854 1.701.027 3.592-.34 7.17-1.619 10.557-.33.873.297 1.34.378 2.017.181 1.494.046 2.987.185 4.485.461 4.932 3.942 7.034 7.714 9.016 7.897 4.149 15.308 2.268 22.691-1.578 5.446-2.837 9.694-7.102 14.131-11.161 4.888-4.473 10.066-8.556 15.853-11.805 9.777-5.489 20.896-3.463 28.826 5.053 4.074 4.376 7.148 9.414 9.491 14.811 2.502 5.76 7.011 7.853 12.723 8.038 7.675.248 13.278-3.578 17.732-9.52 3.415-4.556 6.085-9.578 9.135-14.359 6.616-10.367 14.275-12.341 25.849-10.712 4.242.597 6.643 3.282 8.471 6.742 1.64 3.101 3.168 6.263 4.744 9.398.358.711.683 1.447 1.423 1.865 5.783 3.259 11.623 6.408 18.351 7.24 6.926.856 15.602-3.295 18.732-11.145l7.125-17.474c.352-.864.728-1.734 1.445-2.326.688-.569 1.498-.715 2.412-.309.871.387.818.894.471 1.581-.128.252-.093.551.159.707 2.817 1.744 2.211 4.507 1.764 6.942-.999 5.435-3.491 10.402-5.399 15.549-.891 2.408-1.828 4.796-3.087 7.066-2.8 5.044-6.999 8.177-12.777 9.745.982-1.142 2.466-.942 3.245-1.965-2.525.7-5.023 1.45-7.616 1.907.248.648.984-.088 1.221.806-2.276.174-4.506.691-6.563-.707-.342-.232-.466-.116-.782-.07-2.054.299-3.907-.61-5.813-1.144-.789-.222-.984-.92-.577-1.859-1.368 1.27-2.523.7-3.772.036-1.922-1.023-3.941-1.861-5.877-2.856-4.345-2.234-7.339-5.807-9.609-10.023-1.257-2.332-2.392-4.733-3.51-7.136-.5-1.077-1.282-1.571-2.402-1.823-7.911-1.779-13.85.44-18.603 6.971-2.888 3.971-5.127 8.345-7.766 12.468-3.062 4.782-6.477 9.225-11.726 11.819-2.058 1.018-4.313 1.384-6.527 1.937-3.3.824-6.336.846-9.504.046-9.184-2.321-16.021-7.489-19.998-16.269-1.387-3.061-3.133-5.959-4.719-8.929-2.76-5.173-9.062-6.736-14.037-5.635-5.678 1.257-10.292 4.514-14.72 7.992-4.944 3.883-9.49 8.285-14.536 12.021-6.018 4.456-12.818 7.503-20.409 7.842-3.801.169-7.627-.345-11.27-2.105-2.031-.981-4.226-1.732-6.313-2.697-3.118-1.443-5.863-3.432-8.222-5.822-4.397-4.45-6.175-9.893-5.207-16.15.499-3.224 1.639-6.233 2.977-9.185.42-.926 1.038-1.697 1.7-2.423.296-.324.746-.96 1.317-.454.483.428-.679.648-.159 1.284" fill="#fff" fill-rule="evenodd"/>
</svg>
