<?xml version="1.0" encoding="UTF-8"?>
<svg width="100" height="100" viewBox="0 0 100 100" xmlns="http://www.w3.org/2000/svg">
<path d="M85.799 37.809l-25.368-.324-.355-.699c4.448-7.747 8.227-14.414 12.626-25.244 2.398-5.994.217-9.048-6.376-8.689-7.591.359-9.365 1.956-12.099 7.236l-3.935 7.653-3.935-7.655c-2.72-5.253-4.474-6.874-12.096-7.235-6.424-.348-8.839 2.539-6.377 8.689 4.323 10.648 8.043 17.27 12.626 25.242l-.223.436-18.68-.235c-9.667-.1-16.458 1.139-18.788 16.121A108.92 108.92 0 0 0 1.78 77.499c.579 8.367 2.947 14.847 12.806 16.653 3.958.715-1.855.133 64.444 2.951 13.664.564 19.265-1.959 19.346-17.571l.109-28.63c.033-9.885-2.933-12.983-12.686-13.092h0zm-42.467-2.462a.38.38 0 0 0-.536 0 .38.38 0 0 0 0 .536l.18.18-.723.724-.229-.398-.979-1.712.809-.809 1.659 1.659-.002.002-.18-.182zm10.303-.093l.988.988-.986.985c-.023.023-.018.056-.035.083l-.329.005c-.018-.053-.021-.111-.064-.153l-.742-.742 1.168-1.165zm2.02 2.021c.006.005.014.003.02.008l-1.035.014.518-.518.497.497zm.749-7.639l.395-.395 2.568 2.568-1.221 1.22-1.742-3.392h0zm-.364-.707l-.947-1.841.405-.405 1.394 1.394-.852.851zm-1.311-2.55l-.492-.958.724.724-.232.233zm-1.48-2.88l-1.286-2.508.432-.432 1.897 1.897-1.042 1.043zm-1.65-3.215l-.456-.888.03-.057.686.686-.261.259zm.706 17.046l-.753.011.382-.382.371.371zm-3.967-.002l.683-.683.703.701-1.386-.018h0zm-5.483-.071l.658-.657.674.674-1.332-.017zm19.162-6.971l-1.579-1.579 1.059-1.059.942.944c.074.074.17.111.268.111.089 0 .173-.039.244-.101l-.935 1.685h0zm-6.444-19.501c2.449-4.736 3.73-6.08 10.826-6.418 5.642-.276 6.815 1.809 4.897 6.609-1.883 4.638-4.227 9.809-6.73 14.599-.014-.02-.009-.045-.026-.064l-1.25-1.25.756-.756c.148-.148.148-.388 0-.535a.38.38 0 0 0-.536 0l-.832.832a.37.37 0 0 0-.383.383l-.647.647c-.148.148-.148.388 0 .535.074.074.17.111.268.111a.38.38 0 0 0 .268-.111l.571-.57 1.252 1.252a.37.37 0 0 0 .254.104l-1.23 2.308c.058-.138.058-.294-.054-.405l-.944-.944.673-.673c.148-.148.148-.388 0-.535a.38.38 0 0 0-.535 0l-.673.673-.068-.068a.38.38 0 0 0-.536 0 .38.38 0 0 0 0 .536l.067.067L59.9 28.17l-.068-.068a.38.38 0 0 0-.536 0 .38.38 0 0 0 0 .536l.068.068-.403.403a.38.38 0 0 0 0 .536c.074.074.17.111.268.111s.194-.036.268-.111l.403-.403 1.733 1.732-2.383 4.206-.741-1.442 1.392-1.391.07.068c.074.074.17.111.268.111s.194-.036.268-.111a.38.38 0 0 0 0-.536l-.07-.068.28-.28c.148-.149.148-.388 0-.535a.38.38 0 0 0-.536 0l-.28.28-2.568-2.568.148-.148c.027.006.048.032.077.032.097 0 .194-.036.268-.111.095-.096.106-.223.079-.346l.264-.264a.38.38 0 0 0 0-.536.38.38 0 0 0-.536 0l-.207.208-1.394-1.394.615-.615a.38.38 0 0 0 0-.536.38.38 0 0 0-.536 0l-.615.615-1.645-1.645.974-.974.488.488c.074.074.17.111.268.111s.194-.036.268-.111a.38.38 0 0 0 0-.536l-.664-.664c-.018-.044-.018-.094-.053-.129s-.085-.035-.129-.053l-2.074-2.074.447-.447a.38.38 0 0 0 0-.536.38.38 0 0 0-.536 0l-.447.447-.858-.858 4.038-7.847zm-26.286.192c-1.903-4.759-.789-6.895 4.898-6.611 7.074.338 8.361 1.665 10.821 6.415l7.329 14.256 6.017 11.708-.291.508-1.873.024a.38.38 0 0 0 .003-.538l-.497-.497.824-.823a.38.38 0 0 0 0-.536c-.147-.148-.386-.148-.535 0l-.824.823-.988-.988.189-.189a.38.38 0 0 0 0-.536c-.15-.15-.389-.147-.535 0l-1.891 1.892-.538-.538c-.148-.148-.388-.148-.535 0a.38.38 0 0 0 0 .536l.538.538-.717.718c-.059.059-.076.136-.088.212l-.226.003c-.032 0-.064 0-.096-.002.145-.148.147-.386-.002-.533l-.712-.712 2.055-2.056a.38.38 0 0 0 0-.536.38.38 0 0 0-.536 0l-2.055 2.056-1.389-1.389a.38.38 0 0 0-.536 0 .38.38 0 0 0 0 .536l1.389 1.389-1.206 1.206-2.008-.026-1.224-1.224.002-.002.091.091c.074.074.17.111.268.111s.194-.036.268-.111a.38.38 0 0 0 0-.536l-.091-.091 2.886-2.886c.148-.148.148-.388 0-.535a.38.38 0 0 0-.536 0L44.05 34.99l-1.659-1.659 1.962-1.962a.38.38 0 0 0 0-.536.38.38 0 0 0-.536 0l-.215.215-1.615-1.614.677-.676c.148-.148.148-.388 0-.535a.38.38 0 0 0-.536 0l-.676.676-.764-.764 1.314-1.314a.38.38 0 0 0 0-.536.38.38 0 0 0-.536 0l-1.315 1.314-1.568-1.568a.38.38 0 0 0-.536 0 .38.38 0 0 0 0 .536l1.568 1.568-.762.762a.38.38 0 0 0 0 .536c.074.074.17.111.268.111a.38.38 0 0 0 .268-.111l.764-.762.764.764-1.212 1.211-.224-.224a.38.38 0 0 0-.536 0 .38.38 0 0 0 0 .536l2.374 2.374-.662.662c-3.902-6.836-7.365-13.153-11.37-23.018h0zm12.568 21.82l-1.615-1.615 1.212-1.211 1.615 1.615-1.212 1.211zm55.005 46.73c-.073 14.521-4.785 16.614-17.765 16.064l-64.238-2.929c-8.907-1.63-11.018-7.32-11.566-15.268a107.45 107.45 0 0 1 1.023-24.052c2.132-13.686 7.761-14.95 17.273-14.839l18.504.233c.144.152.33.258.542.258h.009l5.198-.067.242.242c.074.074.17.111.268.111s.194-.036.268-.111a.37.37 0 0 0 .105-.253c4.685-.061-1.205-.106 39.055.409 8.811.1 11.221 2.452 11.191 11.571l-.111 28.629zm-54.174-4.248c-1.515-.479-5.132-1.506-5.244-4.108.45-.239.874-.515 1.277-.827.012.001.021.014.032.014a.37.37 0 0 0 .268-.111c.059-.059.076-.136.088-.212 2.909-2.523 4.074-6.508 3.736-10.279-.354-3.994-2.441-7.532-5.441-9.232-2.932-1.679-7.745-1.536-9.974 1.347-2.082 2.703-2.854 7.832-2.867 10.624 0 3.496 1.479 7.217 4.651 8.926-.005.83.052 1.895-.336 2.611-1.039 1.967-4.605 1.541-7.42 2.255-4.736 1.194-5.492 4.967-4.156 6.982 1.562 2.297 3.339 1.941 21.149 2.708.851.038 1.759.08 2.694.08 5.597 0 10.606-2.344 9.835-6.079-.565-2.717-3.817-3.308-8.292-4.698h0zm-12.003-4.885l1.086-1.086.955.955a.38.38 0 0 0 .536 0 .38.38 0 0 0 0-.536l-.954-.955.885-.885L35 69.695a.36.36 0 0 0 .102.291.38.38 0 0 0 .536 0l1.295-1.294.638.638a7.45 7.45 0 0 1-1.214.72c-1.85.891-3.929.992-5.674.344h0zm3.976-3.976l1.736 1.736-.932.932-1.738-1.736.933-.932zm3.506 2.435l-.697-.697 1.5-1.5.597.597a7.33 7.33 0 0 1-1.4 1.6h0zM26.08 62.495c.012-3.115.912-7.573 2.551-9.7.982-1.27 2.705-1.848 4.446-1.848 1.28 0 2.568.312 3.579.891 1.962 1.112 3.465 3.17 4.211 5.635-.02.014-.044.009-.061.026l-1.647 1.647-.3-.3a.38.38 0 0 0-.536 0 .38.38 0 0 0 0 .536l.373.373c-.008.105.021.211.101.291.074.074.17.111.268.111.009 0 .015-.009.023-.009l.909.909-.979.979-.632-.632a.38.38 0 0 0-.536 0 .38.38 0 0 0 0 .536l.632.632-.536.536a.38.38 0 0 0 0 .536.38.38 0 0 0 .536 0l.538-.536.856.856a.38.38 0 0 0 .536 0 .38.38 0 0 0 0-.536l-.856-.856 1.126-1.126c.061-.017.124-.024.171-.071a.38.38 0 0 0 0-.536l-1.156-1.156L41.08 58.3a12.22 12.22 0 0 1 .261 1.591c.218 2.45-.286 4.801-1.362 6.702l-.471-.471.727-.727c.351-.352-.18-.891-.535-.536l-.729.727-1.058-1.057a.38.38 0 0 0-.536 0 .38.38 0 0 0 0 .536l1.058 1.058-1.5 1.5-1.738-1.736 1.249-1.249a.38.38 0 0 0 0-.536c-.149-.148-.388-.148-.535 0l-2.717 2.717-.489-.489a.38.38 0 0 0-.536 0 .38.38 0 0 0 0 .536l.489.489-.885.885-1.626-1.626a.38.38 0 0 0-.536 0 .38.38 0 0 0 0 .536l1.626 1.626-1.311 1.311c-.064-.035-.132-.064-.194-.1-2.694-1.603-3.651-4.921-3.651-7.488h0zm-4.062 21.209c-.011-.077-.03-.157-.091-.218l-.323-.323 1.338-1.338c.017.029.012.065.038.089l1.436 1.436-.453.453-1.945-.1h0zm4.941-1.821a.37.37 0 0 0 .092.224l1.686 1.686c-.052.068-.092.143-.092.224l-2.973-.133c.055-.136.055-.289-.056-.4l-.129-.129 1.471-1.473zm4.906-.171l1.5 1.5-.821.821c-.042.043-.047.102-.065.156l-2.732-.123a.33.33 0 0 0 .005-.241l2.114-2.114zm2.406 2.406a.38.38 0 0 0 .536 0 .38.38 0 0 0 0-.536l-.37-.37 1.17-1.168 1.642 1.643-.688.688-3.144-.141.483-.483.37.368zm5.944.009c-.109.109-.111.257-.059.392l-1.411-.05c.061-.138.062-.297-.052-.411l-.374-.374 1.359-1.358 1.168 1.168-.632.632zM38 84.438l-.414-.018.199-.199.215.217zm2.879.097l.503-.503.494.494a27.68 27.68 0 0 1-.997.009zm2.776-2.776l1.264 1.264-.821.821c-.136.136-.132.344-.018.492-.436.065-.874.111-1.315.141-.009-.083-.032-.167-.095-.23l-.751-.752 1.738-1.736zm1.8 1.8l.379.379a11.08 11.08 0 0 1-1.021.262l.642-.641zm1.103.135c-.017-.062-.024-.127-.073-.177l-.494-.494 2.032-2.032a.38.38 0 0 0 0-.536.38.38 0 0 0-.536 0l-2.032 2.032-1.264-1.264.999-.999a.38.38 0 0 0 0-.536.38.38 0 0 0-.536 0l-1.151 1.151c-.056.018-.117.023-.162.067s-.05.106-.067.162l-1.891 1.891-1.17-1.168 1.079-1.079a.38.38 0 0 0 0-.536.38.38 0 0 0-.536 0l-1.079 1.079-.538-.536a.38.38 0 0 0-.536 0 .38.38 0 0 0 0 .536l.536.536-1.358 1.358-1.642-1.642.597-.597a.38.38 0 0 0 0-.536.38.38 0 0 0-.536 0l-2.3 2.302-1.5-1.5.911-.911a.38.38 0 0 0 0-.536.38.38 0 0 0-.536 0l-.982.982c-.105-.008-.211.021-.291.101a.37.37 0 0 0-.102.291l-2.139 2.141-1.673-1.673c-.062-.062-.144-.082-.224-.092l1.442-1.442a.38.38 0 0 0 0-.536.38.38 0 0 0-.536 0l-3.318 3.318-1.436-1.436c-.024-.024-.061-.021-.089-.038l.9-.9a.38.38 0 0 0 0-.536c-.149-.148-.388-.148-.535 0l-2.721 2.721-.964-.964a.38.38 0 0 0-.536 0 .38.38 0 0 0 0 .536l.964.964-.289.289c-3.185-.841-2.633-4.632 1.588-5.703 3.641-.918 8.886.179 8.895-5.714 1.688.476 3.644.355 5.267-.206.686 3.02 3.718 4.094 6.241 4.891 3.492 1.086 4.65 1.391 5.609 1.859l-.259.259-.489-.489a.38.38 0 0 0-.536 0 .38.38 0 0 0 0 .536l.489.489-.3.3a.38.38 0 0 0 0 .536.38.38 0 0 0 .536 0l.3-.3 1.13 1.13a.38.38 0 0 0 .536 0 .38.38 0 0 0 0-.536l-1.13-1.13.397-.397c.497.347.87.767.982 1.304.311 1.503-1.477 2.824-2.941 3.411h0zM86.27 59.282c-.803-.273-1.638-.314-2.374-.35-15.658-.805-25.017-.921-27.812-.346-1.089.223-2.614.673-3.283 1.982-.594 1.152-.285 2.703.735 3.688.808.782 1.992 1.214 3.338 1.215a3744.28 3744.28 0 0 1 25.292.495l1.076.026c1.055 0 2.209-.105 3.244-.629 1.483-.752 2.621-2.609 1.877-4.299-.353-.803-1.115-1.452-2.092-1.783h0zm-.468 4.727c-1.052.533-2.394.488-3.579.441a3762.56 3762.56 0 0 0-25.347-.495c-.55-.002-1.58-.103-2.288-.789-.542-.524-.732-1.342-.441-1.906.374-.73 1.458-1.03 2.241-1.189 1.835-.38 8.08-.62 27.43.373.67.035 1.362.07 1.967.274.574.195 1.008.542 1.191.957.37.839-.323 1.905-1.174 2.335h0zm.468 7.018c-.797-.27-1.635-.314-2.374-.351-15.656-.805-25.017-.921-27.812-.344-1.089.223-2.614.673-3.283 1.982-.594 1.152-.282 2.702.735 3.688.809.782 1.994 1.214 3.338 1.215 1.273.003 23.292.421 25.292.496l1.076.026c1.055 0 2.209-.105 3.246-.629 1.48-.753 2.62-2.611 1.874-4.302-.352-.802-1.114-1.448-2.091-1.78h0zm-.468 4.727c-1.052.532-2.394.488-3.579.441a3762.37 3762.37 0 0 0-25.347-.495c-.55-.002-1.579-.105-2.288-.789-.542-.524-.732-1.344-.441-1.906.374-.73 1.458-1.03 2.241-1.189 1.838-.379 8.086-.623 27.43.371.673.035 1.368.073 1.968.276.574.195 1.009.542 1.189.954.368.839-.324 1.906-1.174 2.338z"/>
<path d="M56.562 15.344c.148 0 .288-.088.349-.233l1.038-2.305.821.394c.053.026.109.036.164.036a.38.38 0 0 0 .165-.721l-.782-.376c.339-.592.727-1.153 1.18-1.658.406.215.862.336 1.327.338.209 0 .379-.168.379-.379s-.168-.379-.379-.379a2.05 2.05 0 0 1-.758-.165 5.89 5.89 0 0 1 1.617-.988c.321.336.767.558 1.236.559h.002c.209 0 .379-.168.379-.377s-.168-.38-.377-.38c-.118 0-.235-.033-.345-.077.679-.133 1.379-.112 2.047.142.206.079.415-.026.489-.218s-.023-.415-.218-.489c-.974-.374-1.995-.333-2.947-.053-.102-.124-.255-.194-.414-.136-.152.059-.215.208-.214.362a6.68 6.68 0 0 0-1.932 1.247c-.124-.114-.235-.241-.327-.382-.114-.174-.349-.226-.524-.109a.38.38 0 0 0-.109.524c.127.194.279.37.447.526-.479.547-.892 1.139-1.247 1.764l-.565-.271a.38.38 0 0 0-.505.179c-.091.188-.011.414.179.505l.527.253-1.055 2.342c-.082.192.011.414.205.494.049.023.099.032.147.032h0z"/>
</svg>
