<?xml version="1.0" encoding="UTF-8"?>
<svg width="100" height="100" viewBox="0 0 100 100" xmlns="http://www.w3.org/2000/svg">
<path d="M13.795 95.744l62.751 1.021c15.843.247 19.547-4.811 19.961-18.006l1.95-62.161c.308-9.733-2.533-13.641-14.046-13.358L14.859 5.056c-9.233.161-13.42 2.708-13.336 14.976l.444 63.391c.068 9.498 3.017 12.179 11.829 12.321h0zm1.089-89.173l69.562-1.815c10.717-.261 12.77 3.045 12.494 11.795l-1.948 62.161c-.383 12.27-3.388 16.786-18.421 16.538l-62.75-1.021C5.98 94.102 3.545 92.194 3.483 83.411l-.445-63.389C2.959 8.617 6.451 6.717 14.885 6.571h0zm3.619 38.512c.85.985 2.144 1.58 3.559 1.72l-.315 35.433a.76.76 0 0 0 .752.764h.006a.76.76 0 0 0 .758-.751l.315-35.48c2.595-.411 4.585-2.42 5.541-4.901.665-1.723.891-3.727.692-6.133-.235-2.715-.974-4.709-2.259-6.102-.968-1.042-2.336-1.706-3.817-1.927l.091-10.091c.003-.418-.332-.761-.751-.764-.486-.027-.761.332-.764.752l-.091 10.02c-.908.064-1.776.302-2.558.72-3.971 2.167-3.433 6.494-3 9.971.314 2.533.308 4.968 1.841 6.771h0zm4.297.261c-.932.03-1.8-.217-2.479-.67l1.271-1.271 1.859 1.859a5.3 5.3 0 0 1-.651.082h0zm1.43-.299c-.083-.205-1.944-2.023-2.102-2.179l.177-.177 1.161 1.159c.074.074.171.111.268.111.029 0 .052-.027.08-.033-.079.144-.082.318.039.441a.38.38 0 0 0 .536 0l1.839-1.839.503.503c-.686.923-1.542 1.647-2.503 2.015h0zm1.462-3.053l-1.583 1.583c-.002-.094-.036-.189-.109-.262l-1.161-1.159 1.506-1.506 1.347 1.344zm1.477.406l-.406-.406 1.061-1.061c-.042.127-.071.265-.12.388-.145.382-.335.736-.535 1.079h0zm-6.786-12.726c1.915-1.027 4.57-.614 6.056.989.483.523.864 1.182 1.164 1.956-.074.014-.149.029-.206.085l-.229.229-.511-.511a.38.38 0 0 0-.536 0 .38.38 0 0 0 0 .536l.511.511-.639.639c-.133.133-.13.336-.021.485-.086.008-.173.033-.238.098a.38.38 0 0 0 0 .536l.898.898-1.312 1.312-.477-.477a.38.38 0 0 0-.536 0 .38.38 0 0 0 0 .536l.477.477-.086.088a.38.38 0 0 0 0 .536.38.38 0 0 0 .536 0l.089-.089 1.711 1.711a.38.38 0 0 0 .536 0 .38.38 0 0 0 0-.536l-1.711-1.711 1.312-1.312.283.283a.38.38 0 0 0 .536 0 .38.38 0 0 0 0-.536l-1.676-1.677c.077-.012.158-.03.217-.089L27.17 34l.009.009a.38.38 0 0 0 .536 0 .38.38 0 0 0 0-.536l-.009-.009.129-.129c.218.745.385 1.567.468 2.523.148 1.791.027 3.308-.341 4.632-.018-.058-.023-.118-.068-.164a.38.38 0 0 0-.536 0l-1.129 1.129-1.529-1.529c-.018-.039-.017-.085-.049-.118s-.079-.03-.118-.049l-1.117-1.117a.38.38 0 0 0-.536 0 .38.38 0 0 0 0 .536l.932.932-1.506 1.506-.445-.445a.38.38 0 0 0-.536 0 .38.38 0 0 0 0 .536l.445.446-.177.177-.9-.9c-.351-.352-.891.18-.536.536l.9.9-1.312 1.312c-.027-.03-.065-.052-.092-.082-.923-1.086-1.144-2.691-1.304-4.379-.355-3.727-1.536-8.1 2.035-10.047h0zm15.264 37.063c.974 1.132 2.512 1.777 4.132 1.777.082 0 .167-.021.25-.024l-.121 13.75a.76.76 0 0 0 .753.762h.003a.76.76 0 0 0 .759-.753l.124-14.021c2.264-.697 3.888-2.553 4.72-4.708.662-1.753.886-3.761.692-6.15-.236-2.705-.976-4.694-2.261-6.085-.774-.835-1.826-1.438-2.995-1.768l.285-31.901c.003-.418-.332-.761-.751-.764-.424-.027-.761.332-.764.752l-.283 31.664c-1.188-.056-2.362.183-3.379.727-3.971 2.167-3.433 6.495-3 9.973.301 2.438.285 4.971 1.836 6.77h0zm2.068-.27l1.271-1.271 1.706 1.706c-.015.003-.032.011-.047.014-1.045.203-2.094.02-2.93-.449zm6.343-3.944c.014.014.035.009.05.021-.024.015-.056.011-.077.032l-1.521 1.521-1.212-1.212 1.562-1.562 1.199 1.2zm-2.085 2.109l-1.239 1.239-1.212-1.212 1.239-1.239 1.212 1.212zm-.576 2.059c0-.097-.036-.194-.111-.268l-.017-.017 1.239-1.239.488.488c-.494.444-1.026.817-1.6 1.036zm2.144-1.564l-.495-.495 1.521-1.521a.38.38 0 0 0 0-.536c-.014-.014-.035-.009-.05-.021.024-.015.056-.011.077-.032a.38.38 0 0 0 0-.536l-2.92-2.92 1.265-1.265 1.48 1.48-.35.35a.38.38 0 0 0 0 .536.38.38 0 0 0 .536 0l.427-.427c.105.003.202-.033.276-.108a.37.37 0 0 0 .108-.274l.082-.082c-.029 1.385-.236 2.612-.645 3.699-.318.818-.777 1.541-1.312 2.153h0zm-6.014-13.801c1.965-1.053 4.585-.594 6.058.989 1.047 1.133 1.656 2.829 1.862 5.182.021.253.018.485.029.729l-.52.52-1.48-1.48.647-.647.477.477a.38.38 0 0 0 .536 0 .38.38 0 0 0 0-.536l-2.305-2.304a.38.38 0 0 0-.536 0 .38.38 0 0 0 0 .536l1.291 1.292-.915.915h-.002l-1.533 1.533-.029-.029a.38.38 0 0 0-.536 0 .38.38 0 0 0 0 .536l1.749 1.749-1.562 1.562-1.426-1.426a.38.38 0 0 0-.536 0 .38.38 0 0 0 0 .536l1.426 1.426-1.239 1.239-1.05-1.05c-.352-.352-.891.18-.536.536l1.05 1.05-1.35 1.35c-1.545-1.391-1.467-3.627-1.791-6.23-.409-3.338-.838-6.786 2.223-8.456zm14.955-9.974c.171 1.645.386 3.694 1.659 5.212.93 1.082 2.342 1.7 3.883 1.761l-.3 33.912a.76.76 0 0 0 .752.764h.006a.76.76 0 0 0 .758-.752l.3-34.047c2.452-.553 4.301-2.477 5.218-4.855.664-1.718.891-3.729.692-6.15-.235-2.705-.974-4.694-2.262-6.088-.918-.979-2.145-1.617-3.492-1.88l.106-11.617a.76.76 0 0 0-.751-.764.76.76 0 0 0-.764.752l-.106 11.48c-1.026.023-2.026.27-2.88.739-4.555 2.489-3.173 7.812-2.818 11.532zm3.926 5.038l.301-.302.591.591c.033.033.079.03.118.048a4.09 4.09 0 0 1-1.011-.338zm3.454.145a4.74 4.74 0 0 1-1.144.279c-.377.036-.748.015-1.108-.039a.37.37 0 0 0 .227-.094.38.38 0 0 0 0-.536l-.591-.591.885-.885 1.233 1.232c.003.092.035.185.106.256s.164.103.256.106l.021.021a.38.38 0 0 0 .536 0c.123-.123.118-.3.038-.444l1.433-1.433.398.398c-.654.786-1.432 1.406-2.292 1.73h0zm1.356-2.664l-1.408 1.408-1.145-1.145 1.408-1.407 1.146 1.145zm-.609-1.682l.921-.921 1.146 1.145-.921.921-1.145-1.145zm2.008 2.008l-.326-.326 1.047-1.047a7.44 7.44 0 0 1-.721 1.373zm.93-2.043c-.012-.017-.008-.039-.023-.053-.05-.05-.117-.059-.18-.074-.008-.008-.005-.02-.012-.027l-1.267-1.267.077-.077a.38.38 0 0 0 0-.536.38.38 0 0 0-.536 0l-.077.077-.876-.876c.032-.017.07-.014.097-.039l1.862-1.862.747.747a.38.38 0 0 0 .536 0c.048-.048.058-.115.074-.177.076 1.591-.064 2.967-.423 4.165h0zm.395-4.829c.014.161.009.304.018.461-.018-.055-.021-.114-.065-.158l-.747-.747.641-.641c.058.353.12.697.153 1.085h0zm-7.911-6.174c1.806-.991 4.471-.691 6.05.992.753.815 1.271 1.932 1.583 3.362a.36.36 0 0 0-.306.095l-.744.744-.741-.741a.38.38 0 0 0-.536 0 .38.38 0 0 0 0 .536l.741.741-1.862 1.862c-.027.027-.023.065-.039.097l-.097-.097a.38.38 0 0 0-.536 0 .38.38 0 0 0 0 .536l1.451 1.452-.921.921-1.788-1.788a.38.38 0 0 0-.536 0 .38.38 0 0 0 0 .536l1.788 1.788-1.408 1.408-1.339-1.339a.38.38 0 0 0-.536 0 .38.38 0 0 0 0 .536l1.339 1.339-.885.885-.741-.741a.38.38 0 0 0-.536 0 .38.38 0 0 0 0 .536l.741.741-.426.426c-.158-.126-.323-.245-.45-.395-.97-1.156-1.148-2.874-1.308-4.383-.352-3.723-1.539-8.097 2.042-10.05h0zm14.255 36.065c.148 1.564.353 3.704 1.662 5.221.889 1.029 2.221 1.63 3.639 1.73l-.074 8.068c-.005.418.33.761.75.765h.007a.76.76 0 0 0 .758-.75l.074-8.142c2.535-.43 4.505-2.456 5.444-4.891.664-1.721.891-3.73.692-6.15-.239-2.755-.953-4.688-2.244-6.083-.95-1.026-2.288-1.686-3.735-1.921l.332-37.45a.76.76 0 0 0-.751-.764.76.76 0 0 0-.764.752l-.33 37.359c-.938.053-1.839.297-2.638.73-4.556 2.488-3.179 7.808-2.823 11.526h0zm6.015 5.467c-.22.015-.435-.008-.648-.026.015-.114-.005-.229-.091-.315l-.323-.323 1.221-1.221 1.161 1.161c.074.074.171.111.268.111s.194-.036.268-.111c.047-.047.055-.112.071-.171.121.023.203.042.33-.085l1.427-1.427c.061.047.129.077.2.083-.946 1.28-2.28 2.274-3.885 2.324h0zm1.72-1.518c-.024.024-.02.059-.036.086l-.991-.991 1.477-1.477.965.965-1.415 1.417zm2.476-1.404l.197-.197c-.055.099-.094.209-.152.306-.014-.038-.02-.076-.045-.109h0zm1.241-6.394l-.864-.864.67-.67c.076.432.145.873.188 1.365.005.059.001.111.006.168zm-7.905-6.343c1.859-1.011 4.535-.647 6.052.991.718.777 1.206 1.818 1.518 3.152-.123-.027-.248-.015-.344.08l-.721.721-1.05-1.05a.38.38 0 0 0-.536 0 .38.38 0 0 0 0 .536l1.05 1.05-1.512 1.512c-.139-.064-.3-.065-.415.05s-.114.276-.05.415l-.536.536a.38.38 0 0 0 0 .536.38.38 0 0 0 .536 0l.502-.502 2.273 2.273a.38.38 0 0 0 .536 0 .38.38 0 0 0 0-.536l-2.273-2.273 1.477-1.477 1.05 1.052c.074.074.171.111.268.111.041 0 .074-.033.114-.047.044 1.391-.082 2.617-.382 3.698-.03.017-.068.014-.094.039l-1.323 1.323-.965-.965.977-.977a.38.38 0 0 0 0-.536.38.38 0 0 0-.536 0l-.977.977-1.379-1.379a.38.38 0 0 0-.536 0 .38.38 0 0 0 0 .536l1.379 1.379-1.477 1.477-1.417-1.417a.38.38 0 0 0-.536 0 .38.38 0 0 0 0 .536l1.417 1.417-1.221 1.221-1.123-1.123a.38.38 0 0 0-.536 0 .38.38 0 0 0 0 .536l1.123 1.123-.146.146c-.347-.196-.67-.423-.926-.718-.918-1.065-1.132-2.611-1.3-4.374-.352-3.726-1.535-8.1 2.041-10.05h0z"/>
</svg>
