<?xml version="1.0" encoding="UTF-8"?>
<svg width="100" height="100" viewBox="0 0 100 100" xmlns="http://www.w3.org/2000/svg">
<path d="m93.248 74.904s0.4894-0.3181-21.1-0.753c-6.4773-0.1424-4.2637 1.0182-5.0606-6.1106-0.3394-3.097-0.9667-6.2318-1.5879-9.2757-12.05-1.1152-23.886-1.4167-35.78 0.8378-0.4443 2.5506-0.7528 5.1229-0.9242 7.7061-0.1061 1.9182-0.147 3.6303-0.1197 5.2242 0.0016 0.1021-0.0175 0.2034-0.056 0.2979s-0.0958 0.1803-0.1683 0.2521c-0.1454 0.1455-0.3439 0.2334-0.5515 0.2197-6.9394-0.1712-0.1106 0.0197-18.047-0.4394l-0.19394-0.0045c-2.3258-0.0591-4.9621-0.1273-6.7727-2.5576-1.5424-2.0818-1.4182-5.0242-1.3076-7.6197 0.24091-5.7894-0.61364-19.764 0.90152-41.945 0.04928-0.7999 0.08515-1.6005 0.10757-2.4015 0.14546-4.2758 0.29546-8.7 3.9424-11.241 1.8848-1.3152 3.9485-1.3712 5.9424-1.4258 2.6652-0.08484 13.203-0.57727 29.617-0.57727 14.871 0 27.523 0.39849 35.517 0.73334 12.023 0.50303 14.982 0.84848 14.982 0.84848 0.2651-0.01364 0.5242-0.02727 0.7788-0.02727 0.9257 0 2 0.15606 2.9894 1.2924 0.0197 0.01515 0.0378 0.03182 0.0545 0.04546 1.1864 1.4515 1.1955 3.1849 1.2015 4.7137 0.0137 3.2803 1.1424 15.477 0.8061 52.871-0.0137 2.9045 0.153 6.9939-2.3 8.5833-0.7727 0.5061-1.7121 0.753-2.8697 0.753zm-24.371-2.3393 24.371 0.8227c0.8651 0 1.5151-0.1606 2.0424-0.5046 1.7652-1.1439 1.6015-5.1106 1.6106-7.3303 0.3379-37.409-0.7924-49.518-0.806-52.848-0.0061-1.3666-0.0122-2.6606-0.7394-3.6212-0.0182-0.01516-0.0364-0.03031-0.0516-0.04546-0.809-0.96515-1.609-0.90757-2.6409-0.85303-0.2636 0.01364-0.5515 0.08637-0.8075 0.02879l-0.0016-0.05455c-1.3681-0.2-22.239-1.553-49.765-1.553-16.315 0-26.791 0.48788-29.574 0.57576-1.8546 0.05152-3.6061 0.1-5.1182 1.1546-3.0242 2.1075-3.1561 5.9666-3.2954 10.053l-0.10909 2.4515c-1.5136 22.153-0.65303 36.047-0.9 41.908-0.09849 2.3454-0.21212 5.003 1.0106 6.653 1.3697 1.8379 3.4212 1.8894 5.5939 1.947l0.19546 0.0045 17.261 0.4197c-0.0045-1.4045 0.0379-2.903 0.1303-4.553 0.3182-4.7758 1.0137-8.2652 1.044-8.4106 0.0296-0.147 0.1021-0.2818 0.2083-0.3876 0.1063-0.1057 0.2415-0.1775 0.3886-0.2063 12.42-2.4288 24.732-2.091 37.277-0.9046 0.1616 0.0152 0.314 0.0818 0.4348 0.1901s0.2037 0.2525 0.2364 0.4114c0.6788 3.3137 1.3591 6.6424 1.7228 9.9637 0.1848 1.656 0.2772 3.2 0.2818 4.6894z"/>
<path d="m88.708 69.321s0.7712-0.2197-20.789-0.606c-0.3818-0.0061-0.7894-0.2955-0.8303-0.6758-0.3394-3.0955-0.9667-6.2303-1.5879-9.2742-12.05-1.1152-23.885-1.4167-35.78 0.8378-0.4443 2.5506-0.7528 5.1229-0.9242 7.7061-0.0025 0.0979-0.0247 0.1943-0.0653 0.2835-0.0406 0.0891-0.0989 0.1691-0.1712 0.2352s-0.1572 0.1169-0.2496 0.1493c-0.0924 0.0325-0.1904 0.0459-0.2882 0.0396l-1.3212-0.0273-12.558-0.2606-0.1803-0.0046c-2.0757-0.0439-4.4288-0.0954-6.0591-1.8787-1.4515-1.5773-1.3348-3.8516-1.2409-5.6773 0.19243-3.7394-0.59848-13.627 0.72728-30.168 0.04848-0.5667 0.07272-1.147 0.09697-1.7303 0.12878-3.003 0.27424-6.4061 3.606-8.2636 1.6773-0.947 3.5152-0.9834 5.2925-1.0167 2.5348-0.0606 12.379-0.3727 26.206-0.3727 25.53 0 46.689 1.1803 45.424 1.2212 1.0984-0.0349 2.2651-0.1 3.406 0.9773 0.9879 0.6121 1.1303 2.403 1.1409 3.5545 0.0228 2.4833 1.0743 11.532 0.8076 38.048-3e-3 2.0273 0.15 5.1621-2.1288 6.3742-0.6939 0.3576-1.5197 0.5288-2.5333 0.5288zm-20.189-2.1091 20.191 0.5955c0.7773 0 1.3606-0.1137 1.8333-0.3561 1.4531-0.7727 1.3137-3.3803 1.3152-5.0454 0.2651-26.5-0.7788-35.315-0.8076-38.02-0.0091-0.9803-0.0182-1.8288-0.6485-2.45l-0.0333-0.0334c-0.6227-0.5863-1.3621-0.5788-2.3015-0.5485l-0.6591 0.0137v-3e-3c-0.0212 0.0015-0.0424 0.0015-0.0637 0.0015l-0.0136-0.2379-0.0439 0.2151c-0.9576-0.1454-19.232-1.2106-44.692-1.2106-13.924 0-23.639 0.3152-26.176 0.3728-1.6637 0.0318-3.2333 0.0636-4.5803 0.8242-2.597 1.4485-2.7136 4.1485-2.8349 7.0091l-0.10151 1.7894c-1.3379 16.694-0.51515 26.103-0.72424 30.121-0.08788 1.703-0.17879 3.4636 0.84545 4.5742 1.194 1.3076 3.0303 1.347 4.9758 1.3894l0.1818 0.0031 12.553 0.2606 0.6046 0.0121c0.3363-4.3955 0.9636-7.5424 0.9909-7.6803 0.0296-0.147 0.1021-0.2818 0.2084-0.3876 0.1062-0.1057 0.2415-0.1775 0.3886-0.2063 12.42-2.4288 24.732-2.091 37.277-0.9046 0.1616 0.0152 0.314 0.0818 0.4348 0.1901 0.1209 0.1083 0.2037 0.2525 0.2364 0.4114 0.6304 3.094 1.2667 6.1985 1.644 9.3z"/>
<path d="m31.382 88.485c-2.6833-3.45-4.103-8.8075-4.2212-15.924-0.0228-1.7817 0.0181-3.5637 0.1227-5.3424 0.3182-4.7758 1.0137-8.2652 1.044-8.4106 0.0296-0.147 0.1021-0.2819 0.2083-0.3876 0.1063-0.1057 0.2415-0.1775 0.3886-0.2064 12.42-2.4288 24.732-2.0909 37.277-0.9045 0.1616 0.0152 0.314 0.0818 0.4348 0.1901s0.2037 0.2525 0.2364 0.4114c0.6788 3.3136 1.3591 6.6424 1.7228 9.9636 0.2166 1.9364 0.306 3.7182 0.2772 5.4425 0 7.65-3.2045 15.639-9.7712 19.242-6.7621 3.7121-21.798 3.497-27.72-4.0743zm-1.6621-28.88c-0.4443 2.5506-0.7528 5.1229-0.9242 7.7061-0.1061 1.9182-0.147 3.6303-0.1197 5.2242 0.1106 6.7819 1.4227 11.835 3.9 15.018 5.3894 6.8894 19.592 7.0849 25.795 3.6788 5.4879-3.0106 10.142-10.438 8.7167-23.191-0.3394-3.097-0.9667-6.2318-1.5879-9.2758-12.05-1.1151-23.885-1.4166-35.78 0.8394z"/>
<path d="m33.753 58.941c-0.1758 1e-4 -0.3461-0.061-0.4818-0.1727-0.1636-0.1364-0.2636-0.3349-0.2742-0.547l-0.3955-7.106c-0.6424-8.8182 7.3227-18.427 18.688-18.427 5.2985 0 10.177 2.1106 12.429 5.3757 3.0833 4.4697 2.5773 14.405 1.4848 19.992-0.0359 0.1837-0.1387 0.3476-0.2884 0.4601-0.1496 0.1125-0.3357 0.1655-0.5222 0.149l-4.306-0.3349c-0.11-0.0069-0.2171-0.0378-0.314-0.0904-0.0968-0.0526-0.181-0.1257-0.2466-0.2141-0.1334-0.1788-0.1803-0.4076-0.1288-0.6243 0.9742-4.156 1.4439-11.726-0.6425-14.774-2.1651-3.1621-9.0606-4.8682-14.518-1.6152-0.5364 0.3197-1.0546 0.6879-1.5409 1.0909-2.9228 2.4273-4.5197 6.3258-4.2728 10.427l0.2652 5.1197c9e-3 0.1948-0.0575 0.3856-0.1856 0.5327-0.1282 0.147-0.3081 0.239-0.5023 0.2567-1.3843 0.1297-2.7651 0.295-4.1409 0.4955-0.0352 0.0042-0.0706 0.0063-0.1061 6e-3zm17.536-24.738c-10.712 0-17.733 9.1546-17.177 16.802 0.1412 2.1038 0.2604 4.209 0.3576 6.3152 0.9439-0.1273 1.8288-0.2333 2.6727-0.3197l-0.2288-4.3788c-0.2757-4.5818 1.5243-8.95 4.8167-11.685 0.5455-0.4531 1.1288-0.8652 1.7318-1.2258 2.1979-1.2973 4.7054-1.9768 7.2576-1.9667 3.9667 0 7.6106 1.5819 9.2864 4.0288 2.3409 3.4197 1.9318 10.711 1.056 15.106l2.7788 0.2197c0.9197-5.2636 1.3106-14.286-1.3682-18.173-1.95-2.8258-6.4424-4.7228-11.183-4.7228z"/>
<path d="m36.912 52.62c-0.2757-4.5818 1.5243-8.95 4.8167-11.685 0.5454-0.4531 1.1288-0.8652 1.7318-1.2258 2.1979-1.2973 4.7054-1.9768 7.2576-1.9667 3.9666 0 7.6106 1.5819 9.2863 4.0288 2.5046 3.6576 1.8622 11.741 0.8682 15.976-0.0436 0.1736-0.1462 0.3267-0.2902 0.4331-0.1439 0.1064-0.3204 0.1595-0.4992 0.1502-26.588-1.856-22.574 4.1773-23.171-5.7106zm7.3243-11.609c-0.5364 0.3197-1.0546 0.6879-1.5409 1.0909-2.9228 2.4273-4.5197 6.3258-4.2728 10.427l0.2273 4.3258c6.3364-0.5758 12.976-0.6031 20.883-0.0803 0.8773-4.2516 1.2061-11.246-0.7803-14.147-2.1636-3.1621-9.0606-4.8697-14.517-1.6167zm5.5378 44.197c-0.3027-6e-4 -0.6021-0.0624-0.8803-0.1818-1.3772-0.6076-1.5606-2.3091-1.6378-3.0364l-0.4319-4.0621c-1.5575-0.9485-2.756-2.7015-3.1697-4.6742-0.2939-1.3773-0.1181-2.691 0.4955-3.6985 1.2454-2.0349 4.1939-2.6925 6.9-1.4016 1.4136 0.6788 2.5151 1.7304 3.1061 2.9607 1.0939 2.2863 0.2075 5.3045-1.8894 6.7121 0.1841 1.0676 0.2808 2.1485 0.2894 3.2318 0.0212 1.8879-0.5834 2.9-1.0925 3.4151-0.4727 0.4728-1.0712 0.7349-1.6894 0.7349zm-1.6045-16.233c-1.1849 0-2.2046 0.5106-2.7273 1.3666-0.4106 0.6743-0.5197 1.597-0.3076 2.5955 0.35 1.6667 1.4273 3.1742 2.7425 3.8439 0.1128 0.0573 0.2095 0.142 0.2813 0.2462 0.0717 0.1043 0.1161 0.2249 0.1293 0.3508l0.4742 4.4515c0.0773 0.7227 0.2318 1.5833 0.7364 1.8061 0.2682 0.1166 0.6136 0.0409 0.8848-0.2303 0.2515-0.2546 0.6697-0.8955 0.6546-2.3364-0.0076-1.1561-0.1288-2.3288-0.3576-3.4833-0.0354-0.1789-0.0052-0.3646 0.0853-0.523s0.235-0.2788 0.4071-0.3392c1.6485-0.8954 2.4273-3.259 1.6152-4.9575-0.4409-0.9197-1.2925-1.7182-2.394-2.2485-0.7545-0.3591-1.503-0.5424-2.2242-0.5424zm-33.903-52.332c-0.6864 0-1.3485-0.1742-1.9137-0.5045-1.303-0.7606-1.9788-2.0833-1.806-3.5394 0.1818-1.5333 1.2772-2.8182 2.7909-3.2758 1.5803-0.47273 3.4697 0.30152 4.2742 1.7334 0.8121 1.4439 0.5152 3.403-0.6894 4.553-0.6863 0.6561-1.6545 1.0333-2.656 1.0333zm0.0727-5.9484c-0.1955 0-0.3849 0.0272-0.5636 0.0818-0.9364 0.2803-1.6137 1.0666-1.7228 2.0015-0.1015 0.85 0.2864 1.5985 1.0637 2.0515 0.4386 0.2305 0.9365 0.3237 1.4288 0.2675s0.9563-0.2592 1.3318-0.5826c0.3472-0.3507 0.5743-0.8025 0.6486-1.2903 0.0743-0.4879-8e-3 -0.9867-0.235-1.4249-0.3712-0.6606-1.1545-1.1045-1.9515-1.1045zm10.895 6.0272c-1.15 0-2.2894-0.5651-2.9045-1.5182-0.8152-1.2666-0.5939-3.0227 0.4788-4.0166 0.2212-0.5243 0.6212-0.9834 1.1485-1.3091 0.7757-0.47879 1.7257-0.60606 2.5409-0.34091 1.4939 0.48632 2.4954 2.1106 2.3303 3.7772-0.1485 1.491-1.1743 2.7955-2.553 3.2455-0.3379 0.1091-0.6894 0.1621-1.041 0.1621zm-1.6606-4.0863c-0.2924 0.5181-0.3015 1.2318 0.0303 1.7469 0.4349 0.6728 1.4016 1 2.2016 0.7364s1.4257-1.0652 1.5151-1.9546c0.0939-0.9439-0.4864-1.9242-1.2924-2.1863-0.3894-0.1258-0.8788-0.0546-1.2773 0.1894-0.3424 0.2106-0.5682 0.5197-0.6182 0.8485-0.0439 0.3091-0.2727 0.5469-0.5591 0.6197zm11.4 4.5636c-1.2469 0-2.4924-0.5939-3.2106-1.6485-0.5106-0.7859-0.7219-1.729-0.5953-2.6576 0.1265-0.9286 0.5824-1.7809 1.2847-2.4015 0.1065-0.0903 0.2359-0.1494 0.3739-0.1707 0.1379-0.0214 0.2791-0.0043 0.4079 0.0495 0.3393-0.2585 0.7267-0.4468 1.1395-0.55398 0.4129-0.10718 0.8429-0.13106 1.2651-0.07025 0.6256 0.08468 1.217 0.33553 1.7126 0.72653 0.4957 0.3909 0.8775 0.9076 1.1056 1.4962 0.7121 1.7545-0.0682 3.9076-1.7379 4.8015-0.5377 0.2843-1.1372 0.4316-1.7455 0.4288zm-1.953-5.0727c-0.4742 0.7606-0.5045 1.8333-3e-3 2.5712 0.336 0.4503 0.8179 0.7699 1.3635 0.9042 0.5455 0.1343 1.1208 0.075 1.6274-0.1679 0.4828-0.2866 0.8512-0.732 1.0421-1.2601 0.191-0.5281 0.1927-1.1061 0.0049-1.6353-0.2879-0.7121-0.8925-1.1939-1.6137-1.2909-0.6257-0.0834-1.2151 0.1485-1.5742 0.6197-0.2031 0.2666-0.547 0.3591-0.847 0.2591z"/>
<path d="m47.685 71.677-2.0834-2.0849c-0.0711-0.0711-0.1111-0.1676-0.1111-0.2682 0-0.1005 0.04-0.197 0.1111-0.2681 0.0712-0.0712 0.1676-0.1111 0.2682-0.1111s0.1971 0.0399 0.2682 0.1111l2.0833 2.0848c0.0352 0.0352 0.0632 0.077 0.0822 0.123 0.0191 0.0461 0.0289 0.0954 0.0289 0.1452s-0.0098 0.0991-0.0289 0.1451c-0.019 0.046-0.047 0.0879-0.0822 0.1231s-0.077 0.0631-0.123 0.0822c-0.046 0.019-0.0954 0.0289-0.1452 0.0289s-0.0991-0.0099-0.1451-0.0289c-0.046-0.0191-0.0878-0.047-0.123-0.0822zm2.1803-0.9152-1.9546-1.9545c-0.0352-0.0352-0.0631-0.0771-0.0822-0.1231s-0.0289-0.0953-0.0289-0.1451 0.0098-0.0991 0.0289-0.1451c0.0191-0.0461 0.047-0.0879 0.0822-0.1231s0.077-0.0631 0.1231-0.0822c0.046-0.0191 0.0953-0.0289 0.1451-0.0289s0.0991 0.0098 0.1451 0.0289c0.0461 0.0191 0.0879 0.047 0.1231 0.0822l1.9545 1.9546c0.0353 0.0351 0.0633 0.0769 0.0824 0.123 0.0191 0.046 0.0289 0.0953 0.0289 0.1451 0 0.0499-0.0098 0.0992-0.0289 0.1452s-0.0471 0.0878-0.0824 0.123c-0.1485 0.147-0.3879 0.147-0.5363 0zm-3.4137 2.7788-2.006-2.006c-0.0353-0.0353-0.0632-0.0771-0.0823-0.1231-0.019-0.046-0.0288-0.0953-0.0288-0.1451s0.0098-0.0992 0.0288-0.1452c0.0191-0.046 0.047-0.0878 0.0823-0.123 0.0352-0.0352 0.077-0.0632 0.123-0.0822 0.046-0.0191 0.0953-0.0289 0.1451-0.0289 0.0499 0 0.0992 0.0098 0.1452 0.0289 0.046 0.019 0.0878 0.047 0.123 0.0822l2.0061 2.006c0.0353 0.0352 0.0633 0.077 0.0823 0.1231 0.0191 0.046 0.029 0.0953 0.029 0.1451 0 0.0499-0.0099 0.0992-0.029 0.1452-0.019 0.046-0.047 0.0878-0.0823 0.123-0.1485 0.147-0.3894 0.147-0.5364 0zm-0.4121 1.3909-1.5015-1.503c-0.0352-0.0352-0.0632-0.077-0.0822-0.1231-0.0191-0.046-0.0289-0.0953-0.0289-0.1451s0.0098-0.0991 0.0289-0.1451c0.019-0.046 0.047-0.0879 0.0822-0.1231s0.077-0.0631 0.123-0.0822 0.0954-0.0289 0.1452-0.0289 0.0991 0.0098 0.1451 0.0289 0.0878 0.047 0.1231 0.0822l1.5015 1.5031c0.0352 0.0351 0.0632 0.0769 0.0823 0.123 0.0191 0.046 0.0289 0.0953 0.0289 0.1451 0 0.0499-0.0098 0.0992-0.0289 0.1452s-0.0471 0.0878-0.0823 0.123c-0.1485 0.147-0.3894 0.147-0.5364 0z"/>
<path d="m45.415 75.323c-0.0353-0.0351-0.0633-0.0769-0.0824-0.123-0.0191-0.046-0.0289-0.0953-0.0289-0.1451 0-0.0499 0.0098-0.0992 0.0289-0.1452s0.0471-0.0878 0.0824-0.123l1.1045-1.1046c0.3515-0.3515 0.8909 0.1803 0.5364 0.5364l-1.1046 1.1045c-0.0352 0.0353-0.077 0.0633-0.123 0.0824s-0.0953 0.0289-0.1452 0.0289c-0.0498 0-0.0991-0.0098-0.1451-0.0289-0.0461-0.0191-0.0879-0.0471-0.123-0.0824zm0.3697-3.7409c-0.0353-0.0352-0.0633-0.077-0.0824-0.123s-0.0289-0.0953-0.0289-0.1452c0-0.0498 0.0098-0.0991 0.0289-0.1451s0.0471-0.0879 0.0824-0.123l1.6409-1.6409c0.1485-0.1485 0.3878-0.1485 0.5348 0 0.0353 0.0351 0.0633 0.0769 0.0824 0.123 0.0191 0.046 0.0289 0.0953 0.0289 0.1451 0 0.0499-0.0098 0.0992-0.0289 0.1452s-0.0471 0.0878-0.0824 0.123l-1.6409 1.6409c-0.147 0.1485-0.3864 0.1485-0.5348 0zm1.9878-0.1409c-0.0352-0.0352-0.0632-0.077-0.0823-0.123s-0.0289-0.0953-0.0289-0.1452c0-0.0498 0.0098-0.0991 0.0289-0.1451 0.0191-0.0461 0.0471-0.0879 0.0823-0.123l1.6879-1.6879c0.0352-0.0352 0.077-0.0632 0.1231-0.0822 0.046-0.0191 0.0953-0.0289 0.1451-0.0289s0.0991 0.0098 0.1451 0.0289c0.046 0.019 0.0879 0.047 0.1231 0.0822s0.0631 0.077 0.0822 0.123 0.0289 0.0954 0.0289 0.1452-0.0098 0.0991-0.0289 0.1451-0.047 0.0878-0.0822 0.123l-1.6879 1.6879c-0.0352 0.0353-0.077 0.0633-0.123 0.0824s-0.0954 0.0289-0.1452 0.0289-0.0991-0.0098-0.1452-0.0289c-0.046-0.0191-0.0878-0.0471-0.123-0.0824zm12.398 18.944-5.8576-5.8576c-0.0352-0.0352-0.0631-0.077-0.0822-0.1231-0.019-0.046-0.0288-0.0953-0.0288-0.1451s0.0098-0.0991 0.0288-0.1451c0.0191-0.0461 0.047-0.0879 0.0822-0.1231 0.0353-0.0352 0.0771-0.0631 0.1231-0.0822s0.0953-0.0289 0.1451-0.0289 0.0992 0.0098 0.1452 0.0289 0.0878 0.047 0.123 0.0822l5.8576 5.8576c0.0353 0.0352 0.0632 0.077 0.0823 0.123s0.029 0.0954 0.029 0.1452-0.0099 0.0991-0.029 0.1452c-0.0191 0.046-0.047 0.0878-0.0823 0.123-0.1485 0.1469-0.3879 0.1469-0.5364 0zm1.9818-2.4697-4.0348-4.0349c-0.0352-0.0352-0.0632-0.077-0.0822-0.123-0.0191-0.046-0.0289-0.0954-0.0289-0.1452s0.0098-0.0991 0.0289-0.1451c0.019-0.046 0.047-0.0878 0.0822-0.1231 0.0352-0.0352 0.077-0.0631 0.123-0.0822 0.0461-0.019 0.0954-0.0288 0.1452-0.0288s0.0991 0.0098 0.1451 0.0288c0.046 0.0191 0.0878 0.047 0.1231 0.0822l4.0348 4.0349c0.0711 0.0711 0.1111 0.1676 0.1111 0.2682s-0.04 0.197-0.1111 0.2682c-0.0711 0.0711-0.1676 0.111-0.2682 0.111s-0.197-0.0399-0.2682-0.111zm1.9803-2.6849-3.4318-3.4318c-0.0352-0.0352-0.0631-0.077-0.0822-0.123-0.019-0.0461-0.0289-0.0954-0.0289-0.1452s0.0099-0.0991 0.0289-0.1451c0.0191-0.046 0.047-0.0879 0.0822-0.1231s0.0771-0.0631 0.1231-0.0822c0.046-0.019 0.0953-0.0289 0.1451-0.0289s0.0991 0.0099 0.1451 0.0289c0.0461 0.0191 0.0879 0.047 0.1231 0.0822l3.4318 3.4318c0.0711 0.0712 0.1111 0.1676 0.1111 0.2682s-0.04 0.1971-0.1111 0.2682-0.1676 0.1111-0.2682 0.1111-0.197-0.04-0.2682-0.1111zm1.7137-2.6636-2.6334-2.6334c-0.0352-0.0352-0.0631-0.077-0.0822-0.123-0.019-0.046-0.0288-0.0953-0.0288-0.1451s0.0098-0.0992 0.0288-0.1452c0.0191-0.046 0.047-0.0878 0.0822-0.123 0.0353-0.0352 0.0771-0.0632 0.1231-0.0822 0.046-0.0191 0.0953-0.0289 0.1451-0.0289s0.0992 0.0098 0.1452 0.0289c0.046 0.019 0.0878 0.047 0.123 0.0822l2.6333 2.6333c0.0353 0.0352 0.0633 0.077 0.0824 0.123s0.0289 0.0954 0.0289 0.1452-0.0098 0.0992-0.0289 0.1452-0.0471 0.0878-0.0824 0.123c-0.15 0.1469-0.3894 0.1469-0.5363 0zm0.4257-3.3909c-0.0497 1e-4 -0.099-0.0097-0.1451-0.0286-0.046-0.019-0.0878-0.0469-0.123-0.082l-1.8576-1.8591c-0.0711-0.0712-0.1111-0.1676-0.1111-0.2682s0.04-0.1971 0.1111-0.2682 0.1676-0.1111 0.2682-0.1111c0.1005 0 0.197 0.04 0.2681 0.1111l1.8591 1.8591c0.0353 0.0352 0.0633 0.077 0.0824 0.123s0.0289 0.0954 0.0289 0.1452-0.0098 0.0991-0.0289 0.1452c-0.0191 0.046-0.0471 0.0878-0.0824 0.123-0.0757 0.0727-0.1727 0.1106-0.2697 0.1106zm0.2425-2.4-1.5076-1.5076c-0.0711-0.0711-0.1111-0.1676-0.1111-0.2682s0.04-0.197 0.1111-0.2682c0.0711-0.0711 0.1676-0.1111 0.2682-0.1111s0.197 0.04 0.2681 0.1111l1.5076 1.5076c0.0353 0.0352 0.0633 0.077 0.0824 0.123s0.0289 0.0954 0.0289 0.1452-0.0098 0.0991-0.0289 0.1452c-0.0191 0.046-0.0471 0.0878-0.0824 0.123-0.15 0.1469-0.3894 0.1469-0.5363 0zm-10.062 14.267-4.8651-4.8651c-0.0711-0.0711-0.1111-0.1676-0.1111-0.2682s0.04-0.1971 0.1111-0.2682 0.1676-0.1111 0.2682-0.1111 0.197 0.04 0.2682 0.1111l4.8651 4.8652c0.0352 0.0352 0.0632 0.077 0.0822 0.123 0.0191 0.046 0.0289 0.0953 0.0289 0.1452 0 0.0498-0.0098 0.0991-0.0289 0.1451-0.019 0.046-0.047 0.0878-0.0822 0.123-0.0352 0.0353-0.077 0.0632-0.123 0.0822-0.0461 0.0191-0.0954 0.0289-0.1452 0.0289s-0.0991-0.0098-0.1451-0.0289c-0.046-0.019-0.0878-0.0469-0.1231-0.0822zm-3.853 1.4591-4.2424-4.2424c-0.0353-0.0352-0.0633-0.077-0.0824-0.123s-0.0289-0.0954-0.0289-0.1452 0.0098-0.0991 0.0289-0.1452c0.0191-0.046 0.0471-0.0878 0.0824-0.123 0.1485-0.1484 0.3879-0.1484 0.5348 0l4.2425 4.2425c0.0691 0.0713 0.1074 0.1669 0.1067 0.2663-8e-4 0.0993-0.0405 0.1943-0.1106 0.2647-0.0701 0.0703-0.1651 0.1103-0.2644 0.1113s-0.1951-0.0371-0.2666-0.106zm-3.7061 0.2409-3.5515-3.55c-0.0711-0.0711-0.1111-0.1676-0.1111-0.2681 0-0.1006 0.04-0.1971 0.1111-0.2682 0.0712-0.0712 0.1676-0.1111 0.2682-0.1111s0.1971 0.0399 0.2682 0.1111l3.5515 3.55c0.0352 0.0352 0.0632 0.077 0.0822 0.123 0.0191 0.046 0.0289 0.0953 0.0289 0.1452 0 0.0498-0.0098 0.0991-0.0289 0.1451-0.019 0.046-0.047 0.0878-0.0822 0.123-0.0352 0.0353-0.077 0.0632-0.123 0.0823-0.046 0.019-0.0954 0.0288-0.1452 0.0288s-0.0991-0.0098-0.1451-0.0288c-0.046-0.0191-0.0878-0.047-0.1231-0.0823zm-4.0151-0.1394-2.55-2.55c-0.0352-0.0352-0.0632-0.077-0.0822-0.123-0.0191-0.046-0.0289-0.0953-0.0289-0.1451s0.0098-0.0992 0.0289-0.1452c0.019-0.046 0.047-0.0878 0.0822-0.123s0.077-0.0632 0.123-0.0822c0.0461-0.0191 0.0954-0.0289 0.1452-0.0289s0.0991 0.0098 0.1451 0.0289c0.046 0.019 0.0878 0.047 0.1231 0.0822l2.55 2.55c0.0711 0.0711 0.111 0.1676 0.111 0.2682 0 0.1005-0.0399 0.197-0.111 0.2681-0.0712 0.0712-0.1676 0.1111-0.2682 0.1111s-0.1971-0.0399-0.2682-0.1111zm-3.3515 0.094-2.1424-2.1424c-0.0353-0.0353-0.0632-0.0771-0.0823-0.1231-0.019-0.046-0.0288-0.0953-0.0288-0.1451s0.0098-0.0991 0.0288-0.1452c0.0191-0.046 0.047-0.0878 0.0823-0.123 0.0352-0.0352 0.077-0.0632 0.123-0.0822 0.046-0.0191 0.0953-0.0289 0.1451-0.0289s0.0992 0.0098 0.1452 0.0289c0.046 0.019 0.0878 0.047 0.123 0.0822l2.1424 2.1424c0.0353 0.0352 0.0632 0.077 0.0823 0.1231 0.019 0.046 0.0288 0.0953 0.0288 0.1451s-0.0098 0.0991-0.0288 0.1451c-0.0191 0.0461-0.047 0.0879-0.0823 0.1231-0.0352 0.0352-0.077 0.0631-0.123 0.0822s-0.0953 0.0289-0.1451 0.0289-0.0992-0.0098-0.1452-0.0289-0.0878-0.047-0.123-0.0822z"/>
<path d="m40.247 92.244 4.35-4.35c0.0711-0.0711 0.1676-0.111 0.2681-0.111 0.1006 0 0.1971 0.0399 0.2682 0.111 0.0712 0.0712 0.1111 0.1676 0.1111 0.2682s-0.0399 0.1971-0.1111 0.2682l-4.35 4.35c-0.353 0.3515-0.8909-0.1803-0.5363-0.5364zm3.5894 1.0773 7.4818-7.4818c0.0711-0.0711 0.1676-0.1111 0.2682-0.1111 0.1005 0 0.197 0.04 0.2681 0.1111 0.0712 0.0711 0.1111 0.1676 0.1111 0.2682s-0.0399 0.197-0.1111 0.2682l-7.4818 7.4818c-0.353 0.3515-0.8924-0.1818-0.5363-0.5364zm4.7363-0.1106c-0.0353-0.0352-0.0632-0.077-0.0823-0.123s-0.029-0.0954-0.029-0.1452 0.0099-0.0991 0.029-0.1452c0.0191-0.046 0.047-0.0878 0.0823-0.123l8.7288-8.7287c0.0352-0.0353 0.077-0.0632 0.123-0.0823 0.0461-0.019 0.0954-0.0288 0.1452-0.0288s0.0991 0.0098 0.1451 0.0288c0.046 0.0191 0.0879 0.047 0.1231 0.0823 0.0352 0.0352 0.0631 0.077 0.0822 0.123 0.019 0.046 0.0289 0.0953 0.0289 0.1451s-0.0099 0.0992-0.0289 0.1452c-0.0191 0.046-0.047 0.0878-0.0822 0.123l-8.7288 8.7288c-0.0352 0.0353-0.077 0.0633-0.123 0.0824s-0.0954 0.0289-0.1452 0.0289-0.0992-0.0098-0.1452-0.0289-0.0878-0.0471-0.123-0.0824zm5.8849-1.8651c-0.0353-0.0352-0.0633-0.077-0.0824-0.123-0.0191-0.0461-0.0289-0.0954-0.0289-0.1452s0.0098-0.0992 0.0289-0.1452 0.0471-0.0878 0.0824-0.123l7.2863-7.2879c0.1485-0.1485 0.3879-0.1485 0.5349 0 0.0353 0.0352 0.0632 0.077 0.0823 0.123s0.029 0.0954 0.029 0.1452-0.0099 0.0992-0.029 0.1452-0.047 0.0878-0.0823 0.123l-7.2864 7.2879c-0.071 0.0707-0.1672 0.1105-0.2674 0.1105-0.1003 0-0.1964-0.0398-0.2674-0.1105zm6.3151-3.0879c-0.0353-0.0352-0.0632-0.077-0.0823-0.123s-0.029-0.0954-0.029-0.1452 0.0099-0.0992 0.029-0.1452 0.047-0.0878 0.0823-0.123l3.6061-3.606c0.3515-0.3516 0.8909 0.1803 0.5363 0.5363l-3.606 3.6061c-0.0352 0.0353-0.077 0.0632-0.123 0.0823s-0.0954 0.029-0.1452 0.029-0.0992-0.0099-0.1452-0.029-0.0878-0.047-0.123-0.0823zm2.2061-6.5621c-0.075 1e-4 -0.1484-0.0221-0.2108-0.0637s-0.1111-0.1008-0.1398-0.1701-0.0362-0.1455-0.0216-0.2191c0.0147-0.0736 0.0509-0.1411 0.104-0.1941l2.4106-2.4106c0.0711-0.0711 0.1676-0.1111 0.2682-0.1111s0.197 0.04 0.2682 0.1111c0.0711 0.0711 0.111 0.1676 0.111 0.2682 0 0.1005-0.0399 0.197-0.111 0.2681l-2.6788 2.5213zm1.3636-3.7319c-0.075 2e-4 -0.1484-0.022-0.2108-0.0636s-0.1111-0.1008-0.1398-0.1701-0.0362-0.1456-0.0215-0.2191c0.0146-0.0736 0.0508-0.1412 0.1039-0.1941l1.697-1.6955c0.3515-0.353 0.8909 0.1803 0.5364 0.5364l-1.697 1.6954c-0.0742 0.0728-0.1712 0.1106-0.2682 0.1106zm-0.4833 4.0182 1.4-1.4c0.353-0.3515 0.8909 0.1803 0.5363 0.5364l-1.4 1.4c-0.353 0.3515-0.8909-0.1818-0.5363-0.5364zm-27.126-12.283-3.8833-3.8833c-0.0353-0.0352-0.0633-0.077-0.0824-0.1231-0.0191-0.046-0.0289-0.0953-0.0289-0.1451 0-0.0499 0.0098-0.0992 0.0289-0.1452s0.0471-0.0878 0.0824-0.123c0.1485-0.1485 0.3879-0.1485 0.5348 0l3.8849 3.8833c0.0352 0.0352 0.0631 0.077 0.0822 0.1231 0.0191 0.046 0.0289 0.0953 0.0289 0.1451s-0.0098 0.0991-0.0289 0.1451c-0.0191 0.0461-0.047 0.0879-0.0822 0.1231s-0.077 0.0631-0.1231 0.0822c-0.046 0.0191-0.0953 0.0289-0.1451 0.0289s-0.0991-0.0098-0.1451-0.0289-0.0879-0.047-0.1231-0.0822zm1.647-1.703-3.5455-3.5455c-0.0352-0.0352-0.0631-0.077-0.0822-0.123-0.019-0.0461-0.0288-0.0954-0.0288-0.1452s0.0098-0.0991 0.0288-0.1451c0.0191-0.046 0.047-0.0878 0.0822-0.1231 0.0353-0.0352 0.0771-0.0631 0.1231-0.0822 0.046-0.019 0.0953-0.0288 0.1451-0.0288s0.0991 0.0098 0.1452 0.0288c0.046 0.0191 0.0878 0.047 0.123 0.0822l3.5455 3.5455c0.0352 0.0352 0.0631 0.077 0.0822 0.123 0.019 0.0461 0.0288 0.0954 0.0288 0.1452s-0.0098 0.0991-0.0288 0.1451c-0.0191 0.046-0.047 0.0878-0.0822 0.1231-0.0353 0.0352-0.0771 0.0631-0.1231 0.0822-0.046 0.019-0.0953 0.0288-0.1451 0.0288s-0.0991-0.0098-0.1452-0.0288c-0.046-0.0191-0.0878-0.047-0.123-0.0822zm2.8045-1.3531-3.3712-3.3712c-0.0352-0.0352-0.0631-0.077-0.0822-0.123-0.019-0.046-0.0289-0.0954-0.0289-0.1452s0.0099-0.0991 0.0289-0.1451c0.0191-0.046 0.047-0.0878 0.0822-0.1231 0.0352-0.0352 0.0771-0.0631 0.1231-0.0822 0.046-0.019 0.0953-0.0288 0.1451-0.0288s0.0991 0.0098 0.1451 0.0288c0.0461 0.0191 0.0879 0.047 0.1231 0.0822l3.3712 3.3713c0.0353 0.0351 0.0633 0.0769 0.0824 0.123 0.0191 0.046 0.0289 0.0953 0.0289 0.1451 0 0.0499-0.0098 0.0992-0.0289 0.1452s-0.0471 0.0878-0.0824 0.123c-0.1485 0.147-0.3894 0.147-0.5364 0z"/>
<path d="m33.035 69.786c-0.0352-0.0352-0.0632-0.077-0.0823-0.123-0.0191-0.0461-0.0289-0.0954-0.0289-0.1452s0.0098-0.0992 0.0289-0.1452 0.0471-0.0878 0.0823-0.123l7.1909-7.1909c0.0712-0.0711 0.1676-0.1111 0.2682-0.1111s0.1971 0.04 0.2682 0.1111 0.1111 0.1676 0.1111 0.2682-0.04 0.197-0.1111 0.2682l-7.1909 7.1909c-0.1485 0.1469-0.3879 0.1469-0.5364 0zm9.0955-22.241-2.5849-2.5849c-0.1484-0.1485-0.1484-0.3879 0-0.5348 0.0352-0.0353 0.077-0.0633 0.123-0.0824 0.0461-0.0191 0.0954-0.0289 0.1452-0.0289s0.0992 0.0098 0.1452 0.0289 0.0878 0.0471 0.123 0.0824l2.5849 2.5848c0.0352 0.0352 0.0632 0.077 0.0823 0.123s0.0289 0.0954 0.0289 0.1452-0.0098 0.0991-0.0289 0.1452c-0.0191 0.046-0.0471 0.0878-0.0823 0.123-0.1485 0.1454-0.3894 0.1454-0.5364-0.0015zm0.997-2.5622c-0.0498 1e-4 -0.0991-0.0096-0.1451-0.0286-0.0461-0.019-0.0879-0.0468-0.1231-0.082l-1.6743-1.6727c-0.0352-0.0352-0.0631-0.077-0.0822-0.123-0.019-0.0461-0.0288-0.0954-0.0288-0.1452s0.0098-0.0991 0.0288-0.1451c0.0191-0.046 0.047-0.0878 0.0822-0.1231 0.0353-0.0352 0.0771-0.0631 0.1231-0.0822 0.046-0.019 0.0953-0.0288 0.1451-0.0288s0.0991 0.0098 0.1452 0.0288c0.046 0.0191 0.0878 0.047 0.123 0.0822l1.6742 1.6728c0.0353 0.0351 0.0633 0.0769 0.0824 0.123 0.0191 0.046 0.0289 0.0953 0.0289 0.1451 0 0.0499-0.0098 0.0992-0.0289 0.1452s-0.0471 0.0878-0.0824 0.123c-0.0742 0.0728-0.1712 0.1106-0.2681 0.1106zm2.0681-1.9682-2.0045-2.0045c-0.0352-0.0352-0.0632-0.077-0.0822-0.123-0.0191-0.0461-0.0289-0.0954-0.0289-0.1452s0.0098-0.0991 0.0289-0.1451c0.019-0.046 0.047-0.0878 0.0822-0.1231 0.0352-0.0352 0.077-0.0631 0.123-0.0822 0.0461-0.019 0.0954-0.0288 0.1452-0.0288s0.0991 0.0098 0.1451 0.0288c0.046 0.0191 0.0878 0.047 0.1231 0.0822l2.0045 2.0046c0.0352 0.0352 0.0632 0.077 0.0822 0.123 0.0191 0.046 0.0289 0.0954 0.0289 0.1452s-0.0098 0.0991-0.0289 0.1451c-0.019 0.046-0.047 0.0878-0.0822 0.123-0.0352 0.0353-0.077 0.0632-0.123 0.0823-0.0461 0.019-0.0954 0.0288-0.1452 0.0288s-0.0991-0.0098-0.1451-0.0288c-0.046-0.0191-0.0878-0.047-0.1231-0.0823zm2.9425-1.6151-1.9076-1.9076c-0.0352-0.0352-0.0632-0.077-0.0822-0.123-0.0191-0.046-0.0289-0.0954-0.0289-0.1452s0.0098-0.0991 0.0289-0.1451c0.019-0.046 0.047-0.0878 0.0822-0.123 0.0352-0.0353 0.077-0.0632 0.123-0.0823 0.046-0.019 0.0954-0.0288 0.1452-0.0288s0.0991 0.0098 0.1451 0.0288c0.046 0.0191 0.0878 0.047 0.1231 0.0823l1.9075 1.9075c0.0353 0.0352 0.0633 0.077 0.0824 0.123 0.0191 0.0461 0.0289 0.0954 0.0289 0.1452s-0.0098 0.0992-0.0289 0.1452-0.0471 0.0878-0.0824 0.123c-0.1485 0.147-0.3878 0.147-0.5363 0zm2.9969-0.5894-1.8651-1.8651c-0.0352-0.0353-0.0632-0.0771-0.0822-0.1231-0.0191-0.046-0.0289-0.0953-0.0289-0.1451s0.0098-0.0992 0.0289-0.1452c0.019-0.046 0.047-0.0878 0.0822-0.123s0.077-0.0632 0.123-0.0822c0.046-0.0191 0.0954-0.0289 0.1452-0.0289s0.0991 0.0098 0.1451 0.0289c0.046 0.019 0.0878 0.047 0.1231 0.0822l1.8651 1.8651c0.0353 0.0352 0.0633 0.077 0.0824 0.123 0.0191 0.0461 0.0289 0.0954 0.0289 0.1452s-0.0098 0.0992-0.0289 0.1452-0.0471 0.0878-0.0824 0.123c-0.15 0.147-0.3894 0.147-0.5364 0zm3.2788 0.6045-2.1682-2.1681c-0.1484-0.1485-0.1484-0.3879 0-0.5349 0.0352-0.0353 0.077-0.0632 0.123-0.0823 0.0461-0.0191 0.0954-0.029 0.1452-0.029 0.0499 0 0.0992 0.0099 0.1452 0.029s0.0878 0.047 0.123 0.0823l2.1682 2.1682c0.0361 0.035 0.0649 0.0768 0.0847 0.1231 0.0198 0.0462 0.0302 0.0959 0.0305 0.1462 4e-4 0.0503-0.0093 0.1002-0.0284 0.1467s-0.0473 0.0888-0.0829 0.1243-0.0779 0.0636-0.1245 0.0826c-0.0466 0.0189-0.0965 0.0284-0.1468 0.0279s-0.1-0.011-0.1461-0.0309c-0.0462-0.0199-0.088-0.0488-0.1229-0.0851zm-13.968 8.2743-1.9939-1.9939c-0.0353-0.0352-0.0633-0.077-0.0824-0.1231-0.019-0.046-0.0289-0.0953-0.0289-0.1451 0-0.0499 0.0099-0.0992 0.0289-0.1452 0.0191-0.046 0.0471-0.0878 0.0824-0.123 0.1485-0.1485 0.3879-0.1485 0.5349 0l1.9939 1.9939c0.0353 0.0352 0.0633 0.077 0.0823 0.123 0.0191 0.0461 0.029 0.0954 0.029 0.1452s-0.0099 0.0992-0.029 0.1452c-0.019 0.046-0.047 0.0878-0.0823 0.123-0.147 0.1485-0.3864 0.1485-0.5349 0zm-0.6212 3.6924-2.3439-2.3439c-0.0711-0.0711-0.1111-0.1676-0.1111-0.2682s0.04-0.1971 0.1111-0.2682 0.1676-0.1111 0.2682-0.1111 0.197 0.04 0.2682 0.1111l2.3439 2.344c0.0711 0.0711 0.1111 0.1675 0.1111 0.2681s-0.04 0.1971-0.1111 0.2682-0.1676 0.1111-0.2682 0.1111-0.197-0.04-0.2682-0.1111zm-6e-3 3.4227c-0.0498 1e-4 -0.0991-0.0096-0.1451-0.0286-0.046-0.0189-0.0879-0.0468-0.1231-0.082l-1.6455-1.6454c-0.0352-0.0352-0.0631-0.077-0.0822-0.1231-0.019-0.046-0.0289-0.0953-0.0289-0.1451s0.0099-0.0991 0.0289-0.1451c0.0191-0.0461 0.047-0.0879 0.0822-0.1231 0.0353-0.0352 0.0771-0.0631 0.1231-0.0822s0.0953-0.0289 0.1451-0.0289 0.0991 0.0098 0.1452 0.0289c0.046 0.0191 0.0878 0.047 0.123 0.0822l1.6455 1.6455c0.0531 0.0529 0.0892 0.1205 0.1039 0.1941 0.0147 0.0735 0.0072 0.1498-0.0215 0.2191-0.0288 0.0693-0.0774 0.1285-0.1398 0.1701s-0.1358 0.0638-0.2108 0.0636z"/>
<path d="m37.904 57.297c-0.0352-0.0352-0.0632-0.077-0.0823-0.123s-0.0289-0.0954-0.0289-0.1452 0.0098-0.0992 0.0289-0.1452 0.0471-0.0878 0.0823-0.123l2.3773-2.3773c0.1485-0.1484 0.3879-0.1484 0.5349 0 0.0352 0.0352 0.0632 0.077 0.0823 0.123 0.0191 0.0461 0.029 0.0954 0.029 0.1452s-0.0099 0.0992-0.029 0.1452-0.0471 0.0878-0.0823 0.123l-2.3773 2.3773c-0.147 0.1485-0.3864 0.1485-0.5349 0zm0.5107-4.5682c-0.0751 1e-4 -0.1484-0.022-0.2108-0.0636-0.0625-0.0416-0.1111-0.1008-0.1398-0.1701-0.0288-0.0693-0.0363-0.1456-0.0216-0.2192 0.0147-0.0735 0.0509-0.1411 0.104-0.1941l3.2075-3.2076c0.1485-0.1484 0.3879-0.1484 0.5349 0 0.0353 0.0352 0.0633 0.077 0.0824 0.1231 0.0191 0.046 0.0289 0.0953 0.0289 0.1451 0 0.0499-0.0098 0.0992-0.0289 0.1452s-0.0471 0.0878-0.0824 0.123l-3.2076 3.2076c-0.0708 0.0706-0.1666 0.1104-0.2666 0.1106zm1.859-6.0546 3.1697-3.1697c0.0353-0.0352 0.0771-0.0631 0.1231-0.0822 0.046-0.019 0.0953-0.0288 0.1451-0.0288s0.0991 0.0098 0.1452 0.0288c0.046 0.0191 0.0878 0.047 0.123 0.0822 0.0352 0.0353 0.0632 0.0771 0.0822 0.1231 0.0191 0.046 0.0289 0.0953 0.0289 0.1451s-0.0098 0.0992-0.0289 0.1452c-0.019 0.046-0.047 0.0878-0.0822 0.123l-3.1697 3.1697c-0.353 0.3515-0.8909-0.1818-0.5364-0.5364zm5.1046-4.9833 2.6333-2.6333c0.1485-0.1485 0.3879-0.1485 0.5349 0 0.0352 0.0352 0.0632 0.077 0.0823 0.123s0.029 0.0953 0.029 0.1452c0 0.0498-0.0099 0.0991-0.029 0.1451-0.0191 0.0461-0.0471 0.0879-0.0823 0.123l-2.6334 2.6334c-0.3515 0.3515-0.8894-0.1818-0.5348-0.5364zm4.7409-0.9121 2.0197-2.0197c0.0352-0.0352 0.077-0.0632 0.123-0.0822 0.0461-0.0191 0.0954-0.0289 0.1452-0.0289s0.0991 0.0098 0.1451 0.0289c0.046 0.019 0.0878 0.047 0.1231 0.0822 0.0352 0.0352 0.0631 0.077 0.0822 0.123 0.019 0.0461 0.0288 0.0954 0.0288 0.1452s-0.0098 0.0991-0.0288 0.1451c-0.0191 0.046-0.047 0.0878-0.0822 0.1231l-2.0197 2.0197c-0.3531 0.3515-0.8925-0.1819-0.5364-0.5364zm-37.359-6.3621c-0.05 0-0.0995-0.0099-0.1457-0.0292-0.0461-0.0192-0.088-0.0473-0.1232-0.0828s-0.0631-0.0777-0.0819-0.124c-0.0189-0.0463-0.0284-0.0959-0.028-0.1458 0.0106-1.5955 0.0227-3.247 0.4091-4.847 0.3106-1.2849 1.0091-3.0621 2.5697-4.2303 1.8546-1.3909 4.2758-1.4637 6.8076-1.4349l16.277 0.2379c0.0497 6e-4 0.0988 0.011 0.1446 0.0306 0.0457 0.0196 0.0871 0.048 0.1219 0.0836 0.0347 0.0356 0.0621 0.0777 0.0806 0.1238 0.0185 0.0462 0.0277 0.0956 0.0271 0.1453-3e-3 0.2091-0.1606 0.3622-0.3833 0.3743l-16.277-0.2379c-2.397-0.0379-4.6788 0.0349-6.3424 1.2833-1.3803 1.0349-2.0061 2.6379-2.2864 3.8016-0.3667 1.5151-0.3773 3.1227-0.3879 4.6757-0.0045 0.2076-0.1727 0.3758-0.3818 0.3758z"/>
<path d="m34.345 25.874c-0.0318 0-0.0651-0.0045-0.0984-0.0136-0.0481-0.013-0.0932-0.0353-0.1326-0.0658-0.0394-0.0304-0.0725-0.0683-0.0972-0.1115-0.0248-0.0432-0.0408-0.0908-0.0471-0.1402-0.0064-0.0494-0.0029-0.0996 0.0102-0.1477 0.2333-0.8606 0.2485-1.7712 0.0394-2.6378-0.0117-0.0485-0.0138-0.0988-6e-3 -0.148 0.0077-0.0493 0.0251-0.0965 0.0511-0.139 0.0261-0.0425 0.0603-0.0795 0.1006-0.1087 0.0404-0.0293 0.0861-0.0503 0.1346-0.0619 0.203-0.0455 0.4076 0.0773 0.4576 0.2803 0.2378 0.9894 0.2212 2.0303-0.0455 3.0136-0.047 0.1682-0.2 0.2803-0.3667 0.2803zm-4.3712-0.0409c-0.0121 0-0.0257 0-0.0378-0.0015-0.0496-0.0047-0.0977-0.0192-0.1417-0.0426-0.044-0.0233-0.0829-0.0551-0.1145-0.0935-0.0317-0.0385-0.0555-0.0827-0.07-0.1303-0.0146-0.0477-0.0196-0.0977-0.0148-0.1472l0.2697-2.7334c0.0197-0.2075 0.2107-0.35 0.4137-0.3409 0.2076 0.0212 0.3606 0.2061 0.3409 0.4137l-0.2697 2.7333c-9e-3 0.0935-0.0525 0.1803-0.1219 0.2436s-0.1599 0.0985-0.2539 0.0988zm-5.9727 0.1212c-0.0902 1e-4 -0.1775-0.0321-0.2461-0.0907s-0.1141-0.1398-0.1281-0.229l-0.4243-2.7151c-0.0318-0.2061 0.1091-0.4 0.3152-0.4333 0.0491-0.0078 0.0993-0.0058 0.1477 0.0058s0.094 0.0327 0.1342 0.062c0.0403 0.0292 0.0744 0.0661 0.1003 0.1086 0.026 0.0424 0.0434 0.0896 0.0511 0.1387l0.4242 2.7152c0.0319 0.206-0.109 0.4-0.3151 0.4333-0.0197 3e-3 -0.0379 0.0045-0.0591 0.0045zm-4.7818-0.1227c-0.0203 0-0.0406-0.0015-0.0606-0.0045-0.0492-0.0078-0.0963-0.0251-0.1388-0.0511-0.0424-0.026-0.0793-0.0601-0.1086-0.1003-0.0292-0.0402-0.0503-0.0859-0.0619-0.1342-0.0117-0.0484-0.0136-0.0986-0.0059-0.1478 0.1165-0.7251 0.0882-1.4661-0.0833-2.1803-0.0117-0.0484-0.0138-0.0987-6e-3 -0.148 0.0077-0.0492 0.0251-0.0964 0.0512-0.139 0.026-0.0425 0.0602-0.0794 0.1005-0.1087 0.0404-0.0293 0.0861-0.0503 0.1346-0.0618 0.2091-0.0455 0.4076 0.0772 0.4576 0.2803 0.1939 0.803 0.2257 1.6606 0.0954 2.4772-0.0318 0.1864-0.1924 0.3182-0.3742 0.3182zm-3.4803 1.1636c-0.0921 1e-4 -0.181-0.0334-0.2502-0.0942-0.0691-0.0608-0.1138-0.1447-0.1256-0.2361-0.0788-0.6136-0.3969-1.1924-0.8727-1.5863-0.1606-0.1334-0.1818-0.3727-0.0485-0.5349 0.0643-0.0771 0.1566-0.1255 0.2566-0.1346 0.1001-0.0091 0.1996 0.0219 0.2768 0.0861 0.6245 0.5244 1.0309 1.263 1.1393 2.0713 0.0064 0.0493 3e-3 0.0994-0.01 0.1475-0.013 0.048-0.0353 0.093-0.0657 0.1324s-0.0682 0.0724-0.1114 0.0972c-0.0432 0.0247-0.0908 0.0407-0.1401 0.0471-0.0152 3e-3 -0.0318 0.0045-0.0485 0.0045zm-2.6303 3.6455c-0.103 0-0.2061-0.0409-0.2803-0.1242l-1.2167-1.3364c-0.1409-0.1545-0.1288-0.3939 0.0258-0.5364 0.0743-0.0674 0.1724-0.1026 0.2727-0.0978s0.1946 0.0493 0.2621 0.1236l1.2167 1.3379c0.0675 0.0743 0.1026 0.1724 0.0978 0.2727s-0.0493 0.1946-0.1236 0.2621c-0.0727 0.0667-0.1636 0.0985-0.2545 0.0985zm0.2863 2.4879c-0.0181 0-0.0363-0.0015-0.0545-3e-3l-1.8818-0.2682c-0.0493-0.0071-0.0966-0.0238-0.1394-0.0492-0.0428-0.0253-0.0802-0.0589-0.11-0.0987-0.0299-0.0398-0.0515-0.0851-0.0639-0.1333-0.0123-0.0482-0.015-0.0984-0.0079-0.1476 7e-3 -0.0493 0.0237-0.0966 0.0491-0.1394s0.0589-0.0802 0.0987-0.11c0.0399-0.0299 0.0852-0.0515 0.1334-0.0639 0.0482-0.0123 0.0983-0.015 0.1476-0.0079l1.8818 0.2682c0.0492 7e-3 0.0966 0.0237 0.1394 0.0491 0.0428 0.0253 0.0802 0.0589 0.11 0.0987s0.0515 0.0851 0.0638 0.1333c0.0124 0.0482 0.0151 0.0984 8e-3 0.1476-0.0131 0.09-0.0581 0.1723-0.1268 0.2318s-0.1565 0.0923-0.2475 0.0925zm75.576-21.38-25.288-0.5652c-0.2091-0.0045-0.3742-0.1788-0.3712-0.3863 2e-3 -0.0992 0.0428-0.1936 0.1136-0.263s0.166-0.1083 0.2652-0.1082h0.0076l24.548 0.5484c0.0139-0.0557 0.0403-0.1075 0.0772-0.1515 0.1349-0.1591 0.3758-0.1788 0.5334-0.0454l0.3575 0.303c0.1213 0.103 0.1652 0.2727 0.1091 0.4227-0.056 0.15-0.1969 0.2455-0.353 0.2455z"/>
<path d="m67.442 13.108c-0.0946 0-0.1859-0.0355-0.2557-0.0995-0.0699-0.0639-0.1132-0.1517-0.1215-0.246-0.1167-1.2939-0.0652-2.6015 0.1515-3.8833 0.0363-0.20606 0.2379-0.34393 0.4363-0.3106 0.0991 0.01669 0.1875 0.07203 0.2457 0.15386s0.0816 0.18345 0.0649 0.2825c-0.2053 1.2186-0.2537 2.4585-0.1439 3.6894 0.0046 0.0497-7e-4 0.0998-0.0155 0.1474s-0.0389 0.0918-0.0709 0.1301c-0.0319 0.0383-0.0711 0.0699-0.1153 0.093s-0.0926 0.0373-0.1422 0.0416c-0.0106 0.0016-0.0212 0.0016-0.0334 0.0016zm5.147-0.2016c-0.0641 2e-4 -0.1272-0.016-0.1833-0.0469-1.1894-0.6546-1.6985-2.2409-1.1122-3.4667 0.0433-0.09056 0.1207-0.16026 0.2153-0.19378s0.1987-0.02813 0.2893 0.01499c0.0906 0.04326 0.1602 0.12069 0.1938 0.21529 0.0335 0.0946 0.0281 0.19863-0.015 0.28926-0.1905 0.43853-0.215 0.93133-0.0689 1.3866 0.1461 0.4552 0.4527 0.8418 0.8628 1.0876 0.1834 0.1015 0.25 0.3318 0.15 0.5152-0.0682 0.1288-0.1985 0.1984-0.3318 0.1984zm5.0379 0.2167c-0.0642 1e-4 -0.1273-0.0161-0.1835-0.0471s-0.1036-0.0758-0.1377-0.1302c-0.5459-0.8771-0.8244-1.8943-0.8015-2.9272-1e-3 -0.0504 0.0085-0.10042 0.0279-0.14692 0.0194-0.04649 0.0483-0.08845 0.0847-0.12321 0.0365-0.03476 0.0798-0.06156 0.1272-0.07871 0.0473-0.01714 0.0978-0.02426 0.148-0.02089 0.0498 0.00118 0.0988 0.01215 0.1443 0.03228 0.0455 0.02014 0.0866 0.04904 0.1209 0.08506 0.0344 0.03602 0.0613 0.07846 0.0792 0.12488s0.0265 0.09591 0.0253 0.14571c-0.0227 0.8757 0.2212 1.7651 0.6864 2.506 0.0265 0.0422 0.0444 0.0892 0.0528 0.1383 0.0083 0.0491 0.0069 0.0993-0.0042 0.1479-0.0112 0.0486-0.0317 0.0944-0.0606 0.135s-0.0655 0.0751-0.1077 0.1015c-0.0636 0.0394-0.1333 0.0576-0.2015 0.0576zm4.1136-0.3379c-0.0273 0-0.056-3e-3 -0.0833-0.0091-0.8182-0.1833-1.0409-1.0378-1.1-1.8742-0.0258-0.4106-0.05-0.797-0.2546-1.0439-0.0316-0.03839-0.0554-0.08265-0.0699-0.13024-0.0146-0.04758-0.0196-0.09757-0.0148-0.1471 0.0048-0.04952 0.0193-0.09763 0.0427-0.14155 0.0233-0.04392 0.0551-0.08281 0.0936-0.11444 0.1621-0.13485 0.3984-0.11212 0.5333 0.05151 0.4015 0.48637 0.4 1.1061 0.4439 1.7364 0.0318 0.3833 0.1818 0.8561 0.4925 0.9273 0.0977 0.0224 0.1827 0.0827 0.2361 0.1676s0.0709 0.1876 0.0487 0.2854c-0.0379 0.1743-0.1939 0.2924-0.3682 0.2924zm3.9424-0.053c-0.0864-1e-4 -0.1702-0.0298-0.2374-0.0841-0.0673-0.0543-0.1139-0.1299-0.1323-0.2144l-0.5833-2.6909c-0.0212-0.09804-0.0026-0.20047 0.0517-0.28483 0.0542-0.08436 0.1397-0.14376 0.2377-0.16517 0.098-0.02117 0.2005-0.00259 0.2848 0.05166 0.0844 0.05425 0.1438 0.13975 0.1652 0.23773l0.5849 2.6909c0.0211 0.0981 0.0025 0.2005-0.0517 0.2848-0.0543 0.0844-0.1398 0.1438-0.2377 0.1652-0.0273 0.0061-0.0561 0.0091-0.0819 0.0091z"/>
</svg>
