<?xml version="1.0" encoding="UTF-8"?>
<svg width="100" height="100" viewBox="0 0 100 100" xmlns="http://www.w3.org/2000/svg">
<path d="M77.046 22.485l-.333.333c-.152.151-.394.151-.53 0-.151-.152-.151-.379 0-.53l.318-.333-.061-.061c-.152-.151-.152-.394 0-.53.151-.152.394-.152.53 0l.076.061.636-.651c.151-.151.394-.151.546 0 .136.151.136.394 0 .53l-.651.651 1.379 1.364c.136.151.136.394 0 .545-.152.151-.394.151-.546 0l-1.364-1.379zm-6.713 26.06c-.151-.151-.151-.394 0-.545s.394-.151.546 0l2.454 2.47c.152.151.152.394 0 .53-.136.151-.379.151-.53 0l-2.288-2.288-.182-.167zm-4.136-27.742c.167-1.454 1.167-2.545 2.667-2.894 3.636-.848 6.182 3.561 3.682 6.182-2.47 2.576-6.773.242-6.349-3.288zm3.015-1.424c-1.182.288-1.455 1.121-1.515 1.606-.243 2.076 2.273 3.591 3.757 2.046 1.455-1.515-.076-4.167-2.242-3.652zm-9.015 1c-1.015-1.591-3.742-1.348-3.985.606-.242 2.061 2.288 3.591 3.758 2.046.651-.667.742-1.833.227-2.652h0zm.879 3.712c-2.47 2.576-6.788.242-6.364-3.288.394-3.349 4.97-4.045 6.758-1.242.894 1.409.727 3.348-.394 4.53zm-15.53 38.803l.167.076c-.061 0-.121-.046-.167-.076zm3.121-42.515c-1.015-1.591-3.742-1.348-3.97.606-.242 2.061 2.288 3.591 3.758 2.046.636-.667.742-1.833.212-2.652zm-5.47.424c.167-1.454 1.167-2.545 2.667-2.894a3.92 3.92 0 0 1 4.091 1.652c.894 1.409.712 3.348-.409 4.53-2.424 2.53-6.773.303-6.348-3.288h0zm-4.758 56.743l-1.712-1.712-1.97 1.97 1.727 1.712 1.955-1.97zm.242-3.667l-1.424 1.409 1.727 1.727 1.409-1.409-1.712-1.727zm-.545-.53l-.712-.712c-.136-.152-.136-.394 0-.545.152-.136.394-.136.546 0l.697.712 1.939-1.939c.151-.151.394-.151.545 0s.151.394 0 .545l-1.939 1.939 1.712 1.712 3.061-3.045c.136-.151.379-.151.53 0s.152.394 0 .53l-3.045 3.061 1.894 1.894 1.121-1.106-1.076-1.076c-.152-.151-.152-.394 0-.53.151-.151.394-.151.53 0l1.076 1.061.864-.864c.151-.152.394-.152.545 0s.151.394 0 .545l-.864.864 1.954 1.955c.152.151.152.394 0 .545-.151.136-.394.136-.545 0l-1.955-1.97-1.106 1.106 1.848 1.864c.152.152.152.394 0 .546-.136.136-.379.136-.53 0l-1.864-1.864-3.909 3.909 1.273 1.273c.151.151.151.394 0 .545-.152.136-.394.136-.545 0l-3.697-3.712-1.576 1.561c-.136.151-.379.151-.53 0s-.151-.394 0-.545l1.561-1.561-1.712-1.712-4.561 4.546c-.136.151-.379.151-.53 0s-.152-.394 0-.53l4.591-4.591c-.076-.136-.076-.303.045-.409.106-.121.273-.121.409-.061l2-2-1.076-1.076c-.136-.136-.136-.379 0-.53.151-.151.394-.151.545 0l1.076 1.076 1.409-1.409zm.848 4.742l-1.97 1.955 1.909 1.909 3.909-3.909-1.894-1.909-1.424 1.409 1.03 1.03c.152.151.152.394 0 .53-.151.151-.394.151-.545 0l-1.015-1.015zM6.879 62.53c0-.212.167-.379.379-.379h.576v-3.909h-1.41c-.212 0-.379-.167-.379-.379 0-.197.167-.379.379-.379h1.409v-3.651H6.667c-.212 0-.379-.167-.379-.379s.167-.379.379-.379h1.167v-3.212c0-.212.167-.379.379-.379s.379.167.379.379v3.212h2.258c.212 0 .379.167.379.379s-.167.379-.379.379H8.591v3.651h2.273c.212 0 .379.182.379.379 0 .212-.167.379-.379.379H8.591v3.909h1.651c.212 0 .379.167.379.379s-.167.379-.379.379H8.591v2.47h1.424c.212 0 .379.167.379.379 0 .197-.167.379-.379.379H8.591v1.242c0 .212-.167.379-.379.379s-.379-.167-.379-.379v-1.242h-1.53c-.212 0-.379-.182-.379-.379 0-.212.167-.379.379-.379h1.53v-2.47h-.576c-.212 0-.379-.167-.379-.379h0z"/>
<path d="M45.546 62.894c.045.03.106.076.167.076l-.167-.076zm1.788-1.394l-1.348 1.349c-.076.076-.167.121-.258.121 1.349.606 2.773 1.015 4.242 1.167L47.333 61.5zm-4.545-20.258l-1.773 1.773c1.864-.288 3.712-.667 5.53-1.167-.061-.015-.136-.03-.182-.076-.151-.151-.151-.394 0-.53l.727-.727-1.788-1.788-1.985 1.985 1 1c.152.151.152.379 0 .53s-.379.151-.53 0l-1-1zm-17.864 7.121L7.227 31.682c-2.197 2.03-3.667 5.227-4.03 8.924-.364 3.758-.167 38.742 1.091 47.273.288 2.136.742 4.227 1.788 5.758L39.5 60.924c-.364-.258-.712-.53-1.061-.803-4.712-3.682-9.197-7.788-13.515-11.758h0zm70.273 35.758l.03-.545-.288.288.258.258zm-2.5-2.5l1.712 1.712.864-.879.03-.773c-.015 0-.03.015-.061.015-.091 0-.182-.03-.258-.106l-1.136-1.136-1.151 1.167zm1.712 2.773l-1.682 1.667 2.227 2.227c.091-.864.136-1.758.182-2.682l.015-.455-.742-.758zm-.849 7.712l-1.258 1.258c.182.151.364.318.561.485l.091-.091c.379-.424.682-.909.939-1.409-.061-.015-.106-.015-.151-.061l-.182-.182zm-3.394-.591c.53.439 1.03.909 1.561 1.348l1.303-1.288-1.47-1.455-1.394 1.394zm-2.864-2.485l2.288 1.985 1.439-1.439-2.136-2.136-1.591 1.591zm1.788 3.561l-1.106 1.106 1.939 1.939c.015.015.015.045.03.061.621-.227 1.197-.515 1.727-.864-.182-.151-.349-.318-.53-.47a.4.4 0 0 1-.288-.106c-.045-.061-.076-.136-.076-.212-.576-.47-1.136-.97-1.697-1.455h0zm-2.864-2.485l-.909.924 2.136 2.121 1.061-1.061-2.288-1.985h0zm-.651 6l.288.288c.015.015 0 .046.015.061 1.151-.076 2.258-.227 3.288-.515l-1.712-1.712-1.879 1.879zm-.788-4.53l-1.879 1.864 2.121 2.136 1.894-1.879-2.136-2.121zm-1.924-3.015l1.924 1.924.864-.879-2.061-1.773-.727.727zm-2.424 2.424l1.924 1.924 1.879-1.879-1.924-1.924-1.879 1.879zm.621 5.53l1.833.015 1.349-.015c0-.091.03-.182.106-.242l.151-.167-2.136-2.136-1.924 1.924.621.621zm-3.076-3.076l1.924 1.924 1.924-1.924-1.924-1.924-1.924 1.924zm1.848 3.061h.152l-.076-.061-.076.061zm-4.212-.682l.667.667L79 96.5c-.015-.106 0-.227.091-.318l.288-.288-1.924-1.924-1.833 1.849zm-.409.651l-.136-.121-.121.121h.258zm-1.924-2.985l1.788 1.788 1.848-1.833-1.803-1.788-1.833 1.833zm1.258 2.333l-1.803-1.803-1.833 1.833.364.379c.076.061.091.136.106.227l2.515.015.652-.651zm-4.106.621l-.061-.046-.061.046h.121zm-3.561-.303c.076.076.106.182.091.288l2.667.015c-.076-.136-.076-.303.045-.424l.151-.167-1.788-1.788-1.621 1.621.455.455zm-.788.288l-.212-.197-.197.197h.409zm-2.561-60.03l2.182 2.182c3.091-.773 5.727-2.076 8.061-4.212-.182.151-.379.106-.515-.015l-.924-.924-2.97 2.97.136.152c.151.152.151.394 0 .53-.136.151-.379.151-.53 0l-.151-.136-.061.061c-.151.151-.379.151-.53 0s-.151-.394 0-.53l.061-.076-2.379-2.379-2.379 2.379zm.318 57.788l-1.924 1.924.288.288 2.5.015c.015-.045.015-.106.061-.151l.576-.576-1.5-1.5zm-3.788-31.424c8.439 9 17.379 17.636 26.667 25.788l1.636-1.636-1.545-1.545c-.151-.151-.151-.394 0-.545.136-.136.379-.136.53 0l1.545 1.561.121-.121c.152-.151.394-.151.545 0 .136.151.136.394 0 .53l-.121.121 2.136 2.136.788-.788c.152-.151.394-.151.53 0 .152.136.152.379 0 .53l-.788.788 1.454 1.47.121-.121c.151-.151.394-.151.53 0 .151.136.151.379 0 .53l-.121.121.106.091c.303-.773.515-1.621.651-2.53-.076-.015-.151-.03-.197-.091l-2.454-2.439-.621.621c-.152.151-.379.151-.53 0s-.152-.394 0-.53l.621-.621-2.409-2.409c-.136-.152-.136-.379 0-.53.151-.152.394-.152.545 0l2.394 2.394 1.667-1.667-1.712-1.712-.742.758c-.151.136-.394.136-.53 0-.151-.151-.151-.394 0-.545l.742-.742-.409-.409c-.152-.152-.152-.394 0-.545.151-.136.394-.136.53 0l.409.409 1.167-1.152-1.258-1.257c-.151-.152-.151-.394 0-.546.046-.03.091-.03.152-.061a.39.39 0 0 1 .106-.273l1.212-1.212-.788-.788c-.151-.151-.151-.394 0-.545.151-.136.379-.136.53 0l.788.803.818-.818c.151-.151.394-.151.53 0 .151.151.151.394 0 .53l-.803.818.742.742c.076.076.106.167.106.273s-.03.197-.106.273c-.151.151-.379.151-.53 0l-.758-.758-1.212 1.227c-.015 0-.03 0-.046.015l1.046 1.045.682-.682c.151-.152.379-.152.53 0s.152.394 0 .545l-.667.667.939.955.136-3.288.242-5.515c-.106 0-.197-.03-.273-.106l-.076-.076s0 .015-.015.03l-1.167 1.182 1.227 1.227c.151.152.151.394 0 .546-.136.136-.379.136-.53 0l-1.242-1.242-.273.288c-.151.152-.394.152-.545 0s-.151-.394 0-.545l.454-.439c.015-.061.015-.106.061-.152.03-.03.091-.03.136-.061l1.349-1.333c.015-.015.03-.015.03-.015l-.197-.197-.364.364c-.151.151-.394.151-.53 0-.151-.152-.151-.394 0-.53l.424-.424a.37.37 0 0 1 .076-.349c.091-.091.227-.106.333-.076l.394-.394c.151-.151.394-.151.545 0 .136.151.136.394 0 .53l-.333.333.545.561 1.182-28.47c.136-3.364.091-6.818-1.606-9.273-9.333 9.394-19.546 18.106-31.212 26.606-1.273.924-2.621 1.849-4.045 2.697h0zm-2.167 33.621l-.182-.197-.197.182.379.015zM62 53.197l-3.909 3.909 1.742 1.758 3.924-3.924L62 53.197zm-3.561 42.652c.151.136.151.379 0 .53l2.136.015.273-.288-1.53-1.53-1.076 1.061.197.212zm24.439 2.197l-69.939-.424c-5.636 0-8.985-1.167-10.152-9.515-1.273-8.591-1.47-43.864-1.091-47.636.439-4.439 2.227-8.136 5.061-10.394 3.985-3.212 9.273-3.349 14.773-3.212l14.455.318c-1.97-3.136-2.333-6.439-1.197-10.515 3.955-14.045 23.061-20.318 38.197-8.47 3.182 2.485 5.409 5.227 6.621 8.152 1.5 3.576 1.5 7.833.045 11.803l4.909.106c10.303.242 13.909 3.349 13.909 12.788 0 .561 0 1.136-.03 1.742l-1.788 42.879c-.379 9.121-3.167 12.439-13.773 12.379h0zm-26.136-3.894l.955.955 2.439-2.439c.151-.152.394-.152.545 0 .136.151.136.379 0 .53l-.833.833 1.53 1.546 1.924-1.924-.318-.318c-.152-.151-.152-.394 0-.545.136-.151.379-.151.53 0l.333.333.454-.454c.136-.152.379-.152.53 0 .152.136.152.379 0 .53l-.454.454 1.5 1.5L67.5 93.53l-.954-.97c-.152-.151-.152-.379 0-.53s.379-.151.53 0l.97.955L70 91.03c.151-.151.394-.151.546 0 .136.136.136.379 0 .53l-1.97 1.97 1.788 1.788 1.849-1.833-1.439-1.424c-.136-.151-.136-.394 0-.545.151-.152.394-.152.546 0l1.424 1.424 3.333-3.333c.151-.152.394-.152.545 0s.151.394 0 .545l-.97.955 1.803 1.803 1.924-1.924-.455-.455c-.151-.151-.151-.394 0-.53.136-.151.379-.151.53 0l.455.439 3.121-3.121c-8.454-7.561-16.606-15.53-24.333-23.803-6.682 3.561-11.742 2.667-17.955-1.682L7.091 94.742c1.545 1.258 3.515 1.364 5.864 1.364l43.5.258.712-.727-.97-.955c-.152-.151-.152-.394 0-.53.151-.151.394-.151.545 0h0zm-1.03-31.015l-1.818-1.803-2.258 2.242a.39.39 0 0 1-.273.106.39.39 0 0 1-.273-.106c-.151-.152-.151-.394 0-.53l2.258-2.258-2.651-2.651-2.833 2.833 3.227 3.212c1.652-.015 3.242-.379 4.773-.985-.061-.015-.106-.015-.151-.061h0zm-1.833-2.894l3.136-3.136-.515-.515c-.151-.151-.151-.379 0-.53s.394-.151.53 0l.515.515 5.121-5.121c.151-.152.394-.152.545 0 .151.136.151.379 0 .53l-.667.667 1.742 1.758L67 51.697l-.636-.636c-.151-.151-.151-.394 0-.53.152-.151.394-.151.545 0l.621.621 2.349-2.333c.136-.151.379-.151.53 0s.151.394 0 .545l-2.333 2.333 1.409 1.409c.151.151.151.394 0 .545-.076.076-.167.106-.258.106-.106 0-.197-.03-.273-.106l-1.424-1.424-2.712 2.712.939.939c.151.151.151.394 0 .53-.151.151-.379.151-.53 0l-.939-.924-3.909 3.909.818.818s0 .015.015.015a80.63 80.63 0 0 0 2-1.409c3.515-2.561 6.909-5.136 10.167-7.758 2.364-1.879 4.651-3.788 6.894-5.727 1.985-1.682 3.924-3.409 5.833-5.151-.046-.015-.091-.015-.121-.045l-.894-.894-1.833 1.833a.38.38 0 0 1-.273.121c-.015 0-.045-.03-.076-.046l.303.303c.136.152.136.379 0 .53-.152.152-.394.152-.545 0l-2.136-2.136-2.591 2.591 2.258 2.258c.151.151.151.394 0 .545-.151.136-.394.136-.53 0l-.743-.758c0 .121-.015.227-.106.318l-2.394 2.379.288.288c.151.151.151.379 0 .53s-.394.151-.545 0l-.273-.273-2.136 2.136c-.151.151-.394.151-.53 0-.151-.151-.151-.394 0-.545l2.136-2.136-2.136-2.136c-.151-.151-.151-.379 0-.53.136-.151.379-.151.53 0l2.136 2.136 2.394-2.394c.076-.076.197-.106.303-.091l-1.758-1.758c-.151-.152-.151-.394 0-.546s.379-.151.53 0l.03.03 3.576-3.561c.151-.151.394-.151.53 0 .151.151.151.379 0 .53l-.439.439 1.591 1.591c-.03-.121-.03-.258.076-.348l1.833-1.833L82.849 37c-.151-.151-.151-.394 0-.545s.379-.152.53 0l1.712 1.712.349-.333c.151-.151.379-.151.53 0s.151.394 0 .53l-.333.349.894.894c.046.045.046.091.061.136 2.636-2.424 5.212-4.894 7.712-7.424-2.379-2.151-6.106-2.455-9.773-2.545l-5.485-.106c-4.167 9.03-14.318 12.53-23.788 10.591a50.94 50.94 0 0 1-17.318 4.697c-.545.061-1-.515-.742-1.061.712-1.591 3.227-7.061 4.53-10.545-1.349-1.121-3.606-3.242-4.667-4.636L21.5 28.379c-4.576-.121-9.439-.091-13.061 2.364l17.485 16.485c4.318 3.955 8.773 8.045 13.439 11.697 1.909 1.5 3.939 2.924 6.061 3.909-.136-.136-.136-.379.015-.515l1.349-1.364-1.47-1.47c-.151-.151-.151-.394 0-.545s.379-.151.53 0l1.485 1.485 2.955-2.954c0-.076.015-.152.076-.212s.136-.076.212-.091l3.091-3.091c.151-.152.394-.152.53 0 .151.151.151.394 0 .545l-2.97 2.97 2.651 2.652zm3.682-2.591l-3.136 3.121 1.818 1.833c.121.106.121.258.061.409 1.47-.636 2.894-1.439 4.273-2.348l-.864-.864c-.061 0-.151-.015-.197-.076-.061-.061-.076-.136-.091-.212l-1.864-1.864zm-.803-20.848l-2.015 2.015c.03-.015.061-.015.091-.03.151-.076.318-.091.485-.061 3.227.697 6.5.682 9.53.061l-1.864-1.849-1.242 1.258c-.152.151-.394.151-.545 0s-.152-.394 0-.546l1.258-1.258-1.652-1.651c-.151-.136-.151-.379 0-.53s.394-.151.53 0l1.652 1.651 2.394-2.379-.333-.333c-.152-.136-.152-.379 0-.53s.379-.151.53 0l.333.333 3.697-3.697c.136-.151.379-.151.53 0s.151.394 0 .53l-3.697 3.697 2.379 2.379 2.985-2.97-1.333-1.333c-.151-.136-.151-.379 0-.53s.394-.152.545 0l1.318 1.318 2.243-2.242c.151-.152.379-.136.53-.015l-.515-.515c-.167.151-.394.151-.545 0-.136-.152-.136-.379 0-.53l-.258-.258c-.151-.152-.151-.394 0-.546s.394-.151.53 0l.273.273 2.182-2.182-1.136-1.136c-.136-.136-.136-.379 0-.53.151-.152.394-.152.545 0l1.121 1.121.5-.5c.136-.136.379-.136.53 0 .152.151.152.394 0 .545l-.545.545c.03.121.015.258-.076.349a.39.39 0 0 1-.273.106c-.03 0-.046-.015-.076-.03l-2.242 2.242.939.924c.136.152.136.394 0 .545-.151.136-.394.136-.545 0l-.394-.394c.136.151.136.379 0 .515l-2.258 2.258.924.924c.152.136.152.364.015.515 2.364-2.197 4.061-5.333 4.061-5.742 1.697-3.894 1.818-8.136.349-11.667-1.121-2.682-3.182-5.212-6.167-7.545-14.318-11.212-32.136-5.273-35.803 7.697-1.879 6.742 1.106 10.773 6.864 15.439.258.212.348.561.227.864-1.227 3.151-.106.833-4.227 9.939.212-.03.424-.076.636-.106l2.5-2.5-.258-.273c-.151-.136-.151-.379 0-.53s.379-.152.53 0l.258.258L44.955 38c.152-.151.379-.151.53 0 .03.015.03.061.045.091.106-.015.212.015.303.091l1.788 1.788 2.515-2.515-.606-.591c-.136-.151-.136-.394 0-.53.152-.151.394-.151.546 0l.591.591 2.515-2.515c.151-.152.379-.152.53 0s.151.394 0 .53l-2.515 2.515 1.424 1.424c.151.151.151.394 0 .53-.151.151-.394.151-.53 0L50.667 38l-3.773 3.758c2.242-.621 4.409-1.439 6.561-2.394-.045-.121-.045-.273.061-.379l2.712-2.712-.864-.864c-.151-.152-.151-.394 0-.53.152-.151.394-.151.546 0l.848.849 3.318-3.303c.136-.151.379-.151.53 0s.151.394 0 .53l-3.303 3.318 1.455 1.455c.152.151.152.394 0 .545-.151.136-.379.136-.53 0l-1.47-1.47z"/>
</svg>
