<?xml version="1.0" encoding="UTF-8"?>
<svg width="100" height="100" viewBox="0 0 100 100" xmlns="http://www.w3.org/2000/svg">
<path d="M10.418 73.618L2.653 92.047a.76.76 0 0 0 .995.991c8.089-3.448 15.055-7.986 20.806-13.491 3.353 3.017 7.955 2.93 12.261 2.703 5.821-.306 14.021-1.129 16.73-7.874 10.643 1.177 19.335-8.383 17.202-18.806 1.856-.406 3.368-1.001 4.897-2.376 5.753 5.505 12.718 10.043 20.808 13.491a.76.76 0 0 0 .995-.991l-7.765-18.429c10.109-4.965 12.109-19.07 3.264-27.811-3.185-3.144-7.539-4.932-11.368-2.729-10.98-14.256-29.78-12.024-35.461.418-8.197-2.188-18.591 6.546-16.77 17.671-4.117 1.638-7.814 4.482-10.727 8.265-3.836-2.206-8.188-.412-11.367 2.727-8.845 8.741-6.844 22.847 3.265 27.811h0zm.885 1.805l.182.182-.448.448.267-.63zm-.28 11.991a.33.33 0 0 0 .255.12c-.759.441-1.542.861-2.327 1.277l-.794-.794 1.598-1.599.918.918c.139.138.223.108.35.077h0zm-2.765 1.774a74.6 74.6 0 0 1-2.492 1.22l1.856-1.856.636.636zM7.62 87.48l-.586-.586a.38.38 0 0 0-.536 0 .38.38 0 0 0 0 .536l.586.586L5.2 89.9l1.706-4.05c.136.05.235.094.389-.061l.914-.915 1.008 1.008L7.62 87.48zm-.005-3.201l.061.061-.226.226.144-.341c.011.017.006.039.021.055zm1.132.061l2.715-2.715 1.008 1.008-2.715 2.715-1.008-1.008zm-.535-.536l-.061-.061c-.088-.088-.203-.106-.317-.091l1.677-3.979 1.415 1.415-2.715 2.715zm3.541 3.439l1.482-1.482.359.359a68.86 68.86 0 0 1-1.841 1.123zm15.4-10.442l1.267 1.267-1.406 1.406a7.87 7.87 0 0 1-1.435-1.003c.539-.544 1.058-1.106 1.574-1.67zM47.532 75l.83.83-2.339 2.339-.829-.829L47.532 75zm-.791 3.889l-.185-.185 2.339-2.339.715.715c-.818.705-1.785 1.312-2.87 1.809h0zm-1.256-.185l-.988.988a20.17 20.17 0 0 1-1.708.414l-.182-.182 2.049-2.048.829.829zm-4.411 1.682a47.56 47.56 0 0 1-2.758.249.34.34 0 0 0 .044-.265l1.811-1.811 1.365 1.365-.462.462zm-4.135.333l-2.051.092c-.018-.045-.018-.095-.055-.132l-.244-.244 1.438-1.438 1.317 1.317-.404.404zm-3.815.109c-.917-.017-1.802-.085-2.658-.22l1.614-1.614 1.438 1.438-.394.395zm-2.409-1.538l-1.223-1.224.829-.829 1.224 1.224-.83.829zm-.536.535l-.614.614a11.03 11.03 0 0 1-1.856-.591l1.247-1.247 1.223 1.224zm24.147-6.911l1.417-1.417 1.256 1.254-.091.091c-.856.109-1.72.121-2.582.071zm6.033-5.593l1.035 1.035-1.377 1.377-1.256-1.256 1.53-1.53c-.039.13-.035.27.068.374zm-2.148 5.289l1.806-1.806.448.448a.38.38 0 0 0 .536 0 .38.38 0 0 0 0-.536l-.449-.448 1.377-1.377 1.415 1.415c.017.017.041.012.061.024-1.564 1.086-3.336 1.868-5.196 2.28h0zm1.271-2.342l-1.947 1.947-1.256-1.255 1.947-1.947 1.256 1.255zm4.467-.333c-.018-.058-.023-.12-.068-.165l-1.415-1.415 1.459-1.459 1.364 1.364c.156.156.297.124.449.036-.482.532-.777.862-1.788 1.639zm6.886-17.599a.38.38 0 0 0-.536 0 .38.38 0 0 0 0 .536l.174.174-.421.421a15.94 15.94 0 0 0-1.253-2.706l.817-.817 1.874 1.874c.041.041.099.044.15.062l-.63.63-.174-.176zm.173 1.245l.271.271c-.235.073-.485.132-.733.191l.462-.462zm20.911 9.347c-.701-.362-1.382-.744-2.064-1.123l.88-.88 1.594 1.594-.411.409zm.945.126l.648.648-.874-.423.226-.226zm-3.592-1.736a.37.37 0 0 0-.101-.245l-1.221-1.221.856-.855 1.394 1.395-.927.926zm5.37 2.932c.121-.148.124-.364-.014-.501L93.4 62.523l.22-.22a.38.38 0 0 0 0-.536.38.38 0 0 0-.536 0l-.22.218-1.594-1.594 1.001-1.001a.38.38 0 0 0 0-.536.38.38 0 0 0-.536 0l-1.002 1.002-1.394-1.395 1.324-1.324c.061-.061.08-.141.091-.22l.523.523-.697.697a.38.38 0 0 0 0 .536.38.38 0 0 0 .536 0l.697-.697 1.102 1.102 2.296 5.448c-.194-.085-.377-.183-.57-.273h0zm-2.136-20.906l-1.427-1.427 1.426-1.426 1.151 1.151c.071.071.164.103.256.106-.429.57-.901 1.097-1.406 1.596h0zm2.862-4.742c.074.074.171.111.268.111.021 0 .036-.021.058-.024a15.09 15.09 0 0 1-1.432 2.585c-.017-.057-.023-.12-.068-.167l-1.152-1.151 1.841-1.841.485.488zm1.514-7.27c-.111-.012-.223.011-.308.095l-.147.147-.897-.897 1.097-1.097c.115.582.201 1.165.255 1.752h0zM49.473 21.088c.253.333.729.398 1.061.145a.76.76 0 0 0 .146-1.061c-.823-1.083-1.939-1.936-3.227-2.517 5.332-11.397 22.641-13.214 32.818-.017-.665.623-1.195 1.365-1.496 2.215a.76.76 0 0 0 .461.967c.394.141.827-.067.967-.461 1.006-2.841 6.065-5.276 11.58.173 2.277 2.252 3.885 5.133 4.661 8.161l-1.449 1.448-.109-.109a.38.38 0 0 0-.536 0 .38.38 0 0 0 0 .536l.127.127c-.103.147-.108.345.024.477s.292.153.477.024l.915.915-1.312 1.312-.6-.6a.38.38 0 0 0-.536 0 .38.38 0 0 0 0 .536l.6.6-.75.75a.38.38 0 0 0 0 .536.38.38 0 0 0 .536 0l.75-.75 1.394 1.394a.38.38 0 0 0 .536 0 .38.38 0 0 0 0-.536l-1.394-1.394 1.312-1.312.511.511c-.046 1.594-.258 3.111-.997 5-.017-.029-.012-.065-.038-.091l-2.376-2.376a.38.38 0 0 0-.536 0 .38.38 0 0 0 0 .536l1.355 1.355-1.841 1.841-.714-.712a.38.38 0 0 0-.536 0 .38.38 0 0 0 0 .536l.714.712-1.426 1.426-.638-.638a.38.38 0 0 0-.536 0 .38.38 0 0 0 0 .536l.638.638-1.618 1.618a.38.38 0 0 0 0 .536.38.38 0 0 0 .536 0l1.618-1.618 1.411 1.411a13.51 13.51 0 0 1-2.959 2.003l-1.489-3.536a.76.76 0 0 0-.993-.405.76.76 0 0 0-.404.992l5.909 14.023c-.055-.009-.098-.002-.151.012l-1.885-1.885a.38.38 0 0 0-.536 0 .38.38 0 0 0 0 .536l.903.903c-.079.011-.159.03-.22.091l-1.324 1.324-.697-.697a.38.38 0 0 0-.536 0 .38.38 0 0 0 0 .536l.697.697-.856.854-.839-.839a.38.38 0 0 0-.536 0 .38.38 0 0 0 0 .536l.839.839-.124.126c-3.859-2.417-7.358-5.147-10.479-8.177a.72.72 0 0 0-.414-.392c-.892-.883-1.762-1.786-2.591-2.72-.279-.315-.758-.342-1.07-.064a.76.76 0 0 0-.064 1.07 60.44 60.44 0 0 0 2.285 2.424c-.991.868-1.586 1.153-2.352 1.456l-.526-.526.686-.686a.38.38 0 0 0 0-.536c-.049-.049-.115-.058-.177-.074.097-.147.102-.339-.027-.468l-1.874-1.874 1.074-1.074a.38.38 0 0 0 0-.536.38.38 0 0 0-.536 0l-1.074 1.074-1.024-1.024a.38.38 0 0 0-.536 0 .38.38 0 0 0 0 .536l1.024 1.024-.703.703a16.31 16.31 0 0 0-1.97-2.465l1.306-1.306.518.518a.38.38 0 0 0 .536 0 .38.38 0 0 0 0-.536l-.518-.518.583-.583a.38.38 0 0 0 0-.536.38.38 0 0 0-.536 0l-.583.583-1.945-1.945.006-.006a.38.38 0 0 0 0-.536.38.38 0 0 0-.536 0l-.006.006-.242-.242a.38.38 0 0 0-.536 0 .38.38 0 0 0 0 .536l.242.242-.655.654-2.558-2.557.02-.02a.38.38 0 0 0 0-.536.38.38 0 0 0-.536 0l-.02.02-.106-.106a.38.38 0 0 0-.536 0 .38.38 0 0 0 0 .536l.106.106-.923.923-1.401-1.401.141-.141a.38.38 0 0 0 0-.536.38.38 0 0 0-.536 0l-.141.141-.514-.514a.38.38 0 0 0-.536 0 .38.38 0 0 0 0 .536l.514.514-1.061 1.061c-.018-.038-.015-.082-.047-.114l-.574-.573.983-.983a.38.38 0 0 0 0-.536.38.38 0 0 0-.536 0l-.983.983-1.029-1.027.75-.75a.38.38 0 0 0 0-.536.38.38 0 0 0-.536 0l-.75.75-.617-.617a.38.38 0 0 0-.536 0 .38.38 0 0 0 0 .536l.617.617-.605.605c-5.018-6.548-13.506-8.586-21.386-6.061-1.827-12.656 13.239-20.495 18.773-13.214h0zm3.08 19.882l.677-.677 1.029 1.027-.911.911a16.6 16.6 0 0 0-.796-1.261h0zm1.159 1.968l1.082-1.082.574.573c.032.032.076.029.114.047l-.865.865c-.215.042-.423.1-.633.156a16.88 16.88 0 0 0-.271-.559h0zm3.835-1.456l1.402 1.401-.464.465c-.898-.153-1.788-.209-2.656-.148l1.718-1.718zm1.938 1.938l.07.07c.353.353.893-.179.536-.536l-.07-.07.926-.926 2.557 2.558-.497.497a12.5 12.5 0 0 0-3.635-1.48l.112-.112zm5.746.442l1.945 1.946-1.315 1.315c-.679-.632-1.403-1.209-2.18-1.711l1.55-1.55zM8.218 46.886c5.495-5.432 10.571-3.024 11.58-.173.138.394.573.603.967.461a.76.76 0 0 0 .461-.967c-.302-.85-.832-1.591-1.497-2.215 10.195-13.217 27.503-11.344 32.82.015-1.288.58-2.406 1.435-3.229 2.518-.253.333-.189.808.145 1.061s.808.189 1.061-.145c5.836-7.679 21.971 1.438 18.426 14.865l-1.3-1.3a.38.38 0 0 0-.536 0 .38.38 0 0 0 0 .536l1.533 1.533c.021.021.052.017.076.032a14.64 14.64 0 0 1-.738 1.818l-1.639-1.638a.38.38 0 0 0-.536 0 .38.38 0 0 0 0 .536l1.817 1.817a14.01 14.01 0 0 1-1.752 2.489c.056-.136.056-.291-.055-.401l-1.364-1.364.912-.912a.38.38 0 0 0 0-.536.38.38 0 0 0-.536 0l-.912.912-.505-.505a.38.38 0 0 0-.536 0 .38.38 0 0 0 0 .536l.505.504-1.459 1.459-1.035-1.035c-.103-.103-.244-.108-.374-.067l.095-.095a.38.38 0 0 0 0-.536.38.38 0 0 0-.536 0l-1.855 1.855-.586-.586a.38.38 0 0 0-.536 0 .38.38 0 0 0 0 .536l.586.586-1.947 1.947-.627-.627a.38.38 0 0 0-.536 0 .38.38 0 0 0 0 .536l.627.627L54 72.167c.094-.756.08-1.509-.026-2.241l3.185-3.186a.38.38 0 0 0 0-.536.38.38 0 0 0-.536 0l-2.833 2.833c-.258-.973-.682-1.883-1.309-2.647a.76.76 0 0 0-1.067-.105.76.76 0 0 0-.105 1.067c1.721 2.094 1.936 6.127-1.15 9.212l-.733-.733 1.318-1.318a.38.38 0 0 0 0-.536.38.38 0 0 0-.536 0l-1.318 1.318-1.073-1.073a.38.38 0 0 0-.536 0c-.03.03-.027.073-.045.109-.068.015-.139.027-.194.08l-2.394 2.394-.633-.633a.38.38 0 0 0-.536 0 .38.38 0 0 0 0 .536l.633.633-2.048 2.048-1.365-1.365 1.585-1.585a.38.38 0 0 0 0-.536.38.38 0 0 0-.536 0l-1.585 1.585-.829-.829a.38.38 0 0 0-.536 0 .38.38 0 0 0 0 .536l.829.829-1.756 1.756-1.317-1.317 1.683-1.683a.38.38 0 0 0 0-.536.38.38 0 0 0-.536 0l-1.683 1.683-.877-.877a.38.38 0 0 0-.536 0 .38.38 0 0 0 0 .536l.877.877-1.438 1.438-1.438-1.438 1.999-1.998a.38.38 0 0 0 0-.536.38.38 0 0 0-.536 0l-1.998 1.999-1.224-1.224.817-.817a.38.38 0 0 0 0-.536.38.38 0 0 0-.536 0l-.817.817-.338-.338a.38.38 0 0 0-.536 0 .38.38 0 0 0 0 .536l.338.338-.829.829-1.282-1.283c.062-.068.129-.133.191-.202a.76.76 0 0 0-.064-1.07c-.314-.279-.793-.251-1.07.064a59.12 59.12 0 0 1-2.591 2.72c-.185.074-.327.2-.414.392a62.43 62.43 0 0 1-9.515 7.579c-.018-.036-.015-.08-.045-.112l-.394-.394 1.845-1.846a.38.38 0 0 0 0-.536.38.38 0 0 0-.536 0l-1.846 1.846-.488-.488a.38.38 0 0 0-.536 0 .38.38 0 0 0 0 .536l.488.488-1.518 1.532-.876-.876 2.823-2.823c.082-.009.165-.032.227-.094s.085-.145.094-.227l1.444-1.444 1.476 1.476a.38.38 0 0 0 .536 0 .38.38 0 0 0 0-.536l-1.476-1.476.258-.258a.38.38 0 0 0 0-.536.38.38 0 0 0-.536 0l-.258.258-.621-.615a.38.38 0 0 0-.536 0 .38.38 0 0 0 0 .536l.618.618-1.336 1.336L12 81.09 14.085 79a.38.38 0 0 0 0-.536.38.38 0 0 0-.536 0l-2.089 2.089-1.633-1.633.712-1.691c.141.073.27.121.433-.042l1.046-1.046 1.965 1.965a.38.38 0 0 0 .536 0 .38.38 0 0 0 0-.536l-1.965-1.965 1.062-1.059a.38.38 0 0 0 0-.536.38.38 0 0 0-.536 0l-1.059 1.059-.4-.4 2.273-5.395a.76.76 0 0 0-.405-.992.76.76 0 0 0-.992.405l-1.489 3.536C1.844 67.65.186 54.821 8.218 46.886h0zM32.93 57.864c.158.749.42 1.999 1.448 2.633 1.421.88 3.614.261 4.682-2.849 1.92-5.583.248-11.629-1.68-13.342-2.024-1.796-5.382-.786-6.164 1.803-.556 1.847-.114 3.055 1.714 11.755zm-.264-11.314c.459-1.517 2.497-2.185 3.708-1.108 1.483 1.315 2.958 6.761 1.255 11.715-.735 2.133-1.853 2.421-2.453 2.051-.439-.271-.617-.967-.762-1.656-1.673-7.962-2.205-9.488-1.747-11.003zm.61 17.785c-.691 1.002-.839 2.168-.397 3.123.873 1.886 3.568 2.447 5.154.485.712-.88.952-2.064.629-3.089-.729-2.311-3.75-2.889-5.386-.518zm3.58 2.653c-.829 1.024-2.157.789-2.603-.168-.211-.456-.108-1.079.27-1.624.862-1.252 2.309-1.109 2.694.112.171.539.03 1.2-.361 1.68zm23.729-44.544c.942-.871 2.012-1.859 3.247-2.245 2.168-.683 4.096.799 2.889 3.389-.438.944-1.248 1.914-1.826 2.817a12.68 12.68 0 0 0-1.97 7.033.76.76 0 0 0 .758.741h.017a.76.76 0 0 0 .741-.774 11.15 11.15 0 0 1 1.732-6.185c.662-1.035 1.392-1.851 1.923-2.994 1.762-3.783-1.288-6.555-4.718-5.473-1.559.489-2.761 1.6-3.82 2.579a.76.76 0 0 0-.043 1.071.76.76 0 0 0 1.07.041h0z"/>
<path d="M63.168 35.927c-.406.255-.686.623-.8 1.042-.368.318-.755.686-1.017 1.186-.727 1.383.012 2.973 1.648 2.973 1.429 0 2.967-1.214 3.282-2.651.423-1.93-1.433-3.606-3.114-2.55zm1.633 2.226c-.32 1.447-2.82 2.059-2.111.709.168-.32.502-.606.826-.882.358-.265.253-.642.456-.768.538-.333.956.359.829.941h0z"/>
</svg>
