<?xml version="1.0" encoding="UTF-8"?>
<svg viewBox="0 0 100 100" xmlns="http://www.w3.org/2000/svg">
<path d="M65.074 4.285C55.912.888 46.296.676 37.047 3.15 24.862 6.451 14.32 13.797 8.845 22.8c-9.7 15.945-7.523 27.482-6.082 35.115.871 4.63 2.129 22.617 16.842 32.959 16.592 11.665 54.776 11.991 71.533-13.392 16.513-24.874 4.202-62.086-26.065-73.197h0zm28.318 29.606c-1.464 1.706-2.265 3.542-2.265 5.358.033 2.753 2.932 7.861-.105 9.065-.761-1.367-1.645-2.833-2.964-3.888-1.453-1.142-3.746-1.795-5.606-.677-2.091 1.295-2.292 3.783-2.486 6.186-.159 1.989-.312 3.87-1.455 5.006-1.639 1.636-4.653.688-6.136-1.177-1.658-2.035-2.22-4.927-2.986-7.567-.686-2.439-1.942-5.852-4.914-7.32-2.97-1.515-7.333.47-7.193 3.917.023.745.244 1.435.459 2.102.418 1.295.738 2.509-.556 3.035-.617.25-1.412.214-2.032-.103-2.441-1.202-3.591-5.591-7.121-6.097-2.901-.385-5.371 2.709-4.982 5.612.317 2.579 2.499 4.873 5.303 5.579 1.358.347 3.083.386 4.292.718 3.223.948 3.379 4.123-.414 5.611-1.741.683-3.845 1.064-5.244 2.679-1.283 1.485-1.468 3.353-1.394 5.276-.058.018-.118.023-.164.068l-.476.474-1.103-1.103c-.148-.148-.388-.148-.535 0a.38.38 0 0 0 0 .536l1.103 1.103-1.444 1.444a.38.38 0 0 0 0 .536.38.38 0 0 0 .536 0l1.444-1.445.804.804c.049.644.091 1.27.086 1.871-.003.359-.024.72-.061 1.08l-1.818-1.818a.38.38 0 0 0-.536 0 .38.38 0 0 0 0 .536l1.118 1.118c-.091.004-.182.035-.252.105l-2.027 2.024-.817-.817a.38.38 0 0 0-.536 0 .38.38 0 0 0 0 .536l.817.817-1.046 1.046a.38.38 0 0 0 0 .536.38.38 0 0 0 .536 0l1.045-1.046 1.686 1.686a.38.38 0 0 0 .536 0 .38.38 0 0 0 0-.536l-1.686-1.686 2.027-2.027c.07-.07.1-.161.105-.252l.717.717c-.294 1.749-.891 3.453-1.477 4.976-.149-.121-.364-.126-.503.014l-2.03 2.03-1.577-1.577.889-.889a.38.38 0 0 0 0-.536.38.38 0 0 0-.536 0l-.889.889-1.044-1.046a.38.38 0 0 0-.536 0 .38.38 0 0 0 0 .536l1.044 1.045-2.662 2.662-1.233-1.233 1.391-1.391a.38.38 0 0 0 0-.536.38.38 0 0 0-.536 0l-1.658 1.657h-.002v.002l-2.186 2.186-1.617-1.617a.38.38 0 0 0-.536 0 .38.38 0 0 0 0 .536l1.617 1.617-1.291 1.291-1.73-1.73a.38.38 0 0 0-.536 0 .38.38 0 0 0 0 .536l1.73 1.73-.495.495a9.01 9.01 0 0 1-.511-.459c-3.611-3.529-4.599-8.702-4.936-13.72-.645-9.63-2.921-9.656-7.365-13.083-7.652-5.809-9.085-17.886-.458-23.071 8.724-5.248 13.156 4.532 20.677 3.833 6.773-.627 7.658-9.367.502-11.149-4.927-1.162-9.967 2.006-14.094-.108-.462-.235-.882-.582-1.248-.986l1.039-1.039.812.812c.147.147.386.149.535 0a.38.38 0 0 0 0-.536l-.812-.812 1.846-1.845 1.306 1.306a.38.38 0 0 0 .536 0 .38.38 0 0 0 0-.536l-1.306-1.306.87-.87a.38.38 0 0 0 0-.536.38.38 0 0 0-.536 0l-.87.87-1.471-1.471c.906-.185 1.903-.229 2.891-.215-.02.014-.045.009-.062.026-.149.148-.149.388 0 .535l1.697 1.698-.789.791a.38.38 0 0 0 0 .536.38.38 0 0 0 .536 0l.789-.791.333.333a.38.38 0 0 0 .536 0 .38.38 0 0 0 0-.536l-.333-.333 1.845-1.846 1.527 1.527a.38.38 0 0 0 .536 0 .38.38 0 0 0 0-.536l-1.527-1.527.817-.817c.058-.059.076-.135.088-.211.365-.23.706-.5 1.003-.832l1.406 1.406-1.13 1.13c-.149.148-.149.388 0 .535a.38.38 0 0 0 .536 0l1.151-1.152c.189.121.339.095.464-.03s.124-.318.03-.464l1.955-1.954c.1-.1.108-.236.071-.364.017-.012.038-.008.053-.023.148-.149.148-.388 0-.535l-2.285-2.283 1.732-1.732 1.473 1.473a.38.38 0 0 0 .536 0c.148-.149.148-.388 0-.535l-1.473-1.473.259-.259a.38.38 0 0 0 0-.536.38.38 0 0 0-.536 0l-.259.259-.944-.944a5.75 5.75 0 0 1 1.788-1.147l2.286 2.286-1.092 1.092a.38.38 0 0 0 0 .536.38.38 0 0 0 .536 0l1.092-1.092.389.389a.38.38 0 0 0 .536 0c.148-.149.148-.388 0-.535l-.389-.391 1.241-1.241 1.241 1.241-.262.265c-.148.148-.148.388 0 .535a.38.38 0 0 0 .536 0l.262-.262.158.158a.38.38 0 0 0 .536 0c.149-.149.149-.388 0-.535l-.157-.158.309-.309c.889.58 1.809 1.149 2.815 1.542 4.17 1.659 10.133.703 16.53-7.247 12.659 4.815 23.2 15.218 28.342 27.985h0zM45.671 68.462l-.18-.18.155-.155.026.335zM34.565 80.92l1.233 1.233-1.92 1.92-1.233-1.233 1.92-1.92zm-1.22 3.689L32.054 85.9l-1.233-1.235 1.291-1.291 1.233 1.235zm-1.562 2.092a10.24 10.24 0 0 1-1.927-1.073l.427-.427 1.5 1.5zm.617-.164c.052-.018.109-.021.15-.062l1.33-1.33 2.303 2.303c-1.365.129-2.795-.115-4.114-.63.232-.006.286-.126.33-.28h0zm4.32.374l-2.303-2.303 1.92-1.92 1.577 1.577-1.103 1.103a.38.38 0 0 0 0 .536.38.38 0 0 0 .536 0l1.103-1.103 1.277 1.276c.015.015.036.011.053.021-.915.7-1.951 1.114-3.032 1.286.097-.147.102-.342-.029-.474h0zm.151-4.758l2.662-2.662 1.577 1.577-2.662 2.662-1.577-1.577zm3.43 3.488c-.017-.033-.014-.073-.042-.1l-1.277-1.276 2.662-2.662.706.706c.053.053.124.065.194.08-.594 1.22-1.311 2.364-2.242 3.251h0zm2.549-3.903l-.67-.67 1.626-1.624a53.97 53.97 0 0 1-.956 2.294zM23.197 20.956l1.508 1.509-1.845 1.846-1.967-1.967c.012-.024.014-.05.027-.074.458-.85 1.249-1.344 2.191-1.639-.02.117-.003.236.086.326h0zm-2.546 2.218l1.673 1.671-.967.967c-.233-.355-.436-.727-.562-1.124a3.52 3.52 0 0 1-.144-1.514h0zm10.058-3.085l-1.877 1.877-1.697-1.697c-.014-.014-.036-.011-.052-.021.73.012 2.139.029 3.562-.321 0 .059.038.109.064.162zm5.474-8.749l.92.92-1.732 1.732-.326-.324c.174-.876.591-1.658 1.138-2.327h0zm-1.382 4.291l.568-.568 2.148 2.147-1.921 1.921-1.506-1.504c.314-.508.52-.667.711-1.996zm10.056-4.248l-.877-.877a34.52 34.52 0 0 1 1.074.68l-.197.197zm-2.933-1.861l.621.62-1.241 1.241-2.011-2.011c1.096-.245 1.771-.129 2.63.15h0zm47.952 67.123c-16.141 24.438-53.285 24.319-69.398 12.988-13.685-9.618-15.076-25.899-16.226-32-1.398-7.406-3.511-18.597 5.886-34.047 5.279-8.677 15.486-15.771 27.301-18.974 8.477-2.267 17.362-2.256 26.095.745-5.738 6.989-10.957 7.78-14.461 6.383-2.562-1.001-4.735-3.445-7.738-3.938-3.218-.536-7.436 1.702-7.939 6.814-.161 1.621-.208 4.241-6.306 4.115-2.751-.07-6.08.171-7.508 2.826-.553 1.052-.635 2.327-.232 3.591.494 1.547 1.629 2.895 3.03 3.606 4.686 2.403 9.927-.836 14.423.23 5.447 1.355 4.817 7.696-.282 8.167-6.732.621-11.742-9.391-21.32-3.623-9.559 5.747-8.168 19.132.318 25.573 4.335 3.342 6.177 3.038 6.774 11.982.357 5.417 1.489 10.889 5.389 14.702 3.276 3.201 9.265 4.62 13.245 1.349 2.173-1.809 3.279-4.595 4.256-7.056.959-2.427 2.151-5.448 2.177-8.573.006-.851-.065-1.736-.135-2.592-.188-2.324-.367-4.518.908-5.992 1.082-1.247 2.936-1.585 4.651-2.259 5.235-2.052 4.832-7.139.276-8.477-1.818-.503-7.915-.218-8.507-5.033-.261-1.953 1.421-4.168 3.273-3.917 2.744.394 3.77 4.533 6.651 5.952 2.092 1.064 6.349.339 4.708-4.753-.191-.592-.371-1.15-.386-1.689-.094-2.217 2.976-3.533 4.999-2.509 1.829.905 3.182 2.989 4.135 6.382.798 2.742 1.379 5.786 3.262 8.1 2.02 2.544 6.054 3.632 8.386 1.3 1.539-1.529 1.72-3.78 1.896-5.958.17-2.123.333-4.127 1.765-5.015 1.223-.735 2.871-.218 3.876.571 1.233.988 2.052 2.474 2.842 3.914.498.902 2.168.098 2.851-.714 2.586-3.083-.135-6.779-.168-9.574 0-1.436.635-2.72 1.365-3.724 5.236 14.276 3.261 29.992-4.135 41.13h0zM35.462 49.347l-1.756 1.756-2.229-2.229 1.973-1.973a.38.38 0 0 0 0-.536.38.38 0 0 0-.536 0l-1.973 1.973-1.371-1.371 2.858-2.859a.38.38 0 0 0 0-.536.38.38 0 0 0-.536 0l-2.858 2.859-.751-.751 2.062-2.062a.38.38 0 0 0 0-.536.38.38 0 0 0-.536 0l-2.062 2.062-1.591-1.591a.38.38 0 0 0-.536 0 .38.38 0 0 0 0 .536l1.591 1.591-2.133 2.133-2.039-2.039.848-.849c.148-.148.148-.388 0-.535a.38.38 0 0 0-.536 0l-3.805 3.804-.829-.829c-.148-.148-.388-.148-.535 0a.38.38 0 0 0 0 .536l.829.829-1.211 1.211a.38.38 0 0 0 0 .536.38.38 0 0 0 .535 0l1.211-1.211 2.038 2.039-.449.448a.38.38 0 0 0 0 .536.38.38 0 0 0 .535 0l.449-.449 4.624 4.624a.38.38 0 0 0 .535 0 .38.38 0 0 0 0-.536l-4.624-4.624 2.42-2.42 2.659 2.659-1.544 1.544c-.148.149-.148.388 0 .535a.38.38 0 0 0 .535 0l1.544-1.544 2.3 2.3c-.008.106.02.211.101.292s.153.109.292.102l.95.95a.38.38 0 0 0 .536 0 .38.38 0 0 0 0-.536l-.879-.879 2.135-2.135 1.226 1.224a.38.38 0 0 0 .536 0 .38.38 0 0 0 0-.536l-1.224-1.224 1.756-1.756c.148-.148.148-.388 0-.535s-.386-.148-.533 0h0zm-13.341 1.421l-2.038-2.039 2.42-2.42 2.039 2.039-2.421 2.42zm3.491-2.42l2.133-2.133.752.752-1.639 1.639a.38.38 0 0 0 0 .536.38.38 0 0 0 .536 0l1.639-1.639 1.371 1.371-2.133 2.133-2.659-2.659zm5.423 5.424l-2.229-2.229 2.135-2.135 2.229 2.229-2.135 2.135zm34.811-35.28l-1.165-1.165a.38.38 0 0 0-.536 0c-.148.148-.148.388 0 .535l1.165 1.165-1.376 1.376-1.377-1.377a.38.38 0 0 0-.536 0c-.085.085-.108.197-.096.308l-2.079 2.079-1.218-1.218a.38.38 0 0 0-.536 0 .38.38 0 0 0 0 .536l1.218 1.218-1.75 1.75a.38.38 0 0 0 0 .536.38.38 0 0 0 .536 0l1.75-1.75 1.003 1.003-2.227 2.227a.38.38 0 0 0 0 .536.38.38 0 0 0 .536 0l2.227-2.227 2.596 2.596-.051.051a.38.38 0 0 0 0 .536.38.38 0 0 0 .535 0l.052-.052.903.903a.38.38 0 0 0 .536 0 .38.38 0 0 0 0-.536l-.903-.903 2.012-2.012 2.118 2.118-.264.264a.38.38 0 0 0 0 .536.38.38 0 0 0 .536 0l.285-.285c.154.096.306.121.459-.032.127-.127.123-.312.032-.459l1.398-1.398 1.538 1.538a.38.38 0 0 0 .536 0 .38.38 0 0 0 0-.536l-1.538-1.538 3.13-3.129c.148-.148.148-.388 0-.535a.38.38 0 0 0-.536 0l-3.13 3.13-2.118-2.118 2.518-2.518a.38.38 0 0 0 0-.536.38.38 0 0 0-.536 0l-2.518 2.52-2.595-2.595 2.841-2.839a.38.38 0 0 0 0-.536.38.38 0 0 0-.536 0l-2.838 2.835zm-5.462 3.455l2.012-2.012 1.003 1.003-2.012 2.012-1.003-1.003zm4.135 4.135l-2.595-2.595 2.012-2.012 2.595 2.596-2.012 2.012zm6.577-1.268L69.72 26.19l-2.118-2.118 1.376-1.376 2.118 2.118zm-2.655-2.655l-1.376 1.376-2.596-2.595 1.376-1.376 2.595 2.595z"/>
</svg>
