<?xml version="1.0" encoding="UTF-8"?>
<svg viewBox="0 0 100 100" xmlns="http://www.w3.org/2000/svg">
<path d="M22.956 65.418a.76.76 0 0 1-.098-.597l1.407-5.095c-9.861-1.262-14.138-6.238-8.164-15.041 9.785-14.379 11.35-17.424 15.311-19.558 3.824-2.076 7.994-1.632 11.999-.77 6.965-7.511 16.433-13.297 26.885-15.739-.017-.341.335-.589.742-.182 7.112-1.545 14.317-1.445 20.908.509.241.073.432.259.506.5 4.712 15.045.539 34.664-15.829 49.742 1.882 4.694.3 9.518-2.474 12.333-1.997 2.027-4.879 3.314-7.133 4.826l-11.559 7.758c-2.45 1.651-5.244 3.344-8.156 3.344-4.689 0-7.506-4.314-7.933-8.72a168.44 168.44 0 0 1-5.804 1.544c-.317.079-.644-.055-.818-.326-1.489-2.309-3.229-4.842-4.912-7.292l-4.876-7.236h0zm3.811-7.783l.942-.943-.662-.662-.574 1.749c.024.015.055.011.076.032l.118.12a.36.36 0 0 1 .1-.295h0zm-1.888.102c.218-.692.656-1.992.815-2.446-.136.05-.236.096-.391-.061l-1.005-1.005-1.373 1.556 1.953 1.955zm-2.455-1.383l-1.065 1.208a20.77 20.77 0 0 0 2.898.627l-1.833-1.835zm5.073-6.001l-.389-.389-1.188 1.188c-.053.053-.124.065-.194.08l1.035 1.035.736-1.914zm.299-.774c.018-.044.171-.45.189-.492l-.341.341.152.151zm-7.453 7.671l-1.889-1.889-.526.526c-.127.127-.3.157-.486.021 1.117.723 1.845.976 2.902 1.342h0zm-2.959-1.382c-.133-.148-.135-.374.008-.518l.526-.526-1.186-1.186-.888.888c.433.521.967.964 1.541 1.342h0zm14.752-29.406c-3.564 1.92-5.023 4.742-14.777 19.077-1.767 2.602-3.583 5.67-1.959 8.361l.797-.797-.339-.339a.38.38 0 0 1 0-.536.38.38 0 0 1 .536 0l.339.339.942-.942a.38.38 0 0 1 .536 0 .38.38 0 0 1 0 .536l-.942.942 1.186 1.186.988-.989a.38.38 0 0 1 .536 0 .38.38 0 0 1 0 .536l-.988.989 2.006 2.006.894-1.012-1.068-1.068a.38.38 0 0 1 0-.536.38.38 0 0 1 .536 0l1.033 1.035 1.373-1.556-1.718-1.718a.38.38 0 0 1 0-.536.38.38 0 0 1 .536 0l1.685 1.685.65-.736c.138-.158.377-.173.535-.033a.38.38 0 0 1 .033.535l-.682.773 1.038 1.038c.02.018.014.047.029.068l.403-1.203.218-.591c-.215-.068-2.615-2.52-2.774-2.679a.38.38 0 0 1 0-.536.38.38 0 0 1 .536 0l1.049 1.05c.015-.068.027-.141.08-.194l1.189-1.189-.861-.861-1.042 1.042a.38.38 0 0 1-.536 0 .38.38 0 0 1 0-.536l1.042-1.042-.494-.494a.38.38 0 0 1 0-.536.38.38 0 0 1 .536 0l.494.494 1.361-1.361a.38.38 0 0 1 .536 0 .38.38 0 0 1 0 .536l-1.361 1.361.861.861 1.174-1.174c.089-.089.209-.106.326-.086 3.891-9.124 8.795-16.615 13.603-21.971-3.289-.623-6.804-.973-10.077.805h0zm40.997-15.929l.506-.506-.459-.459-.855.159.808.806zm1.042-1.042l.124-.124-.217.033.092.091zm3.341-.48l.653.653.726-.726-1.379.073h0zm2.417-.127c-.018.052-.021.109-.062.152l-1.165 1.165 1.686 1.686a.38.38 0 0 1 0 .536.38.38 0 0 1-.536 0l-1.686-1.686-.855.854a.38.38 0 0 1-.536 0 .38.38 0 0 1 0-.536l.855-.855-1.102-1.102c-.371.036-.744.086-1.115.133-.018.052-.021.109-.062.15l-.644.644 1.688 1.688a.38.38 0 0 1 0 .536.38.38 0 0 1-.536 0l-1.686-1.686-.676.676a.38.38 0 0 1-.536 0c-.006-.006-.003-.017-.009-.023-.014.002-.024.015-.038.015-.097 0-.194-.036-.268-.111l-1.079-1.079-.559.559a.38.38 0 0 1-.536 0c-.13-.13-.126-.323-.027-.47-.302.071-.602.15-.903.227l22.235 20.259c.136-.667.258-1.335.365-2.003l-1.599-1.599-.688.688a.38.38 0 0 1-.536 0 .38.38 0 0 1 0-.536l.688-.688-2.08-2.08a.38.38 0 0 1 0-.536.38.38 0 0 1 .536 0l2.08 2.08 1.332-1.33-1.692-1.692c-.126.026-.206.053-.341-.08-.094-.094-.106-.22-.08-.341l-2.223-2.223a.38.38 0 0 1 0-.536.38.38 0 0 1 .536 0l2.165 2.165 1.288-1.288-3.299-3.299a.38.38 0 0 1 0-.536.38.38 0 0 1 .536 0l1.179 1.179c-.102-.147-.106-.344.024-.476l1.385-1.385-3.773-3.773a.38.38 0 0 1 0-.536.38.38 0 0 1 .536 0l1.114 1.118c-.129-.149-.132-.37.011-.512l1.07-1.07-1.636-1.636c-.092-.02-.182-.047-.274-.065a.37.37 0 0 1-.108.277l-2.636 2.636a.38.38 0 0 1-.536 0c-.08-.08-.108-.185-.102-.289-.077-.012-.155-.03-.214-.089l-1.6-1.6-.982.982a.38.38 0 0 1-.536 0 .38.38 0 0 1 0-.536l.982-.982-1.118-1.118c-.539-.011-1.077-.035-1.62-.024h0zm11.47 2.427l-.02.018.033.033-.014-.051zm.327 1.297c-.227-.02-.706-.567-.882-.742l-1.07 1.07a.36.36 0 0 1-.512.011l2.624 2.624.338-.338a38.36 38.36 0 0 0-.498-2.624h0zm.756 4.629l-.595-.596-1.385 1.385c-.129.129-.292.151-.476.024l2.035 2.035.592-.592a40.91 40.91 0 0 0-.171-2.256h0zm.114 3.383l.1.1c-.002-.067 0-.133-.002-.2l-.098.1zm-.032 4.374L91.08 26.48l1.194 1.194a44.87 44.87 0 0 0 .294-2.68h0zm.053-1.124c.006-.006.017-.003.023-.009.036-.689.058-1.377.062-2.062l-.642-.642-1.288 1.288 1.636 1.636.209-.211zm-8.06-14.79c-.012.076-.029.155-.088.214l-.73.73 1.599 1.6c.032.032.029.076.047.112l.929-.93-1.724-1.723c-.011-.002-.021-.002-.032-.003h0zm-.87-.076l-1.05-.08.565.565.485-.485zm3.162 1.267l.773-.773c-.612-.111-1.226-.221-1.845-.3l1.073 1.073zm3.236-.238l.758.758.327-.326c-.018-.059-.03-.121-.049-.18-.342-.097-.692-.164-1.036-.252zm1.299 22.279L67.817 10.83c-20.554 6.141-33.429 23.852-40.506 44.394l.933.933.291-.291a.38.38 0 0 1 .536 0 .38.38 0 0 1 0 .536l-.291.291.477.477a.38.38 0 0 1 0 .536.38.38 0 0 1-.536 0l-.477-.477-.942.942c-.074.074-.171.111-.268.111-.011 0-.018-.011-.027-.012l1.32 1.32a.38.38 0 0 1 0 .536.38.38 0 0 1-.536 0l-1.573-1.573c-.079.256-.17.497-.247.753l-.773 2.626c.041.018.089.017.123.052l.83.83 2.385-2.385a.38.38 0 0 1 .536 0 .38.38 0 0 1 0 .536l-1.374 1.374c.073.014.149.029.205.085l1.879 1.879.151-.152a.38.38 0 0 1 .536 0 .38.38 0 0 1 0 .536l-.152.151 2.012 2.012a.38.38 0 0 1 0 .536.38.38 0 0 1-.536 0l-2.012-2.012-1.559 1.559 2.676 2.674 2.012-2.012a.38.38 0 0 1 .536 0 .38.38 0 0 1 0 .536l-2.012 2.012 1.082 1.082a.38.38 0 0 1 0 .536.38.38 0 0 1-.536 0l-1.082-1.082-.976.976c.023.015.053.011.074.03l2.018 2.018 1.697-1.698-.962-.962a.38.38 0 0 1 0-.536.38.38 0 0 1 .536 0l.962.962 1.268-1.268a.38.38 0 0 1 .536 0 .38.38 0 0 1 0 .536l-1.268 1.268 2.35 2.35 1.279-1.279-1.396-1.395a.38.38 0 0 1 0-.536.38.38 0 0 1 .536 0l1.396 1.395 1.129-1.129a.38.38 0 0 1 .536 0 .38.38 0 0 1 0 .536l-1.129 1.129 1.559 1.558 1.558-1.558-1.608-1.608a.38.38 0 0 1 0-.536.38.38 0 0 1 .536 0l1.608 1.608.105-.105a.38.38 0 0 1 .536 0 .38.38 0 0 1 0 .536l-.105.104 1.873 1.873c.061.061.079.141.091.218C65.78 68.23 75.224 58.438 75.224 58.438c7.749-7.035 13.636-15.785 16.164-26.126h0zM35.999 78.08l2.971-.817-1.839-1.839-1.697 1.697.523.523c.121.121.118.292.042.436h0zm5.767-1.653l-.724-.724-.638.636a.38.38 0 0 1-.536 0 .38.38 0 0 1 0-.536l.638-.636-1.559-1.558-1.279 1.279 2.123 2.145c.423-.118 1.553-.476 1.976-.606zm3.164-1.024l-1.794-1.794-1.557 1.558 1.008 1.008 2.344-.771zm-8.333-.515l-2.35-2.35-1.697 1.699 2.35 2.349 1.697-1.697zm11.917 10.439l-.564.564a7.38 7.38 0 0 0 1.018-.177c-.039-.018-.085-.017-.117-.049l-.338-.338zm.873-.198c.129.129.124.321.027.468.794-.238 1.582-.589 2.364-1.008l-1.264-1.264-1.465 1.465.338.338zm-2.321.799c-.015-.114.005-.229.091-.315l.821-.821-1.279-1.279-1.026 1.026a.35.35 0 0 1-.391.391l-.438.438c.665.33 1.389.526 2.221.561zm-.901-2.951l-1.605-1.605-.953.955 1.605 1.605.953-.954zm-1.958 1.985c.011-.015.006-.035.02-.049l.447-.447-1.605-1.605-.489.489c.459.636 1 1.183 1.627 1.611h0zm-2.05-2.258l.379-.379-.304-.305a.38.38 0 0 1 0-.536.38.38 0 0 1 .536 0l.305.305.953-.955-.27-.27a.38.38 0 0 1 0-.536.38.38 0 0 1 .536 0l.27.27.011-.011a.38.38 0 0 1 .536 0 .38.38 0 0 1 0 .536l-.011.011L46.7 82.44l.57-.57a.38.38 0 0 1 .536 0 .38.38 0 0 1 0 .536l-.57.57 1.279 1.279 1.465-1.465-2.2-2.2a.38.38 0 0 1 0-.536.38.38 0 0 1 .536 0l2.2 2.2.383-.383a.38.38 0 0 1 .536 0 .38.38 0 0 1 0 .536l-.383.383 1.42 1.42c.723-.423 1.436-.889 2.139-1.364l11.562-7.758c2.235-1.502 5.079-2.782 6.898-4.63 1.85-1.879 3.855-5.98 2.359-10.179-9.786 8.655-22.029 14.279-34.6 18.026a10.69 10.69 0 0 0 .333 1.944l2.103-2.103a.38.38 0 0 1 .536 0 .38.38 0 0 1 0 .536l-2.391 2.391c.198.571.445 1.118.744 1.63h0zm-6.659-4.492c-.023-.015-.053-.011-.074-.03l-.523-.523-.803.803c-.074.074-.171.111-.268.111-.086 0-.167-.041-.236-.099l.132.198 1.773-.461h0zm-1.973.161c-.082-.144-.086-.323.036-.447l.803-.803-4.903-4.903c-.129-.129-.124-.321-.027-.468-.033-.018-.074-.014-.101-.042a.38.38 0 0 1 0-.536l1.03-1.03-2.674-2.674-.273.273a.38.38 0 0 1-.536 0 .38.38 0 0 1 0-.536l.344-.344a.37.37 0 0 1 .102-.291c.08-.08.185-.109.291-.102l1.63-1.63-1.879-1.879c-.056-.056-.071-.132-.085-.205l-.594.596 1.174 1.174a.38.38 0 0 1 0 .536.38.38 0 0 1-.536 0l-1.174-1.174-.647.647a.38.38 0 0 1-.536 0 .38.38 0 0 1 0-.536l.647-.647-.63-.63-.576 2.154c1.435 2.209 3.08 4.605 4.673 6.924l4.442 6.574h0zm29.104-33.287c-4.65.667-8.544-3.798-7.192-8.521 1.52-5.309 8.259-6.355 11.435-1.692 1.206 1.768 1.544 3.965.904 5.877-.752 2.253-2.821 3.994-5.147 4.336h0zm3.453-4.198l-.309.309.08.08c.079-.127.162-.255.229-.389zm-1.17-5.995l-.879.879c.132-.044.276-.041.38.064l.545.545.659-.659a5.8 5.8 0 0 0-.706-.829zm1.079 1.527l-.497.497.709.709a.38.38 0 0 1 0 .536.38.38 0 0 1-.536 0l-.709-.709-.617.617a.38.38 0 0 1-.536 0 .38.38 0 0 1 0-.536l.617-.617-.545-.545c-.105-.105-.109-.248-.064-.38-.212.212-.436.345-.659.123a.38.38 0 0 1 0-.536l1.165-1.165a4.97 4.97 0 0 0-1.036-.591l-.955.955.523.523a.38.38 0 0 1 0 .536.38.38 0 0 1-.536 0l-.523-.523-.618.618a.38.38 0 0 1-.536 0 .38.38 0 0 1 0-.536l.618-.618-.477-.477a.38.38 0 0 1 0-.536.38.38 0 0 1 .536 0l.477.477.679-.679c-.253-.056-.505-.121-.765-.135-2.209-.077-4.165 1.286-4.814 3.554-1.044 3.656 1.957 7.132 5.517 6.603 1.156-.168 2.223-.798 2.991-1.689l-.217-.217c-.126.032-.211.068-.355-.076-.099-.099-.106-.229-.076-.355l-1.714-1.714a.38.38 0 0 1 0-.536.38.38 0 0 1 .536 0l1.661 1.659 1.28-1.28c.129-.985-.058-2.011-.524-2.956zm-2.412 14.938C51.332 53.123 44.02 37.624 52.876 28.994c9.651-9.401 24.759 1.923 20.753 13.897-1.47 4.397-5.508 7.798-10.05 8.467zM53.933 30.08c-7.792 7.588-1.383 21.359 9.426 19.777 3.989-.585 7.539-3.577 8.833-7.445 3.491-10.439-9.691-20.673-18.259-12.332h0zM7.906 74.046a25.34 25.34 0 0 1 13.697-5.258.77.77 0 0 1 .809.703.76.76 0 0 1-.703.809 23.79 23.79 0 0 0-12.87 4.939c-2.408 1.879-2.192 3.967 1.088 3.056l6.729-1.874a.75.75 0 0 1 .844.324.76.76 0 0 1-.068.903l-7.379 8.503c-3.556 4.094-.7 5.394 1.147 4.846 1.515-.448 2.194-1.288 11.008-9.115a.76.76 0 0 1 1.226.338c.815 2.573-1.715 4.682-2.167 6.512-.456 1.847 1.262 3.415 3.355.183a44.81 44.81 0 0 0 3.642-6.85.76.76 0 0 1 .992-.401c.385.162.565.607.401.992a46.44 46.44 0 0 1-3.765 7.083c-3.111 4.789-6.933 2.015-6.097-1.373.427-1.733 1.568-2.661 2.094-4.176-7.808 6.933-8.441 7.72-10.261 8.258-3.326.979-7.261-2.07-2.721-7.292l5.729-6.602-4.303 1.199c-4.735 1.338-6.279-2.708-2.427-5.708h0z"/>
<path d="M63.942 16.335c-1.062.226-2.123.558-3.182.974l1.136 1.136a.38.38 0 0 1 0 .536.38.38 0 0 1-.536 0L60 17.621c-1.303.568-2.603 1.283-3.892 2.135l.586.586a.38.38 0 0 1 0 .536.38.38 0 0 1-.536 0l-.694-.694-2.491 1.92.558.558a.38.38 0 0 1 0 .536.38.38 0 0 1-.536 0l-.583-.583-1.346 1.238.638.638a.38.38 0 0 1 0 .536.38.38 0 0 1-.536 0l-.658-.658-.991 1.03.708.708a.38.38 0 0 1 0 .536.38.38 0 0 1-.536 0l-.697-.697-2.164 2.388 1.006 1.008a.38.38 0 0 1 0 .536.38.38 0 0 1-.536 0l-.974-.974-1.704 2.003.614.614a.38.38 0 0 1 0 .536.38.38 0 0 1-.536 0l-.57-.57-.667.792 1 1a.38.38 0 0 1 0 .536.38.38 0 0 1-.536 0l-.954-.955-1.182 1.403.774.774a.38.38 0 0 1 0 .536.38.38 0 0 1-.536 0l-.729-.729-1.915 2.271a.38.38 0 0 1-.533.045.38.38 0 0 1-.046-.535l1.956-2.32-.445-.446a.38.38 0 0 1 0-.536.38.38 0 0 1 .536 0l.4.4 1.182-1.403-.179-.179a.38.38 0 0 1 0-.536.38.38 0 0 1 .536 0l.133.133.667-.791-.515-.515a.38.38 0 0 1 0-.536.38.38 0 0 1 .536 0l.471.471 1.706-2.003-.935-.935a.38.38 0 0 1 0-.536.38.38 0 0 1 .536 0l.901.902 2.164-2.386-.576-.576a.38.38 0 0 1 0-.536.38.38 0 0 1 .536 0l.57.564.991-1.03-.811-.811a.38.38 0 0 1 0-.536.38.38 0 0 1 .536 0l.829.829 1.353-1.244c-.13-.149-.132-.371.009-.514a.38.38 0 0 1 .536 0l.008.008 2.488-1.923-.783-.783a.38.38 0 0 1 0-.536.38.38 0 0 1 .536 0l.883.883c1.279-.853 2.568-1.58 3.864-2.164l-.935-.935a.38.38 0 0 1 0-.536.38.38 0 0 1 .536 0l1.158 1.158c1.198-.489 2.401-.877 3.604-1.133.202-.045.406.086.449.291a.38.38 0 0 1-.294.448h0zM52.008 67.368l3.677-1.661-.562-.562a.38.38 0 0 1 0-.536.38.38 0 0 1 .536 0l.748.749 1.962-1.049-1.142-1.144a.38.38 0 0 1 0-.536.38.38 0 0 1 .536 0l1.292 1.294 2.799-1.724-1.25-1.25a.38.38 0 0 1 0-.536.38.38 0 0 1 .536 0l1.362 1.362 2.473-1.747-2.538-2.536a.38.38 0 0 1 0-.536.38.38 0 0 1 .536 0l2.603 2.602 3.294-2.729c.156-.135.394-.126.535.03a.38.38 0 0 1-.029.536l-3.261 2.703 1.099 1.099a.38.38 0 0 1 0 .536.38.38 0 0 1-.536 0l-1.162-1.162-2.467 1.755 2.049 2.047a.38.38 0 0 1 0 .536.38.38 0 0 1-.536 0l-2.159-2.159-2.794 1.729 1.255 1.255a.38.38 0 0 1 0 .536.38.38 0 0 1-.536 0l-1.398-1.4-1.958 1.053 1.623 1.623a.38.38 0 0 1 0 .536.38.38 0 0 1-.536 0l-1.808-1.808-3.959 1.795a.38.38 0 0 1-.494-.209.38.38 0 0 1 .209-.492h0z"/>
</svg>
