<?xml version="1.0" encoding="UTF-8"?>
<svg width="100" height="100" viewBox="0 0 100 100" xmlns="http://www.w3.org/2000/svg">
<path d="m88.604 32.268c0.2188 0 0.3907 0.1719 0.3907 0.3907s-0.1719 0.3908-0.3907 0.3908h-18.958c-0.2032 0-0.3907-0.172-0.3907-0.3908s0.1875-0.3907 0.3907-0.3907h18.958z"/>
<path d="m88.602 38.379c0.2188 0 0.3907 0.1719 0.3907 0.3907s-0.1719 0.3907-0.3907 0.3907h-5.1263c-0.2188 0-0.3907-0.1719-0.3907-0.3907s0.1719-0.3907 0.3907-0.3907h5.1263z"/>
<path d="m80.195 38.379c0.2032 0 0.3908 0.1719 0.3908 0.3907s-0.1876 0.3907-0.3908 0.3907h-35.478c-0.2188 0-0.3907-0.1719-0.3907-0.3907s0.1719-0.3907 0.3907-0.3907h35.478z"/>
<path d="m82.945 50.789c-0.9846-0.7346-2.2662-0.6096-3.1727 0.0781-0.3438 0.2501-1.3909 1.1878-0.8439 2.6882 0.3438 0.9065 1.2972 1.5785 2.2662 1.5942 1.1253 0 2.0786-0.9847 2.3912-1.9224 0.1407-0.3595 0.4533-1.6411-0.6408-2.4381zm0.9378-1.2504c1.2815 0.9534 1.7504 2.5632 1.1878 4.1886-0.5939 1.7661-2.1725 2.9852-3.8604 2.9852h-0.0469c-1.6098-0.0157-3.1414-1.0941-3.6884-2.6101-0.6096-1.6567-0.0782-3.4227 1.3597-4.4855 1.5316-1.1566 3.5634-1.1878 5.0482-0.0782z"/>
<path d="m66.362 32.268c0.2032 0 0.3907 0.1719 0.3907 0.3907s-0.1875 0.3908-0.3907 0.3908h-14.379c-0.2188 0-0.3907-0.172-0.3907-0.3908s0.1719-0.3907 0.3907-0.3907h14.379z"/>
<path d="m67.238 62.995c-4.2199-3.8604-1.4535-13.113 3.0476-15.176 0.2032-0.0938 0.4377 0 0.5158 0.1876 0.0938 0.2031 0.0156 0.4376-0.1876 0.5157-4.0791 1.8599-6.611 10.472-2.8601 13.91 0.172 0.1407 0.172 0.3908 0.0313 0.547-0.1563 0.1563-0.3907 0.172-0.547 0.0157z"/>
<path d="m62.768 44.881c0 0.2188-0.1719 0.3907-0.3907 0.3907h-10.237c-0.2188 0-0.3907-0.1719-0.3907-0.3907 0-0.2032 0.1719-0.3907 0.3907-0.3907h10.237c0.2188 0 0.3907 0.1875 0.3907 0.3907z"/>
<path d="m48.843 44.49c0.2188 0 0.3907 0.1875 0.4064 0.3907 0 0.2188-0.1876 0.3907-0.3908 0.3907h-37.463c-0.2188 0-0.3907-0.1719-0.3907-0.3907 0-0.2032 0.1719-0.3907 0.3907-0.3907h37.447z"/>
<path d="m48.014 32.268c0.2031 0 0.3907 0.1719 0.3907 0.3907s-0.1876 0.3908-0.3907 0.3908h-19.833c-0.2032 0-0.3908-0.172-0.3908-0.3908s0.1876-0.3907 0.3908-0.3907h19.833z"/>
<path d="m48.014 62.839c0.2031 0 0.3907 0.1876 0.3907 0.3907 0 0.2189-0.1876 0.3908-0.3907 0.3908h-19.833c-0.2032 0-0.3908-0.1719-0.3908-0.3908 0-0.2031 0.1876-0.3907 0.3908-0.3907h19.833z"/>
<path d="m40.747 38.379c0.2188 0 0.3907 0.1719 0.3907 0.3907s-0.1719 0.3907-0.3907 0.3907h-10.237c-0.2188 0-0.3908-0.1719-0.3908-0.3907s0.172-0.3907 0.3908-0.3907h10.237z"/>
<path d="m32.964 56.728c0.2188 0 0.3907 0.1719 0.3907 0.3907s-0.1719 0.3907-0.3907 0.3907h-10.237c-0.2188 0-0.3908-0.1719-0.3908-0.3907s0.172-0.3907 0.3908-0.3907h10.237z"/>
<path d="m32.822 50.617c0.2188 0 0.3907 0.1719 0.3907 0.3907s-0.1719 0.3907-0.3907 0.3907h-10.237c-0.2032 0-0.3908-0.1719-0.3908-0.3907s0.1876-0.3907 0.3908-0.3907h10.237z"/>
<path d="m27.946 17.218c-0.1094-1.5629 0.7033-2.8132 2.1568-3.3602h0.0157c2.3912-0.9221 4.0791 1.2659 3.5634 3.1883-0.5627 2.063-3.2352 3.1102-4.6731 2.1724-0.6252-0.4063-1.0159-1.1409-1.0628-2.0005zm1.7661-1.1096c0.0938-0.0313 0.1719-0.0469 0.2657-0.0469-0.0313-0.0938-0.0313-0.172-0.0313-0.2657-0.0937 0.0937-0.1719 0.2032-0.2344 0.3126z"/>
<path d="m27.212 38.379c0.2188 0 0.3907 0.1719 0.3907 0.3907s-0.1719 0.3907-0.3907 0.3907h-15.817c-0.2188 0-0.3907-0.1719-0.3907-0.3907s0.1719-0.3907 0.3907-0.3907h15.817z"/>
<path d="m24.899 32.268c0.2188 0 0.3907 0.1719 0.3907 0.3907s-0.1719 0.3908-0.3907 0.3908h-13.504c-0.2188 0-0.3907-0.172-0.3907-0.3908s0.1719-0.3907 0.3907-0.3907h13.504z"/>
<path d="m24.899 62.839c0.2188 0 0.3907 0.1876 0.3907 0.3907 0 0.2189-0.1719 0.3908-0.3907 0.3908h-13.504c-0.2188 0-0.3907-0.1719-0.3907-0.3908 0-0.2031 0.1719-0.3907 0.3907-0.3907h13.504z"/>
<path d="m22.492 20.109h-0.125c-1.2347 0-2.4069-0.7815-2.8289-1.9067-1.2503-3.3446 3.7197-6.6267 5.7202-3.1102 0.5158 0.9065 0.5627 2.0786 0.0938 3.0633-0.5314 1.1409-1.6567 1.9067-2.8601 1.9536zm-0.0625-4.2824c0-0.0781 0-0.1406 0.0156-0.2031-0.0781-0.1094-0.125-0.2345-0.1407-0.3595-0.8439 0.3282-1.5003 1.2034-1.3753 2.0787 0.0313-0.0157 0.0625-0.0469 0.0938-0.0626 0.0312-0.672 0.8283-0.969 1.3128-0.5157l0.0156-0.0156c-0.1875-0.297-0.1563-0.6565 0.0782-0.9222z"/>
<path d="m19.429 56.728c0.2188 0 0.3907 0.1719 0.3907 0.3907s-0.1719 0.3907-0.3907 0.3907h-8.0333c-0.2188 0-0.3907-0.1719-0.3907-0.3907s0.1719-0.3907 0.3907-0.3907h8.0333z"/>
<path d="m19.304 50.617c0.2032 0 0.3907 0.1719 0.3907 0.3907s-0.1875 0.3907-0.3907 0.3907h-7.9083c-0.2188 0-0.3907-0.1719-0.3907-0.3907s0.1719-0.3907 0.3907-0.3907h7.9083z"/>
<path d="m13.756 16.264c-0.1563-0.0313-0.3126-0.0938-0.4377-0.2032-0.125-0.125-0.1875-0.2813-0.2031-0.422-0.2814 0.2657-0.4845 0.5783-0.5783 0.9065-0.0938 0.3751-0.0156 0.7346 0.2188 1.0784l0.0156-0.0156c-0.2344-0.6096 0.3595-1.2191 0.9847-1.0003-0.0313-0.1094-0.0313-0.2344 0-0.3438zm2.907-2.1725c0.5626 0.5158 0.8908 1.2973 0.8908 2.1256 0 0.7033-0.2188 1.4066-0.6564 2.0474-0.5314 0.7971-1.2816 1.3441-2.1099 1.5473-0.2345 0.0625-0.4845 0.0937-0.719 0.0937-0.7658 0-1.6566-0.3907-1.8754-0.6095v-0.0156c-0.9847-0.719-1.4848-1.9224-1.1722-3.1415 0.3126-1.1252 1.2503-2.0942 2.4694-2.5631 0.4688-0.1876 0.969-0.2344 1.4535-0.1876 0.3125-0.1562 0.6876-0.1094 0.9533 0.2188 0.2814 0.1251 0.5314 0.2814 0.7659 0.4845z"/>
<path d="m54.438 22.953-0.5939-0.5939-0.5939 0.5939h1.1878zm38.885-6.658-2.2505 2.2506 2.2037 2.2037 2.2505-2.2506-2.2037-2.2037zm-14.394 53.608c0.0625 0.0625 0.0938 0.1563 0.0938 0.2501 0.969-0.1563 1.8911-0.3907 2.7663-0.7502l-1.516-1.516-1.6723 1.6879 0.3282 0.3282zm-0.3282-3.7041-1.6879 1.688 1.1253 1.1253 1.6879-1.6723-1.1253-1.1097v-0.0313zm-2.7194 4.0792c0.7658 0.0469 1.5316 0.0469 2.2974-0.0312l-0.2188-0.2032c-0.1094 0-0.2031-0.0313-0.2813-0.1094-0.0781-0.0782-0.1094-0.1876-0.1094-0.2813l-1.2191-1.2191-1.0784 1.094 0.5002 0.5002c0.0625 0.0781 0.0937 0.1562 0.1094 0.25zm-1.0784-0.1094-0.0782-0.0938-0.0625 0.0626c0.0469 0.0156 0.0938 0.0156 0.1407 0.0312zm-0.0938-49.95-1.8599 1.8599 0.2501 0.25c0.1563 0.1563 0.1563 0.4064 0.0156 0.547-0.0468 0.0626-0.125 0.0626-0.1875 0.0782h4.6731c-0.0938 0-0.1876-0.0313-0.2657-0.1094l-0.3282-0.3282-0.2345 0.2188c-0.1563 0.1563-0.3907 0.1563-0.547 0-0.1563-0.1407-0.1563-0.3907 0-0.547l0.2188-0.2345-1.7348-1.7348zm-2.4069 2.4069-0.2657 0.2657c-0.0469 0.0469-0.0937 0.0469-0.1406 0.0625h0.8283c-0.0625-0.0156-0.125-0.0156-0.1719-0.0782l-0.2501-0.25zm-2.7976 47.559h0.1094c-0.0312-0.0156-0.0625-0.0312-0.1094-0.0468v0.0468zm0.5783 0.2188c-0.0625-0.0312-0.125-0.0468-0.1875-0.0781 0.0625 0.0625 0.1094 0.1563 0.1094 0.2501 0 0.2188-0.172 0.3907-0.3908 0.3907h-0.0937v0.7971c0.3594-0.3595 0.7502-0.719 1.1096-1.0941-0.2031-0.0781-0.3594-0.1875-0.547-0.2657zm-9.6587 0.8753h1.6567v-2.4694c0-0.0625 0.0468-0.125 0.0781-0.1876-0.6408 0.719-1.2972 1.4379-1.938 2.1568 0.1094 0.0626 0.2032 0.1563 0.2032 0.3126v0.1876zm-1.266 0.6564c-0.3751 0.422-0.7658 0.844-1.1409 1.2659 0.1094 0.0782 0.2188 0.172 0.2188 0.3282v0.7815h1.5317c-0.0782-0.0625-0.1251-0.1563-0.1251-0.2813v-1.9693h-0.2031c-0.1094 0-0.2032-0.0469-0.2814-0.125zm-1.7035 2.3756v-0.4845c-0.1563 0.1563-0.297 0.3282-0.4376 0.4845h0.4376zm11.237-52.654 0.9221 0.9065c0.1094 0.1094 0.1094 0.2657 0.0626 0.3907h1.9536c-0.0625-0.0156-0.1094-0.0156-0.1563-0.0625-0.1407-0.1407-0.1407-0.3907 0-0.547l0.2813-0.2657-1.6723-1.6723c-0.0312-0.0313-0.0312-0.0626-0.0469-0.0938l-1.3441 1.3441zm-0.547 0.547-0.7502 0.7502h1.5004l-0.7502-0.7502zm-0.6564 46.7v1.2815h1.2503c0-0.2031-0.0156-0.25 0.0313-0.4376-0.0625-0.0469-1.1566-0.7502-1.2816-0.8439zm-0.7502-0.5939c-0.844-0.719-0.8283-0.7033-1.516-1.5004v1.5316c0.2344 0 1.2972-0.0469 1.4847 0.0938 0-0.125 0.0157-0.0313 0.0313-0.125zm-2.0318-45.355-0.8439-0.8283-0.8284 0.8283h1.6723zm-2.1568 45.387h1.8911v-2.4225c-0.7345 1.0472-1.219 1.516-2.1099 2.5163 0.0625-0.0469 0.1407-0.0938 0.2188-0.0938zm0.3126 3.5791v0.2657c0 0.2188-0.1719 0.3907-0.3907 0.3907s-0.3907-0.1719-0.3907-0.3907v-0.1251h-1.6567v1.9693c0 0.1094-0.0469 0.2188-0.125 0.2813h0.0625c0.2188 0 0.3907 0.1719 0.3907 0.3907s-0.1719 0.3908-0.3907 0.3908h-2.1256v1.4691c0 0.2032-0.1719 0.3907-0.3907 0.3907s-0.3907-0.1875-0.3907-0.3907v-1.4691h-1.1566c-5.7358 6.361-7.5644 8.0176-8.3459 10.534-1.4066 4.6731 3.079 7.5957 6.9706 3.8447 2.3131-2.2505 4.5793-7.33 7.6426-10.815 0.4688-0.5002 1.3128-1.3754 2.1568-2.2037 0.8283-0.8284 1.6566-1.6411 2.0474-2.0162 0.7658-0.7345 1.516-1.4691 2.2818-2.2193-0.1719-0.0312-0.3126-0.1719-0.3126-0.3595v-0.8908h-1.2503v0.9846c0 0.2188-0.1719 0.3907-0.3907 0.3907s-0.3908-0.1719-0.3908-0.3907v-2.9226c-0.0625 0.0469-0.125 0.0938-0.2031 0.0938h-1.2816v1.3753c0 0.2188-0.1719 0.3908-0.3907 0.3908s-0.3908-0.172-0.3908-0.3908v-1.3753h-1.5785v2.2974c0.0625 0.0782 0.0938 0.1563 0.0938 0.2501s-0.0313 0.1875-0.0938 0.2501zm25.225-50.388 1.3129 1.3128c0.0312 0.0312 0.0312 0.0781 0.0469 0.1094h1.8285c-0.0156-0.1094 0.0157-0.2188 0.0938-0.297l1.3597-1.3597-2.2036-2.2037-2.4382 2.4382zm-4.8762-13.472c13.957-0.75019 16.536 5.7672 16.629 19.333l0.1563 27.507c0.0317 5.0481-0.0937 9.8775-2.0943 13.754-3.1726 6.0797-9.4086 6.9862-15.082 7.0799-2.11 0.0157-7.7677 0.0469-15.191 0.0626-1.8599 1.8442-2.7507 2.6256-3.9073 3.9072-2.9851 3.4071-5.1888 8.424-7.7207 10.878-5.0169 4.845-11.425 0.844-9.5337-5.4076 0.8596-2.8133 2.8914-4.7356 7.0956-9.3618-6.8456 0-30.43 0-36.4-0.0782-15.035-0.2344-17.239-7.7051-17.161-21.521 0.046887-8.8616 0.078145-17.817 0.14066-26.819 0.046887-13.675 2.7976-20.083 16.645-19.333 8.9867 0.45324 57.405 0.45324 66.423 0zm3.8291 56.421-1.7505 1.766 0.5314 0.547c0.6408-0.5939 1.2035-1.2346 1.7192-1.9223-0.0625-0.0156-0.125-0.0156-0.1719-0.0625l-0.3282-0.3282zm-1.7974 2.8288-0.5157-0.5158-0.5158 0.5314c-0.1563 0.1563-0.4063 0.1563-0.5626 0-0.1407-0.1563-0.1407-0.4063 0-0.5626l0.5314-0.5158-1.1253-1.1253-2.235 2.2194 1.7349 1.7192c0.1719-0.0782 0.3594-0.1563 0.547-0.2501 0.7502-0.422 1.4691-0.9377 2.1411-1.5004zm-2.4381 6.8611c5.4702-0.0937 10.925-0.9064 13.707-6.2359 1.8442-3.5478 1.9536-8.1896 1.9223-13.019l-0.1563-27.507c0-0.9847-0.0156-1.9537-0.0468-2.8914h-96.478c-0.03126 0.9534-0.04689 1.9067-0.04689 2.8914-0.06252 9.0023-0.1094 17.942-0.14066 26.819-0.07815 13.206 1.6723 19.724 15.613 19.943 4.2199 0.0469 21.13 0.0938 37.791 0.0782 0.3907-0.4376 1.3597-1.5004 1.6566-1.8442 5.8453-6.4392 5.9078-6.4079 6.9237-7.9708-0.1407-0.2657-0.2813-0.5314-0.4064-0.8127h-11.159c-0.2188 0-0.3907-0.172-0.3907-0.3908 0-0.2031 0.1719-0.3907 0.3907-0.3907h10.784c-0.6564-1.6879-0.969-3.5009-0.9846-5.3295h-24.834c-0.2188 0-0.3907-0.1719-0.3907-0.3907s0.1719-0.3907 0.3907-0.3907h24.819c0.0781-1.8286 0.5157-3.6416 1.2503-5.3295h-26.21c-0.2188 0-0.3908-0.1719-0.3908-0.3907 0-0.2189 0.172-0.3908 0.3908-0.3908h26.554c2.235-4.4542 6.4548-7.5332 11.612-7.7207 4.8919-0.1407 10.206 2.3756 14.113 6.8143 2.3443 2.6881 3.2508 6.0015 2.61 9.5962-0.7658 4.4073-3.8603 8.6741-7.8457 10.862-3.1571 1.7348-7.3613 2.2662-11.55 1.0628 0 0-1.7504 1.7035-3.0633 3.0008 6.6267-0.0157 11.597-0.0469 13.566-0.0626zm2.0005-11.362c0.1563 0.1406 0.1563 0.3907 0 0.547l-1.2034 1.2034 1.1253 1.1253 1.7661-1.7505-1.8286-1.8286c-0.1563-0.1562-0.1563-0.4063 0-0.5626 0.1563-0.1407 0.4063-0.1407 0.547 0l1.8286 1.8286 0.5783-0.5783c0.1562-0.1563 0.4063-0.1563 0.5626 0s0.1563 0.4064 0 0.5627l-0.5783 0.5782 0.3126 0.3126c0.0156 0.0157 0.0156 0.0469 0.0313 0.0625 0.9064-1.3284 1.5785-2.7976 1.9848-4.2979-0.0156 0-0.0156 0.0156-0.0312 0.0156-0.0938 0-0.2032-0.0469-0.2813-0.125l-0.969-0.969-1.2191 1.2034 1.4222 1.4222c0.1563 0.1563 0.1563 0.4064 0 0.5627-0.1562 0.1406-0.4063 0.1406-0.547 0l-1.4691-1.4691c-0.0469 0.0156-0.0781 0.0468-0.125 0.0468-0.1094 0-0.2032-0.0312-0.2813-0.1094-0.1094-0.1094-0.1095-0.2657-0.0626-0.4063l-0.2657-0.2657c-0.1562-0.1563-0.1562-0.4064 0-0.5627 0.1407-0.1406 0.3908-0.1406 0.5471 0l0.2344 0.2345 1.2034-1.2191-0.3907-0.3907c-0.1563-0.1563-0.1563-0.4064 0-0.547 0.1563-0.1563 0.3907-0.1563 0.547 0l0.4064 0.3907 0.4376-0.4376c0.1563-0.1563 0.3907-0.1563 0.547 0s0.1563 0.3907 0 0.547l-0.4376 0.4376 0.9065 0.9065c0.0156-0.0781 0.0469-0.1563 0.0625-0.2344 0.0938-0.5002 0.1406-1.0628 0.1563-1.6411 0 0 0 0.0156-0.0157 0.0156-0.0781 0.0782-0.1875 0.1251-0.2813 0.1251s-0.2032-0.0469-0.2813-0.1251l-1.0628-1.0627c-0.0469 0.0156-0.0781 0.0625-0.125 0.0625-0.0938 0-0.2032-0.0469-0.2813-0.125-0.1094-0.1094-0.1094-0.2657-0.0625-0.3908l-0.0938-0.1094c-0.1563-0.1563-0.1563-0.4063 0-0.547 0.1406-0.1563 0.3907-0.1563 0.547 0l0.0625 0.0469 0.6564-0.6408c0.1407-0.1563 0.3908-0.1563 0.547 0 0.1563 0.1407 0.1563 0.3907 0 0.547l-0.6407 0.6564 1.0158 1.0159c0 0.0157 0 0.0313 0.0157 0.0469-0.0469-1.8911-0.5939-4.0948-2.4225-6.1734-3.2665-3.7197-8.0958-6.4861-12.878-6.2829-13.113 0.4532-16.801 20.646-2.7195 25.147 0.4689 0.1406 0.9378 0.2657 1.4066 0.3751l0.4533-0.4533-0.6877-0.7033c-0.1563-0.1406-0.1563-0.3907 0-0.547 0.1407-0.1563 0.3907-0.1563 0.547 0l0.6877 0.6877 1.1097-1.094c-0.1251-0.1563-0.1407-0.3751 0.0156-0.5158 0.1406-0.1407 0.3595-0.1407 0.5157-0.0156l3.1571-3.1727c0.1563-0.1407 0.4064-0.1407 0.5626 0 0.1407 0.1563 0.1407 0.4063 0 0.5626l-0.9221 0.9221 1.1253 1.1253 2.2193-2.2193-0.6095-0.6095c-0.1563-0.1563-0.1563-0.3908 0-0.547 0.1563-0.1563 0.4064-0.1563 0.5627 0l0.6095 0.6095 1.2034-1.2034c0.1407-0.1563 0.3907-0.1563 0.547 0zm2.1725-41.276-2.0162-2.0006-1.7973 1.813 0.7971 0.7971c0.1406 0.1563 0.1406 0.4063 0 0.5626-0.1563 0.1563-0.4064 0.1563-0.5627 0l-0.8127-0.8127c-0.1563 0.1563-0.3907 0.1407-0.5314 0-0.1563-0.1563-0.1563-0.3907-0.0156-0.547l-1.9224-1.938-2.5631 2.5475 0.3282 0.3439c0.1563 0.1563 0.1563 0.3907 0 0.547-0.0625 0.0781-0.1719 0.1094-0.2657 0.1094h10.784l-0.8752-0.8596-0.5001 0.5001c-0.1407 0.1407-0.3908 0.1407-0.5471 0-0.1563-0.1563-0.1563-0.4063 0-0.5626l0.5002-0.5001zm-2.0162-3.1102 1.7974-1.7974c0.1563-0.1562 0.3907-0.1562 0.547 0 0.1563 0.1563 0.1563 0.4064 0 0.5471l-1.7817 1.7973 2.0005 2.0161 2.4381-2.4381-0.9221-0.9377c-0.1563-0.1407-0.1563-0.3908 0-0.547 0.1563-0.1563 0.4064-0.1563 0.547 0l0.9378 0.9221 2.2505-2.235-0.1563-0.1563c-0.1563-0.1563-0.1563-0.4063 0-0.547 0.1563-0.1563 0.3908-0.1563 0.5471 0l0.2031 0.2032c0.1407-0.0469 0.2814-0.0313 0.3751 0.0625 0.1094 0.1094 0.1251 0.2501 0.0782 0.3751l3.8916 3.8916c0.0781 0.0782 0.1094 0.1876 0.1094 0.2813 0 0.0938-0.0313 0.2032-0.1094 0.2814-0.1563 0.1406-0.4064 0.1406-0.5627 0l-1.0784-1.0784-2.2349 2.2349 0.8127 0.8284c0.1563 0.1406 0.1563 0.3907 0 0.547s-0.4063 0.1563-0.547 0l-0.8283-0.8127-1.0941 1.094h5.9859c-0.0625-1.1097-0.1719-2.1412-0.3125-3.0946-1.2816-8.549-5.814-10.706-14.566-10.237-9.3461 0.46885-57.249 0.46885-66.58 0-9.7682-0.53138-14.254 2.2194-14.879 13.332h50.341c0.0156-0.0156 0.0156-0.0469 0.0312-0.0625l1.0941-1.0941-0.8596-0.8439c-0.1563-0.1563-0.1563-0.4064 0-0.547 0.1563-0.1563 0.4063-0.1563 0.5626 0l0.844 0.8439 1.094-1.094c0.1563-0.1563 0.4064-0.1563 0.547 0 0.1563 0.1563 0.1563 0.4064 0 0.547l-1.094 1.094 1.1565 1.1566h0.7502c-0.0156-0.1094 0.0157-0.2188 0.1094-0.297l1.7036-1.7035-0.8596-0.8596c-0.1563-0.1563-0.1563-0.3907 0-0.547s0.4064-0.1563 0.5626 0l0.844 0.8439 0.7658-0.7502c0.1407-0.1562 0.3908-0.1562 0.547 0 0.1563 0.1563 0.1563 0.3908 0 0.5471l-0.7658 0.7658 1.3285 1.3284c0.1563 0.1407 0.1563 0.3908 0 0.5471-0.0625 0.0781-0.1719 0.125-0.2657 0.125-0.1094 0-0.2032-0.0469-0.2813-0.125l-1.3285-1.3285-1.4535 1.4535h4.72l1.391-1.391-0.8596-0.844c-0.1407-0.1562-0.1407-0.4063 0-0.547 0.1563-0.1563 0.4063-0.1563 0.5626 0l0.844 0.844 0.5001-0.5001c0.1563-0.1563 0.4064-0.1563 0.5626 0 0.1407 0.1563 0.1407 0.4063 0 0.547l-0.5001 0.5001 1.3754 1.391h0.8908c-0.0781-0.1407-0.0781-0.3282 0.0469-0.4532l0.844-0.8596-0.6096-0.6096c-0.1562-0.1563-0.1562-0.4063 0-0.547 0.1563-0.1563 0.3908-0.1563 0.5471 0l0.6251 0.6095 2.907-2.907c0.1563-0.1562 0.3907-0.1562 0.547 0 0.1563 0.1563 0.1563 0.4064 0 0.5471l-1.0784 1.0784c0.0469 0.0156 0.0782 0.0156 0.1094 0.0468l1.6723 1.6724 3.2978-3.2978c0.1406-0.1563 0.3907-0.1563 0.547 0 0.1563 0.1407 0.1563 0.3908 0 0.547l-0.8909 0.8909 1.7505 1.7348 3.6571-3.6572c0.1407-0.1563 0.3908-0.1563 0.5471 0s0.1563 0.3908 0 0.547l-0.5471 0.5471 1.938 1.938 1.813-1.813-0.5001-0.5001c-0.1563-0.1563-0.1563-0.4064 0-0.547 0.1563-0.1563 0.3907-0.1563 0.547 0l0.5001 0.5001z"/>
</svg>
