<?xml version="1.0" encoding="UTF-8"?>
<svg fill="none" viewBox="0 0 100 100" xmlns="http://www.w3.org/2000/svg" xmlns:xlink="http://www.w3.org/1999/xlink">
<g fill="#000">
<path d="M88.643 6.058a911.6 911.6 0 0 0-69.794.192c-5.25.217-14.498.668-16.945 9.179-.858 2.986-.268 6.288 1.539 8.621 3.129 4.039 8.859 4.585 14.42 4.55l67.589.441c8.141 0 12.994-2.438 13.032-12.735.029-8.017-3.379-10.014-9.841-10.248h0zM69.821 7.906l.255-.255c.148-.148.148-.388 0-.535l1.626.018.115.115-1.327 1.326-.668-.67zm-.536-.536l-.265-.265.536.003-.271.262zm-4.765.055l-.353-.353.701.005-.349.348zm-4.221-.379l-.379.379-.385-.385.764.006h0zm-4.895-.033l-.248.248-.252-.252.5.003h0zm-12.833.126l-.615.615-.6-.6 1.215-.015zm-6.145 1.547l-1.429-1.427 2.917-.061-1.488 1.488zm-4.135-1.342c-.067.015-.136.026-.188.077l-1.045 1.045-1.052-1.052 2.285-.071h0zm-5.77.182l-1.27 1.27-1.192-1.192 2.462-.077h0zm-9.704 4.885l-2.367-2.367 1.827-1.827c.088-.088.106-.205.089-.32l1.359-.079 1.842 1.842-2.751 2.75zm-8.55-2.526a11.95 11.95 0 0 1 1.288-.617l-.953.952-.335-.335zm2.862-1.121c.011-.011.006-.026.015-.036.241-.068.482-.135.724-.192l1.509 1.509L10.9 12.52l-1.765-1.765 1.992-1.992zm1.624-.415a27.36 27.36 0 0 1 2.694-.373l-1.533 1.532-1.161-1.159zM7.6 10.291l.465.465-2.532 2.532-.498-.5c-.024-.024-.061-.021-.091-.038.721-.947 1.62-1.783 2.656-2.459zm-4.086 5.551a.38.38 0 0 0 .536 0l1.485-1.483 2.477 2.477-1.82 1.818-2.824-2.824c.018-.062.044-.123.064-.185.014.07.027.142.082.197h0zm.053-.588a9.44 9.44 0 0 1 .952-1.911l.479.479-1.43 1.432zm-.4 1.446l2.488 2.488L3.6 21.242c-.545-1.409-.708-2.997-.433-4.542h0zm14.691 10.385c-4.858.011-10.353-.267-13.217-3.964-.274-.353-.502-.741-.708-1.141l2.256-2.256.68.68a.38.38 0 0 0 .535 0c.148-.148.148-.388 0-.535l-.68-.68 1.847-1.847c.152.082.286.118.444-.039.121-.121.118-.297.039-.442l.848-.849a.38.38 0 0 0 0-.536c-.147-.147-.386-.15-.535 0l-.823.823-2.477-2.477L8.6 11.289l1.764 1.765-.279.28c-.149.149-.149.388 0 .535a.38.38 0 0 0 .536 0l.279-.279.391.391a.38.38 0 0 0 .536 0 .38.38 0 0 0 0-.536l-.392-.391 2.477-2.477 2.588 2.588a.38.38 0 0 0 .535 0c.021-.021.017-.05.03-.074.085-.008.171-.033.236-.097l2.799-2.8.611.611a.38.38 0 0 0 .536 0c.148-.149.148-.388 0-.535l-.611-.612.623-.623c.148-.148.148-.388 0-.535a.38.38 0 0 0-.536 0l-.623.623-1.35-1.35.161-.006 4.109-.13 1.694 1.694-2.252 2.252c-.148.149-.148.388 0 .535a.38.38 0 0 0 .535 0l2.252-2.251.226.226a.38.38 0 0 0 .535 0c.148-.148.148-.388 0-.535l-.226-.226 1.568-1.568c.074-.074.111-.171.111-.267l1.502-.047 1.555 1.553-1.814 1.814c-.148.149-.148.388 0 .535a.38.38 0 0 0 .536 0l1.814-1.814.121.121a.38.38 0 0 0 .536 0c.149-.148.149-.388 0-.535l-.121-.121 1.046-1.045c.148-.148.148-.388 0-.535-.055-.055-.127-.068-.199-.082l1.648-.052c.009.083.032.167.095.23l1.705 1.703-.72.718a.38.38 0 0 0 0 .536c.15.15.389.146.535 0l.738-.738c.186.124.342.1.471-.027s.126-.323.027-.47l2.02-2.018c.011-.011.006-.026.015-.038l1.321-.017 1.123 1.123-1.43 1.43c-.149.148-.149.388 0 .535s.386.15.535 0l1.43-1.43.28.28a.38.38 0 0 0 .536 0c.148-.148.148-.388 0-.535l-.28-.28 1.164-1.164 1.62-.02 1.677 1.677a.38.38 0 0 0 .536 0 .38.38 0 0 0 0-.536l-1.156-1.155 3.003-.036L46.891 9.5c-.148.148-.148.388 0 .535a.38.38 0 0 0 .536 0l2.579-2.58 1.432 1.43a.38.38 0 0 0 .535 0c.149-.15.148-.388 0-.535l-1.314-1.312L53.823 7l.794.795-2.142 2.142a.38.38 0 0 0 0 .536.38.38 0 0 0 .536 0l2.143-2.142.83.83a.38.38 0 0 0 .536 0 .38.38 0 0 0 0-.536l-.83-.83.777-.777 1.989.014.927.927-1.648 1.65a.38.38 0 0 0 0 .536.38.38 0 0 0 .535 0l1.648-1.65.558.556a.38.38 0 0 0 .536 0c.148-.148.148-.388 0-.535l-.558-.556.608-.608c.083-.083.108-.192.097-.302l1.927.014.895.895-.773.773a.38.38 0 0 0 0 .536.38.38 0 0 0 .536 0l.803-.802c.142.074.271.123.436-.041.12-.12.117-.292.041-.436l.906-.906 2.009.014.808.808-1.812 1.814c-.149.148-.149.388 0 .535a.38.38 0 0 0 .536 0l1.812-1.814 1.223 1.223a.38.38 0 0 0 .536 0c.148-.148.148-.388 0-.535l-.018-.018 1.327-1.326 1.167 1.167a.38.38 0 0 0 .536 0c.148-.148.148-.388 0-.535l-1.168-1.168.083-.083 4.253.111V27.48l-59.367-.395h0zm67.044.439c-2.058 0-4.111-.02-6.162-.035V7.317l9.852.256c4.648.167 8.409.718 8.379 8.727-.039 10.799-5.87 11.264-12.068 11.224zm5.16-9.503c.997-1.005.997-2.05.812-3.447-.265-1.989-.876-3.454-3.329-3.903-2.155-.388-4.491.445-5.688 2.027-1.817 2.4-.383 6.064 2.936 6.774 1.215.259 2.661.102 4.065-.605l3.9 3.98a.76.76 0 0 0 1.071 0 .76.76 0 0 0 0-1.071l-3.768-3.756zm-4.953-.032c-2.205-.47-3.205-2.841-2.046-4.377.826-1.089 2.627-1.738 4.209-1.45 1.645.297 1.895 1.097 2.099 2.612.186 1.415.179 2.115-1.318 2.809-.988.454-2.036.6-2.944.406h0zM22.626 38.094c-.015-2.849-1.027-3.962-3.917-3.912l-5.336.059c-3.964.044-6.118 1.476-5.414 6.467.112.798.041 1.717-.035 2.686-.191 2.436-.427 5.47 2.929 6.67 1.733.621 3.653.374 5.182.179 5.433-.703 6.63-2.585 6.611-7.086l-.02-5.062zm-5.088-1.498l-.877-.877 1.623-.018.074.074-.82.821zm-4.147-.839l2.209-.024.132.132-1.258 1.258-1.356-1.356.273-.009zM9.383 46.085l.6.6-.367.367a3.86 3.86 0 0 1-.233-.967zm-.017-1.089c-.003-.389.018-.8.052-1.241.011-.009.026-.005.036-.015l.061-.061 1.738 1.738-.732.732-1.155-1.153zm.132-2.404c.035-.705.053-1.405-.038-2.07l1.07 1.07-1.015 1.017-.017-.017zm.542-5.905l.861.861-1.559 1.558c-.015-1.12.226-1.894.698-2.418zm5.801 12.053c-1.445.186-3.082.397-4.479-.102-.621-.223-1.047-.53-1.354-.906l.512-.511.421.421a.38.38 0 0 0 .536 0c.149-.149.149-.388 0-.535l-.421-.421 2.194-2.194a.38.38 0 0 0 0-.536c-.149-.149-.388-.149-.535 0l-.929.926-1.738-1.738 1.017-1.017.633.633a.38.38 0 0 0 .536 0 .38.38 0 0 0 0-.536l-.633-.633.783-.783a.38.38 0 0 0 0-.536c-.149-.148-.388-.148-.535 0l-.783.783-1.302-1.301 1.673-1.673 1.073 1.073a.38.38 0 0 0 .536 0 .38.38 0 0 0 0-.536l-1.073-1.073.35-.349a.38.38 0 0 0 0-.536.38.38 0 0 0-.536 0l-.35.348-.794-.794c.42-.22.92-.336 1.467-.392l1.83 1.83-.65.65c-.149.149-.149.388 0 .535a.38.38 0 0 0 .536 0l.65-.65.191.191a.38.38 0 0 0 .536 0c.148-.148.148-.388 0-.535l-.192-.192 1.258-1.258.732.732-.258.258a.38.38 0 0 0 0 .536.38.38 0 0 0 .535 0l.264-.264c.171.153.385.124.517-.008.142-.142.141-.368.008-.517l.826-.826 1.038 1.038a.38.38 0 0 0 .536 0 .38.38 0 0 0 0-.536l-1.111-1.111c1.515.068 1.745.702 1.755 2.397l.021 5.064c.012 3.694-.597 4.977-5.291 5.583h0zm44.015-10.973H25.411a.76.76 0 0 0-.758.758.76.76 0 0 0 .758.758h34.445a.76.76 0 0 0 .758-.758c0-.42-.338-.758-.758-.758z"/>
<use xlink:href="#a"/>
<path d="M10.855 72.091c1.656.594 3.447.403 5.18.177 5.423-.698 6.632-2.576 6.612-7.085l-.021-5.064c-.017-3.097-1.227-3.921-3.917-3.914l-5.336.061c-3.968.044-6.117 1.48-5.414 6.467.112.797.041 1.715-.035 2.686-.189 2.438-.426 5.471 2.93 6.671h0zm6.276-14.35l-1.289 1.291-1.261-1.261 2.55-.03zm-6.356 2.244l-.912.912a.38.38 0 0 0 0 .536.38.38 0 0 0 .535 0l.912-.912 1.826 1.824-1.52 1.52-2.206-2.207c-.012-.012-.03-.008-.044-.018-.067-.911-.012-1.903.433-2.632l.976.977zm-.459-1.53c.662-.506 1.612-.629 2.649-.658l-1.653 1.653-.996-.995zm.765 5.946l-1.33 1.33-.038-.036c-.077-.077-.18-.109-.282-.106l.003-.049c.073-.92.127-1.859.038-2.747L11.08 64.4zm-1.308 5.038c-.394-.692-.458-1.606-.408-2.738a.38.38 0 0 0 .233.097c.038 0 .068-.032.105-.044l1.377 1.377-1.308 1.308zm.514-3.173l1.33-1.329 1.252 1.253c.03.03.073.027.109.045l-1.361 1.361-1.33-1.33zm5.554 4.5c-1.442.186-3.08.4-4.477-.1a3.24 3.24 0 0 1-1.103-.642l1.356-1.356.548.548a.38.38 0 0 0 .536 0 .38.38 0 0 0 0-.536l-.548-.548 1.836-1.836a.38.38 0 0 0 0-.536c-.149-.148-.388-.148-.535 0l-.003.003c-.018-.036-.015-.079-.045-.109L12.152 64.4l2.291-2.289c.149-.148.149-.388 0-.535a.38.38 0 0 0-.535 0l-.235.235-1.826-1.826 1.939-1.939 1.52 1.52-.799.798a.38.38 0 0 0 0 .536.38.38 0 0 0 .536 0l.798-.798.752.752a.38.38 0 0 0 .535 0 .38.38 0 0 0 0-.536l-.751-.751 1.298-1.3c.071-.071.105-.164.106-.258l.797.797-.721.721a.38.38 0 0 0 0 .536.38.38 0 0 0 .536 0l.721-.721 1.447 1.447a.38.38 0 0 0 .536 0c.012-.012.008-.029.017-.043l.018 4.444c.012 3.697-.606 4.974-5.292 5.576h0zm5.27-10.476c-.009-.011-.005-.027-.015-.038l-1.447-1.447.8-.8c.653.397.656 1.347.661 2.121l.002.164zm-2.385-2.567l.9.038-.511.511-.547-.547.158-.002zm6.685 3.586h34.445a.76.76 0 0 0 .758-.758.76.76 0 0 0-.758-.758H25.411a.76.76 0 0 0-.758.758.76.76 0 0 0 .758.758z"/>
<use y="22.027" xlink:href="#a"/>
<path d="M10.853 94.118c1.744.623 3.576.382 5.182.177 5.433-.7 6.632-2.585 6.612-7.086l-.021-5.062c-.017-3.086-1.206-3.917-3.917-3.914l-5.336.061c-3.968.044-6.117 1.48-5.414 6.467.112.797.041 1.715-.035 2.686-.189 2.438-.426 5.47 2.929 6.671h0zm-.459-11.03a.38.38 0 0 0 .536 0l.262-.262 1.629 1.629-2.38 2.38-.917-.917c.008-.465 0-.927-.064-1.37-.139-.989-.235-2.291.203-3.253l.994.994-.264.262a.38.38 0 0 0 0 .536h0zm-.489 4.283l-.394.394a.37.37 0 0 0-.106.258l.032-.459.038-.624.43.432zm.555 4.835a2.41 2.41 0 0 1-.642-.683l.662.662-.02.021zm-1.082-2.192c-.048-.574-.027-1.235.024-1.973.002.094.036.189.108.261a.38.38 0 0 0 .268.111c.098 0 .194-.036.268-.111l.394-.394 2.159 2.158-1.585 1.586-1.636-1.638zm11.733-7.859l.021 5.062c.015 3.688-.595 4.974-5.289 5.577-1.37.176-2.903.353-4.242-.045.133-.148.136-.376-.008-.518l-.042-.043 3.323-3.323a.38.38 0 0 0 0-.536.38.38 0 0 0-.536 0l-1.202 1.202-2.159-2.159 2.452-2.453c.007 0 .015.009.023.009.097 0 .194-.036.268-.111.094-.094.106-.217.082-.338.068-.141.07-.306-.047-.423-.094-.094-.22-.106-.341-.08l-1.685-1.685 1.541-1.541 2.115 2.115a.38.38 0 0 0 .536 0c.149-.148.149-.388 0-.535l-2.115-2.115.414-.414 2.404-.027.705.705-.836.836a.38.38 0 0 0 0 .536.38.38 0 0 0 .535 0l.836-.836 1.285 1.285a.38.38 0 0 0 .536 0 .38.38 0 0 0 0-.536L18.4 80.479l.726-.724c1.626.03 1.976.468 1.986 2.4h0zm-3.43-2.394l.368-.005-.186.186-.182-.182zm-5.311.089l.364.364-1.541 1.541-1.097-1.097c.586-.597 1.432-.747 2.274-.808h0zm13.041 3.486h34.445a.76.76 0 0 0 .758-.758.76.76 0 0 0-.758-.757H25.411a.76.76 0 0 0-.758.757.76.76 0 0 0 .758.758z"/>
<use y="44.054" xlink:href="#a"/>
</g>
<defs>
<path id="a" d="M84.444 44.305H25.967a.76.76 0 0 0-.758.758.76.76 0 0 0 .758.758h58.477a.76.76 0 0 0 .757-.758.76.76 0 0 0-.757-.758z"/>
</defs>
</svg>
