<?xml version="1.0" encoding="UTF-8"?>
<svg fill="none" width="167" height="268" viewBox="0 0 167 268" xmlns="http://www.w3.org/2000/svg">
<g fill="#000">
<path d="M12.06 149.287v-1.465l-.015-1.057-.015-1.08c-.061-.824-.305-1.588-.763-2.259-.366-.489-.733-.58-1.16-.153-.366.397-.733.855-.916 1.374-.672 1.801-.672 3.694-.397 5.556.122.885.916 1.404 1.74 1.343.794-.061 1.404-.672 1.496-1.526.03-.245.03-.489.03-.733zm-1.435 15.416c.519-.977.733-2.045.763-3.175l-.019-.154-.408-2.776c-.031-.306-.153-.58-.305-.825a1.56 1.56 0 0 0-1.618-.763c-.672.092-1.16.519-1.313 1.191-.061.305-.061.671-.031 1.007l.275 1.893.062.305h0c.128.63.255 1.258.518 1.862.244.58.641 1.13 1.068 1.618.427.458.702.397 1.007-.183zM5.191 152.28c.702 0 1.404.091 2.045.457.763.458.855.947.214 1.588-.336.366-.794.671-1.252.855-1.404.58-2.931.732-4.426.763-.122 0-.244-.031-.366-.061-.855-.214-1.435-.916-1.404-1.74s.641-1.466 1.557-1.557l3.358-.305h.275zm13.92 1.495c-.946-.397-1.923-.672-2.992-.733l-1.021.157-1.147.179c-.336.091-.702.305-.977.58-.488.488-.549 1.099-.305 1.709.275.672.824 1.038 1.557 1.008 1.221-.031 2.412-.336 3.48-.977.549-.305 1.068-.702 1.526-1.13.427-.366.366-.58-.122-.793z" fill-rule="evenodd"/>
<path d="M124.418 260.955c-.089 1.242-.355 2.44-.799 3.549-1.331 3.504-5.368 4.17-7.985 2.173-.887-.665-1.553-1.641-2.174-2.573-.621-.887-.576-1.951-.088-2.972.798-1.686 1.952-3.105 3.416-4.258 1.02-.755 2.129-1.065 3.415-.755a3.37 3.37 0 0 0 .932.133c1.331.045 2.218.755 2.662 1.952.31.843.443 1.819.621 2.751zm-2.795 1.198c.044-1.597-.444-2.884-1.952-3.727-.355-.177-.621-.266-.976-.133-1.198.444-2.174 1.198-2.928 2.174-1.286 1.686-1.242 2.883.133 4.436.133.177.266.31.444.444.931.709 1.952 1.064 3.15.621 1.242-.444 1.818-1.287 1.951-2.529.089-.399.134-.843.178-1.286zM70.37 18.519l-2.791.254c-1.363.211-2.407.93-3.046 2.156a21.2 21.2 0 0 0-1.129 2.558c-.852 2.304-1.363 4.714-2.002 7.06-.085.317-.106.676-.17.993-.021.127-.043.275-.106.381-.149.317-.426.486-.746.444s-.575-.296-.596-.655c-.021-.19-.021-.402.021-.613.128-.803.085-1.585 0-2.367-.17-1.543-.405-3.086-.895-4.566-.618-1.754-1.555-3.297-3.025-4.502l-2.279-1.818c-1.172-.93-2.514-1.543-3.898-2.093-.213-.085-.469-.106-.724-.19-.17-.042-.362-.085-.533-.169-.362-.169-.511-.529-.426-.888.085-.338.405-.55.788-.507a4.08 4.08 0 0 1 .852.169c1.576.486 3.195.38 4.814.233.596-.042 1.193-.106 1.768-.233 1.342-.317 2.386-1.057 3.004-2.304.49-.972.831-1.987 1.065-3.065l1.129-5.031.341-2.621.128-.698c.128-.233.32-.423.596-.444s.533.127.618.423c.106.317.192.655.213.993l.32 4.714.32 4.291c.128 1.163.533 2.262 1.193 3.255.596.909 1.427 1.48 2.407 1.881l1.896.74c.341.127.724.169 1.087.254l2.13.507c.32.084.533.317.554.655.043.317-.149.634-.49.761-.234.085-.49.148-.746.148h-1.683c.043-.042.043-.085.043-.106z"/>
</g>
<path d="M79.79 191.29c-3.211-.178-6.066-1.249-8.385-3.568a29.8 29.8 0 0 1-3.925-4.817c-4.014-6.155-8.207-12.132-13.291-17.484l-.178-.178c-9.366-11.864-19.089-23.461-27.742-35.86-3.033-4.371-5.085-9.098-6.869-14.183-1.16-3.39-.803-6.69 1.249-9.634 1.249-1.784 2.765-3.479 4.46-4.817 11.686-9.366 22.479-19.714 33.54-29.883 7.582-6.869 15.343-13.47 23.104-20.071 1.873-1.606 3.925-3.122 6.066-4.371 5.887-3.568 11.775-3.211 17.038 1.16 2.319 1.873 4.371 4.103 6.155 6.512 7.136 9.366 13.559 19.179 19.536 29.348 3.568 6.066 7.314 12.132 11.061 18.019 4.103 6.422 7.85 13.113 11.061 19.981 1.427 3.033 2.676 6.155 3.3 9.456.714 3.835 0 7.404-2.408 10.526-1.606 1.962-3.39 3.925-5.352 5.441-4.728 3.747-9.723 7.226-14.63 10.883l-16.591 12.042c-8.029 6.155-16.592 11.597-25.156 17.038-2.409 1.516-5.085 2.498-7.761 3.568-1.249.535-2.854.625-4.282.892z" fill="#55bbda"/>
<mask id="b" x="18" y="44" width="139" height="148" mask-type="alpha" maskUnits="userSpaceOnUse">
<path d="M79.79 191.29c-3.211-.178-6.066-1.249-8.385-3.568a29.8 29.8 0 0 1-3.925-4.817c-4.014-6.155-8.207-12.132-13.291-17.484l-.178-.178c-9.366-11.864-19.089-23.461-27.742-35.86-3.033-4.371-5.085-9.098-6.869-14.183-1.16-3.39-.803-6.69 1.249-9.634 1.249-1.784 2.765-3.479 4.46-4.817 11.686-9.366 22.479-19.714 33.54-29.883 7.582-6.869 15.343-13.47 23.104-20.071 1.873-1.606 3.925-3.122 6.066-4.371 5.887-3.568 11.775-3.211 17.038 1.16 2.319 1.873 4.371 4.103 6.155 6.512 7.136 9.366 13.559 19.179 19.536 29.348 3.568 6.066 7.314 12.132 11.061 18.019 4.103 6.422 7.85 13.113 11.061 19.981 1.427 3.033 2.676 6.155 3.3 9.456.714 3.835 0 7.404-2.408 10.526-1.606 1.962-3.39 3.925-5.352 5.441-4.728 3.747-9.723 7.226-14.63 10.883l-16.591 12.042c-8.029 6.155-16.592 11.597-25.156 17.038-2.409 1.516-5.085 2.498-7.761 3.568-1.249.535-2.854.625-4.282.892z" fill="#55bbda"/>
</mask>
<g mask="url(#b)">
<path d="M164.354 197.175c-1.159-.357-2.051-1.249-2.854-2.23-1.606-1.963-2.587-4.282-3.39-6.601-1.962-5.798-3.033-11.864-3.746-17.93l-1.428-14.272c0-.357-.089-.625-.267-1.428-.714 1.071-1.071 1.695-1.517 2.32-5.084 7.939-10.615 15.521-17.484 22.122a63.89 63.89 0 0 1-8.117 6.601c-1.695 1.16-3.747 2.052-5.798 2.587-4.55 1.249-8.385-.624-10.437-4.817-1.427-2.855-1.962-5.977-1.962-9.099 0-3.657.267-7.225.446-10.882 0-.447.089-.893.178-1.874l-1.606 1.963c-3.657 4.906-7.582 9.634-11.953 13.915-2.944 2.855-5.977 5.531-9.545 7.583-2.052 1.248-4.192 2.141-6.512 2.587-3.925.624-7.225-.982-9.01-4.55-1.249-2.498-1.695-5.263-1.873-8.028-.446-6.958.446-13.827 1.427-20.695.357-2.23.714-4.46.803-6.869-.446.625-.892 1.249-1.249 1.873-4.103 6.601-8.296 12.935-13.47 18.733-2.23 2.498-4.639 4.817-7.225 6.958-1.517 1.249-3.39 2.23-5.174 2.854-3.836 1.338-7.225.09-9.455-3.3-1.427-2.141-2.052-4.549-2.498-6.958-.892-5.352-.981-10.704-.446-15.967.535-6.066 1.338-12.221 1.962-18.287.089-.714.178-1.427-.089-2.319-.446.535-.892 1.07-1.338 1.695-4.639 6.333-9.723 12.31-15.7 17.483-2.23 1.874-4.639 3.569-7.047 5.174-.714.446-1.606 1.071-2.587 0 .268-.357.446-.713.803-.892 4.014-2.587 7.493-5.976 10.794-9.366 5.887-6.066 11.061-12.667 15.7-19.714.624-.981 1.07-2.141 1.338-3.3 3.836-19.268 8.92-38.179 16.681-56.288 2.319-5.352 4.817-10.526 8.117-15.254 1.338-1.962 2.855-3.746 4.46-5.441.981-1.249 2.319-2.23 3.836-1.516 1.606.803 1.695 2.498 1.427 3.925-.803 4.103-1.516 8.296-2.765 12.31-6.512 21.855-15.789 42.46-27.831 61.818-1.249 1.962-2.052 4.014-2.409 6.333-1.427 8.474-2.765 17.038-3.122 25.69-.178 4.728-.268 9.456.803 14.094.357 1.517.892 3.033 1.606 4.371 1.695 3.212 4.46 4.282 7.672 2.587 1.873-.892 3.746-2.141 5.263-3.657 3.122-3.122 6.066-6.423 8.831-9.902 5.977-7.671 10.883-16.056 15.432-24.62.357-.713.714-1.605.892-2.408 3.836-16.859 9.188-33.362 14.362-49.865 3.836-12.132 7.761-24.352 12.667-36.127.981-2.408 2.141-4.817 3.389-7.136.357-.714.892-1.427 1.606-1.962 1.071-.892 2.498-.446 2.765.981.179.981.179 1.962.179 2.944-.446 6.155-1.963 12.132-3.39 18.108-6.244 26.493-16.324 51.648-28.902 75.733-.803 1.516-1.427 3.122-1.695 4.817l-3.657 21.052c-.624 4.371-.892 8.831-.268 13.202.268 1.695.624 3.39 1.249 4.995 1.338 3.39 3.925 4.639 7.404 3.747 1.784-.446 3.568-1.249 5.085-2.23 2.587-1.784 5.085-3.658 7.404-5.709 6.779-6.155 12.31-13.291 17.394-20.785.446-.624.714-1.427.892-2.14 4.282-21.944 10.526-43.353 17.841-64.494 3.925-11.418 8.117-22.657 13.023-33.719.982-2.141 2.052-4.282 3.212-6.333.624-1.16 1.427-2.319 3.033-1.873s1.695 1.873 1.605 3.122c-.267 4.014-.446 8.028-1.07 11.953-4.014 26.582-12.221 51.827-24.709 75.644-2.855 5.53-6.245 10.704-9.277 16.146-.446.892-.982 1.784-1.16 2.676-.981 5.798-1.873 11.596-1.427 17.483.178 2.141.535 4.371 1.249 6.512 1.427 4.104 4.37 5.442 8.474 3.925 1.784-.624 3.568-1.516 5.084-2.676 2.855-2.23 5.62-4.549 8.207-7.136 7.315-7.493 13.291-15.967 18.554-25.066.535-.981.714-1.963.714-3.033-.089-11.24 2.408-21.944 6.512-32.292.892-2.14 2.051-4.281 3.3-6.244.625-1.07 1.606-1.962 2.676-2.676 1.784-1.159 3.747-.446 4.193 1.606.357 1.695.446 3.568.267 5.263-.446 4.817-1.784 9.545-3.389 14.094-2.587 7.671-6.066 14.897-9.902 22.033-.446.803-.892 1.873-.892 2.765.446 12.31 1.249 24.531 4.282 36.484.357 1.606.892 3.212 1.606 4.639.624 1.427 1.784 2.854 2.943 4.46zM145.265 51.774c-7.315 10.615-31.667 85.189-31.4 95.18 5.799-7.583 17.395-34.254 23.015-53.165 4.103-13.737 7.136-27.653 8.385-42.015zm-78.677-5.62c-.178-.089-.446-.178-.624-.268-.535.535-1.249.892-1.695 1.516-1.338 1.695-2.765 3.3-3.836 5.174-2.141 3.657-4.193 7.315-5.887 11.15-6.333 13.826-10.883 28.456-14.54 43.353-.803 3.122-1.427 6.155-2.141 9.277.089.089.268.089.357.179l1.338-2.141c8.207-14.005 14.986-28.635 20.517-43.888 2.498-6.869 4.906-13.648 6.155-20.873.268-1.07.268-2.319.357-3.479zm11.864 77.785l3.657-7.671c9.902-21.409 17.484-43.62 22.301-66.724.446-1.962.713-3.925 1.07-5.887-4.281 5.084-24.441 65.296-27.028 80.282zm88.4-15.521c-4.817 2.587-11.329 25.245-11.061 33.54.178-.178.357-.267.446-.446 4.282-8.652 7.85-17.483 9.812-26.939.446-1.962.535-3.836.803-6.155z" fill="#000"/>
</g>
<path d="M75.989 220.061c-.436.338-.842.758-1.333 1.069-.953.705-1.967 1.107-3.211.851-2.184-.433-3.38-2.784-2.34-4.951.853-1.778 1.873-3.475 2.949-5.146 8.773-13.151 20.905-21.477 36.111-25.388 4.145-1.086 8.036-2.5 11.836-4.435 5.522-2.818 11.102-5.471 16.995-7.495 3.371-1.184 6.776-2.011 10.325-2.426 2.173-.256 4.324-.18 6.457.502 3.547 1.156 5.304 4.187 4.204 7.76-1.18 3.74-3.449 6.615-6.975 8.408-2.707 1.367-5.534 2.129-8.509 2.205l-6.229.017c-14.666-.205-27.599 4.524-38.719 14.019-4.513 3.849-8.271 8.402-11.693 13.253l-8.485 12.264c-.647.92-1.404 1.787-2.162 2.653-3.762 4.278-8.62 5.569-14.004 4.966-2.484-.235-4.895-1.051-7.278-1.784-.913-.234-1.804-.798-2.64-1.336-1.227-.862-1.578-2.124-1.127-3.206.507-1.056 1.629-1.543 3.149-1.291l7.269 1.233c1.962.327 3.804.049 5.64-.642 1.809-.636 3.336-1.68 4.496-3.242l4.878-6.886c.189-.252.267-.556.4-.834.082-.029.027-.055-.002-.138zm56.306-36.131c.222.107.251.189.362.242l10.06-.024c1.929-.031 3.793-.64 5.516-1.522 1.393-.767 2.366-1.94 2.975-3.493-3.706-.822-13.642 1.791-18.913 4.797z" fill="#ee8db9"/>
<path d="M46 210.764c3.167-5.315 5.976-10.597 9.536-15.45 2.86-3.822 5.469-7.833 8.218-11.709 1.293-1.84 2.753-3.6 4.213-5.36.622-.726 1.411-1.373 2.06-2.155 5.142-5.871 11.24-10.6 18.013-14.457 1.611-.936 3.222-1.871 4.918-2.698 11.107-5.195 22.782-7.588 34.993-7.536 3.998.073 7.995.146 11.842 1.104 4.344 1.06 8.475 2.565 12.102 5.263 2.818 2.104 5.037 4.742 6.549 7.86 1.226 2.571 1.822 5.317 1.675 8.186-.423 8-7.774 13.631-14.258 13.184l-13.602-.856c-10.373-.604-20.235 1.429-29.477 6.015-5.114 2.535-9.383 6.16-13.483 10.002-5.133 4.713-9.069 10.206-11.805 16.617-1.433 3.413-2.978 6.773-4.467 10.16-1.222 2.831-3.087 5.148-5.453 7.088-2.149 1.771-4.615 2.638-7.344 2.627-5.182-.027-9.864-1.523-13.942-4.847-2.598-2.136-3.964-4.842-4.046-8.231-.1-2.782.187-5.516 1.165-8.122L46 210.764z" fill="#000"/>
<mask id="a" x="42" y="151" width="119" height="88" mask-type="alpha" maskUnits="userSpaceOnUse">
<path d="M46 210.764c3.167-5.315 5.976-10.597 9.536-15.45 2.86-3.822 5.469-7.833 8.218-11.709 1.293-1.84 2.753-3.6 4.213-5.36.622-.726 1.411-1.373 2.06-2.155 5.142-5.871 11.24-10.6 18.013-14.457 1.611-.936 3.222-1.871 4.918-2.698 11.107-5.195 22.782-7.588 34.993-7.536 3.998.073 7.995.146 11.842 1.104 4.344 1.06 8.475 2.565 12.102 5.263 2.818 2.104 5.037 4.742 6.549 7.86 1.226 2.571 1.822 5.317 1.675 8.186-.423 8-7.774 13.631-14.258 13.184l-13.602-.856c-10.373-.604-20.235 1.429-29.477 6.015-5.114 2.535-9.383 6.16-13.483 10.002-5.133 4.713-9.069 10.206-11.805 16.617-1.433 3.413-2.978 6.773-4.467 10.16-1.222 2.831-3.087 5.148-5.453 7.088-2.149 1.771-4.615 2.638-7.344 2.627-5.182-.027-9.864-1.523-13.942-4.847-2.598-2.136-3.964-4.842-4.046-8.231-.1-2.782.187-5.516 1.165-8.122L46 210.764z" fill="#000"/>
</mask>
<g mask="url(#a)">
<path d="M42.499 213.214c.04.771-.089 1.325.058 1.873l1.415 4.029c4.342 9.467 10.777 17.136 19.306 23.007 2.926 2.02 5.96 3.818 9.422 4.865.609.155 1.218.311 1.853.411 1.078.175 1.242.118 2.169-.531.318.904.187 1.32-.638 1.471s-1.651.164-2.453-.016c-2.018-.353-3.849-1.095-5.629-2.087-11.042-6.189-19.342-14.958-24.626-26.449-.6-1.313-1.064-2.766-1.5-4.137-.147-.549-.267-1.154-.249-1.76.091-1.187.827-1.723 1.938-1.189a14.91 14.91 0 0 1 2.84 1.773l11.735 9.871c2.291 1.92 4.691 3.756 7.333 5.229.973.536 2.082.932 3.136 1.3.415.132.911.096 1.711.138-.318-.904-.411-1.564-.751-2.137l-2.58-4.452c-1.927-3.248-4.018-6.44-5.862-9.717-4.484-8.031-6.415-16.682-5.957-25.896.058-1.544.336-3.12.614-4.695.124-.829.498-1.607.845-2.329.8-1.667 1.927-1.878 3.298-.604.755.704 1.402 1.493 1.995 2.393l5.824 9.085c3.677 5.866 7.409 11.622 11.93 16.868 1.629 1.876 3.284 3.696 5.346 5.096.362.242.696.402 1.418.749-.182-1.045-.276-1.705-.451-2.336l-1.802-5.786c-2.926-8.856-4.751-17.729-4.679-26.991.027-5.182.578-10.318 2.069-15.275.602-1.967 1.231-3.989 2.445-5.662.053-.111.189-.251.242-.363 1.618-2.231 3.6-2.373 5.344-.168.816 1.006 1.522 2.098 2.009 3.22l4.124 9.635 7.486 18.153c1.003 2.327 2.416 4.509 3.747 6.72.482.847 1.264 1.496 1.882 2.203.138-.003.22-.031.384-.089.103-.498.261-.969.225-1.465l-.129-4.573c-.297-8.209-.015-16.344 1.287-24.468.925-5.914 2.654-11.509 5.574-16.738.669-1.251 1.56-2.395 2.396-3.566a4.99 4.99 0 0 1 1.44-1.291c1.444-1.016 2.744-.734 3.595.769.538.873.94 1.886 1.149 2.875.62 2.553 1.186 5.218 1.642 7.829 1.3 7.118 2.38 14.266 4.422 21.262 1.019 3.429 2.231 6.744 3.442 10.06.344.849.853 1.64 1.279 2.46.138-.002.22-.031.358-.033.125-.829.22-1.74.345-2.569.558-4.722.949-9.525 1.644-14.249.747-4.973 1.881-9.897 3.652-14.584.662-1.664 1.409-3.22 2.238-4.804.24-.5.564-.891.971-1.311 1.164-1.287 2.38-1.114 3.149.417a8.42 8.42 0 0 1 .693 1.974c.413 1.702.798 3.322 1.129 5.053 2.355 12.751 4.93 25.471 8.136 38.015.854 3.349 1.871 6.64 2.865 10.125-.227-.383-.478-.572-.538-.874-1.191-3.784-2.52-7.566-3.464-11.437-3.029-11.776-5.564-23.725-7.742-35.707-.362-1.951-.888-3.844-1.359-5.711-.176-.631-.598-1.175-.856-1.778-1.098.294-1.471 1.071-1.9 1.823-1.822 3.226-2.869 6.688-3.749 10.23-1.787 7.14-2.8 14.378-3.26 21.744-.065 1.132-.185 2.236-.387 3.369-.076.442-.26.969-.474 1.414-.402.695-1.144.817-1.759.248-.56-.542-1.04-1.251-1.327-1.935-1.031-2.409-2.062-4.818-2.873-7.258-2.46-7.264-3.849-14.766-5.073-22.326l-1.755-9.729c-.24-1.209-.645-2.36-1.131-3.482-.629-1.396-1.513-1.547-2.682-.536-1.549 1.376-2.54 3.156-3.476 4.962-2.111 4.113-3.502 8.435-4.394 12.998-1.731 8.875-1.973 17.781-1.718 26.79l.129 4.573a6.32 6.32 0 0 1-.356 1.88c-.395 1.109-1.273 1.372-2.249.698-.613-.431-1.228-1-1.653-1.682-1.187-1.8-2.346-3.656-3.342-5.569-3.124-5.738-5.371-11.738-7.644-17.682-1.353-3.589-2.789-7.149-4.224-10.709-.46-1.178-1.14-2.324-1.791-3.389-.369-.655-.847-1.226-1.351-1.742-.953-1.004-1.862-.962-2.755.044a9.5 9.5 0 0 0-1.48 2.229c-1.656 3.307-2.342 6.873-2.862 10.52-1.287 9.089-.48 18.089 1.757 26.955.942 3.733 2.131 7.38 3.211 11.111a56.66 56.66 0 0 1 1.024 3.705c.147.548.182 1.044.109 1.624-.149 1.022-.858 1.502-1.802 1.049-.804-.318-1.584-.829-2.282-1.369-2.569-2.054-4.704-4.582-6.786-7.222-3.742-4.736-6.911-9.812-10.053-14.943l-5.035-8.022c-.622-.982-1.409-1.907-2.222-2.775-.924-.923-1.529-.803-2.007.335-.398.971-.767 2.024-.887 3.129-.876 5.526-.291 11.002.871 16.413 1.102 5.109 3.135 9.844 5.826 14.349l5.406 8.815c.622.983 1.218 2.02 1.813 3.058a8.83 8.83 0 0 1 .6 1.313c.316.767.411 1.565-.184 2.236-.569.615-1.369.573-2.062.309-1.331-.502-2.715-.894-3.913-1.674-2.089-1.344-4.207-2.771-6.107-4.366-3.827-3.136-7.462-6.385-11.262-9.576-.838-.676-1.675-1.351-2.596-1.998-.447-.351-1.222-.587-2.167-1.04z" fill="#fbe8de"/>
</g>
</svg>
