<?xml version="1.0" encoding="UTF-8"?>
<svg width="203" height="251" viewBox="0 0 203 251" xmlns="http://www.w3.org/2000/svg">
<path d="M92.655 120.885l-.023-.079-2.305 1.162.037.072 2.291-1.155zm1.686-1.516c1.126-.336 1.57-.678 1.502-1.251-.088.996-1.081.605-1.502 1.251h0zm3.418-62.284c.85-.859 1.483-1.851 2.024-2.905l-2.024 2.905h0zm17.806-39.716c.199.088.255.132.274.119.839-.549 1.691-1.072 2.631-1.435.085-.033.15-.103.118-.202-.047-.143-.17-.126-.263-.073l-2.76 1.591h0zm32.691 93.128c-2.563 1.382-5.366 2.074-8.143 2.842 2.911-.382 5.636-1.298 8.143-2.842h0zM62.71 82.866c-1.589 2.265-2.948 4.639-3.412 7.421.859-2.602 1.984-5.08 3.412-7.421h0zm27.21-21.493c2.378-2.009 4.454-4.287 6.145-6.909-1.921 2.417-3.999 4.693-6.145 6.909h0zm29.084-45.709c2.515-.988 5.131-1.551 7.819-1.808-2.754-.051-5.362.543-7.819 1.808h0zm-13.948 97.435c-2.378.474-4.645 1.27-6.834 2.289l-7.723 3.947-4.149 2.178c-.334.182-.82.099-1.047.572 1.082-.344 2.063-.816 3.018-1.313 3.045-1.586 6.038-3.272 9.136-4.752 2.454-1.172 4.969-2.201 7.598-2.921h0zm16.477-96.201l-.063-.071c-.575.256-1.17.475-1.723.774-1.799.973-3.629 1.882-5 3.505-.359.425-.972.675-1.33 1.179-.49.691-1.237 1.114-1.747 1.831a50.92 50.92 0 0 1-2.487 3.236c-.58.69-.949 1.496-1.421 2.242-.367.58-.617 1.253-.92 1.878-.568 1.171-1.058 2.37-1.418 3.606-.364 1.255-.679 2.53-.976 3.807l-.853 3.787c-.377 1.474-.691 2.963-.874 4.464-.091.75-.462 1.387-.58 2.129-.097.613-.187 1.29-.442 1.9-.456 1.088-.965 2.147-1.577 3.154-2.042 3.364-4.629 6.278-7.496 8.951-.883.823-1.719 1.719-2.845 2.249-.347.164-.718.359-.962.64a7.07 7.07 0 0 1-1.688 1.396c-1.32.803-2.521 1.774-3.821 2.609-2.106 1.354-4.222 2.688-6.402 3.914-1.326.746-2.535 1.671-3.886 2.386-.864.457-1.572 1.213-2.34 1.847-3.63 2.998-6.526 6.541-8.025 11.071-.19.574-.745.822-.847 1.424-.458 2.707-.953 5.408-1.561 8.088-.639 2.816-.297 5.695-.473 8.542-.036.579-.012.578-.429 1.085-.042.051-.011.166-.008.251.06 1.698-.025 3.403.188 5.094.133 1.058.184 2.142.66 3.122 1.657 3.415 4.426 5.423 8.071 6.264 2.055.475 4.153.484 6.25.396a30.51 30.51 0 0 0 12.381-3.163c3.885-1.922 7.628-4.115 11.586-5.905 3.911-1.769 7.965-2.773 12.25-2.903 5.139-.156 10.236.355 15.332.91 3.494.38 6.995.635 10.511.383 4.944-.355 9.488-1.931 13.717-4.497a65.25 65.25 0 0 0 7.325-5.143c6.351-5.164 11.845-11.116 16.29-18.013 2.027-3.146 3.702-6.446 4.586-10.108.596-2.469 1.017-4.957.82-7.511-.116-1.499-.433-2.939-1.315-4.194a15.64 15.64 0 0 0-3.977-3.937c-3.158-2.166-6.714-3.516-10.222-4.965-3.442-1.422-6.843-2.89-9.673-5.444-1.636-1.477-3.05-3.106-4.193-4.962-2.926-4.751-5.095-9.876-7.294-14.984-1.016-2.36-1.827-4.811-3.16-7.029-.894-1.487-1.926-2.854-3.336-3.898-2.135-1.581-5.374-2.739-8.67-2.469-.086.007-.18.022-.258-.004-.944-.306-1.801.044-2.67.331-.226.074-.497.225-.685.16-.676-.232-1.103.454-1.764.412-.291-.018-.731.411-1.155.543l.598-.356h0zm29.842 94.86l.37-.09c-1.938 1.189-3.973 2.163-6.128 2.862-3.064.995-6.22 1.481-9.439 1.55-3.144.067-6.271-.157-9.391-.531-4.55-.544-9.104-1.03-13.695-1.086-3.817-.046-7.502.581-11.055 1.989-1.396.553-2.782 1.129-4.167 1.802.027-.328.345-.236.518-.501-.403.203-.86.284-.989.534-.178.346-.47.547-.72.542-1.068-.023-1.764.747-2.622 1.152-.68.321-1.169.967-1.882 1.28-.906.397-1.706.999-2.732 1.177-.459.08-.901.461-1.302.82-.37.331-.907.65-1.375.657-.788.012-1.329.537-2.018.742-1.692.502-3.386.951-5.124 1.247-2.479.424-4.975.511-7.485.41-4.16-.167-7.66-1.891-10.758-4.541-3.103-2.654-4.857-5.989-4.991-10.124-.071-2.177-.144-4.354-.022-6.53.078-1.394.305-2.773.741-4.101.388-1.184.374-2.401.393-3.615.048-3.201.422-6.349 1.482-9.386 1.071-3.068 2.789-5.759 4.904-8.199 2.813-3.245 6.24-5.735 9.85-8.016 5.194-3.282 10.402-6.555 14.934-10.759 3.193-2.962 6.109-6.16 8.31-9.955.973-1.679 1.534-3.503 2.009-5.372.837-3.294 1.474-6.639 2.469-9.893.714-2.337 1.499-4.653 2.699-6.796 2.102-3.756 4.638-7.187 7.996-9.912 3.6-2.921 7.574-5.121 12.271-5.72 4.471-.571 8.669.082 12.317 2.927 1.995 1.556 3.411 3.607 4.55 5.838 2.092 4.098 3.765 8.393 5.872 12.486 1.428 2.773 2.747 5.604 4.58 8.147 2.239 3.108 5.217 5.273 8.683 6.83 2.33 1.047 4.704 1.984 7.052 2.986 2.816 1.202 5.544 2.564 7.971 4.464 4.266 3.339 6.073 7.792 5.937 13.117-.08 3.117-.687 6.133-1.685 9.091-.423 1.252-.939 2.464-1.437 3.678-.452 1.1-1.015 2.168-1.688 3.176-.533.798-.893 1.706-1.419 2.524-1.909 2.97-3.974 5.818-6.261 8.51-1.37 1.612-2.848 3.117-4.337 4.608a51.48 51.48 0 0 1-3.764 3.396c-1.082.888-2.149 1.812-3.264 2.662-.599.455-1.353.686-1.982 1.134-1.252.892-2.528 1.752-3.902 2.452-.137.071-.27.152-.266.338-.956.276-1.758.847-2.616 1.309.909-.36 1.796-.762 2.608-1.309h0z" fill-rule="evenodd"/>
<path d="M48.671 201.799l-10.48-20.345c-2.518-4.997-4.811-10.107-6.497-15.466-3.028-9.369-4.209-18.991-3.496-28.777.712-9.898 3.094-19.509 6.874-28.696 3.646-8.894 9.235-16.396 16.09-23.068 7.079-6.898 15.223-12.132 24.182-16.195 8.464-3.814 17.453-5.466 26.694-6.172 5.747-.469 11.296.573 16.757 2.449 11.984 4.177 21.386 11.744 28.812 21.887l10.235 14.26c3.194 4.769 6.163 9.651 9.176 14.511l5.235 8.707c4.625 7.943 8.596 16.271 12.14 24.758 2.408 5.786 4.32 11.709 6.166 17.722.752 2.5 1.661 4.977 2.503 7.431.159.428.251.833.365 1.284.455 1.464.099 2.772-.889 3.948-1.707 1.989-3.618 3.686-5.823 5.023-3.734 2.334-7.379 4.735-11.363 6.686-.81.409-1.507.929-2.295 1.383-1.845 1.043-3.401.867-4.938-.616-1.493-1.393-2.67-3.057-3.578-4.857-1.679-3.331-3.29-6.753-4.789-10.175-4.155-9.477-8.829-18.75-13.727-27.909-2.722-5.063-5.375-10.105-8.299-15.01-4.306-7.312-9.018-14.308-14.899-20.489-2.804-2.989-5.879-5.616-9.38-7.747-4.314-2.624-8.939-3.961-13.989-4.013-5.252-.006-10.344.98-15.23 2.821-3.422 1.274-6.686 2.749-9.701 4.833-1.709 1.2-3.328 2.581-4.63 4.253-6.914 9.017-11.12 19.039-11.377 30.514-.096 5.073.776 10.052 2.009 14.962 2.283 8.897 4.723 17.771 7.749 26.463 3.959 11.327 8.953 22.131 15.274 32.323 1.836 2.97 3.603 5.917 5.304 8.955.703 1.283 1.248 2.589 1.816 3.94.204.517.364 1.058.433 1.644.094 1.082.21 2.096.934 3.085.702.945.39 2.118-.419 2.977-1.932 2.103-3.954 4.138-6.792 5.117-1.148.409-2.183 1.044-3.264 1.588l-1.395.703c-1.846.818-3.56.665-4.985-.818-1.312-1.371-2.624-2.742-3.688-4.294-2.31-3.351-4.53-6.748-6.638-10.258s-4.148-7.11-6.076-10.711l-9.91-18.544c-.158-.09-.203-.067-.203-.067z" fill="#f7d046"/>
<path d="M100.366 229.441c.113.112.158.203.249.27 1.199 1.484 1.091 2.837-.257 4.194-1.888 1.854-4.048 3.281-6.275 4.686l-3.128 1.859c-1.642.997-3.176.754-4.757-.256-2.733-1.727-4.77-4.087-6.379-6.832-1.836-3.196-3.605-6.481-5.374-9.767l-6.734-12.016-7.411-12.465c-5.305-9.294-9.619-18.973-12.019-29.448-2.675-11.804-3.254-23.705-1.038-35.66 3.013-16.646 11.536-29.973 25.505-39.666 7.288-5.028 15.347-8.525 23.974-10.672 3.401-.868 6.917-1.059 10.436-.574 11.501 1.541 14.799 3.492 22.777 10.026 5.56 4.536 10.177 9.999 14.613 15.553 4.413 5.509 8.039 11.471 11.26 17.751l10.687 21.539c4.493 9.476 8.244 19.27 11.274 29.315.82 2.635 1.505 5.338 2.19 8.041.137.608.252 1.284.277 1.892.096 1.758-.599 3.181-2.106 4.11-1.575 1.019-3.082 2.061-4.77 2.855a179.13 179.13 0 0 1-9.477 4.269c-1.779.727-3.625 1.319-5.472 1.911-2.274.751-3.854.193-5.01-1.878-.816-1.395-1.542-2.835-2.178-4.321-1.885-4.412-3.816-8.802-5.521-13.305-.977-2.612-1.662-5.315-2.392-7.995-.89-3.334-2.05-6.531-3.593-9.592-2.427-4.929-4.99-9.79-7.485-14.629-1.135-2.251-2.651-4.252-4.191-6.186-1.969-2.564-3.803-5.195-5.773-7.759l-6.767-8.499c-1.675-2.092-3.238-4.296-5.002-6.342-3.191-3.754-7.301-5.86-12.172-6.566-2.977-.419-5.703.109-8.268 1.514-2.79 1.52-5.196 3.466-7.172 6.042-1.594 2.102-3.233 4.113-4.872 6.125-1.774 2.192-3.118 4.676-4.17 7.295-2.17 5.327-3.685 10.832-4.614 16.493-.907 5.481-.236 10.844 1.156 16.182 1.871 7.185 4.711 13.939 8.226 20.465 4.218 7.809 8.773 15.392 13.531 22.928 2.538 4.028 4.94 8.123 7.388 12.195 1.292 2.115 1.727 4.323.788 6.715.068.023.091.068.046.203z" fill="#ee8db9"/>
<path d="M134.743 172.438l-10.117-19.963c-3.606-6.819-7.685-13.344-12.281-19.551-1.63-2.227-3.373-4.34-5.115-6.453-1.562-1.867-3.438-3.348-5.695-4.468-1.649-.807-3.34-1.139-5.166-.953-4.056.464-7.591 1.963-10.625 4.79-4.27 4.072-7.004 9.062-8.677 14.703-2.007 6.77-1.94 13.622-.588 20.449 1.077 5.384 3.009 10.45 5.324 15.379 4.721 9.927 9.914 19.559 15.512 28.986l5.871 10.306c.862 1.485 1.791 2.993 2.742 4.432.68 1.013 1.426 1.934 2.151 2.924.996 1.417.798 2.815-.551 3.947-.405.317-.81.634-1.282.928-.877.612-1.732 1.268-2.428 2.127-1.1 1.288-2.54 2.24-4.093 2.966-1.395.703-2.771.437-3.925-.619-.656-.629-1.244-1.348-1.832-2.068-4.142-5.081-8.103-10.253-11.705-15.72-2.537-3.801-4.916-7.739-7.296-11.676-3.06-5.175-5.94-10.441-8.414-15.911-4.359-9.657-6.736-19.749-6.612-30.367.082-9.581 1.608-18.873 5.592-27.655 1.008-2.145 2.083-4.268 3.384-6.278a144.55 144.55 0 0 1 5.902-8.563c2.963-3.977 6.672-7.257 10.811-9.908 6.321-4.146 13.173-4.438 20.17-1.868 2.844 1.051 5.351 2.666 7.657 4.552 3.932 3.211 7.236 6.965 10.382 10.968 8.85 11.288 16.103 23.551 22.141 36.539 2.769 5.942 5.133 12.089 7.722 18.122l5.585 12.313c1.113 2.431 2.405 4.772 3.54 7.135.272.54.544 1.08.726 1.666.683 1.914.214 3.448-1.518 4.491-2.498 1.541-5.04 2.991-7.651 4.42-2.588 1.361-4.574.668-5.912-1.987-1.135-2.251-2.156-4.502-3.246-6.775l-10.37-21.473c-.068.09-.068.09-.113.113z" fill="#ea552b"/>
</svg>
