<?xml version="1.0" encoding="UTF-8"?>
<svg width="117" height="110" viewBox="0 0 117 110" xmlns="http://www.w3.org/2000/svg">
<path d="M56.087 35.244c5.863.156 10.788 1.485 15.01 4.612 6.254 4.534 9.381 10.71 8.99 18.528-.156 2.971-1.407 5.551-3.362 7.74-3.362 3.831-7.74 5.707-12.821 6.332-.469.078-.86.078-1.329 0-5.081-.86-10.085-1.798-14.619-4.378-5.863-3.518-8.912-8.756-8.834-15.635.156-7.896 6.332-15.323 13.837-16.886 1.251-.235 2.502-.235 3.127-.313zm.547 8.521c-1.094.235-2.267.313-3.283.704-4.769 1.955-6.958 8.287-4.378 12.743.86 1.564 2.189 2.736 3.752 3.518 2.971 1.485 6.176 2.423 9.46 2.736 1.564.156 3.284-.156 4.769-.782 3.596-1.407 5.081-4.144 4.3-7.74-.704-3.284-2.345-6.098-5.16-8.052-2.736-1.876-5.942-2.814-9.46-3.127z" fill="#ea552b"/>
<path d="M64.065 16.482l9.694.86c7.427 1.173 13.447 5.003 17.981 10.945 5.941 7.661 9.147 16.417 9.459 26.19.157 3.752-.625 7.349-2.11 10.789-1.407 3.205-3.127 6.254-5.394 8.99-7.583 9.069-16.808 15.479-28.769 17.121-8.052 1.094-16.026.626-23.61-2.189-5.238-2.033-10.007-4.925-14.228-8.6-1.407-1.251-2.58-2.893-3.596-4.534-2.736-4.612-4.378-9.694-5.863-14.776-.469-1.564-.391-3.362-.391-5.003 0-10.476 3.753-19.388 11.57-26.502 8.912-8.052 19.31-12.665 31.506-13.056h3.753v-.235zm-.156 8.756c-10.241-.313-19.31 2.893-27.284 9.225-3.283 2.658-6.098 5.707-7.974 9.616-4.3 8.99-3.44 17.668 1.564 26.111.782 1.329 1.954 2.423 3.205 3.362 2.033 1.563 4.143 2.971 6.332 4.3 5.863 3.596 12.118 5.629 19.153 5.316 13.603-.626 23.532-7.114 30.646-18.294.86-1.329 1.485-2.736 1.954-4.222.547-1.642.938-3.44 1.016-5.082 0-8.521-2.814-16.105-8.131-22.593-3.44-4.144-7.896-6.645-13.368-7.192-2.345-.313-4.769-.391-7.114-.547z" fill="#ee8db9"/>
<path d="M52.412 109.591c-6.489 0-11.883-.86-17.043-2.971-3.362-1.407-6.41-3.362-9.069-5.942-3.596-3.518-7.349-7.036-11.023-10.476-.313-.313-.704-.547-1.016-.86-1.251-1.173-2.736-2.267-3.752-3.674C5.27 78.554 1.283 70.814.267 61.824-.593 54.241.658 46.97 3.55 40.012c2.267-5.551 5.16-10.71 8.99-15.245 3.909-4.612 8.365-8.365 13.681-11.258 6.332-3.283 12.743-6.411 19.466-8.912C55.304 1.08 65.311-.328 75.552.063c3.752.156 7.349 1.016 10.632 2.814 3.909 2.111 7.818 4.3 11.414 6.801 7.584 5.16 12.196 12.665 15.167 21.108 4.221 12.039 4.691 24.392 1.329 36.744-.704 2.58-1.642 5.16-2.815 7.505-5.472 10.789-13.212 19.466-24.156 25.095-11.258 5.785-23.062 8.912-34.711 9.46zm-.156-8.678c10.71-.626 21.421-3.518 31.506-8.756 8.209-4.3 14.072-10.867 18.606-18.763 1.329-2.345 2.502-4.925 3.205-7.583 3.049-11.101 2.659-22.202-1.407-32.991-2.423-6.411-5.941-12.118-11.805-16.105-3.127-2.111-6.489-3.987-9.85-5.863-2.58-1.407-5.394-2.033-8.287-2.111-8.991-.156-17.825 1.094-26.268 4.3-5.941 2.267-11.727 5.081-17.355 8.052-4.378 2.345-8.052 5.394-11.258 9.147s-5.551 7.974-7.505 12.509c-2.971 6.88-3.987 13.916-2.424 21.264.704 3.284 1.642 6.332 4.3 8.756 1.251 1.173 2.189 2.736 3.127 4.143.86 1.251 1.642 2.502 2.345 3.831 1.173 2.033 2.658 3.753 4.378 5.316 2.736 2.502 5.551 5.082 8.131 7.74 2.736 2.736 5.941 4.534 9.538 5.629 3.44 1.095 6.88 1.486 11.023 1.486z" fill="#f7d046"/>
</svg>
