<svg xmlns="http://www.w3.org/2000/svg" width="100" height="93" fill="none" xmlnsV="https://vecta.io/nano"><path d="M59.328 34.639c-5.527-4.099-7.876-9.857-9.258-16.121-.783-3.501-1.151-7.047-.691-10.64.184-1.52.461-2.994 1.105-4.376.414-.829.875-1.612 1.52-2.303 1.198-1.29 2.856-1.52 4.468-.783 1.013.461 1.842 1.244 2.533 2.073 1.198 1.474 2.073 3.132 2.764 4.882 1.843 4.606 2.441 9.442 2.349 14.417-.092 3.316-.461 6.633-1.152 9.857-.046.23-.046.415-.092.691 1.29.645 2.671.783 4.099.829 5.942.276 11.745-.599 17.365-2.533 1.842-.645 3.639-1.382 5.389-2.257 3.409-1.612 6.31-3.961 8.613-6.909.415-.507.829-1.013 1.29-1.52.046-.046.138-.046.368-.046-.092.323-.138.553-.23.783-1.796 3.823-4.422 6.909-7.922 9.304-4.376 2.948-9.212 4.79-14.325 5.804-4.192.829-8.383 1.198-12.621.691-.921-.092-1.888-.322-2.902-.507-.092.23-.184.507-.276.783-1.244 4.192-2.718 8.245-4.836 12.068-1.704 3.086-3.685 5.942-6.218 8.429-1.382 1.336-2.902 2.533-4.606 3.408-4.376 2.211-8.383 1.52-11.699-2.073l-.645-.645c-.184.507-.322.875-.507 1.29-1.198 3.316-2.533 6.587-4.238 9.719-1.474 2.672-3.178 5.205-5.389 7.37-1.059 1.059-2.211 1.935-3.547 2.625-3.224 1.612-6.31 1.382-9.258-.737-.553-.368-1.013-.829-1.612-1.29l-.461 1.29c-1.244 3.685-2.764 7.324-4.652 10.732-.461.875-1.013 1.704-1.612 2.487-.276.414-.737.691-1.152 1.013-.368.23-.783.23-1.105-.138s-.184-.737.092-1.105a26.91 26.91 0 0 0 1.52-2.441c2.303-4.191 4.053-8.613 5.481-13.127.138-.415.23-.829-.092-1.244-2.994-4.238-4.56-9.028-5.527-14.095a69.03 69.03 0 0 1-.829-21.326c.276-2.441.737-4.79 1.75-7.047.368-.829.829-1.658 1.382-2.349 1.382-1.704 3.27-1.796 4.928-.323 1.013.921 1.704 2.027 2.257 3.27 1.152 2.395 1.796 4.974 2.211 7.6.829 5.021.829 10.041.322 15.108-.599 6.172-1.796 12.252-3.455 18.194-.184.691-.184 1.198.415 1.658.737.599 1.428 1.29 2.211 1.796 1.75 1.105 3.593 1.198 5.481.368 1.29-.553 2.349-1.382 3.316-2.349 1.704-1.612 3.04-3.501 4.284-5.481 2.579-4.238 4.468-8.798 6.034-13.496.138-.415.184-.737-.046-1.151-2.073-4.192-2.994-8.705-3.454-13.312-.507-4.975-.461-9.949.369-14.878.322-1.889.737-3.777 1.52-5.527.322-.737.737-1.474 1.244-2.073 1.244-1.474 2.994-1.428 4.145.092.553.737.967 1.566 1.29 2.441.875 2.441 1.151 5.021 1.336 7.6.461 8.245-.921 16.305-3.224 24.182-.092.276-.138.553-.276.829-.184.461-.092.875.184 1.244.645.829 1.244 1.75 2.027 2.441 1.796 1.704 3.961 2.119 6.264 1.197 1.198-.461 2.349-1.197 3.409-1.981 1.842-1.382 3.316-3.132 4.652-4.975 2.81-3.869 4.79-8.199 6.356-12.713.553-1.428 1.013-3.04 1.566-4.698zM8.293 71.995c.138-.276.184-.368.23-.507.092-.23.138-.507.23-.737 1.704-6.034 2.856-12.206 3.224-18.47.276-4.56.184-9.12-.829-13.634-.461-2.027-.967-4.007-1.981-5.85-.461-.783-1.013-1.52-1.658-2.165-.599-.599-1.29-.553-1.796.184-.461.645-.875 1.382-1.152 2.119-1.013 2.533-1.382 5.205-1.612 7.922-.461 5.942-.138 11.838.875 17.733.737 4.191 1.796 8.291 3.731 12.114.23.322.415.737.737 1.29zm51.864-41.27c.138-.553.23-.921.276-1.244.184-1.29.414-2.533.553-3.823.507-4.652.368-9.258-.783-13.818-.599-2.349-1.428-4.56-2.764-6.587-.507-.737-1.105-1.382-1.75-1.981-.875-.737-1.474-.553-2.073.415a3.91 3.91 0 0 0-.507 1.198c-.23 1.059-.507 2.165-.599 3.27-.322 4.007.23 7.922 1.336 11.792.967 3.316 2.395 6.402 4.652 9.074.461.553 1.013 1.059 1.658 1.704zM33.857 20.499c-.092 0-.23 0-.322.046-.23.415-.553.783-.737 1.198-.322.875-.691 1.796-.921 2.718-1.105 4.422-1.29 8.936-1.059 13.496.184 4.146.737 8.291 1.934 12.298.092.322.23.645.369.967.276-.368.461-.737.507-1.105.553-2.718 1.244-5.389 1.658-8.107.829-4.928 1.105-9.903.507-14.832-.184-1.658-.645-3.316-1.105-4.928-.092-.645-.507-1.198-.829-1.75z" fill="#000"/></svg>