<?xml version="1.0" encoding="UTF-8"?>
<svg fill="none" width="276" height="260" viewBox="0 0 276 260" xmlns="http://www.w3.org/2000/svg">
<g fill="#000">
<path d="M113.302 252.585l.768 3.366.18.781c.09.439-.015.875-.456 1.11s-.827.034-1.113-.311l-2.569-3.155c-.19-.246-.381-.444-.715-.79l-.923 2.754c-.256.724-.463 1.498-.815 2.172-.103.29-.496.575-.74.619-.487.04-.625-.399-.667-.789l-.186-3.259-.155-2.238-1.174.416-3.033 1.162a4.01 4.01 0 0 1-1.026.274c-.536.088-1.119.078-1.449-.463-.284-.442-.128-1.022.464-1.547l3.007-2.426.936-.761-2.938-1.509c-.963-.503-1.246-.994-1.041-1.573s.744-.862 1.762-.747l3.347.399c.484.057.971.016 1.603.027l-.162-1.898-.581-2.877-.079-1.022c.057-.485.259-.919.796-1.055.488-.138.873.064 1.109.456l1.896 2.755c.236.393.472.786.952 1.134l.59-3.148c.105-.436.162-.921.315-1.355.205-.629.599-.913 1.084-.856.533.106.769.499.858.987l.277 3.601c.044.292.038.632.03 1.069a9.41 9.41 0 0 0 .979-.42l2.206-1.079c.882-.422 1.368-.414 1.7.078.283.443.178.927-.466 1.644l-1.785 2.01-1.34 1.581c.19.246.38.492.62.691l3.194 3.555c.333.394.521.786.221 1.267s-.737.473-1.222.368l-4.259-.998zm30.575-231.99l-3.103.282c-1.516.235-2.677 1.034-3.388 2.398-.474.917-.9 1.857-1.255 2.844-.948 2.562-1.517 5.242-2.227 7.852-.095.353-.119.752-.19 1.105-.024.141-.047.306-.118.423-.166.353-.474.541-.83.494a.76.76 0 0 1-.663-.729c-.024-.212-.024-.447.024-.682.142-.893.095-1.763 0-2.633-.19-1.716-.45-3.432-.995-5.078-.687-1.951-1.73-3.667-3.364-5.007l-2.535-2.022c-1.303-1.034-2.796-1.716-4.335-2.327-.237-.094-.522-.117-.806-.212-.189-.047-.403-.094-.592-.188a.84.84 0 0 1-.474-.987c.095-.376.45-.611.877-.564.308.023.639.094.947.188 1.753.541 3.554.423 5.354.259.664-.047 1.327-.117 1.967-.259 1.492-.353 2.653-1.175 3.34-2.562a14.16 14.16 0 0 0 1.184-3.409l1.256-5.595.379-2.915.142-.776c.142-.259.356-.47.664-.494s.592.141.687.47c.118.353.213.729.236 1.105l.356 5.242.355 4.772a8.09 8.09 0 0 0 1.327 3.62c.663 1.011 1.587 1.646 2.677 2.092l2.108.823c.379.141.806.188 1.209.282l2.369.564c.355.094.592.353.616.729.047.353-.166.705-.545.846-.261.094-.545.165-.829.165h-1.872c.047-.047.047-.094.047-.118z"/>
<path d="M12.646 101.744l-.15.968h0l-.17 1.112c-.064.352-.224.672-.384.992-.512.928-.96.96-1.536.096-.928-1.408-1.248-3.008-1.44-4.64l-.028-.288c-.03-.288-.06-.576-.036-.864.032-.416.096-.864.288-1.248.32-.672 1.088-.992 1.824-.832.736.128 1.248.672 1.376 1.472l.179 2.203.077 1.028zm11.344 7.303l.207-.169c-.016-.032-.024-.072-.032-.112s-.016-.08-.032-.112l-.187-.111h0 0c-.164-.1-.332-.203-.517-.273-2.24-1.024-4.64-.96-7.008-.704-.085 0-.171.029-.256.057l-.128.039c-.768.288-1.248.96-1.216 1.696s.544 1.408 1.312 1.6c.288.096.608.096.896.096l2.304-.16c1.376-.128 2.656-.544 3.84-1.248.301-.176.563-.391.817-.599zm-14.704 5.304l-.256 2.752c-.064.96-.032 1.92.256 2.912.192.672.48 1.28 1.056 1.728.512.384.768.352 1.12-.192.448-.704.768-1.44.864-2.272l.323-3.305h0l.157-1.719c0-.128 0-.288-.032-.448a1.7 1.7 0 0 0-1.376-1.472c-.704-.16-1.44.192-1.792.864-.16.352-.256.768-.32 1.152zm-.036-3.64c.281-.1.574-.205.709-.583l-.48-.192c-2.592-.448-5.184-.448-7.808-.256-.384.032-.768.16-1.088.352-.832.544-.768 1.696.16 2.112.352.16.8.192 1.184.192.63-.03 1.232-.116 1.858-.206l.126-.018c1.76-.256 3.52-.672 5.184-1.344l.155-.057z" fill-rule="evenodd"/>
</g>
<path d="M275.889 148.78c.051 10.074-.861 17.667-3.189 25.008-3.493 11.086-9.872 20.249-18.731 27.64-10.428 8.707-22.325 14.428-35.689 16.959-6.277 1.164-12.605 1.367-18.984.709-8.707-.861-17.313-2.481-25.666-5.215-3.746-1.265-7.492-2.632-11.137-4.151-4.809-1.923-9.163-4.606-13.263-7.745-3.544-2.734-6.986-5.518-10.125-8.707-3.999-4.05-7.34-8.556-9.821-13.618-3.543-7.188-6.479-14.579-8.403-22.375-.81-3.291-1.266-6.683-1.468-10.074-.253-3.898-.456-7.847-.405-11.745.101-8.96 2.784-17.262 7.087-25.109 5.113-9.365 12.403-16.756 21.262-22.578a72.77 72.77 0 0 0 6.429-4.759c6.176-5.214 12.656-9.973 19.54-14.225 10.378-6.328 21.515-10.631 33.513-12.757 5.923-1.013 11.896-1.418 17.87-.608 9.77 1.367 17.465 6.024 22.831 14.428 2.227 3.544 3.898 7.34 5.366 11.289l2.177 6.176c2.075 5.974 4.505 11.795 7.391 17.415l5.619 11.289c5.417 11.086 7.998 22.831 7.796 32.753z" fill="#55bbda"/>
<mask id="a" x="119" y="55" width="157" height="165" mask-type="alpha" maskUnits="userSpaceOnUse">
<path d="M275.889 148.78c.051 10.074-.861 17.667-3.189 25.008-3.493 11.086-9.872 20.249-18.731 27.64-10.428 8.707-22.325 14.428-35.689 16.959-6.277 1.164-12.605 1.367-18.984.709-8.707-.861-17.313-2.481-25.666-5.215-3.746-1.265-7.492-2.632-11.137-4.151-4.809-1.923-9.163-4.606-13.263-7.745-3.544-2.734-6.986-5.518-10.125-8.707-3.999-4.05-7.34-8.556-9.821-13.618-3.543-7.188-6.479-14.579-8.403-22.375-.81-3.291-1.266-6.683-1.468-10.074-.253-3.898-.456-7.847-.405-11.745.101-8.96 2.784-17.262 7.087-25.109 5.113-9.365 12.403-16.756 21.262-22.578a72.77 72.77 0 0 0 6.429-4.759c6.176-5.214 12.656-9.973 19.54-14.225 10.378-6.328 21.515-10.631 33.513-12.757 5.923-1.013 11.896-1.418 17.87-.608 9.77 1.367 17.465 6.024 22.831 14.428 2.227 3.544 3.898 7.34 5.366 11.289l2.177 6.176c2.075 5.974 4.505 11.795 7.391 17.415l5.619 11.289c5.417 11.086 7.998 22.831 7.796 32.753z" fill="#000"/>
</mask>
<g mask="url(#a)">
<path d="M192.785-20.91l-2.176.607c-4.405 1.063-8.151 3.291-11.542 6.176-4.658 3.999-8.657 8.606-12.454 13.415-6.885 8.859-12.959 18.326-18.629 27.995-11.998 20.553-22.527 41.815-31.336 63.937-4.05 10.125-7.036 20.604-8.859 31.386-1.569 9.264-2.227 18.579-1.721 27.944.557 11.289 2.632 22.275 7.037 32.703 3.088 7.391 7.188 14.124 12.706 19.996.506.506 1.012 1.013 1.569 1.519.051.05.152.05.355.05l-.405-3.341c-.557-4.809-.507-9.618-.051-14.427.557-5.974 1.822-11.846 3.594-17.567.152-.506.152-1.113 0-1.67-1.822-8.252-2.48-16.554-2.075-24.957.81-17.263 5.518-33.513 13.415-48.75 11.491-22.122 27.488-40.296 48.244-54.217 7.644-5.113 15.744-9.466 24.501-12.453 2.683-.911 5.468-1.519 8.201-2.177.861-.202 1.772-.202 2.633-.202.354 0 .759.152 1.113.253v.253c-.202.101-.455.304-.658.304-7.948.81-15.187 3.797-22.223 7.391-12.099 6.125-22.781 14.225-32.399 23.742-13.618 13.466-24.451 28.906-31.994 46.523-4.353 10.124-7.188 20.603-8.555 31.538-1.165 9.669-1.063 19.287.658 28.906.101.455.202.86.304 1.569.202-.456.354-.709.455-.962 3.797-9.973 9.011-19.085 15.643-27.438.455-.607.557-1.164.557-1.873-.102-3.493-.405-6.986-.152-10.428 1.215-18.022 7.745-33.715 20.958-46.32 6.631-6.277 14.377-10.631 23.286-12.656 9.669-2.177 18.984-1.316 27.792 3.493 1.317.709 2.582 1.569 3.898 2.379l4.557-2.126c.506-.203.455-.658.455-1.012l.101-5.214-.354-21.009c-.304-8.555-1.063-17.111-2.784-25.565-1.013-5.062-2.582-9.922-4.809-14.63-.203-.405-.355-.81-.355-1.266.152.253.355.506.456.759 2.835 5.518 4.708 11.34 5.872 17.414 1.316 6.784 2.025 13.618 2.481 20.452.658 9.213.708 18.427.607 27.691v1.215c0 .051.051.152.152.304.456-.152.962-.304 1.468-.506 5.569-2.025 11.289-3.189 17.263-2.987 14.478.405 25.615 6.885 33.461 19.034 4.05 6.328 6.227 13.314 6.986 20.755 1.266 12.099-1.265 23.54-6.429 34.424-1.518 3.189-3.391 6.227-5.214 9.315-.405.759-.506 1.316-.253 2.126 2.227 6.783 2.784 13.769 2.025 20.857-1.62 15.541-7.999 29.057-17.819 41.055-6.176 7.492-13.416 13.719-22.021 18.275-5.62 2.987-11.593 5.012-17.972 5.619-7.492.709-14.68-.506-21.413-4.05-.861-.455-1.468-.405-2.278.101-6.733 4.405-13.972 7.442-21.92 8.758-10.175 1.671-19.946.506-28.957-4.809-7.745-4.556-13.06-11.238-16.604-19.439-1.164-2.734-2.076-5.518-2.734-8.404-.151-.607-.303-1.113-.81-1.569-7.239-6.581-12.402-14.579-16.148-23.54-3.088-7.441-5.012-15.187-6.126-23.185-1.316-9.315-1.367-18.629-.506-27.995 1.417-15.085 5.265-29.513 10.985-43.485 10.175-24.856 22.173-48.801 36.5-71.53 5.163-8.201 10.732-16.098 17.11-23.438a82.69 82.69 0 0 1 9.011-8.859c4.252-3.29 8.91-5.569 14.326-6.176zm84.187 168.575c.101 0 .253.051.354.051.253-.355.506-.709.709-1.064 1.518-2.784 3.138-5.467 4.505-8.352 5.063-10.884 7.492-22.275 5.974-34.323-1.013-7.897-3.645-15.187-8.454-21.565-7.391-9.821-17.212-15.086-29.514-15.643-6.53-.304-12.807 1.013-18.882 3.341-.658.253-.861.607-.861 1.266a86.41 86.41 0 0 1-.151 5.113c-.051.658.202 1.164.607 1.62 2.835 3.29 5.012 6.935 6.733 10.935 1.721 3.949 2.885 8.049 3.594 12.302.101.658.354 1.063 1.063 1.265.81.203 1.62.557 2.379.861 7.847 3.037 14.782 7.492 20.351 13.871 7.037 8.049 10.479 17.566 11.137 28.146.101.709.354 1.468.456 2.177zm-54.066-74.922c-.101-.152-.152-.203-.202-.253-.102-.101-.253-.203-.405-.304-5.366-3.544-11.239-5.467-17.668-5.872-8.251-.456-15.997 1.519-23.236 5.417-9.264 5.012-16.351 12.251-21.667 21.262-7.34 12.403-10.428 25.868-9.669 40.245 0 .405.102.76.152 1.165.152-.051.253-.051.304-.102.253-.253.506-.556.709-.81 10.783-12.352 23.59-21.97 38.878-28.095.608-.254.962-.659 1.317-1.165 1.974-2.885 3.898-5.872 6.024-8.656 6.884-9.061 15.035-16.756 24.906-22.477.203-.152.355-.253.557-.354zm53.914 79.124c-.101 0-.152.05-.253.05-.051.355-.152.709-.152 1.063-.203 2.886-.658 5.721-1.418 8.505-4.606 17.516-14.782 30.931-30.07 40.499-7.087 4.404-14.832 7.036-23.286 6.986-.659 0-.912.354-1.165.86-4.505 8.201-10.631 15.035-18.123 20.654-.304.203-.557.456-.911.76.456.253.81.455 1.164.607 7.29 3.594 14.985 4.455 22.933 2.987 6.935-1.266 13.263-4.101 19.135-7.998 10.074-6.683 18.022-15.39 24.147-25.717 6.126-10.378 9.821-21.566 10.176-33.664.151-4.911-.456-9.771-1.823-14.529-.101-.405-.202-.76-.354-1.063zm-35.487-24.553l-.202.81a105.62 105.62 0 0 1-4.05 15.238c-2.936 8.656-6.784 16.908-11.34 24.805-.354.608-.557 1.114-.354 1.823 1.316 4.404 1.974 8.909 1.923 13.516 0 .304.051.608.102.911.151 0 .253.051.303.051.355-.101.709-.152 1.063-.304 18.124-5.416 32.804-15.794 44.448-30.627 1.771-2.278 1.721-2.278 1.771-5.163 0-.81-.05-1.57-.455-2.329-6.075-11.694-15.693-17.971-28.855-18.731-1.367-.101-2.835 0-4.354 0zm-36.601 18.073c.355-.405.659-.759 1.013-1.114 4.758-5.265 10.226-9.568 16.503-12.858.81-.405 1.873-.709 2.329-1.418s.405-1.771.506-2.683l2.632-23.894c.102-.81.102-1.67.152-2.581-.304-.051-.506-.102-.658-.152-1.721-.102-3.493-.253-5.214-.253-9.922-.102-19.439 1.721-28.754 5.062-.81.304-1.367.759-1.772 1.519-7.138 12.2-12.099 25.21-15.035 39.03-.051.253-.051.557-.101.962 9.315-4.506 18.68-5.569 28.399-1.62zm-15.136-38.119l-.152-.152c-.455.202-.911.354-1.316.557a96.34 96.34 0 0 0-20.401 12.099c-6.075 4.657-11.542 9.922-16.453 15.743-.607.709-.81 1.418-.658 2.329l.456 2.632c1.266 7.088 3.645 13.77 7.29 19.946.202.354.455.709.708 1.164.254-.303.456-.455.557-.658 3.999-4.961 8.657-9.163 14.175-12.453.557-.304.759-.759.86-1.316 2.835-13.82 7.594-26.932 14.58-39.183.152-.253.253-.506.354-.708zm32.095 100.233h1.165c5.264-.151 10.225-1.468 15.035-3.543 7.644-3.341 14.174-8.252 19.844-14.327 8.302-8.909 13.972-19.186 16.351-31.183.253-1.165.405-2.329.557-3.443-12.555 15.44-28.197 26.071-47.282 31.387-.506 7.34-2.379 14.275-5.67 21.109zm-91.273 2.127c.05.405.101.607.152.81.658 1.974 1.265 3.948 2.024 5.821 3.392 8.1 8.657 14.681 16.301 19.136 8.404 4.91 17.465 6.125 26.982 4.657 7.847-1.164 15.035-4.151 21.667-8.353.253-.152.456-.354.759-.607-1.265-.911-2.48-1.721-3.695-2.582-1.823 1.164-3.797 1.468-5.822 1.418-1.265-.051-2.531-.102-3.746-.304-8.252-1.367-15.744-4.556-22.173-9.973-.506-.405-.962-.607-1.62-.506-3.543.354-7.138.101-10.631-.456-7.087-1.215-13.415-4.1-19.186-8.353-.253-.202-.557-.405-1.012-.708zm62.114-24.097c-1.367-7.188-.708-14.023 1.367-20.755s5.518-12.758 9.872-18.174c-.102-.152-.152-.253-.203-.253-.152-.102-.304-.152-.455-.203-3.139-1.265-6.43-1.974-9.821-2.075-5.873-.203-11.391 1.316-16.605 3.948-.607.304-.911.709-.962 1.367-.455 3.544-1.113 7.138-1.468 10.682-.607 5.416-.81 10.833-.506 16.25.051.759.304 1.164.911 1.569 2.785 1.822 5.67 3.392 8.758 4.708 2.886 1.164 5.822 2.177 9.112 2.936zm-43.384 11.137c.101-.051.152-.101.253-.101-1.822-12.403 1.57-23.439 8.606-33.563-4.758-7.543-7.593-15.744-8.909-24.704-.405.506-.658.759-.861 1.012l-3.392 4.708c-4.91 7.239-8.808 14.984-11.744 23.236-.253.759-.304 1.468-.102 2.227.912 3.342 2.025 6.683 3.392 9.872 2.38 5.467 5.518 10.479 9.77 14.681 1.013.911 2.025 1.721 2.987 2.632zm27.691 5.316a12.38 12.38 0 0 0-.304-1.013c-2.278-7.138-3.594-14.428-4.1-21.92-.051-.759-.405-1.164-.962-1.569a54.92 54.92 0 0 1-12.048-12.403c-.203-.303-.456-.557-.709-.86-.253.354-.506.658-.709.962-2.581 3.898-4.606 8.099-5.923 12.605-1.873 6.328-2.43 12.706-1.215 19.186.152.81.507 1.265 1.165 1.721 4.961 3.088 10.327 4.607 16.149 4.556 2.885-.051 5.72-.405 8.656-1.265zm-16.452 15.642c-.102-.202-.102-.253-.102-.304-.101-.101-.202-.253-.303-.354-4.607-4.809-7.948-10.378-9.669-16.858-.152-.556-.456-.911-.861-1.214-3.949-2.785-7.138-6.328-9.821-10.328-3.24-4.809-5.518-10.023-7.239-15.541-.101-.405-.253-.759-.405-1.164-.354.455-.456.86-.607 1.265-1.418 5.265-2.38 10.581-2.734 15.997-.405 5.67-.152 11.34.911 16.908.101.608.354 1.114.861 1.519 8.353 6.834 17.87 10.479 28.754 10.175.303 0 .708-.05 1.215-.101zm45.105-70.619c-.405.506-.709.81-.962 1.164-2.329 2.936-4.303 6.075-5.974 9.416-3.746 7.594-5.821 15.592-4.961 24.147.152 1.418.405 2.785.608 4.253 1.772.253 3.392.506 5.062.81.709.151 1.215-.152 1.671-.659 7.34-8.2 12.706-17.515 16.655-27.741.202-.557.101-.962-.253-1.417-2.177-2.785-4.708-5.265-7.594-7.29-1.367-.911-2.784-1.721-4.252-2.683zm13.719 61.912c-7.442-.658-13.77-3.341-18.984-8.555-5.265 4.708-10.833 8.808-17.06 12.149 4.202 7.341 9.467 13.415 16.604 17.769 8.1-5.721 14.58-12.656 19.44-21.363zm-25.666-104.992c5.619-1.823 11.238-3.19 17.009-4s11.593-.861 17.414-.456c.102-.911.152-1.671.203-2.43l.709-10.428.354-7.543c0-.405 0-.861-.253-1.114-1.418-1.62-2.987-3.037-4.759-4.354-12.959 7.34-22.729 17.87-30.677 30.324zm81.047 38.372c-.961-9.214-4.353-17.415-10.529-24.35-5.923-6.733-13.365-11.238-22.021-14.174.962 7.492.607 14.731-.456 22.021 14.124-.557 25.16 4.708 33.006 16.503zm-50.066 24.704l.709-1.215 2.48-4.607c5.265-10.226 9.315-20.856 11.593-32.196.101-.456.101-.911.203-1.417-4.557.506-8.758 1.721-12.808 3.391-.608.253-.709.658-.81 1.215-1.266 8.404-3.24 16.655-6.075 24.704-.202.557-.152.962.152 1.468 1.063 1.722 2.076 3.493 3.037 5.265.507 1.013.962 2.126 1.519 3.392zm-4.505 40.397c3.24-6.429 5.315-13.263 5.821-20.654-.506.101-.86.152-1.164.202-4.1.912-8.252 1.62-12.453 1.823-.658.051-1.013.304-1.418.759l-8.859 9.315c-.152.152-.304.354-.455.506 4.201 4.809 12.048 8.1 18.528 8.049zm9.416-106.41l-2.987 28.451c4.303-1.772 8.758-2.937 13.263-3.493 1.367-5.822 1.671-17.921.456-22.781-3.493-1.012-7.037-1.772-10.732-2.177zm-77.454 99.627c0 .253-.05.405 0 .506.203.557.355 1.164.557 1.721 1.974 5.366 5.062 9.973 9.112 14.023.506.506 1.013.759 1.721.607.253-.05.507-.05.709-.101 5.67-.861 11.087-2.632 16.199-5.164.254-.101.456-.303.659-.405l-3.595-8.15c-8.859 2.329-17.313 1.519-25.362-3.037zm26.324.86c4.455-.962 13.972-6.479 16.25-9.416l-1.67-4.708c-6.632-1.569-12.909-4.151-18.933-8.049.556 7.695 1.923 14.985 4.353 22.173zm15.643 26.476c-5.063-4.202-8.961-9.163-11.998-14.63-2.987 1.164-5.822 2.43-8.707 3.392-2.936.962-5.923 1.569-9.011 2.379.354.304.607.557.962.81 5.163 3.999 10.985 6.632 17.262 8.201 2.38.557 4.759 1.013 7.189.962 1.417-.051 2.835-.253 4.303-1.114zm8.353-40.954c.455.051.658.152.81.152l6.783.101c.607 0 .861-.354 1.164-.709 4.405-5.366 8.404-11.086 11.998-17.06.354-.607.354-1.063.152-1.721-1.013-2.683-2.278-5.265-3.797-7.694-.152-.203-.304-.405-.557-.659-3.948 10.176-9.264 19.389-16.553 27.59zm22.071-54.774c-4.809 1.569-16.3 10.58-17.92 13.921.911.506 1.822 1.013 2.683 1.62.86.557 1.67 1.114 2.48 1.721l2.43 2.025c.759.658 1.468 1.418 2.177 2.126l2.177 2.38c2.784-7.796 4.657-15.643 5.973-23.793zm-64.646 30.526c3.392 5.163 7.442 9.466 12.302 13.162.152-4.506.152-8.859.456-13.213s.961-8.707 1.518-13.213c-5.67 3.544-10.327 7.948-14.276 13.264zm39.284 36.398c-1.215-1.823-2.43-3.544-3.695-5.366-4.911 4.1-10.277 7.34-16.402 9.365 1.063 2.784 2.126 5.366 3.543 7.846 4.354-2.024 13.466-8.555 16.554-11.845zm40.904-97.602c.05-5.214-6.025-19.287-9.264-21.413l-1.114 19.338 10.378 2.075zm-15.795 69.455a144.67 144.67 0 0 1-11.188 15.896c2.43.152 10.834-1.215 12.909-2.076.456-3.088-.506-11.137-1.721-13.82zm-23.945 27.033c1.873-1.266 8.151-7.948 8.556-9.112h-2.582c-.861 0-1.721-.101-2.531-.101-.911-.051-1.924-.304-2.734 0-.759.253-1.316 1.113-1.974 1.771-.76.709-1.468 1.468-2.228 2.228.962 1.873 2.127 3.594 3.493 5.214zm29.21-122.154v-4.809l-3.544 1.671 3.544 3.139zm-34.778 111.827l1.265 3.392c.962-.962 1.975-1.671 2.683-2.734l-3.948-.658z" fill="#000"/>
</g>
<path d="M128.435 154.226l6.385 4.436c.466.318.91.675 1.214 1.1.63.814.653 1.727.187 2.707-.64 1.28-1.535 2.312-2.634 3.177l-3.997 2.941c-3.355 2.261-6.816 4.361-10.384 6.299l-20.909 11.369c-3.31 1.838-6.407 3.998-9.626 5.938l-9.797 5.889c-1.793 1.114-3.709 1.057-5.602.614-2.199-.52-3.499-2.77-3.016-4.99.373-1.684 1.179-3.168 2.52-4.193 2.419-1.852 4.944-3.543 7.47-5.233.808-.534 1.754-.787 2.763-.804 1.514-.025 1.984.546 1.57 1.956-.027.134-.092.246-.191.59.479-.224.796-.34 1.097-.516 4.849-2.599 9.559-5.477 14.11-8.597 7.12-4.886 14.484-9.331 21.87-13.813 1.087-.672 2.244-1.204 3.369-1.853.301-.176.581-.315.963-.544l-3.544-2.346c-.315-.232-.611-.153-.971.039l-2.583 1.358c-1.847 1.033-3.645.944-5.395-.266-.503-.341-1.065-.665-1.503-1.118-1.23-1.16-1.207-2.846-.009-4.054.35-.347.754-.614 1.158-.88l21.677-12.874c2.11-1.231 4.327-2.301 6.512-3.488.301-.176.581-.314.963-.543-.503-.341-.878-.557-1.247-.87-.85-.691-1.035-1.497-.671-2.387.293-.68.756-.963 1.507-.879.461.066.875-.044 1.305-.096.489-.068 1.128-.049 1.578.211 1.864.926 3.631 1.847 5.393 2.864.637.368 1.247.87 1.798 1.388 1.139 1.057 1.176 2.378.065 3.436-.577.566-1.266 1.068-2.025 1.43-2.631 1.18-5.16 2.618-7.605 4.255-4.141 2.758-8.367 5.316-12.699 7.712l-1.066.635z" fill="#000"/>
<path d="M91.612 153.858l-3.369-1.696-5.271-2.643c-.397-.179-.734-.374-1.087-.628-1.375-.994-1.529-2.632-.407-3.883.124-.129.248-.257.388-.326 4.24-3.449 8.059-7.292 11.823-11.216l12.642-12.893 2.513-2.448c1.132-1.096 2.38-1.525 3.891-.852 1.586.715 3.199 1.297 4.763 2.05 6.986 3.483 14.166 6.629 21.33 9.716a135.16 135.16 0 0 1 5.358 2.493c.621.309 1.199.693 1.675 1.167 1.229 1.16 1.05 2.856-.27 3.843-.425.304-.904.528-1.383.751l-3.783 1.964-10.215 5.748-10.36 5.564-2.959 1.49c-.28.138-.581.314-1.023.559l.825.476 9.29 5.464c.225.13.466.319.669.486 1.252 1.122 1.206 2.846-.098 3.892-.468.379-1.065.634-1.641.852l-8.116 3.41c-1.275.564-2.54 1.283-3.73 2.045l-18.995 12.124-19.475 12.696c-.485.32-1.007.619-1.598.777-1.441.418-2.597-.35-3.036-1.753-.307-1.027-.249-1.993.233-2.914.861-1.752 1.707-3.563 2.74-5.265l11.097-18.183 7.319-12.418c.14-.069.189-.24.26-.449z" fill="#ea552b"/>
</svg>
