<?xml version="1.0" encoding="UTF-8"?>
<svg fill="none" width="190" height="122" viewBox="0 0 190 122" xmlns="http://www.w3.org/2000/svg">
<path d="M99.692 1.194h0l-1.473 1.667-3.486 3.134c-2.924 2.643-5.84 5.279-8.873 7.738l-45.89 36.049-29.525 23.346c-.458.343-.915.687-1.259 1.03-.801.687-1.717 1.144-2.747.229-.916-.801-.687-1.946-.114-2.747.687-1.144 1.602-2.289 2.518-3.204l1.66-1.514h.001c3.228-2.949 6.48-5.919 9.898-8.557 24.719-18.997 49.552-37.88 75.301-55.503C97.075 1.831 98.562.916 100.05 0c0 0 .114.114.458.229a48.63 48.63 0 0 0-.816.965zM190 25.062c-.401.229-.801.486-1.202.744s-.801.515-1.201.744c-16.709 9.842-33.188 20.027-49.324 30.899-24.719 16.479-49.209 33.417-72.555 51.727l-12.817 10.299c-.687.572-1.259 1.03-1.945 1.488-.916.686-1.831 1.03-2.747.229s-.687-1.946-.114-2.747c.687-1.144 1.488-2.289 2.518-3.204l.137-.126c2.819-2.594 5.749-5.289 8.789-7.542 34.79-26.321 70.495-50.925 108.604-72.097 4.348-2.441 8.799-4.679 13.249-6.917l.002-.001 6.661-3.381c.572-.229 1.145-.458 1.602-.687.115.114.229.343.344.572zm-73.471-17.28h.001c-.115-.114-.229-.229-.573-.343-.801.572-1.602 1.173-2.403 1.774h0l-2.403 1.773-13.859 9.988-66.135 47.919c-6.174 4.468-12.002 9.282-17.852 14.115l-7.21 5.912c-1.717 1.373-3.204 2.975-4.692 4.578-.572.572-1.144 1.259-1.373 2.06-.114.572.114 1.373.458 1.717s1.259.458 1.717.229c.916-.458 1.717-1.03 2.518-1.717l8.236-6.869h0 0 0L27.61 76.904 64.1 48.832l.001-.001h.001.001l26.792-20.563 23.46-18.539c.801-.572 1.488-1.259 2.174-1.945zm-1.601 17.394c-1.259 1.144-2.518 2.289-3.891 3.319L99.579 37.38h-.001L61.942 66.718 40.037 84.363h0L28.068 94.07c-.915.801-1.831 1.602-2.861 2.174-.572.343-1.831.343-2.174 0-.458-.458-.572-1.602-.229-2.174.458-.916 1.144-1.831 1.945-2.632l2.347-2.188c1.938-1.822 3.885-3.652 6.007-5.365 22.888-18.081 46.005-35.82 70.152-52.184 2.626-1.782 5.406-3.564 8.088-5.284l1.753-1.125c.458-.229.916-.458 1.374-.801.087.131.158.229.218.312h0c.098.135.169.233.24.374zm7.929 15.385l.653-.737c-.343-.229-.458-.343-.458-.343l-5.15 3.662C98.791 55.846 80.366 69.465 62.17 83.312c-5.379 4.005-10.643 8.125-15.907 12.245-1.03.801-1.946 1.717-2.747 2.632-.687.801-1.03 1.831-.229 2.746.801 1.03 1.831.916 2.746.344 1.259-.687 2.518-1.488 3.662-2.403l5.951-4.864 5.951-4.864 41.771-32.501 17.166-13.733c.807-.628 1.545-1.468 2.322-2.353z" fill="#000" fill-rule="evenodd"/>
</svg>
