<?xml version="1.0" encoding="UTF-8"?>
<svg fill="none" width="258" height="365" viewBox="0 0 258 365" xmlns="http://www.w3.org/2000/svg">
<path d="M98.388 155.638l27.37-40.809c7.678-11.237 15.762-22.22 24.414-32.753 5.932-7.235 12.092-14.232 19.372-20.153 3.076-2.511 6.424-4.853 9.89-6.932 5.712-3.411 12.008-5.043 18.619-5.064 5.966-.046 11.323 1.79 15.747 5.874 3.009 2.728 4.73 6.16 5.688 10.059 1.289 5.331 1.603 10.714 1.188 16.208-.872 11.055-3.041 21.771-6.548 32.217-4.754 14.101-10.134 27.998-16.141 41.692l-17.964 40.082c-4.364 9.252-9.38 18.19-14.083 27.229l-4.431 8.454-5.212 9.854-14.752 27.093c-5.059 9.006-10.618 17.605-16.694 25.976-5.754 8.006-11.736 15.775-18.329 23.162-6.398 7.227-13.228 14.089-20.999 19.892-3.822 2.8-7.831 5.294-12.28 7.136-3.441 1.435-6.983 2.429-10.772 2.609-7.288.352-13.221-2.221-17.849-7.94-2.789-3.534-4.679-7.449-5.959-11.738-2.06-6.661-2.773-13.519-2.688-20.445.059-9.299 1.431-18.439 3.379-27.595 2.643-12.684 6.854-24.859 11.624-36.874 6.033-15.093 13.303-29.602 21.294-43.755 8.44-14.722 17.38-29.037 26.116-43.478z" fill="#ee8db9"/>
<mask id="a" x="35" y="49" width="186" height="299" mask-type="alpha" maskUnits="userSpaceOnUse">
<path d="M98.388 155.638l27.37-40.809c7.678-11.237 15.762-22.22 24.414-32.753 5.932-7.235 12.092-14.232 19.372-20.153 3.076-2.511 6.424-4.853 9.89-6.932 5.712-3.411 12.008-5.043 18.619-5.064 5.966-.046 11.323 1.79 15.747 5.874 3.009 2.728 4.73 6.16 5.688 10.059 1.289 5.331 1.603 10.714 1.188 16.208-.872 11.055-3.041 21.771-6.548 32.217-4.754 14.101-10.134 27.998-16.141 41.692l-17.964 40.082c-4.364 9.252-9.38 18.19-14.083 27.229l-4.431 8.454-5.212 9.854-14.752 27.093c-5.059 9.006-10.618 17.605-16.694 25.976-5.754 8.006-11.736 15.775-18.329 23.162-6.398 7.227-13.228 14.089-20.999 19.892-3.822 2.8-7.831 5.294-12.28 7.136-3.441 1.435-6.983 2.429-10.772 2.609-7.288.352-13.221-2.221-17.849-7.94-2.789-3.534-4.679-7.449-5.959-11.738-2.06-6.661-2.773-13.519-2.688-20.445.059-9.299 1.431-18.439 3.379-27.595 2.643-12.684 6.854-24.859 11.624-36.874 6.033-15.093 13.303-29.602 21.294-43.755 8.44-14.722 17.38-29.037 26.116-43.478z" fill="#000"/>
</mask>
<g mask="url(#a)">
<path d="M121.251 74.309l1.079 5.427h0l1.079 5.427c3.044 14.901 5.519 29.934 6.24 45.172.268 5.359.273 10.713.278 16.054v.01l.006 3.777c.038 2.542-.29 5.018-1.232 7.437-1.583 3.967-4.87 5.977-9.092 5.452-2.324-.313-4.472-1.167-6.51-2.196-4.64-2.329-8.746-5.381-12.539-8.806-2.281-2.051-4.504-4.151-6.731-6.253v-.001h0l-4.617-4.327c-1.337-1.241-2.784-2.307-4.326-3.351-1.695-1.059-2.623-.745-3.294 1.111-.387 1.14-.715 2.316-.737 3.521l-.049 1.206v.001c-.121 2.92-.24 5.811-.021 8.663.704 8.89 1.562 17.794 2.551 26.618l4.751 40.421 1.718 14.402c.374 3.564.594 7.114.778 10.723.074 1.834-.006 3.653-.144 5.435-.117 1.227-.423 2.499-.905 3.66-1.372 3.368-4.075 4.443-7.516 3.188-2.513-.92-4.53-2.504-6.437-4.264-4.578-4.086-8.409-8.789-12.227-13.479l-.686-.842-1.109-1.343-5.593-6.661-.25-.282h-.001c-.592-.675-1.216-1.385-2.176-1.558-.723.767-.81 1.688-.861 2.55-.101 2.374-.203 4.748.039 7.093l2.462 21.038 3.368 22.903v.003l3.368 22.902c.725 5.084 1.224 10.27 1.627 15.478.166 2.085.069 4.27-.026 6.423h0l-.03.693c-.029.956-.343 1.979-.737 2.871-.664 1.454-1.994 1.761-3.302.863-.782-.57-1.549-1.293-2.09-2.118-1.257-1.76-2.536-3.615-3.589-5.572l-.929-1.744c-2.084-3.908-4.156-7.794-5.957-11.82l-9.197-21.138v-.001l-5.768-13.313c-.387-.811-.68-1.644-.914-2.44-.069-.3-.086-.632-.102-.947-.009-.183-.018-.36-.037-.521.095-.022.19-.044.343-.029.051.113.126.22.201.328s.15.216.201.329c5.527 13.527 11.566 26.886 18.057 40.04 1.929 3.894 4.086 7.735 6.225 11.545l.756 1.346c.566 1.023 1.311 1.937 2.067 2.864l.484.598c.207.297.494.529.878.838l.576.476a26.08 26.08 0 0 1 .201-.704h0c.174-.589.324-1.096.324-1.568l.072-1.584h0c.079-1.566.16-3.153.028-4.691l-.26-2.73v-.005-.001l-1.88-17.126-4.002-27.623v-.001l-2.947-20.185c-.644-4.465-1.033-8.952-1.424-13.466v-.001l-.189-2.165c-.212-2.002-.14-4.069-.068-6.136v-.001c.043-1.11.24-2.206.496-3.265.62-2.294 2.38-2.901 4.331-1.601.877.547 1.644 1.27 2.375 2.052l4.596 5.388.001.001.003.003 3.089 3.634 1.373 1.613c2.963 3.489 5.94 6.995 9.377 10.057 1.63 1.424 3.449 2.804 5.297 3.877 3.252 1.949 5.289 1.028 5.924-2.72.408-2.345.583-4.836.436-7.203-.258-5.442-.669-10.899-1.269-16.311l-3.085-27.522-3.085-27.52c-.718-6.786-1.341-13.594-1.811-20.388-.227-3.148-.148-6.267.026-9.409.087-1.57.423-3.148.97-4.675 1.058-2.996 3.308-3.866 6.179-2.479 2.442 1.227 4.385 3.032 6.361 4.869l.529.491 2.522 2.296 8.776 7.847c3.668 3.103 7.65 5.834 12.048 7.768 1.009.467 2.031.781 3.127.978 3.58.773 6.217-.587 7.413-4.064.672-1.856 1.109-3.858 1.167-5.772.225-4.653.391-9.343.309-14.026-.326-14.179-1.975-28.452-4.156-42.653l-2.768-17.816c-.015-.132-.027-.269-.04-.409h0c-.029-.326-.059-.668-.136-1a1.81 1.81 0 0 0 .113.006c.093.003.167.006.253.059zM88.02 287.153c.02.229.033.454.046.679.026.449.052.899.13 1.381l2.972 17.619 1.972 10.747v.003h0l2.895 15.934c1.405 8.027 2.277 16.128 2.331 24.368.024 1.216-.031 2.45-.09 3.791h0l-.091 2.353a13.59 13.59 0 0 0-.45-.403c-.24-.209-.389-.339-.457-.488-.124-.321-.176-.759-.168-1.161-.334-15.078-2.918-29.935-5.728-44.691-1.476-7.853-2.752-15.658-4.043-23.549l-.122-.746c-.373-2.264-.557-4.572-.74-6.881h0c-.081-1.432.277-2.265 1-2.382 1.097-.107 1.548.695 1.963 1.433l.032.057c.713 1.348 1.376 2.726 2.041 4.111h0l1.255 2.579 2.909 6.24.001.001 5.906 12.428c1.769 3.542 3.86 6.96 5.928 10.283.665 1.045 1.536 2.018 2.402 2.984l1.07 1.215.109.104c.206.197.387.369.636.524 1.345.84 2.199.643 2.827-.753.431-.95.744-1.973.81-2.988.218-2.951.378-5.939.289-8.92-.265-7.677-1.309-15.263-2.349-22.813l-.187-1.358c-2.564-19.314-4.806-38.752-5.806-58.227-.662-12.601-.922-25.195.155-37.847.334-4.179.881-8.307 1.946-12.354.518-1.87 1.095-3.704 2.175-5.304 1.541-2.207 3.476-2.704 5.647-1.105 1.074.752 2.038 1.679 2.798 2.804l.24.365.145.221c1.501 2.287 3.026 4.61 4.279 7.039l8.786 18.21 2.384 5.016c4.912 10.218 10.015 20.392 16.133 29.982 2.207 3.491 4.546 6.901 7.352 9.954a23.88 23.88 0 0 0 2.872 2.687c.606.46 1.286.803 2.002 1.088s1.322.095 1.665-.585l.206-.468.001-.002c.297-.666.588-1.316.676-1.985.218-2.301.437-4.602.348-6.932-.067-5.486-.917-10.892-1.802-16.239-1.796-11.198-4.188-22.345-6.574-33.459v-.001l-.517-2.413-1.277-5.892v-.003c-2.245-10.321-4.488-20.636-6.019-31.08-.528-3.58-.923-7.239-1.261-10.862-.132-1.87-.074-3.784.006-5.603.05-.862.291-1.768.612-2.543.694-1.761 2.074-2.28 3.747-1.316.972.526 1.798 1.285 2.529 2.066 2.19 2.388 4.317 4.814 6.436 7.233l.001.001.006.006 2.757 3.138c3.048 3.447 6.168 6.777 9.698 9.712 4.04 3.417 8.775 5.724 13.633 7.702 5.363 2.212 10.916 3.729 16.76 4.129 3.718.291 7.458.027 11.096-1.114 5.266-1.668 8.757-5.175 10.925-10.078.494-1.104.926-2.248 1.358-3.393l.882-2.276c.095-.022.181-.029.267-.037s.172-.014.267-.036c-.024.097-.06.186-.093.269h0c-.039.099-.075.188-.083.271-.27.835-.516 1.676-.76 2.514-.469 1.605-.935 3.2-1.567 4.726-2.621 6.408-7.704 9.733-14.263 10.999-5.019 1.01-10.096.683-15.1-.411-8.102-1.728-15.708-4.772-22.598-9.481-3.317-2.234-6.116-5.039-8.71-8.04l-5.162-6.107-.002-.002v-.001l-5.163-6.108c-.972-1.176-1.958-2.198-3.003-3.257-.241-.25-.545-.448-.91-.685-.232-.152-.489-.319-.771-.527l-.223.736c-.193.621-.358 1.152-.411 1.712l-.034 1.432h0c-.041 1.405-.083 2.83.087 4.207l.167 1.379c.498 4.123 1 8.281 1.81 12.369l4.744 23.231.001.004.001.004 4.745 23.232 5.613 30.562c.421 2.477.604 5.037.785 7.582v.002l.183 2.446c.11 1.775-.028 3.557-.188 5.245-.102 1.074-.335 2.228-.708 3.214-1.218 3.383-3.716 4.261-6.771 2.516-1.848-1.073-3.324-2.483-4.749-4.104-3.165-3.52-5.825-7.456-8.354-11.473-5.664-9.144-10.482-18.734-15.036-28.485l-2.98-6.346-.005-.009-7.974-16.82c-1.264-2.659-2.85-5.193-4.437-7.727-.621-.957-1.432-1.87-2.258-2.629-1.315-1.147-2.44-1.037-3.258.403-.73 1.169-1.284 2.447-1.686 3.74-1.116 3.61-1.561 7.313-1.946 11.054-.954 10.373-.797 20.79-.391 31.2.766 19.979 2.87 39.899 5.507 59.746l2.989 24.617c.381 3.813.477 7.692.515 11.534.045 1.499-.209 2.992-.467 4.507l-.123.731c-.146.884-.408 1.695-.825 2.492-1.328 2.908-3.906 3.654-6.471 1.646-1.213-.92-2.375-2.052-3.252-3.25-1.696-2.359-3.318-4.835-4.751-7.355-3.043-5.24-5.515-10.772-7.994-16.319h0l-.888-1.984-2.204-4.992-.001-.004-2.203-4.988c-.205-.453-.468-.943-.731-1.432-.088.27-.183.292-.278.314zm71.248-261.516l-.858-3.257c-.153-.014-.284.066-.394.241.051.438.161.913.271 1.388l.319 1.355c.325 1.366.654 2.745.895 4.116 2.65 13.842 4.269 27.772 5.45 41.754.909 9.993 1.475 20.015 1.391 30.038-.058 1.914-.152 3.886-.422 5.749-.138 1.132-.561 2.33-1.007 3.434-.737 1.571-1.833 2.024-3.396 1.535-.753-.226-1.469-.511-2.111-.912-2.529-1.417-4.633-3.381-6.57-5.484-3.909-4.148-7.125-8.757-10.363-13.46-.38-.562-.76-1.125-1.213-1.57-.197-.204-.658-.248-.884-.146s-.46.607-.416.797c.153.665.402 1.307.724 1.833 3.837 6.215 8.2 12.109 13.608 17.111 1.848 1.723 3.77 3.33 6.262 4.154 3.09 1.037 5.676-.111 6.887-3.092.533-1.374.927-2.915 1.072-4.449.241-2.207.291-4.369.225-6.604-.585-22.222-2.865-44.202-7.394-65.962-.557-2.881-1.314-5.716-2.076-8.569z" fill="#000" fill-rule="evenodd"/>
</g>
<g fill="#1cc241" fill-rule="evenodd">
<path d="M247.006 49.443l-.251.699.378.181c.08.293.525.602.254.997-.243.356.4.732-.091 1.021.083.746-.442 1.285-.789 1.806-.314.473-.39 1.064-.865 1.475-.413.357-.646.924-.959 1.401l-.876.039.185.593-.417.471.316.971-.502.572.491.175-.682.484.213.249c-.747.278-1.414-.392-2.238-.068-.51.367-.888 1.117-1.645 1.394-.292.107-.042.642-.542.579-.178-.022-.047.551-.464.44-.156.519-.619.728-.985 1.055-.304.271-.581.624-.825.977l-.637.865c-.195.259-.424.497-.585.775-.137.237-.125.643-.31.75-.248.144-.418.3-.471.635l-.544-.324c-.466.228-.934.445-1.399-.126v-1.186c-.893-.503-1.827-.943-2.246-2.081.033-.375-.149-.907.212-1.346-.524-1.047-.069-1.934.436-2.807.607-1.051 1.405-1.948 2.34-2.774l-1.593-2.421c-.322-.569-.678-1.191-.696-1.842-.019-.675-.231-1.38.172-2.064.179-.306.007-.751.208-1.154.121-.243.196-.512.383-.745.1-.125.096-.335.179-.668.186-.173.652-.406.749-.744.141-.491.77-.304.761-.878l.346.263.862-.254.319.606-.753 1.363 1.358-.135.319.319-.503.989.97.099-.25 1.194-.461.411.153.15.466-.277.144.382-.97.491.524.175-.82.822 1.127.89c.556.106 1.002-.129 1.439-.507l3.119-2.512c1.019-.898 2.104-1.779 2.83-2.982.17-.282.468-.485.725-.741h1.189l.292.37-.437 1.249 1.033-.284.314.542M175.32 73.234l-1.057.328.237-.508c-.26-.391-.553-.74-1.089-.663l-.106-.402h-.933c-.093-.093-.174-.138-.195-.201-.143-.431-.173-.943-.432-1.281-.334-.434-.168-.861-.183-1.281-.013-.342.125-.692.209-1.035a14.97 14.97 0 0 1 1.362-3.501 18.42 18.42 0 0 1 1.224-1.976c.439-.616.953-1.178 1.449-1.782l-.436-.277c-1.481-.876-2.779-1.98-3.982-3.203-.568-.577-.571-1.352-.737-2.066-.067-.285-.011-.6-.011-.901.304-.579.915-.628 1.509-.864l.637 1.121.238-.175c.077.077.214.151.252.26.236.671.784 1.013 1.367 1.304l3.656 1.781c.297-.315.595-.798 1.028-1.039.398-.223.419-.86 1.04-.799l-.242-.297.652-.456.342-.752.627-.036-.255-.328c.48-.07.512-.567.814-.833.319-.282.545-.669.847-1.057l.27.199.183-.432.293.236c.148-.793.598-1.429 1.076-2.001.492-.59.935-1.267 1.741-1.662l.39.321c-.319.612-.627 1.218-1.28 1.537v.903c.155-.038.312-.031.344-.091.131-.244.224-.509.275-.633l1.529-1.259.071.962-.432.177c.035.048.079.142.102.137l.879-.21.325.573-.216.24c.047.327.441.616.136.991l-.247-.224c-.038.07-.11.144-.095.191.041.133.119.254.206.425-.062.574-.521.955-.946 1.342-.403.367-.846.688-1.363 1.104l.606.349-.292.559.232.256-.749.121.23.584h-.753l-.377.774.292.314-.739.138.218.571-.671.099.251.677-.767-.298-.367.699c.043.082.06.172.111.2.09.049.211.04.3.089.346.193.427.64.767.832.366.207.526.563.759.879.211.285.367.525.343.886-.008.123.102.254.171.409l-.262.444c-.305.035-.527.444-1.084.228-.973-.377-1.986-.715-3.042-.843-.059-.007-.108-.101-.204-.197l-1.001 1.129-.048.41-.745.117.607.853-.671-.196-.245.29c.131.362.026.583-.398.823l-.35 1.259-.436.161.247.247c-.338.258-.725.468-.987.782-.236.283-.335.681-.519 1.082l.21.314-.729.75.276.344-.511.584v.659l-.746.718m27.78 4.498c.521.631.522.632 1.155.282.018.202.012.378.055.54.031.115.129.213.192.31l-.202.202.556.26-.741 1.055c.312.561-.348.66-.443.961-.146.464-.71.564-.727 1.06-.018.578-.611.649-.869.986-.224.293-.621.484-.673.858l.275.471-.917.519-.705.333-.714.842v.222l-2.177 1.6.584.298-.963 1.347 2.526.862-.249.5 1.127.402v.491l.701.645.04.761.409.409-1.039.865c-.245.273-.5.222-.774.04a.55.55 0 0 0-.301-.084c-1.166.026-2.221-.418-3.282-.806-.783-.286-1.536-.652-2.348-1.001-.221.221-.567.388-.611.844l-1.399.332-.603-.61.251-.277-.305-.633-.959.148-.471-.932-.147.147-.85-.862c.108-.784-.393-1.684-.259-2.657.029-.204-.127-.499-.292-.653-.666-.625-.695-1.529-1.008-2.298-.119-.294-.247-.666-.257-1.021-.018-.564-.084-1.143.013-1.69.152-.866.316-1.79 1.325-2.131.333-.113.7-.125 1.14-.198v1.762l1.02-.657.18.527.17-.129v1.039l.467-.237c.479.419.467.956.401 1.508l.5.177-.286.772c.13-.024.196-.017.232-.046.088-.07.148-.194.245-.23.964-.367 1.45-1.392 2.418-1.749.195-.701.934-.851 1.366-1.323.45-.491 1.084-.811 1.626-1.221.525-.397.82-1.065 1.505-1.275.45-.819 1.097-1.439 1.903-1.902-.028-.555.735-.623.717-1.208h1.018l.286.285c-.487.243-.665.714-.977 1.212.674.14 1.063-.682 1.699-.303l-.554.26m-2.62-11.939c-.053-.528.69-.586.338-1.078l-.249.222c-.027-.027-.073-.05-.077-.08-.084-.553-.051-1.078.342-1.529l1.275-1.505c.13-.161.211-.363.34-.59-.205-.533-.485-1.086-.729-1.635-.261-.59-.255-1.229-.539-1.813-.151-.31.243-.854.151-1.233-.104-.425-.355-.786.011-1.186.008-1.119.768-1.817 1.434-2.594h1.882l.395.375-.889 1.134.233.497c.106 0 .309.061.382-.011.314-.309.677-.184 1.008-.22l.338.731-.611.763 1.026.131v1.083c.763.025.847-.899 1.489-.895.292-.444.717-.753 1.101-1.107l1.279-1.275 1.117-1.232c.355-.446.659-.931.865-1.225l1.056-.379c.107.152.282.306.327.492.034.143-.08.333-.157.487-.087.176-.207.335-.205.644l1.021-.431.714 1.392c0-.013-.018.21.006.427.019.169.091.332.154.549l-.202.355.257.277-1.961 3.147c-.603.852-.518.911-.96 1.152l.199.22-2.68 3.004v.375l2.105 1.341-.264.52c.27.232.452.679.976.514l.3.597-.26.362.812.814-.292.754.239.412c-.039.086-.052.174-.101.207-.111.073-.274.087-.355.178-.486.548-.573.579-1.184.37-.791-.27-1.642-.429-2.365-.824-.968-.529-1.839-1.237-2.839-1.929-.42.311-.891.737-1.345 1.222-.439.469-1.018.841-1.822 1.081l.325-.538-1.35.251-.072-.145.762-.594-.393-.393h-.771l-.352-.887h-.936l-.299-.753m4.899-22.163l-1.211.29-1.698-1.249c-.728-.51-1.361-1.159-2.193-1.519-.193-.083-.395-.143-.662-.239-.325-.486-.362-1.388-1.314-1.288-.43-.394-.483-1.077-1.112-1.143-.206-.351-.336-.752-.606-1.003-1.235-1.145-2.128-2.521-2.897-4.181l-.178-1.88c-.173-1.079.401-2.006 1.336-2.604.258-.165.391-.527.82-.489.298.027.613-.132 1.009-.229l.468.416c-.318.535-.921.872-.966 1.59.708.236 1.026-.551 1.739-.642l.387.345-.737 1.104c.488-.154.835-.157.963-.325.323-.427.846-.598 1.15-1.072.283-.442.747-.771 1.221-1.079.67-.435 1.214-1.061 1.843-1.567.924-.744 1.79-1.559 2.819-2.177.407-.244.708-.669 1.046-1.023.308-.322.796-.463.893-.944h1.519v.98l-.364.364.6-.109.701-.19c-.046.729-.011 1.375.516 1.846l-.302.407.694.381-.644.176c.063.144.147.279.178.425s.007.3.007.447l-1.298 1.781-.525.058.193.266-.227.54c-.994-.048-1.001.976-1.615 1.375l.224.295-1.238 1.238c.033.031-.02-.018.003.003l-.568.568-.186-.145v.595l-.379-.312.098.659-.989 1.281-.378-.278-1.244 1.455.529.263-.541.686c.027.091.027.176.068.223.688.771 1.504 1.461 2.041 2.325.604.973 1.359 1.977 1.007 3.302"/>
<path d="M221.052 27.301l.178-.178c-.041-.052-.075-.112-.124-.157-.292-.267-.662-.496-.899-.758-.233-.256-.493-.451-.728-.686-.313-.312-.661-.758-.678-1.16-.029-.718-.073-1.438.098-2.191.294-1.299.975-2.283 1.876-3.181l3.485-3.483c-.456-.392-.479-1.133-1.201-1.277l-.908-1.768c-.279-.544-.229-1.131-.226-1.712V9.51l1.136-1.449h1.882l-.813 1.388c.696.505.952-.589 1.563-.256.381.522-.329.768-.553 1.274l.994-.239c.184.537.092 1.007-.197 1.511l.459.178c.13.14-.141.16-.187.367l.676 1.033c1.864-1.956 4.24-3.267 5.694-5.501h1.133l-.268 1.144.889-.314v.876l.385.101c.029.063.074.125.082.191.013.111-.015.229.006.338.23 1.173-.354 2.104-.967 2.983-.663.951-1.432 1.828-2.21 2.806.555.666 1.443.99 2.224 1.612l.066.475c.207.259.541.509.636.831.208.705.723 1.361.373 2.27l-.466.213-.606.237c-.299-.304-.975-.207-.884-.799l-1.885-.545-.395-.686h-1.247l-.086-.362c-.461-.355-.849.063-1.119.135l-.962 1.115-.286-.217-.452.639c-.023-.03.034.043.118.152-.524.131-.569.657-.8 1.09l-.482-.297-.098.61-.36.098c-.049.458-.114 1.015-.792.863-.228.295-.61.57-.584.799.078.687-.497 1.016-.654 1.553-.075.679-.064.678.147 1.132-.492.392-1.047.656-1.685.819l-.298-.377m-66.061-12.762l-.664.082.323.357c-.281.521-.812.834-1.173 1.29l.177.176-.819.642c-.135.356.153.757-.322.977l1.184.795c1.186.819 2.454 1.522 3.432 2.626.56.632 1.087 1.242 1.097 2.149.002.153.157.304.281.528l-1.061.671c-2.254-1.321-4.585-2.498-6.723-4.223-.153.087-.487.161-.549.333-.245.681-.725 1.159-1.213 1.646-.06.06-.037.201-.053.305l-.659.072.174.596c-.435.364-.759.906-.93 1.578-.1.391-.474.711-.81 1.183v2.455l-.593.038-.146.41h-.778l-.391-1.132-.69.303-.137-.421c-.064-.026-.134-.085-.192-.075-.478.091-.805-.314-.864-.571-.24-1.047-.917-2.083-.267-3.207.012-1.113.704-1.963 1.096-2.931.128-.316.678-.261.528-.806-.061-.224.347-.58.547-.872l.562-.781c.246-.284.545-.521.789-.806.202-.238.358-.515.557-.806-1.373-1.031-2.213-2.496-3.175-3.861-.308-1.321-.841-2.604-.634-4.152l1.161-1.334c.484.099 1.028-.2 1.47.304l-.867 1.169.227.242c.613.127.838-.765 1.478-.559l.29.562-.66.423.357.358c.32-.331.631-.335 1.006.118-.034.252.162.617-.216.91l.529.254-.503.677.557.197-.58.156c.022.183-.022.434.082.575l1.421 1.751.708-.636c1.235-1.152 2.27-2.534 3.803-3.35-.009-.425.436-.395.627-.622l.613-.66h.759c-.344.507-.931.793-.739 1.523l1.555-.927-.138.885.835.422-.237.49.328.068c.011.044.055.119.034.147-.275.371-.643.699-.819 1.111-.219.516-.703.749-.985 1.178m20.619 11.529l2.405-2.953c.705-.881 1.307-1.833 1.855-2.809l-.254-.314.581-.661h.745c.278.278.502.676.821.777.389.123.444.434.601.667.544.805.923 1.622.504 2.67l-.785 1.932c-.08.194-.139.396-.242.691l-.57.571v.711l-1.225 2.221 1.614 1.094c1.057.681 1.931 1.528 2.453 2.69.113.25.164.528.281.919l-.247.548-.681.317-1.449-.507c-.45-.186-.878-.422-1.316-.637-.075-.654-.82-.39-1.127-.835-.252-.365-.812-.517-1.303-.804-1.472 1.502-2.769 3.142-3.959 4.871-.091.133-.062.348-.088.525-.519.399-1.032.338-1.546-.024v-.359l-1.981-1.187c-.328-.384-.161-.988-.375-1.456-.238-.52-.036-1.024-.127-1.407.748-1.665 1.632-3.124 2.898-4.383v-.769c-.732-.51-1.187-1.305-1.647-2.084-.155-.261-.179-.603-.25-.91-.143-.625-.358-1.231-.339-1.895.037-1.271.758-2.177 1.971-2.633.765-.288 1.508-.143 2.331-.224-.443.917-1.503.838-2.124 1.607 1.07-.047 1.721-1.055 2.812-.862l-.129.785.776.275v1.434l-.871 1.549c-.084.172-.013.42-.013.859"/>
<path d="M194.7 12.009l-1.236 1.55v1.449l-1.22.49c-.516-.501-.726-1.166-.891-1.794l-.707.263c-.228-.328-.505-.617-.654-.962-.448-1.033-.412-2.135-.363-3.173l.564-1.286c-.313-.047-.589-.003-.704-.119l-2.119-2.281c-.361-.427-.741-.911-.885-1.431-.209-.762-.214-1.581-.313-2.432.344-.483.623-1.05 1.06-1.44.401-.359.972-.528 1.591-.843l.426.461-1.185 1.142.277.277c.505-.368 1.007-.85 1.828-.532l-.641.878.879-.342.464.7-.852.852.464.096c-.256.432-.111 1.028-.771 1.249.655.806 1.384 1.25 2.124 1.741L199.23.389h1.09l-.496.997c.327.25.586-.031.876-.157.837.782 1.035 1.757.862 2.846l-1.07 1.373.227.21-.588.075.227.244h-.42c-.774 1.457-2.083 2.448-3.041 3.775l4.172 2.104.145.726.422-.446c.56.075.548.718 1.017.954.411.206.651.754.971 1.156v1.341l-.364.364c-1.163-.124-2.125-.787-3.184-1.323l-.135.122c-.741-.183-1.183-.978-2.038-.86-.398-.512-1.053-.552-1.565-.854l-1.638-1.027m32.896 18.046l.686.387-.2 1.195c.19.329.348.83.923 1.032.257-.359.415-.769.91-.97.347-.141.552-.636.818-.975.293-.372.699-.627.93-1.08.194-.382.611-.643.874-.998.271-.367.476-.784.71-1.178h1.274c.067.357.177.71-.243 1.079l.9.041.32 1.47-.465.182c.016.104.013.212.05.304.315.777.264 1.044-.342 1.644-.252.25-.358.639-.255.883.161.382-.324.235-.095.587l-.45-.371v.629l-.69.132v.617l-.663.691 1.059 1.037v.851l.759.76-.223.394.451.918-.687 1.434h-.941l-3.221-1.844-.464.717-.606-.295v1.051l-1.034-.385.335.456-.773.726-.161-.974.45-.156.06-.313-.406-.14.181-.742-.338.31-1.415-.265-.282-.543.28-1.089.782.13.034-.125-.843-.424.458-.947c-.743-1.262-1.553-2.453-2.01-3.824-.275-.944.05-1.878.186-2.807.106-.723.703-1.234 1.357-1.6l.331-.205h1.123l.449.45-.579.579v.695l.761-.197.457.427-.522.637m-67.935 11.601l.385.385-2.068 1.769.046.119c.147-.043.325-.046.432-.136.198-.166.355-.382.628-.436l1.434-.81c.409.331.111.592-.065.994l.628-.239.295.295v1.359l-.408.398c.021.052.027.124.065.152l.784.559c.291.184.699.237.71.708.001.054.093.116.154.158.232.164.504.287.694.49s.296.48.487.806l-.001.793-.528.529-4.24-1.515-.987.526-.042-.068-.96.959-.029.487-1.715 1.65c-.252.78-.124 1.581-1.163 1.745-.215-.344-.987-.399-.811-1.2l-.763-.221-.272.182-.913-.967-.299-2.555 2.843-3.075c-.383-.24-.779-.441-1.118-.712-.35-.281-.646-.63-.974-.959l.283-.914-.479-.164v-.763l.235-.236 1.082-.215 3.523 1.977c1.19-.453 1.962-1.497 3.127-1.854"/>
</g>
</svg>
