<svg xmlns="http://www.w3.org/2000/svg" width="147" height="103" fill="none" xmlnsV="https://vecta.io/nano"><path d="M50.426 71.746l-6.291.572c-3.073.477-5.426 2.097-6.867 4.86-.96 1.858-1.825 3.764-2.545 5.766-1.921 5.194-3.073 10.626-4.514 15.915-.192.715-.24 1.525-.384 2.239-.048.286-.096.62-.24.858-.336.715-.96 1.096-1.681 1.001a1.54 1.54 0 0 1-1.345-1.477 4.5 4.5 0 0 1 .048-1.382c.288-1.811.192-3.574 0-5.337-.384-3.478-.912-6.957-2.017-10.292-1.393-3.955-3.506-7.433-6.819-10.149-1.681-1.382-3.409-2.716-5.138-4.098-2.641-2.097-5.666-3.478-8.788-4.717-.48-.191-1.056-.238-1.633-.429-.384-.095-.816-.191-1.201-.381-.816-.381-1.152-1.191-.96-2.001.192-.762.912-1.239 1.777-1.144.624.048 1.297.191 1.921.381 3.553 1.096 7.203.858 10.853.524 1.345-.095 2.689-.238 3.986-.524 3.025-.715 5.378-2.383 6.771-5.194 1.104-2.192 1.873-4.479 2.401-6.909.864-3.764 2.065-7.481 2.545-11.341l.768-5.909c.096-.524.144-1.048.288-1.572.288-.524.72-.953 1.345-1.001s1.2.286 1.393.953c.24.715.432 1.477.48 2.24l.72 10.626c.24 3.24.384 6.48.72 9.673.288 2.621 1.201 5.099 2.689 7.338 1.344 2.049 3.217 3.336 5.426 4.241 1.441.572 2.833 1.191 4.274 1.668.768.286 1.633.381 2.449.572 1.585.381 3.217.715 4.802 1.144.72.191 1.2.715 1.249 1.477.096.715-.336 1.43-1.105 1.715-.528.191-1.104.334-1.681.334-1.248.048-2.545 0-3.794 0 .096-.095.096-.191.096-.238z" fill="#ea552b"/><path d="M125.715 6.049c.049 3.946.349 7.891.998 11.787.05.15.05.3.1.45.5 2.697 1.898 4.645 4.295 5.993 1.599.899 3.247 1.698 5.095 1.998l8.44 1.598c.799.15 1.349.649 1.449 1.349.1.649-.3 1.299-.999 1.648-.4.15-.849.25-1.249.4-2.347.599-4.695 1.299-6.892 2.397-3.546 1.748-6.143 4.445-7.642 8.091-1.748 4.195-2.946 8.54-3.546 13.035l-.499 3.896c-.1.849-.549 1.349-1.249 1.398-.699.1-1.248-.25-1.598-.999-.15-.35-.25-.699-.349-1.049-1.099-3.646-2.647-7.092-4.595-10.388-.45-.699-.899-1.448-1.449-2.048-2.497-2.647-5.194-5.094-8.29-7.042-2.547-1.598-5.344-2.497-8.241-3.146l-7.042-1.398c-.899-.15-1.398-.649-1.448-1.349-.05-.749.45-1.348 1.349-1.548.25-.05.549-.1.849-.1 1.398.15 2.697-.25 3.996-.449 2.647-.45 5.195-1.249 7.742-2.048 1.298-.399 2.547-.899 3.845-1.348 4.196-1.498 6.743-4.545 8.341-8.541.4-1.049.699-2.148 1.149-3.146l1.998-4.495c.399-.849.849-1.748 1.098-2.647l1.748-6.493c.1-.35.25-.699.4-1.099.2-.499.549-.799 1.099-.749.599.05.949.449 1.049.999.05.449.05.849.05 1.299v3.746z" fill="#f7d046"/></svg>