<svg xmlns="http://www.w3.org/2000/svg" width="227" height="184" fill="#000" xmlnsV="https://vecta.io/nano"><path d="M190.229 67.502l.429-1.278c.536-2.168.392-4.298-.108-6.483-.718-3.041-2.083-5.778-3.772-8.363-2.805-4.259-6.372-7.858-10.406-10.918-5.976-4.547-12.588-7.783-19.778-9.828-4.04-1.136-8.105-1.827-12.278-1.687-1.509.048-2.987.243-4.464.498-.857.158-1.681.583-2.506.948-.294.122-.589.244-.828.01-.151-.205-.303-.529-.306-.766.023-.563.403-.952.875-1.136.942-.426 1.854-.94 2.858-1.13 1.624-.345 3.28-.543 4.967-.593 3.195-.216 6.427.189 9.574.921 10.986 2.591 20.611 7.716 28.672 15.701 3.596 3.569 6.546 7.619 8.41 12.363 1.619 4.155 2.291 8.322.627 12.724.328.203.656.347.954.521 3.903 2.055 7.633 4.467 10.984 7.388 3.262 2.833 6.113 6.025 8.055 9.91a23.17 23.17 0 0 1 1.467 3.831c1.706 6.404-.713 12-6.477 15.267-2.088 1.18-4.329 1.918-6.662 2.449-4.547 1.003-9.165 1.118-13.787.818-1.274-.073-2.519-.236-3.823-.339-.267-.026-.504-.023-.889-.048.123.413.217.797.309 1.121.956 3.097 1.409 6.29 1.004 9.522-.485 4.032-2.13 7.516-5.176 10.277-1.816 1.62-3.846 2.74-6.145 3.538-3.627 1.258-7.383 1.569-11.204 1.408-.504-.023-1.008-.047-1.6-.099.005.415.039.799.043 1.154.162 3.611-.567 6.995-2.722 9.981-1.543 2.18-3.596 3.745-5.98 4.928-3.061 1.518-6.28 2.237-9.651 2.515-4.673.412-9.297-.006-13.869-1.017-.356-.055-.742-.139-1.187-.222l.103 1.153c.461 3.903.745 7.807.437 11.719-.126 1.808-.4 3.588-.734 5.368-.221 1.305-.709 2.584-1.465 3.719-.552.865-1.081 1.227-1.908 1.414 0-.059-.031-.147-.031-.147.966-.871 1.397-2.031 1.707-3.248.481-1.871.636-3.768.672-5.663.119-4.857-.295-9.708-.974-14.526a1.82 1.82 0 0 1-.094-.384c-.267-.085-.565-.2-.892-.285-7.904-2.392-15.114-6.153-21.513-11.346-3.408-2.742-6.437-5.874-8.615-9.696-.786-1.353-1.365-2.737-1.768-4.243-.28-1.151-.383-2.304-.249-3.461.354-2.58 1.753-4.373 4.17-5.29 1.68-.643 3.397-.663 5.176-.448 3.647.459 6.891 1.871 9.906 3.878 6.687 4.538 11.173 10.731 13.369 18.491.866 3.069 1.408 6.289 2.097 9.419l.191 1.064c.119.058.179.116.268.145 5.434 1.326 10.948 1.91 16.535 1.162 3.163-.423 6.143-1.258 8.876-2.979 4.495-2.867 6.627-7.748 5.79-13.364-.297-.055-.683-.14-1.039-.194-7.031-1.129-13.63-3.359-19.744-7.046-2.536-1.538-4.895-3.256-6.905-5.453-1.17-1.259-2.253-2.608-2.864-4.199-.366-.884-.644-1.858-.715-2.804-.204-2.189.9-3.978 2.901-4.95 1.149-.517 2.36-.739 3.603-.754 2.132-.026 4.21.423 6.202 1.139 4.698 1.66 8.728 4.365 12.204 7.876 3.897 3.921 6.734 8.446 8.103 13.877l.122.354c.267.026.564.082.831.108 3.111.229 6.249.132 9.319-.556 2.392-.532 4.602-1.418 6.598-2.863 2.73-1.957 4.445-4.613 5.205-7.85.621-2.494.65-5.041.145-7.581-.284-1.447-.745-2.833-1.117-4.25-.155-.62-.544-.881-1.196-.992-4.45-.716-8.786-1.789-13.036-3.188-6.51-2.083-12.818-4.731-18.636-8.361-2.834-1.772-5.463-3.753-7.714-6.243-1.11-1.26-2.074-2.61-2.597-4.232-.831-2.625.237-4.858 2.801-5.866a7.35 7.35 0 0 1 2.244-.56 20.64 20.64 0 0 1 3.582-.014c2.638.235 5.222.944 7.691 1.891 8.685 3.27 16.119 8.362 22.156 15.484 2.222 2.638 4.123 5.546 5.582 8.667.212.441.423.764 1.016.816 4.744.595 9.456.923 14.217.421 2.72-.27 5.379-.776 7.913-1.754 1.474-.55 2.886-1.278 4.118-2.24 3.198-2.437 4.581-5.651 4.266-9.645-.242-2.869-1.368-5.431-2.878-7.841-2.022-3.203-4.63-5.866-7.59-8.228-3.049-2.45-6.331-4.483-9.816-6.247-.179-.116-.358-.173-.595-.23-.176.18-.352.3-.468.479-1.516 1.972-3.423 3.387-5.752 4.215-1.533.552-3.126 1.044-4.722 1.3-6.826 1.06-13.411.073-19.722-2.752-1.459-.663-2.86-1.505-3.999-2.616-.359-.351-.719-.702-1.049-1.083-1.954-2.434-1.453-5.105 1.132-6.794 1.087-.694 2.296-1.094 3.536-1.345 1.949-.438 3.962-.522 6.005-.457 5.124.145 10.111 1.21 14.957 2.839 2.705.885 5.324 2.038 7.971 3.042.385.025.713.169 1.07.342zm-66.885 80.748l-.633-3.368c-.723-3.515-1.535-6.998-3.026-10.267-2.888-6.271-7.241-11.222-13.291-14.554-2.236-1.246-4.644-2.076-7.222-2.252-1.245-.104-2.458-.059-3.666.399-1.709.672-2.76 1.869-2.886 3.736-.049.889-.037 1.836.24 2.692.37 1.239.859 2.476 1.495 3.623 1.816 3.235 4.335 5.929 7.147 8.323 6.132 5.225 13.106 8.99 20.774 11.444.297.055.623.081 1.069.224zm55.085-42.826c-.122-.295-.153-.443-.244-.59a39.04 39.04 0 0 0-4.252-6.432c-4.147-5.042-9.14-9.098-14.833-12.256-3.845-2.115-7.832-3.784-12.165-4.561-1.394-.25-2.846-.321-4.267-.304-.888.011-1.773.258-2.628.594-1.237.489-1.669 1.53-1.328 2.799.156.62.429 1.179.761 1.738.938 1.617 2.227 2.934 3.633 4.131a39.86 39.86 0 0 0 6.897 4.802c8.675 4.899 17.98 8.073 27.744 9.998a6.63 6.63 0 0 0 .682.081zm-21.892 25.904c-.063-.295-.066-.532-.157-.738-.368-1.003-.647-2.035-1.102-3.007-2.617-5.831-6.787-10.31-12.157-13.68-2.625-1.626-5.363-2.837-8.419-3.362-1.395-.25-2.787-.322-4.204-.009-2.303.561-3.261 2.142-2.641 4.444.341 1.269 1.065 2.385 1.877 3.411 1.745 2.289 4.016 4.038 6.433 5.578 6.027 3.835 12.627 6.124 19.628 7.283.179.057.416.054.742.08zm32.795-62.068c-.268-.145-.447-.261-.596-.348-5.923-2.623-12.076-4.591-18.511-5.432-2.698-.352-5.395-.527-8.114-.139-1.212.163-2.452.474-3.571.961-2.415 1.036-2.69 2.816-.861 4.718 1.169 1.2 2.571 2.041 4.089 2.704 5.626 2.449 11.469 3.355 17.559 2.63 2.247-.264 4.402-.853 6.402-1.942 1.382-.757 2.584-1.749 3.603-3.152zM5.674 73.05l-.142-1.701c-.177-1.169-.673-2.162-1.595-2.906-.957-.78-1.878-1.595-3.119-1.843-.177-.035-.39-.142-.496-.284-.142-.213-.354-.496-.319-.709s.319-.496.567-.532c3.26-.602 4.784-2.87 5.67-5.776.213-.709.319-1.488.461-2.233.106-.248.071-.496.177-.709.106-.177.319-.39.461-.354.142 0 .319.248.425.425.071.142.035.319.035.496l-.106 2.197-.106 2.445c-.035 1.347.815 2.162 1.878 2.693.673.319 1.417.496 2.233.39.496-.071.992.071 1.524.142.177.035.354.071.461.177.142.177.319.425.319.602 0 .319-.319.354-.602.319l-1.347-.142c-.85-.106-1.63.106-2.41.39-.354.142-.709.425-.886.744-.39.603-.78 1.205-.957 1.878l-1.063 4.713c-.071.319-.071.638-.213.921-.071.177-.319.39-.461.39a.54.54 0 0 1-.39-.425c-.035-.425 0-.886 0-1.311zM35.56 13.155c-.284-.177-.496-.284-.673-.461l-1.524-1.737-1.949-2.339c-.532-.602-.567-.78-.177-1.488 1.028-1.985 2.445-3.721 3.756-5.528.177-.248.425-.461.673-.673.496-.354.957-.284 1.311.213l3.331 5.316c.496.815.425.957-.213 1.63l-2.587 2.8c-.461.532-.85 1.134-1.276 1.665-.213.248-.425.39-.673.603zm.638-11.163c-1.488 1.914-2.587 3.898-3.792 5.741l3.083 4.005 4.146-4.713-3.437-5.032z"/><path fill-rule="evenodd" d="M33.284 127.294l.099.243c.047-.016.087-.025.122-.033.046-.01.086-.018.126-.038l.024-.083c.062-.214.118-.406.118-.626l-.035-5.422c0-.177 0-.39-.106-.496-.177-.177-.39-.355-.602-.355-.142 0-.39.213-.461.426-.106.212-.106.496-.071.744l.539 4.557.064.51c.025.201.103.383.184.573zm10.793 1.252l.682-.195c0-.035-.035-.106-.071-.177h-7.867c-.142 0-.319 0-.425.071l-.05.04c-.171.135-.378.298-.41.492-.035.319.213.496.532.567a3.48 3.48 0 0 0 .602.035h0l5.918-.567c.371-.044.729-.154 1.09-.266zm-9.504 9.977l.158.319c.071 0 .142-.036.213-.071 0-.035.018-.071.035-.106s.035-.071.035-.107v-5.705c0-.248-.035-.496-.071-.744-.071-.355-.319-.603-.709-.603-.425 0-.602.319-.638.674-.023.14-.016.265-.008.395h0l.008.207.142 1.595.567 3.508c.047.213.157.425.268.638zm-1.224-9.214l-.341.126c-.191.075-.379.148-.58.193l-4.873.7h0l-.584.08c-.284.035-.602.071-.851-.036-.177-.106-.461-.319-.461-.496s.213-.39.39-.567c.071-.071.248-.106.39-.106l5.847-.177c.319 0 .673.035.992.07a.51.51 0 0 1 .035.107c.009.035.018.071.035.106z"/></svg>