<?xml version="1.0" encoding="UTF-8"?>
<svg width="236" height="268" fill="none" viewBox="0 0 236 268" xmlns="http://www.w3.org/2000/svg">
<g fill="#000">
<path d="M208.877 252.595l-3.103.282c-1.516.235-2.677 1.035-3.388 2.398a23.46 23.46 0 0 0-1.255 2.845c-.948 2.562-1.517 5.242-2.227 7.851-.095.353-.119.752-.19 1.105-.024.141-.047.306-.118.423-.166.353-.474.541-.83.494a.76.76 0 0 1-.663-.729c-.024-.211-.024-.447.024-.682.142-.893.095-1.763 0-2.632-.19-1.717-.45-3.433-.995-5.078-.687-1.951-1.73-3.667-3.364-5.007l-2.535-2.022c-1.303-1.034-2.796-1.716-4.335-2.327-.237-.094-.522-.118-.806-.212-.189-.047-.403-.094-.592-.188a.84.84 0 0 1-.474-.987c.095-.376.45-.612.877-.565a4.54 4.54 0 0 1 .947.189c1.753.54 3.554.423 5.354.258.664-.047 1.327-.117 1.967-.258 1.492-.353 2.653-1.176 3.34-2.563.545-1.081.924-2.21 1.184-3.408l1.256-5.595.379-2.915.142-.776c.142-.259.356-.47.664-.494s.592.141.687.47c.118.353.213.729.236 1.105l.356 5.243.355 4.772a8.09 8.09 0 0 0 1.327 3.62c.663 1.011 1.587 1.645 2.677 2.092l2.108.823c.379.141.806.188 1.209.282l2.369.564c.355.094.592.353.616.729.047.352-.166.705-.545.846-.261.094-.545.165-.829.165h-1.872c.047-.047.047-.094.047-.118z"/>
<path d="M223.646 34.744l-.15.968h0l-.17 1.112c-.064.352-.224.672-.384.992-.512.928-.96.96-1.536.096-.928-1.408-1.248-3.008-1.44-4.64l-.028-.288c-.03-.288-.06-.576-.036-.864.032-.416.096-.864.288-1.248.32-.672 1.088-.992 1.824-.832.736.128 1.248.672 1.376 1.472l.179 2.204.077 1.028zm11.344 7.303l.207-.169c-.016-.032-.024-.072-.032-.112a.46.46 0 0 0-.032-.112l-.186-.112h0 0c-.164-.1-.333-.203-.518-.272-2.24-1.024-4.639-.96-7.007-.704-.086 0-.171.028-.256.057l-.128.039c-.768.288-1.248.96-1.216 1.696s.544 1.408 1.312 1.6c.288.096.608.096.896.096l2.304-.16c1.375-.128 2.655-.544 3.839-1.248.302-.176.563-.391.817-.599zm-14.704 5.304l-.256 2.752c-.064.96-.032 1.92.256 2.912.192.672.48 1.28 1.056 1.728.512.384.768.352 1.12-.192.447-.704.767-1.44.863-2.272l.323-3.304h0l.157-1.719c0-.128 0-.288-.032-.448a1.7 1.7 0 0 0-1.375-1.472c-.704-.16-1.44.192-1.792.864-.16.352-.256.768-.32 1.152zm-.037-3.64c.281-.1.574-.205.709-.583l-.48-.192c-2.592-.448-5.184-.448-7.807-.256a2.57 2.57 0 0 0-1.088.352c-.832.544-.768 1.696.16 2.112.352.16.8.192 1.184.192.629-.03 1.231-.116 1.858-.206l.125-.018c1.76-.256 3.52-.672 5.184-1.344l.155-.057z" fill-rule="evenodd"/>
</g>
<path d="M79.019 31.434l-3.12.39c-7.411.836-14.765 2.006-21.842 4.29-2.117.669-4.179 1.504-6.185 2.452-1.282.613-2.507 1.393-3.566 2.34-3.12 2.73-2.786 6.575.836 8.636 1.56.892 3.343 1.449 5.015 2.117.501.223 1.003.334 1.504.724l-1.17.334c-3.232.78-6.519 1.56-9.584 2.953-1.504.669-2.953 1.449-4.346 2.34-.836.502-1.56 1.226-2.173 1.95-1.783 2.173-1.839 4.848-.223 7.188.836 1.226 2.006 2.173 3.232 2.953 2.173 1.393 4.457 2.396 6.853 3.232 5.739 2.062 11.701 3.51 17.663 4.792l18.61 3.677c.39.056.724.167 1.114.502-.502.223-.947.39-1.449.613-3.733 1.504-7.355 3.232-10.587 5.628-1.504 1.114-2.897 2.396-4.179 3.733-1.17 1.226-1.895 2.842-2.062 4.569-.279 2.452.613 4.569 2.284 6.352 1.393 1.504 3.12 2.507 4.959 3.343 3.176 1.393 6.519 2.173 9.918 2.675 9.305 1.337 18.666 1.281 27.971.39 6.854-.669 13.596-1.839 20.17-3.845 2.452-.78 4.904-1.672 7.132-2.953 1.616-.892 3.065-1.95 4.346-3.343 3.176-3.622 3.511-7.968 1.003-11.98-1.003-1.56-2.228-2.842-3.677-4.012-2.006-1.616-4.123-2.953-6.463-4.012-2.675-1.226-5.405-2.34-8.08-3.51l-1.448-.613c.557-.279.835-.446 1.17-.613 3.009-1.393 6.017-2.73 8.915-4.235s5.572-3.343 7.856-5.739c1.114-1.17 2.117-2.452 2.898-3.789 2.117-3.677 2.228-7.522.39-11.422-1.171-2.452-2.898-4.458-4.904-6.296-2.173-2.006-4.624-3.622-7.132-5.126-.39-.223-.836-.502-1.337-.836a12.24 12.24 0 0 1 1.114-.613c3.622-1.783 6.464-4.402 8.525-7.912 1.616-2.786 2.898-5.739 3.455-8.915.557-2.675-.111-5.071-1.783-7.244-1.895-2.452-4.29-4.29-7.188-5.349-1.894-.724-3.844-1.393-5.85-1.839-4.959-1.059-9.974-2.062-14.933-2.842C102.254.9 91.778-.103 81.248.008 75.286.064 69.324.51 63.473 1.847c-2.507.557-4.959 1.226-7.188 2.452-1.504.836-3.065 1.727-4.29 2.897-3.789 3.399-3.845 7.912-.223 11.478 1.059 1.059 2.285 2.062 3.566 2.786 2.563 1.449 5.182 2.842 7.856 3.9 4.848 1.95 9.806 3.622 14.654 5.349.39.167.78.279 1.17.446v.279z" fill="#f7d046"/>
<path d="M120.857 179.761c-.529 31.578-23.375 58.129-54.16 62.627-31.578 4.587-60.775-17.112-65.891-48.602-3.969-24.169 7.057-48.691 25.757-61.481 10.938-7.674 23.199-11.467 36.606-11.114 1.5.088 2.911-.265 4.41-.177 1.852.088 3.793.088 5.645.441 23.463 4.587 41.634 22.758 46.045 46.309.794 3.97 1.059 8.027 1.588 11.997z" fill="#ea552b"/>
<g fill-rule="evenodd">
<path d="M57.261 131.599c2.911-.088 3.617.882 2.911 2.999l-.245.659h0c-.255.711-.521 1.451-.99 1.988l-6.263 7.144c-.443.517-1.133.848-1.759 1.149h0l-.357.175c-1.411.529-2.823.352-3.969-.706-1.235-1.059-1.588-2.558-1.058-4.058.353-1.058.882-2.205 1.676-2.911 2.205-1.94 4.587-3.704 6.968-5.38.847-.494 1.919-.762 2.631-.94h0l.456-.119zm15.789 13.671c-.97 3.088 1.147 5.998 4.675 6.087 2.029 0 3.617-1.5 4.94-3.352l.702-1.019 2.562-3.921c.618-.97 1.147-2.117 1.411-3.264.529-1.94-.617-3.087-2.646-2.822-1.058.088-2.117.441-2.999.97-1.94 1.059-3.881 2.293-5.734 3.528-1.411.882-2.47 2.206-2.911 3.793zm-38.017-1.85l-.381 1.046c-.203.578-.359 1.02-.59 1.424l-1.114 1.665-3.473 4.863c-2.293 2.822-4.675 5.468-7.057 8.115-.706.794-1.5 1.499-2.47 2.028-1.499.794-2.999.706-4.322-.352-1.323-1.147-1.676-2.647-1.147-4.234.265-.882.794-1.853 1.5-2.47l1.461-1.339c3.456-3.176 6.877-6.319 10.976-8.717 1.059-.617 2.293-1.147 3.44-1.588.536-.178 1.153-.236 1.933-.31l1.243-.131zm18.17 24.433c-2.999-.088-5.204-2.911-4.41-5.822.265-1.058.882-2.205 1.588-2.911 2.734-2.734 5.557-5.38 8.556-7.85 1.235-1.059 2.999-1.588 4.587-2.029 2.382-.617 3.352.529 2.558 2.911-.088.22-.176.463-.265.705l-.265.706c-2.117 4.499-5.028 8.556-8.203 12.437-1.059 1.235-2.47 1.853-4.146 1.853zm-2.029 46.219c-.088 1.676-.706 3.44-1.676 5.116-2.117 3.617-4.851 6.704-7.762 9.703-1.411 1.411-3.087 1.941-5.028 1.323-2.293-.706-3.705-3.087-3.087-5.557.265-1.058.794-2.117 1.588-2.911 2.205-2.47 4.499-4.851 6.968-7.145 1.048-.973 2.351-1.692 3.584-2.373l.65-.361c.617-.353 1.323-.529 2.029-.618 1.941-.264 2.823.53 2.734 2.823zm16.646-13.658l-.416 1.048c.176 3.263 2.999 5.38 5.998 4.322 1.147-.353 2.293-.97 2.999-1.852 2.47-3 4.851-6.175 7.057-9.439.794-1.146 1.147-2.646 1.323-3.969.265-2.029-.882-3.087-2.911-2.646-.97.176-2.029.529-2.911 1.058-3.793 2.382-7.145 5.293-9.879 8.909-.572.763-.915 1.663-1.26 2.569zm-5.002 27.158c.176-.353.323-.725.47-1.098.294-.745.588-1.489 1.117-2.077 1.323-1.588 2.823-3.088 4.499-4.499 2.029-1.676 4.146-3.175 6.263-4.675h0c1.235-.794 2.558-1.588 3.881-2.029.706-.264 1.764-.088 2.382.353.882.529.794 1.588.353 2.47-.617 1.235-1.235 2.381-1.94 3.44-1.588 2.205-3.264 4.498-5.028 6.527-1.323 1.588-2.823 2.999-4.322 4.322-.706.618-1.676 1.059-2.646 1.324-2.734.793-4.94-1.147-5.028-4.058zm43.213-24.491l.096-.298c.177-3.176-1.411-4.675-3.881-4.234-1.235.353-2.558.97-3.528 1.764-2.47 2.117-4.763 4.41-7.057 6.704-.794.794-1.323 1.852-1.676 2.911-1.059 3.528 1.941 6.703 5.469 5.645 1.147-.265 2.205-.97 3.087-1.764 2.647-2.382 4.764-5.205 6.528-8.292.446-.818.767-1.823.962-2.436h0zm-33.07-30.73c-.529 2.205 1.147 4.146 3.881 4.146.176-.088.412-.177.673-.275.523-.196 1.15-.431 1.62-.784 1.147-1.058 2.205-2.205 3.087-3.44 1.411-1.94 2.735-3.969 3.969-5.998.82-1.388 1.55-2.82 2.286-4.266h0l.889-1.732c.265-.529.529-1.059.617-1.588.353-1.235-.265-1.852-1.411-1.411-.706.265-1.411.617-2.029 1.058-4.123 2.668-7.505 6.225-10.893 9.788l-.927.974c-.882.882-1.5 2.293-1.764 3.528zm-8.469 5.118c.706 1.059.441 2.029 0 2.823-.706 1.5-1.588 2.999-2.558 4.322l-.807 1.171c-1.323 1.924-2.667 3.878-4.133 5.71-.97 1.234-2.117 2.469-3.352 3.44-1.588 1.146-3.352 1.058-4.675 0-1.411-1.059-1.94-2.911-1.147-4.764.617-1.323 1.5-2.734 2.646-3.704 2.656-2.325 5.391-4.414 8.203-6.564h0l.529-.405c.97-.705 2.029-1.235 3.175-1.676.498-.249 1.04-.278 1.533-.305.206-.011.403-.022.584-.048zm-18.191-2.113h0 0v-.001h0 0 0l.197-.711c-.088-.088-.176-.154-.265-.22s-.176-.132-.265-.221l-.881.179c-.937.185-1.862.367-2.735.703-4.852 1.676-8.821 4.764-12.526 8.292-.529.529-.97 1.235-1.235 1.941-.617 1.587-.441 3.087.794 4.322s2.734 1.411 4.322.794c.706-.265 1.411-.706 1.941-1.235 2.117-1.941 4.146-3.881 5.998-5.998 1.349-1.587 2.483-3.46 3.597-5.296h0l.373-.614c.325-.585.506-1.265.684-1.935zm-22.561-1.414c-.172.573-.316 1.156-.46 1.736-.298 1.204-.592 2.396-1.128 3.468-1.235 2.646-2.558 5.204-4.146 7.586-.794 1.147-2.029 2.205-3.264 2.911-1.588.882-3.264.617-4.675-.618-1.411-1.323-1.588-2.911-.97-4.675l.103-.242c.233-.554.483-1.149.867-1.61l1.084-1.234c2.347-2.682 4.666-5.334 7.649-7.322.882-.618 1.941-1.147 2.999-1.5 1.235-.353 1.764.265 1.941 1.5zm88.561-.178c.264-1.588-.706-2.558-2.646-2.47-.181.06-.402.11-.64.164-.46.104-.982.221-1.389.454l-.446.334c-2.665 1.997-5.246 3.932-7.669 6.105-1.235 1.058-1.764 2.646-1.764 4.234-.088 3.616 3.263 5.733 6.351 3.881 1.146-.706 2.205-1.676 2.91-2.734 1.5-2.206 2.911-4.499 4.234-6.792.53-.971.882-2.117 1.059-3.176zm-71.978 23.461c.617 1.324.265 2.559-.265 3.617-.97 1.941-2.029 3.881-3.352 5.645-1.676 2.294-3.528 4.411-5.381 6.528-.529.617-1.235 1.235-1.941 1.587-2.205 1.235-4.675-.088-5.028-2.558-.265-1.499.265-2.822 1.235-3.881 3.969-4.41 8.556-8.203 13.937-10.761.103-.051.235-.073.397-.099a4.65 4.65 0 0 0 .397-.078zm4.916-46.745c.082-.327.17-.68.288-1.062l-.575.132c-.374.089-.561.133-.748.133l-.551.307c-.395.218-.76.419-1.125.663-3.666 2.372-6.687 5.388-9.732 8.428l-2.087 2.069c-1.059 1.058-1.676 2.293-1.764 3.793-.088 1.411.353 2.558 1.588 3.263 1.235.794 2.558.706 3.617-.088s1.941-1.852 2.734-2.911c1.411-1.94 2.646-3.969 3.881-5.998l1.048-1.874 2.833-5.183c.294-.47.431-1.019.595-1.672z" fill="#fbe8de"/>
<g fill="#000">
<path d="M101.511 136.352c.622 1.512 1.688 2.603 3.187 3.287-.757-1.385-2.058-2.254-3.187-3.287m19.924 1.319c-4.164 3.108-8.184 4.058-12.337 4.422-2.91.256-5.344-.985-7.164-3.277-1.551-1.952-2.819-4.059-3.464-6.517-.487-1.852-.108-3.581.551-5.269 1.225-3.137 2.178-6.476 5.053-8.621 3.59-2.679 7.554-4.377 12.15-4.026 1.947.149 3.628.775 4.609 2.727.974 1.938-.647 4.159-1.928 5.055-.593.415-1.241.135-1.794.092-2.517-.196-4.679.942-6.961 1.632-.469.142-.387.477-.243.812.935 2.172 2.275 3.794 4.904 3.848 1.393.029 2.778.147 4.158-.162.655-.146 1.124-.466 1.527-1.036.477-.676.939-1.683 2.085-.814.234.178.395-.008.505-.248.479-1.05 1.465-1.346 2.525-.769 2.146 1.167 2.543 5.081.682 6.672-.196.167-.429.353-.511.58-.921 2.532-3.204 3.795-4.347 4.899m17.093 24.9c-.57-1.135-1.353-2.078-2.464-2.703.598 1.106 1.207 2.198 2.464 2.703m16.294-20.147c-.675-.163-.916-.888-1.626-.762-.017.515.557.569.701.904.201.468.938 1.197-.4 1.16-.099-.002-.244-.069-.214.116.251 1.54-1.08 1.205-1.82 1.463-.772.27-1.589.422-2.277.891l-2.857 2.014c-1.152.846-1.172 1.134-.239 2.208 1.61 1.854 4.04 2.226 5.999.754 1.605-1.207 3.401-2 5.223-2.746.939-.384 1.943-.34 2.735.443.932.922 1.374 2.909.721 3.968-1.1 1.781-2.299 3.534-3.819 4.973-3.002 2.841-6.392 5.12-10.324 6.519-1.535.546-3.133.936-4.736.918-2.107-.025-3.816-1.101-5.205-2.671-1.755-1.984-3.161-4.099-2.979-6.936.04-.621.282-1.168.46-1.699 1.179-3.5 1.961-7.243 4.802-9.903 3.271-3.063 7.136-4.984 11.652-5.396 1.566-.144 3.028.147 3.888 1.693.351.632.567 1.299.315 2.089m-54.661 27.744c.198 1.31 1.42 2.909 2.486 3.324-.74-1.167-1.424-2.296-2.486-3.324m17.715 3.198a17.09 17.09 0 0 1-11.021 3.515c-1.758-.054-3.314-.725-4.608-1.885-2.224-1.994-3.651-4.461-4.161-7.432-.297-1.728.175-3.304.692-4.941.963-3.042 2.813-5.527 4.776-7.907 2.245-2.723 5.294-4.111 8.789-4.675 1.201-.194 2.309-.531 3.491.001.901.406 1.199 1.193 1.432 2.033.056.202.043.586-.067.645-1.555.83-1.877 2.891-3.591 3.558-.663.259-1.298.595-1.936.916-1.773.89-2.329 2.598-1.337 4.363.966 1.719 2.452 2.77 4.46 2.821 1.654.043 3.284-.244 4.831-.88 1.285-.528 2.497-.083 3.13 1.159 1.053 2.062.884 2.882-.915 4.47-.112.098-.267.2-.3.327-.473 1.821-2.126 2.548-3.665 3.912m51.344 2.077c.299.752.499 1.574 1.396 1.824-.387-.676-.676-1.421-1.396-1.824m12.934-11.186c.554 1.68-1.031 1.167-1.641 1.611-.3.217-.889.112-.973.669-.082.543.231.932.669 1.212 1.953 1.25 4.044 1.187 6.045.316l4.474-1.702c1.315-.571 2.751.161 3.312 1.495.669 1.593.534 2.986-.775 4.208-1.557 1.453-2.869 3.123-4.689 4.345-4.233 2.844-8.797 4.331-13.904 4.09-4.763-.225-8.184-4.734-6.939-9.358.404-1.5.994-3.044 2.252-4.162.207-.184.322-.493.433-.764 1.842-4.507 5.455-6.758 10.01-7.648 3.117-.608 4.32 1.315 4.27 3.614-.006.287.012.666-.287.814-.384.191-.459-.276-.68-.435-.211-.151-.418-.422-.677-.184-.271.247.018.465.141.683.225.395.476.798.144 1.249-.358.486-.738-.043-1.185-.053M74.4 144.488c-.44.012-.614.327-.429.647.29.503.431-.038.641-.164.3-.181.215.081.289.241.164.352.435.12.427-.066-.012-.311-.107-.684-.306-.904-.235-.26-.459.016-.623.246m-4.561 1.478c-.291-.877-1.739-1.079-.93-2.319-.487.344-1.409.573-.977 1.117.394.496.904 1.303 1.907 1.202m5.705 2.457c.063.759.794.396 1.168.978a5.34 5.34 0 0 0-3.122-.026c-.678.188-1.588-.394-2.215-.732-2.22-1.199-4.241-2.756-5.786-4.796-.468-.617-.507-1.507-.934-2.201a.5.5 0 0 1 .164-.696c.067-.043.266-.013.292.039.211.424.433.668.789.13.159-.24.484-.426.358-.777-.222-.615-.662.307-.911-.112-.589-.148 1.334-.778-.159-.743.003-.068-.017-.151.014-.201.689-1.105.553-2.446 1.091-3.63.513-1.127.84-2.339 1.527-3.405 2.063-3.202 4.769-5.683 8.227-7.287 1.798-.834 3.163-.289 3.918 1.364.259.566.285 1.128.002 1.629-1.069 1.893-1.756 4.088-4.155 4.917-.742.256-1.148 1.071-1.337 1.865-.117.49-.066.95.492 1.239 1.066.553 2.109 1.114 3.361 1.149.894.025 1.784.18 2.678.249 1.235.094 2.342-.43 3.322-1.022 1.495-.901 2.81-.464 3.158 1.285.141.711.153 1.493-.215 2.098-.973 1.601-1.833 3.245-3.146 4.671-1.282 1.394-2.683 2.53-4.245 3.53-.68.436-1.551.422-2.196.971-.119.102-.592-.005-.724-.163-.427-.513-.933-.202-1.418-.323m66.16 34.118c-.972-.146-1.144-.271-.913-.72.313-.607-.036-1.452-.662-1.57-.383-.072-.667.136-.73.481-.098.537 1.71 1.978 2.305 1.809m-5.84 6.356c.08-.586-.563-.997-.465-1.338.341-1.189-.93-.917-1.246-1.488-.055-.1-.651-.21-.816.062s-.034.862.172.913c1.059.261 1.371 1.42 2.355 1.851m2.326-4.616c-.261-.375-.583-.8-1.134-.497-.649.356.015.715.08 1.08.079.454.614.526.717.876.113.382.335.504.639.454.443-.073.464-.544.613-.854.157-.328-.206-.427-.421-.534s-.543-.077-.494-.525m14.802.656c.139.623.178 1.204-.254 1.624-.336.326-.456-.251-.854-.287.701 1.03-.333 1.465-.78 1.622-1.176.413-1.851 1.437-2.884 2.003l-2.085 1.08c-.694.415-.104-.67-.395-.977-.323-.04-.519.12-.471.432.048.321.371.721.016.925-.432.248-1.133.572-1.435.392-.814-.487-1.399.178-1.693.453-.634.595-.776.214-.937-.234-.232-.648-.635-.848-1.235-.583-.765.338-1.19-.489-1.899-.488-.694 0-1.387-.282-2.043.255-.55-1.005.57-1.159.803-1.88-1.71 1.024-2.535-.19-3.428-1.185-.297-.331-.449-.837-.797-1.065-.73-.478-.376-.659.348-.922-.983.145-1.472-.021-1.245-.968.082-.343-.173-.631-.304-.941-.241-.57-.17-.712.472-1.15.181-.124.083-.224.055-.369-.29-1.497.305-2.661 1.535-3.553.586-.424 1.697-.854.805-1.972-.122-.155-.024-.274.049-.403 1.508-2.69 3.94-3.902 6.886-4.194 1.36-.135 2.853.941 3.244 2.289.128.441.062 1.06-.167 1.449s-.627.107-.915-.203c-.224-.242-.394.004-.528.185-.225.304-.16.556.144.762.738.501.735.735-.129 1.231-.633.364-.266 1.375-.249 2.075.011.474.597.312.932.215.242-.069.461-.066.65.032 1.829.945 3.409.065 4.978-.707l2.17-1.169 2.297-.895c1.232-.481 1.879.355 2.421 1.211.35.554.543 1.212.765 1.838.054.151.007.47-.096.526-.892.486-.791 1.866-1.994 2.13-.304.067-.54.717-.693 1.14-.29.804-.298.832-1.06.276"/>
<path d="M141.516 132.782c-.87-.505-1.627-.757-2.476-.623.762.228 1.374 1.084 2.476.623m9.007-10.83c.625.602 1.279.646 1.874.809 1.154.315 1.398 1.072.569 2.002-.36.404-.582.598-.284 1.267.294.659-.437 1.376-.785 2.019-1.075 1.984-2.627 3.56-4.524 4.758-2.531 1.598-5.219 1.691-7.996.67-1.272-.467-2.308-1.143-2.994-2.389-.326-.593-.202-1.158-.294-1.729-.316-1.964-.762-3.907-.813-5.915-.055-2.161 2.425-6.492 4.889-7.18 1.58-.441 2.884-.214 4.06.872.676.623.611 1.176-.247 1.871a2.03 2.03 0 0 0 1.525-.042c1.192-.466 2.426-.78 3.699-.973 1.51-.229 2.72.319 3.813 1.277.429.375.695.866.53 1.399-.159.517-.599.797-1.197.857-.551.056-1.088.248-1.825.427m23.1 15.332c1.698-.354 3.216-1.048 4.876-.715.254.051.538.051.756.17.519.283 1.252.591 1.196 1.196-.048.525-.679.895-1.279 1.074-.289.086-.818.017-.746.478.061.39.55.289.872.336.186.027.38.008.562.045.341.068.831-.13.955.37.1.398.072.833-.278 1.151-.323.296-.655.528-.022.908.323.193.099.65.002.949-1.071 3.301-3.172 5.328-7.046 4.798l-3.546-.532c-.65-.097-.968-.553-1.13-1.118-.183-.638.622-.384.79-.848-1.201.077-1.447-.5-1.32-1.591.079-.676.192-1.5-.671-2.05-.318-.203-.388-.97-.381-1.477.036-2.538.941-4.698 3.022-6.244.825-.613 1.763-.869 2.744-.292.188.111.505.379.486.411-.596 1.011.561 1.893.158 2.981"/>
</g>
</g>
</svg>
