<svg xmlns="http://www.w3.org/2000/svg" width="173" height="196" fill="none" xmlnsV="https://vecta.io/nano"><path d="M52.391 96.064c1.18-.386 1.709-1.288 2.239-2.189l6.941-12.296c4.279-7.537 8.174-15.398 13.089-22.597 2.884-4.242 6.182-8.235 10.338-11.373 1.975-1.525 4.215-2.858 6.575-4.058 1.165-.563 2.567-.862 3.836-1.041 3.748-.392 6.262 1.891 6.403 5.625.124 2.701-.579 5.33-1.4 7.826-1.76 5.288-4.156 10.238-6.847 15.071-2.132 3.857-4.146 7.847-6.086 11.866L80.323 98.1c-.999 2.084-1.777 4.255-1.831 6.543-.057 1.004-.202 2.23.773 2.789.931.455 1.785-.403 2.522-.965l8.399-6.926c2.107-1.643 4.215-3.286 6.485-4.693 1.828-1.155 3.864-1.972 5.825-2.817 1.106-.416 2.301-.625 3.512-.657 3.409-.184 5.671 1.656 6.416 4.946.865 3.851-.087 7.321-2.058 10.558-3.119 5.262-7.257 9.433-12.284 12.824-3.508 2.369-7.297 4.37-11.354 5.751-.974.298-1.903.698-2.906 1.069-6.8 2.259-12.637 6.183-18.148 10.578-3.006 2.398-4.874 5.59-6.771 8.857-2.691 4.832-4.318 10.002-6.345 15.099l-4.566 11.7c-.587 1.477-1.396 2.867-2.176 4.182-.691 1.094-1.767 1.864-3.11 2.014-3.527.48-6.878.088-9.747-2.164-2.173-1.634-2.931-3.817-2.257-6.372.322-1.24.866-2.393 1.41-3.545.779-1.744 1.705-3.429 2.336-5.231l5.972-16.53c1.056-3.087 1.935-6.159 2.918-9.276.498-1.684.333-3.204-.792-4.677-1.761-2.24-3.39-4.599-5.254-6.794-4.514-5.644-6.624-11.957-6.816-19.219-.252-7.542.692-14.866 2.61-22.058.701-3.485 1.726-7.355 3.756-10.739.971-1.581 1.942-3.163 3.105-4.582 1.06-1.375 2.475-2.352 4.097-2.99 2.832-1.098 5.668-.056 6.796 2.701.712 1.652 1.085 3.511 1.281 5.385.468 4.634.079 9.27-.458 13.847l-.623 5.655c-.13 1.403.05 2.672 1.351 3.702z" fill="#4ca96d"/><path fill-rule="evenodd" d="M86.718 44.857h0c-1.177.899-2.333 1.782-2.857 3.102-.691 1.522-.481 2.717.45 3.601.961.81 2.747.836 3.897.095 1.651-1.14 2.529-4.64 1.595-6.38-.519-1.062-1.701-1.531-2.467-.895l-.619.478zM98.37 57.466l-.318.413-.177.754h0l-.334 1.608c-.116 1.152.182 2.125 1.202 2.787 1.094.691 2.156.601 3.247.008 1.195-.637 1.812-1.76 2.134-3.001.249-.842.292-1.595-.58-2.198-.266-.191-.37-.575-.401-.929-.225-1.8-1.599-2.432-3.073-1.307-.698.547-1.244 1.266-1.699 1.864zm-58.464 6.377c.44-1.557 1.543-2.475 2.624-3.376l1.336-1.209c.663-.592 1.431-.372 1.994.365.696 1.047.684 2.154.391 3.32-.263 1.093-.35 2.171-.214 3.336.284 1.653-1.011 3.618-2.633 4.257-1.932.772-3.957-.375-4.109-2.574.018-.905.193-1.824.368-2.743l.243-1.377zm-9.02 54.753l2.311-3.016c.56-.547 1.341-1.006 2.153-1.112.915-.149 1.653-.284 2.508-.713.885-.504 1.668-.107 1.862.911.164.664.195 1.446-.04 2.037-.499 1.256-.998 2.511-1.837 3.546-.794 1.046-1.818 1.999-2.798 2.912l-.003.002-.381.355c-.928.829-2.242.906-3.188.273-1.02-.662-1.391-1.665-1.275-2.817.085-.525.247-1.019.447-1.629l.241-.749zm42.571 15.668l-.175-.52c.912-1.434 1.029-2.158.274-3.056-.666-.693-1.714-.853-2.776-.334-.052.022-.111.063-.17.104s-.118.081-.169.103c-2.137 1.717-3.372 3.964-3.277 6.738.018 1.462 1.009 2.626 2.25 2.948 1.315.351 2.907-.213 3.702-1.351.765-1.065.984-2.261.657-3.589-.078-.365-.199-.711-.316-1.043zm41.779-33.116l-.399.672c-.342.589-.702 1.209-1.146 1.708-.913 1.006-2.211 1.26-3.26.671-.976-.559-1.465-1.694-1.217-2.964.161-.62.47-1.182.778-1.743h0l.499-1.114h0l.691-1.663c.396-1.211 1.015-1.906 2.048-1.923.959-.046 2.009.542 2.35 1.619a6.09 6.09 0 0 1 .3 2.258l-.115.417h-.001l-.528 2.064zm-67.533-8.711c1.679-1.642.963-5.006-1.253-5.887-.783-.397-1.61-.469-2.154.256-1.06 1.375-2.075 2.853-2.869 4.42-.676 1.271-.216 2.48.774 3.216s2.275.733 3.38-.111c.737-.562 1.429-1.228 2.122-1.894zm52.255 29.07c-.618 1.123-1.324 2.039-2.489 2.603-2.094.964-4.266-.242-4.493-2.47-.196-1.875.524-3.47 1.998-4.595 1.105-.844 2.257-.728 3.263.185.151.108.259.255.36.391.077.104.149.202.232.272.131.11.311.22.493.331.353.216.714.436.734.67.147.688.056 1.397-.038 2.125l-.06.488zm-48.057-.971l.29.206.364-.044c.57-.062 1.223-.134 1.657-.521.737-.563 1.488-1.376 1.988-2.204.162-.249.258-.536.356-.829.17-.507.346-1.033.879-1.417.236-.163.308-.99.145-1.226-.636-.766-1.347-1.562-2.189-2.239-.266-.191-.871-.175-1.107-.012l-.538.343h-.001c-.985.624-1.988 1.26-2.822 2.085-.854.858-.788 4.135.04 5.063.228.298.543.519.937.795h0 0zm15.858-22.605c-.484 1.433-1.56 2.203-2.843 2.634-2.035.816-3.898-.524-3.976-2.693-.048-1.815 1.571-4.166 3.267-4.775 1.799-.653 3.928.877 3.888 2.914-.013.679-.174 1.299-.335 1.92zM89.753 77.67c-.441 1.108-1.25 2.069-2.46 2.529-1.416.549-3.1.051-3.855-1.276-.785-1.253-.507-2.597.715-3.736.56-.547 1.046-1.124 1.532-1.701.81-.961 1.931-1.2 2.996-.434 1.257.927 1.777 2.845 1.073 4.618zm6.271 26.618c-1.581-.543-2.234-2.343-1.174-3.718.868-1.109 2.032-2.1 3.256-2.811 1.43-.8 2.465.039 2.941 1.854.343 1.505-.423 2.57-1.41 3.546-1.149 1.169-2.432 1.599-3.614 1.13zM75.079 118.46c-1.034-.411-2.184.33-2.742 1.733-.749 1.67-.259 3.233 1.145 3.791 1.211.396 2.863-.316 3.465-1.616.587-1.477-.288-3.365-1.868-3.908z" fill="#000"/><path d="M68.364 28.564l-2.025 5.331c-1.356 3.31-3.339 6.184-5.749 8.797-.489.507-1.036.991-1.619 1.397a26.29 26.29 0 0 1-5.638 3.035c-1.24.485-2.518.725-3.842.651-1.353-.085-2.705-.17-4.054-.353-1.991-.229-3.769-1.102-5.464-2.109-.353-.2-.723-.44-1.065-.668-1.731-1.086-3.117-2.47-4.116-4.268-1.235-2.217-2.539-4.427-2.99-6.973-.412-2.3-.825-4.6-.677-6.984.134-1.829.2-3.65.391-5.457.105-.883.322-1.889.632-2.793.497-1.394 1.108-2.745 1.663-4.117.434-1.055.81-2.133 1.233-3.159.131-.346.234-.703.394-1.037.452-1.016 1.354-1.134 2-.23.441.662.831 1.371 1.084 2.094.517 1.417.926 2.858 1.374 4.281.274.928.479 1.864.753 2.792a11.67 11.67 0 0 0 .836 1.966c.544.998 1.182 1.142 2.091.399.616-.492 1.166-1.074 1.66-1.678l5.956-7.432c1.266-1.597 2.596-3.103 4.107-4.474.264-.262.547-.485.905-.646.727-.35 1.501.042 1.595.837a4.06 4.06 0 0 1-.151 1.526c-.319 1.099-.724 2.165-1.06 3.225-.823 2.688-1.492 5.402-1.861 8.197-.082.563-.066 1.129-.05 1.695.05.909.368 1.723.913 2.457.341.492.809.736 1.419.605s1.203-.302 1.759-.552c1.659-.722 3.189-1.624 4.641-2.755l4.496-3.502c.424-.334.876-.656 1.364-.9 1.016-.504 1.901.03 1.961 1.174.031 1.133-.269 2.272-.635 3.32-.662 2.09-1.41 4.147-2.101 6.226-.073.104-.101.093-.13.082z" fill="#ee8db9"/><path d="M147.358 72.41l-.041-.293-7.397.842.051.366 7.387-.916zm-13.444 18.059c-1.524-.734-2.187-1.679-2.499-2.968-1.729-7.156 1.898-15.97 11.974-16.266 4.783-.141 8.583-1.866 10.855-6.472.792-1.604 1.789-3.128 2.881-4.535.497-.641 1.433-1.172 2.206-1.228.369-.026 1.098 1.138 1.176 1.822.13 1.136.196 2.499-.293 3.451-1.44 2.804-2.99 5.589-4.831 8.125-1.704 2.348-4.174 3.473-7.076 4.178-2.908.706-5.867.117-8.76 1.163-2.691.973-5.824 5.739-5.645 8.76.072 1.221.012 2.451.012 3.97zm7.342 8.413c-.074-.971-.4-2.003-.179-2.905 1.066-4.367 7.163-7.702 11.254-5.761 5.572 2.643 9.646.586 13.611-3.05 1.343-1.231 2.904-2.271 4.496-3.176.45-.255 1.782.084 1.972.488.414.877.848 2.455.404 2.897-2.626 2.61-5.262 5.339-8.359 7.327-3.342 2.146-7.209 2.879-11.128.843-1.743-.905-3.499-1.833-5.673-1.282-2.346.594-4.057 1.867-5.238 3.906-.149.259-.35.489-.527.733l-.633-.021zm26.595 18.707l-.055-.356h-11.322l-.005.356h11.382zm-26.85-4.881l.124-2.764c1.253 1.898 2.48.19 3.597.12h-1.805c-.425-.823 1.998-.47.193-1.675 2.28-.386 4.347-1.115 5.999.615.717.751 2.203 1.189 2.119 3.024.064.048.65.285.921.718 2.187 3.492 5.599 3.775 9.206 3.607 1.963-.091 3.946-.378 5.883-.187 1.471.145 2.933.792 4.305 1.42 1.318.604 1.427 2.043 1.458 3.254.009.359-1.114 1.1-1.676 1.061-3.661-.253-7.311-.673-10.992-.919l2.438-.163.027-.259c-.37-.057-.759-.058-1.104-.181-.617-.22-1.232-.469-1.802-.787-.628-.351-1.204-.795-1.94-.896l.695 1.406c-.744.211-1.156.389-1.58.429s-.981.096-1.262-.128c-1.249-.994-2.751-1.547-3.593-3.219-1.05-2.089-2.729-3.866-4.171-5.752-.201-.262-.606-.55-.9-.533-1.62.093-3.245.22-4.846.471-.369.058-.654.651-1.294 1.338z" fill-rule="evenodd" fill="#000"/></svg>