<?xml version="1.0" encoding="UTF-8"?>
<svg fill="none" width="54" height="54" viewBox="0 0 54 54" xmlns="http://www.w3.org/2000/svg">
<path d="M44.651 39.243L22.705 49.781c-.135.067-.287.101-.439.101-.186 0-.371-.051-.54-.152a1.01 1.01 0 0 1-.473-.861V38.433L9.399 33.472a1.01 1.01 0 0 1-.624-.937V5.13a1.02 1.02 0 0 1 .473-.861c.295-.186.667-.202.979-.059l22.815 10.952 10.741-5.155c.312-.152.683-.127.979.059a1.01 1.01 0 0 1 .472.861v27.405a1.03 1.03 0 0 1-.582.911zM10.8 6.742V31.86l10.454 4.379v-5.046l-6.573-2.649c-.515-.211-.768-.802-.565-1.316.211-.523.802-.768 1.316-.565l5.822 2.346v-4.143l-6.573-2.649c-.515-.211-.768-.802-.565-1.316.211-.523.802-.768 1.316-.565l5.822 2.346v-1.207c0-.388.219-.743.574-.911l1.502-.726-8.699-3.957a1.02 1.02 0 0 1-.506-1.342c.228-.506.835-.734 1.342-.506l10.235 4.666 4.986-2.396L10.8 6.742zm32.4 5.797l-19.921 9.568v2.05 6.328 16.782L43.2 37.69V12.538zM27.084 25.633L38.5 20.115c.506-.245 1.105-.034 1.35.473s.034 1.114-.472 1.35l-11.416 5.518a1.04 1.04 0 0 1-.439.101 1.01 1.01 0 0 1-.911-.574c-.236-.498-.025-1.105.473-1.35zm0 6.328L38.5 26.443c.506-.245 1.105-.034 1.35.473s.034 1.114-.472 1.35l-11.416 5.518a1.04 1.04 0 0 1-.439.101 1.01 1.01 0 0 1-.911-.574 1.02 1.02 0 0 1 .473-1.35zm0 6.32L38.5 32.763c.506-.245 1.105-.034 1.35.473s.034 1.114-.472 1.35l-11.416 5.518a1.04 1.04 0 0 1-.439.101 1.01 1.01 0 0 1-.911-.574c-.236-.498-.025-1.105.473-1.35z" fill="#000"/>
</svg>
