<?xml version="1.0" encoding="UTF-8"?>
<svg width="46" height="32" viewBox="0 0 46 32" xmlns="http://www.w3.org/2000/svg">
<path d="m33.437 0.052896c-2.489 0.19537-4.5764 1.0811-6.1304 2.605-1.6001 1.5695-2.3639 3.4841-2.3639 5.9132 0 3.6339 1.5079 6.1737 4.8727 8.1861 0.856 0.5079 2.0215 1.0615 4.0364 1.9211 2.7459 1.1657 3.7665 1.7193 4.4184 2.4096 0.8033 0.8531 1.0272 2.2142 0.5202 3.2562-0.0988 0.2019-0.3556 0.5405-0.586 0.7684-0.777 0.775-2.0018 1.1853-3.5229 1.1853-2.568 0-4.4842-1.042-6.025-3.2953-0.2107-0.2995-0.4017-0.547-0.428-0.547-0.0593 0-5.0703 2.8589-5.1756 2.9566-0.0659 0.0586-0.0132 0.1954 0.2436 0.6122 2.0018 3.3343 5.1295 5.288 9.3569 5.8481 1.1063 0.1498 3.1805 0.1433 4.2406 0 2.6602-0.3712 4.6554-1.2439 6.2028-2.7287 1.6462-1.5695 2.4561-3.6013 2.4561-6.1477 0-1.6281-0.27-2.898-0.8823-4.1549-0.4215-0.8596-0.8429-1.4392-1.5672-2.1686-1.3894-1.3937-3.187-2.4487-6.7757-3.9726-2.7129-1.1527-3.6216-1.6476-4.2208-2.2793-0.5729-0.60565-0.8165-1.3155-0.7638-2.2012 0.0461-0.70334 0.2436-1.1787 0.6782-1.6411 0.6255-0.67077 1.3499-0.95081 2.4693-0.94429 1.2708 0 2.0939 0.32561 2.9302 1.1592 0.2963 0.28654 0.6782 0.74892 0.856 1.029 0.2041 0.3191 0.3556 0.49494 0.4082 0.4754 0.1712-0.07164 4.9583-3.1324 4.9583-3.178 0-0.02605-0.2436-0.40377-0.5399-0.84661-0.6321-0.93778-1.7713-2.11-2.5549-2.6245-1.4486-0.95081-2.996-1.4392-5.0373-1.589-1.0009-0.078149-1.1326-0.078149-2.0742-0.0065124z"/>
<path d="m12.939 11.886-0.0197 11.514-0.1449 0.5405c-0.191 0.7099-0.4148 1.1332-0.8099 1.5239-0.5531 0.5471-1.2643 0.775-2.4496 0.7815-1.6923 0.0065-2.7063-0.7033-3.885-2.6961-0.19096-0.3126-0.36216-0.5666-0.38191-0.5601-0.02634 0.0131-1.2182 0.7229-2.6471 1.576l-2.601 1.563 0.19754 0.3907c1.1787 2.325 3.2199 4.0833 5.676 4.8908 2.5944 0.8532 5.9263 0.775 8.3692-0.1953 2.9302-1.1723 4.6488-3.5949 5.1032-7.1962 0.0395-0.3647 0.0658-4.4349 0.0658-12.094v-11.546h-6.4464l-0.0264 11.507z"/>
</svg>
