<?xml version="1.0" encoding="UTF-8"?>
<svg width="48" height="48" viewBox="0 0 48 48" xmlns="http://www.w3.org/2000/svg">
<path d="m23.96 27.984c2.218 0 4.016-1.798 4.016-4.016 0-2.2179-1.798-4.016-4.016-4.016s-4.016 1.7981-4.016 4.016c0 2.218 1.798 4.016 4.016 4.016z"/>
<path d="m23.96 33.168c-5.64 0-10.568-0.664-14.256-1.928-2.392-0.816-4.424-1.904-5.872-3.144-1.536-1.312-2.352-2.744-2.352-4.128 0-2.656 2.912-5.256 7.8-6.952 4-1.392 9.216-2.168 14.672-2.168 5.36 0 10.504 0.752 14.48 2.128 2.328 0.8 4.288 1.84 5.68 2.992 1.512 1.264 2.312 2.648 2.312 4 0 2.76-3.256 5.552-8.504 7.288-3.712 1.232-8.672 1.912-13.96 1.912zm0-16.4c-5.176 0-10.296 0.752-14.04 2.056-4.496 1.568-6.512 3.712-6.512 5.144 0 1.488 2.168 3.832 6.92 5.456 3.488 1.192 8.208 1.824 13.632 1.824 5.088 0 9.832-0.64 13.36-1.816 4.936-1.64 7.192-3.984 7.192-5.464 0-0.76-0.576-1.656-1.624-2.528-1.208-1.008-2.968-1.928-5.072-2.656-3.784-1.296-8.704-2.016-13.856-2.016z"/>
<path d="m14.848 43.984c-0.816 0-1.536-0.176-2.144-0.528-2.296-1.328-3.096-5.152-2.128-10.232 0.792-4.168 2.728-9.064 5.456-13.792 2.68-4.64 5.896-8.72 9.072-11.48 1.856-1.616 3.736-2.8 5.432-3.424 1.848-0.68 3.448-0.68 4.616-8e-3 2.392 1.376 3.184 5.6 2.064 11.008-0.792 3.84-2.68 8.472-5.32 13.056-2.816 4.88-5.856 8.816-8.792 11.384-1.904 1.664-3.864 2.88-5.656 3.512-0.936 0.336-1.816 0.504-2.6 0.504zm2.008-24.072 0.832 0.48c-2.584 4.48-4.496 9.288-5.232 13.192-0.888 4.68-0.032 7.496 1.2 8.208 0.304 0.176 0.704 0.272 1.192 0.272 1.592 0 4.096-1.008 6.992-3.536 2.776-2.424 5.68-6.2 8.392-10.896 2.544-4.408 4.352-8.84 5.104-12.48 1.048-5.096 0.144-8.216-1.144-8.96-0.656-0.376-1.72-0.328-3 0.144-1.48 0.544-3.152 1.608-4.832 3.072-3.016 2.624-6.096 6.528-8.672 10.992l-0.832-0.488z"/>
<path d="m33.072 44.008c-2.176 0-4.936-1.312-7.816-3.792-3.216-2.768-6.488-6.888-9.224-11.616-2.688-4.64-4.608-9.464-5.416-13.6-0.472-2.416-0.56-4.632-0.256-6.416 0.336-1.944 1.128-3.328 2.304-4.008 2.384-1.384 6.44 0.04 10.568 3.712 2.928 2.6 6 6.552 8.648 11.128 2.824 4.88 4.72 9.48 5.472 13.304 0.488 2.48 0.568 4.784 0.224 6.656-0.368 1.992-1.2 3.408-2.4 4.104-0.6 0.352-1.312 0.528-2.104 0.528zm-15.376-16.368c2.592 4.48 5.808 8.536 8.816 11.12 3.608 3.104 6.472 3.776 7.712 3.056 1.288-0.744 2.232-3.792 1.256-8.72-0.72-3.616-2.536-8.016-5.256-12.712-2.552-4.408-5.488-8.192-8.264-10.656-3.888-3.456-7.04-4.232-8.328-3.488-0.656 0.376-1.144 1.328-1.376 2.672-0.264 1.552-0.184 3.536 0.248 5.72 0.768 3.928 2.608 8.544 5.192 13.008z"/>
</svg>
