<?xml version="1.0" encoding="UTF-8"?>
<svg fill="none" width="42" height="48" viewBox="0 0 42 48" xmlns="http://www.w3.org/2000/svg">
<g clip-path="url(#a)" fill="#000">
<path d="M28.652 5.677l-1.419.422a11.23 11.23 0 0 0-.69-1.688c-.997-1.918-2.493-2.953-4.258-2.953-.115 0-.23 0-.384.038-.038-.077-.115-.115-.153-.192C20.981.46 19.984.077 18.795.115c-2.301.077-4.603 1.726-6.444 4.679-1.304 2.071-2.301 4.679-2.57 6.712l-4.526 1.419c-1.342.422-1.381.46-1.534 1.726-.23.959-3.721 28-3.721 28l28.997 5.025V5.6c-.153.038-.268.038-.345.077zM21.94 7.748l-4.871 1.496c.46-1.803 1.381-3.605 2.455-4.795.422-.422.997-.921 1.649-1.227.652 1.381.806 3.26.767 4.526zm-3.107-6.099c.537 0 .997.115 1.381.345-.614.307-1.227.805-1.803 1.381-1.458 1.573-2.57 4.027-3.03 6.367l-4.027 1.227c.805-3.644 3.912-9.205 7.479-9.321zm-4.488 21.096c.153 2.455 6.636 2.992 7.019 8.784.268 4.564-2.416 7.671-6.29 7.901-4.679.307-7.249-2.455-7.249-2.455l.997-4.219s2.57 1.956 4.641 1.803c1.343-.077 1.841-1.189 1.803-1.956-.192-3.222-5.485-3.03-5.83-8.323-.307-4.411 2.608-8.899 9.052-9.32 2.493-.153 3.759.46 3.759.46l-1.458 5.523s-1.649-.767-3.605-.614c-2.838.192-2.877 1.995-2.838 2.416zm9.129-15.458c0-1.151-.153-2.8-.69-4.181 1.764.345 2.608 2.301 2.992 3.49-.69.192-1.458.422-2.301.69zm6.482 40.236L42 44.532l-5.216-35.25c-.038-.23-.23-.384-.422-.384s-3.567-.077-3.567-.077L29.956 6.06v41.463h0z"/>
</g>
<defs>
<clipPath id="a">
<path d="M0 0h42v47.753H0z" fill="#fff"/>
</clipPath>
</defs>
</svg>
