<?xml version="1.0" encoding="UTF-8"?>
<svg width="64" height="64" viewBox="0 0 64 64" xmlns="http://www.w3.org/2000/svg">
<path d="M64 62.08C64 63.136 63.136 64 62.08 64H1.92C0.864 64 0 63.136 0 62.08V1.92C0 0.864 0.864 0 1.92 0H62.08C63.136 0 64 0.864 64 1.92V62.08Z" fill="#fff"/>
<path d="m43.344 26.816s-3.248 10.176-3.488 11.04c-0.096-0.848-2.464-19.136-2.464-19.136-5.536 0-8.48 3.936-10.048 8.096 0 0-3.952 10.208-4.272 11.056-0.016-0.8-0.608-10.96-0.608-10.96-0.336-5.104-4.992-8.192-8.768-8.192l4.544 27.696c5.792-0.016 8.912-3.936 10.544-8.112 0 0 3.472-9.008 3.616-9.408 0.032 0.384 2.496 17.52 2.496 17.52 5.808 0 8.944-3.664 10.624-7.68l8.144-20.016c-5.744 0-8.768 3.92-10.32 8.096z"/>
</svg>
