<?xml version="1.0" encoding="UTF-8"?>
<svg fill="none" width="58" height="22" viewBox="0 0 58 22" xmlns="http://www.w3.org/2000/svg">
<g clip-path="url(#a)" fill="#000">
<path d="m32.932 0.41813c-1.1101 0.54545-1.5911 1.5636-1.5911 4.3273 0 0 0.555-0.54545 1.4431-0.87272 0.6475-0.23637 1.11-0.54546 1.4431-0.78182 0.962-0.70909 1.11-1.5636 1.11-3.0545-0.0185 0-1.5356-0.090909-2.4051 0.38182z"/>
<path d="m26.142 1.0547c-0.9621 0.78182-1.2026 2.1273-1.2026 2.1273l-3.1082 11.709-2.5531-9.5818c-0.2406-1.0182-0.7216-2.2727-1.4431-3.1455-0.8881-1.1091-2.7382-1.1818-2.9602-1.1818-0.1665 0-1.9981 0.072727-2.9602 1.1818-0.7215 0.87273-1.2026 2.1273-1.4431 3.1455l-2.4051 9.5818-3.1082-11.709s-0.24052-1.2545-1.2026-2.1273c-1.5171-1.3455-3.7557-1.0182-3.7557-1.0182l5.9204 21.909s1.9241 0.1636 2.8862-0.3091c1.2766-0.6363 1.9241-1.0909 2.6457-4.0909 0.7215-2.6727 2.6456-10.455 2.7937-11 0.074-0.23636 0.2405-0.94546 0.7215-0.94546s0.6475 0.63637 0.7215 0.94546c0.1666 0.54545 2.0722 8.3273 2.7937 11 0.7956 2.9818 1.3506 3.4546 2.6457 4.0909 0.962 0.4727 2.8861 0.3091 2.8861 0.3091l5.8834-21.909s-2.2386-0.30909-3.7557 1.0182z"/>
<path d="m35.319 3.5636s-0.407 0.54545-1.2025 1.0182c-0.5551 0.30909-1.0361 0.47273-1.5911 0.78182-0.9621 0.47273-1.2026 0.94545-1.2026 1.6545v14.855s1.5171 0.1636 2.4791-0.3091c1.2766-0.6364 1.5171-1.2545 1.5171-3.9273v-14.073z"/>
<path d="m50.027 11.036 7.5115-10.927s-3.1082-0.54546-4.7178 0.87273c-1.0361 0.87273-2.0722 2.5091-2.0722 2.5091l-2.7196 3.9273c-0.1665 0.23637-0.3145 0.4-0.555 0.4-0.2406 0-0.4811-0.23636-0.5551-0.4l-2.7196-3.9273s-1.1101-1.5636-2.0722-2.5091c-1.5911-1.4182-4.7178-0.87273-4.7178-0.87273l7.271 10.909-7.4375 10.909s3.2747 0.4 4.8843-1.0182c1.0361-0.8727 1.9981-2.3636 1.9981-2.3636l2.7197-3.9273c0.1665-0.2364 0.3145-0.4 0.555-0.4 0.2406 0 0.4811 0.2363 0.5551 0.4l2.7196 3.9273s1.0361 1.4909 1.9982 2.3636c1.5911 1.4182 4.7917 1.0182 4.7917 1.0182l-7.4374-10.891z"/>
</g>
<defs>
<clipPath id="a">
<rect width="57.538" height="22" fill="#fff"/>
</clipPath>
</defs>
</svg>
