<?xml version="1.0" encoding="UTF-8"?>
<svg width="50" height="50" viewBox="0 0 50 50" xmlns="http://www.w3.org/2000/svg">
<path d="m6.2344 24.999c0 7.4279 4.3167 13.847 10.576 16.889l-8.9515-24.526c-1.0412 2.3339-1.6247 4.9166-1.6247 7.6371z"/>
<path d="m37.668 24.053c0-2.3192-0.833-3.9254-1.5475-5.1755-0.9513-1.5458-1.8429-2.8548-1.8429-4.4006 0-1.725 1.3083-3.3308 3.1512-3.3308 0.0832 0 0.1621 0.0104 0.2432 0.015-3.3387-3.0587-7.7868-4.9262-12.672-4.9262-6.5559 0-12.324 3.3636-15.679 8.4584 0.44028 0.0132 0.85522 0.0225 1.2076 0.0225 1.9629 0 5.0012-0.2382 5.0012-0.2382 1.0116-0.0596 1.1309 1.4262 0.1204 1.5458 0 0-1.0166 0.1196-2.1479 0.1789l6.8338 20.327 4.1067-12.317-2.9237-8.0106c-1.0106-0.0593-1.9679-0.1789-1.9679-0.1789-1.0112-0.0593-0.8927-1.6054 0.1186-1.5458 0 0 3.099 0.2382 4.943 0.2382 1.9624 0 5.0012-0.2382 5.0012-0.2382 1.0123-0.0596 1.1312 1.4262 0.1203 1.5458 0 0-1.0187 0.1196-2.1478 0.1789l6.7816 20.173 1.8718-6.2549c0.8112-2.5955 1.4286-4.4598 1.4286-6.0663z"/>
<path d="m25.329 26.641-5.6304 16.361c1.6811 0.4942 3.459 0.7645 5.3012 0.7645 2.1853 0 4.281-0.3778 6.2317-1.0637-0.0504-0.0803-0.0961-0.1657-0.1336-0.2585l-5.7689-15.803z"/>
<path d="m41.466 15.996c0.0807 0.5977 0.1264 1.2394 0.1264 1.9296 0 1.9043-0.3557 4.045-1.4269 6.7216l-5.7321 16.573c5.5789-3.2533 9.3314-9.2976 9.3314-16.22 4e-4 -3.2626-0.833-6.3306-2.2988-9.0037z"/>
<path d="m25 3.125c-12.062 0-21.875 9.8128-21.875 21.874 0 12.063 9.8135 21.876 21.875 21.876 12.061 0 21.876-9.8124 21.876-21.876-3e-4 -12.062-9.8149-21.874-21.876-21.874zm0 42.747c-11.509 0-20.872-9.3636-20.872-20.873 0-11.509 9.3633-20.871 20.872-20.871 11.508 0 20.871 9.3629 20.871 20.871 0 11.509-9.3629 20.873-20.871 20.873z"/>
</svg>
