<svg xmlns="http://www.w3.org/2000/svg" width="32" height="32" fill="none" xmlns:v="https://vecta.io/nano"><g clip-path="url(#A)"><path fill="#fff" d="M0 0h32v32H0z"/><path d="M32.088 16.053A15.95 15.95 0 0 0 16.053.197 15.95 15.95 0 0 0 .197 16.233a15.95 15.95 0 0 0 16.035 15.856 15.95 15.95 0 0 0 15.856-16.035z" fill="#fffdcf"/><path d="M10.321 12.809a1.37 1.37 0 0 0 .411-.331 1.39 1.39 0 0 0 .38-.856.84.84 0 0 0-.443-.788c-.154-.062-.319-.09-.485-.082a.95.95 0 0 0-.616.164c-.205.183-.238.476-.388.702s-.435.316-.427.616c.012.714 1.096.819 1.568.575z" fill="#621a8e"/><path d="M8.786 7.601c.168-.372.353-.848.078-1.152-.07-.076-.168-.138-.205-.236-.07-.205.205-.388.218-.616.014-.168-.117-.308-.205-.452-.103-.178-.148-.384-.13-.589s.098-.399.231-.557a8.3 8.3 0 0 1 2.092 2.669c.503 1.033.653 2.203.429 3.33a2.14 2.14 0 0 1-.48 1.012c-.125.143-.287.249-.467.308s-.374.067-.559.025c-.509-.148-.751-.733-.797-1.261s0-.94-.177-1.404c-.154-.392-.22-.632-.027-1.078z" fill="#d0a2ff"/><path d="M9.691 8.878c-.262-.962-.893-1.782-1.755-2.283-.482-.261-1.026-.39-1.513-.651-.803-.435-1.367-1.197-1.903-1.936-1.183 1.456-1.665 3.416-1.482 5.282a4.81 4.81 0 0 0 .411 1.599c.505 1.074 1.558 1.823 2.7 2.147.652.201 1.345.226 2.01.074 1.952-.503 2.026-2.578 1.534-4.233z" fill="#d97ef9"/><g fill="#d0a2ff"><path d="M9.903 12.941c.044-.167.123-.323.231-.457s.245-.244.399-.321a1.04 1.04 0 0 1 .365-.107 1.07 1.07 0 0 1 .42.061c.134.048.258.123.363.22.21.195.368.439.46.71a.82.82 0 0 1 .033.581.98.98 0 0 1-.261.314 1.46 1.46 0 0 1-.636.398 1.17 1.17 0 0 1-1.373-1.4h0zm-2.404 3.492c-.636-.224-1.32-.425-1.977-.277-.788.179-1.38.821-1.889 1.437a1.62 1.62 0 0 0-.324.523c-.035.098-.043.203-.023.305s.067.197.136.274a.59.59 0 0 0 .616.072 2.1 2.1 0 0 0 .536-.39 7.67 7.67 0 0 1 .959-.723c.338-.216.792-.41 1.115-.162a1.4 1.4 0 0 1 .271.318 2.33 2.33 0 0 0 .965.766c.206.103.434.155.664.152a1.46 1.46 0 0 0 .66-.167c.437-.273.585-.981.205-1.353-.421-.402-1.369-.587-1.913-.776zm-1.862 3.605c-.755.267-1.269.971-1.614 1.694-.123.259-.218.604-.012.803s.583.08.821-.103c.337-.253.616-.579.936-.846.312-.29.726-.447 1.152-.435.38.039.706.277 1.045.452.429.22 1.051.324 1.297-.205.041-.082.065-.171.071-.262a.7.7 0 0 0-.035-.269.69.69 0 0 0-.135-.235c-.06-.068-.133-.125-.215-.165-.813-.478-2.42-.741-3.311-.427zm2.133 3.094a2.34 2.34 0 0 0-1.447.446 2.37 2.37 0 0 0-.569.684c-.232.394-.394.866-.265 1.302a.55.55 0 0 0 .253.349.56.56 0 0 0 .645-.205 6.47 6.47 0 0 0 .347-.645c.177-.268.437-.471.739-.579a1.49 1.49 0 0 1 .938-.021c.335.113.657.351 1.004.283.653-.131.509-.91.111-1.232-.433-.345-1.217-.382-1.755-.382zm17.971-6.699c.636-.224 1.318-.425 1.977-.277.788.179 1.378.821 1.889 1.437a1.64 1.64 0 0 1 .322.523c.035.098.044.203.024.305s-.066.197-.135.274a.59.59 0 0 1-.616.072 2.11 2.11 0 0 1-.536-.39 7.82 7.82 0 0 0-.957-.723c-.337-.216-.794-.41-1.117-.162a1.34 1.34 0 0 0-.269.318 2.35 2.35 0 0 1-.957.766c-.206.103-.434.155-.664.152a1.46 1.46 0 0 1-.66-.167c-.437-.273-.587-.981-.205-1.353.409-.402 1.359-.587 1.903-.776zm1.862 3.605c.755.267 1.267.971 1.612 1.694.123.259.22.604.014.803s-.585.08-.821-.103c-.337-.253-.616-.579-.938-.846a1.62 1.62 0 0 0-1.15-.435c-.382.039-.706.277-1.047.452-.427.22-1.051.324-1.297-.205-.082-.165-.094-.357-.035-.531a.7.7 0 0 1 .351-.401c.811-.478 2.418-.741 3.311-.427zm-2.133 3.093a2.35 2.35 0 0 1 1.456.445c.23.191.423.423.569.684.23.394.394.866.265 1.302a.56.56 0 0 1-.254.349c-.115.041-.24.043-.356.006s-.217-.111-.287-.211a6.47 6.47 0 0 1-.361-.639 1.48 1.48 0 0 0-.739-.579c-.303-.108-.632-.115-.939-.02-.335.113-.657.351-1.002.283-.653-.131-.509-.91-.111-1.232.435-.351 1.222-.388 1.759-.388z"/></g><path d="M22.452 12.809a1.37 1.37 0 0 1-.411-.331c-.222-.233-.356-.535-.38-.856a.84.84 0 0 1 .444-.788 1.14 1.14 0 0 1 .485-.082.94.94 0 0 1 .616.164c.218.183.24.476.39.702s.435.316.427.616c-.016.714-1.098.819-1.57.575z" fill="#621a8e"/><path d="M23.978 7.601c-.168-.372-.353-.848-.078-1.152.07-.076.168-.138.205-.236.07-.205-.205-.388-.218-.616-.014-.168.117-.308.205-.452.104-.177.151-.381.135-.586s-.094-.399-.224-.558c-.874.736-1.586 1.644-2.092 2.669-.503 1.033-.653 2.203-.429 3.33a2.14 2.14 0 0 0 .48 1.012c.125.143.287.249.468.307s.374.067.559.025c.509-.148.751-.733.797-1.26s0-.94.175-1.404c.154-.394.222-.634.016-1.08z" fill="#d0a2ff"/><path d="M23.083 8.878c.262-.962.893-1.782 1.755-2.283.482-.261 1.026-.39 1.513-.651.803-.435 1.367-1.197 1.903-1.936 1.182 1.456 1.665 3.416 1.48 5.282a4.81 4.81 0 0 1-.4 1.599c-.505 1.074-1.558 1.823-2.7 2.147-.652.201-1.345.226-2.01.074-1.961-.503-2.035-2.578-1.542-4.233z" fill="#d97ef9"/><path d="M22.871 12.941c-.045-.167-.124-.322-.233-.456a1.23 1.23 0 0 0-.398-.322 1.04 1.04 0 0 0-.365-.107c-.141-.006-.282.015-.414.063s-.254.122-.358.218c-.21.195-.368.439-.46.71a.82.82 0 0 0-.033.581.98.98 0 0 0 .261.314 1.46 1.46 0 0 0 .636.398 1.17 1.17 0 0 0 1.059-.333 1.17 1.17 0 0 0 .305-1.067h0z" fill="#d0a2ff"/><path d="M10.083 14.645c-1.398 2.053-1.92 4.64-1.729 7.124.123 1.573.556 3.196 1.642 4.34a6.16 6.16 0 0 0 1.612 1.176c2.735 1.456 6.101 1.472 9.017.423 1.794-.645 3.184-2.178 3.827-3.956.623-1.77.743-3.678.347-5.512-.298-1.296-.636-3.166-1.575-4.137a10.17 10.17 0 0 0-3.018-2.244c-2.258-1.061-4.956-1.15-7.175.082a8.68 8.68 0 0 0-2.948 2.704h0z" fill="#d97ef9"/><g fill="#232222"><path d="M19.459 18.658c.543 0 .983-.44.983-.983s-.44-.983-.983-.983-.983.44-.983.983.44.983.983.983zm-5.849-.421c.543 0 .983-.44.983-.983s-.44-.983-.983-.983-.983.44-.983.983.44.983.983.983z"/></g><g fill="#fff"><path d="M19.841 18.003a.36.36 0 0 0 .359-.359.36.36 0 0 0-.359-.359.36.36 0 0 0-.359.359.36.36 0 0 0 .359.359zm-5.906-.464a.36.36 0 0 0 .359-.359.36.36 0 0 0-.359-.359.36.36 0 0 0-.359.359.36.36 0 0 0 .359.359z"/></g><g stroke="#232222" stroke-width=".5" stroke-linecap="round" stroke-linejoin="round"><path d="M14.822 14.881c-.497.023-1.027-.039-1.503.115-.394.125-.749.411-1.102.632m6.183-.612c.495.051 1.027.018 1.492.205.386.148.727.46 1.066.694"/></g><path d="M15.093 20.504a1.19 1.19 0 0 0 .184.677 1.45 1.45 0 0 0 .739.52c.166.062.344.082.52.058.112-.021.22-.061.318-.119.233-.134.669-.56.686-.918-.834.287-1.728.317-2.448-.218z" fill="#232222"/></g><defs><clipPath id="A"><path fill="#fff" d="M0 0h32v32H0z"/></clipPath></defs></svg>