<svg xmlns="http://www.w3.org/2000/svg" width="32" height="32" fill="none" xmlns:v="https://vecta.io/nano"><g clip-path="url(#A)"><path fill="#fff" d="M0 0h32v32H0z"/><path d="M32.088 16.053A15.95 15.95 0 0 0 16.053.197 15.95 15.95 0 0 0 .197 16.233a15.95 15.95 0 0 0 16.035 15.856 15.95 15.95 0 0 0 15.856-16.035z" fill="#fffdcf"/><path d="M12.637 10.611c.932.994.816 2.615-.257 3.618s-2.698 1.007-3.627 0-1.091-4.785-1.091-4.785 4.046.18 4.976 1.167z" fill="#a55ac9"/><path d="M11.929 11.276c.268.331.401.752.372 1.178s-.219.824-.531 1.115-.722.453-1.149.454-.837-.161-1.15-.451c-.588-.63-.69-3.026-.69-3.026s2.558.098 3.148.73z" fill="#a66bc2"/><path d="M18.491 10.697c-.932.996-.816 2.618.257 3.618s2.698 1.009 3.627.011 1.091-4.783 1.091-4.783-4.044.158-4.976 1.154z" fill="#a55ac9"/><path d="M19.201 11.354c-.265.332-.396.751-.365 1.175s.22.82.53 1.11.718.452 1.143.454.835-.156 1.148-.443c.588-.63.69-3.026.69-3.026s-2.558.1-3.146.73z" fill="#a66bc2"/><g fill="#e180fa"><path d="M14.709 12.744h-.053c-.126-.014-.24-.077-.319-.176s-.116-.224-.102-.35c.051-.495.076-.991.073-1.489 0-1.185-.222-1.495-.262-1.553-.608 0-2.365-.024-3.918-.047l-2.604-.033c-.098.001-.195-.018-.286-.056s-.172-.095-.24-.166c-.51-.543-.468-2.203-.426-2.884.002-.064.017-.127.043-.185s.065-.11.112-.153.103-.076.163-.098.124-.03.188-.026.126.021.183.049.108.068.15.117.073.105.092.166.026.125.021.189c-.053.887 0 1.812.135 2.114l2.482.033 3.931.047a.9.9 0 0 1 .681.313c.701.783.506 3.106.428 3.789-.018.112-.076.213-.163.287s-.196.113-.31.113h0z"/><path d="M9.587 9.131c-.124 0-.244-.049-.333-.136s-.14-.206-.142-.33l-.04-1.997c-.002-.126.045-.248.133-.339a.48.48 0 0 1 .333-.147h0a.48.48 0 0 1 .333.137c.089.087.14.206.142.331l.04 1.983c.002.063-.009.125-.032.183a.49.49 0 0 1-.1.157c-.043.045-.095.081-.152.106s-.119.039-.182.04v.011zm2.342-.04c-.124 0-.243-.048-.332-.134s-.141-.203-.145-.327l-.038-1.349c-.006-.065.001-.13.022-.192s.053-.119.096-.168a.48.48 0 0 1 .155-.116.47.47 0 0 1 .188-.045c.065-.002.13.009.19.033s.115.06.162.106a.48.48 0 0 1 .106.162c.024.061.035.125.033.19l.04 1.349a.48.48 0 0 1-.031.184c-.022.059-.056.112-.099.158a.48.48 0 0 1-.152.108c-.057.026-.119.04-.182.041h-.013zm4.741 3.693c-.117 0-.23-.044-.317-.122s-.143-.186-.155-.302c-.078-.692-.273-3.006.428-3.789a.9.9 0 0 1 .683-.313l3.931-.047 2.48-.042c.127-.304.189-1.247.138-2.114a.48.48 0 0 1 .025-.184c.02-.059.052-.114.093-.16a.48.48 0 0 1 .148-.112c.056-.027.117-.043.179-.047a.48.48 0 0 1 .184.025c.059.02.113.052.16.094s.085.092.112.148.043.117.047.179c.042.688.084 2.347-.426 2.884a.71.71 0 0 1-.526.235l-2.604.033-3.918.047c-.051.06-.251.37-.26 1.564a14.35 14.35 0 0 0 .071 1.48c.014.126-.023.251-.102.35s-.194.162-.32.176l-.053.018z"/><path d="M21.792 9.171c-.063-.001-.125-.015-.182-.04a.49.49 0 0 1-.153-.106c-.044-.045-.078-.098-.101-.157a.48.48 0 0 1-.033-.183l.04-1.983a.48.48 0 0 1 .134-.355c.046-.047.1-.084.16-.109s.125-.037.19-.036.13.016.189.043.113.066.156.115a.48.48 0 0 1 .098.167c.021.062.029.127.023.192l-.04 1.997c-.005.124-.058.242-.148.327a.47.47 0 0 1-.335.128h0zm-2.342-.04h-.013a.49.49 0 0 1-.181-.041c-.057-.025-.109-.062-.152-.108s-.077-.099-.099-.158a.48.48 0 0 1-.031-.184l.04-1.349a.48.48 0 0 1 .491-.463c.126.003.246.058.333.15a.48.48 0 0 1 .13.341l-.04 1.349c-.004.124-.056.241-.145.327s-.208.134-.332.134h0z"/></g><path d="M21.482 19.77c.284-4.814-2.318-8.454-6.038-8.518-3.72.064-6.322 3.705-6.038 8.519C9.518 21.707 6.077 28 15.35 28h.184c9.268 0 5.834-6.298 5.947-8.23z" fill="#a55ac9"/><g fill="#232222"><path d="M20.781 24.282c0 1.608-2.363 2.91-5.28 2.91s-5.28-1.302-5.28-2.91 2.365-2.91 5.28-2.91 5.28 1.304 5.28 2.91zm-6.942-6.218a.95.95 0 0 1-.161.53c-.105.157-.254.279-.428.351s-.366.091-.551.054-.355-.128-.488-.261-.224-.303-.261-.488-.018-.377.054-.551.194-.323.351-.428a.95.95 0 0 1 1.205.118.95.95 0 0 1 .207.31c.048.116.072.24.072.365h0z"/></g><path d="M12.952 17.297a.61.61 0 0 1-.377.564.61.61 0 0 1-.665-.133.61.61 0 0 1-.131-.666.61.61 0 0 1 .565-.375.61.61 0 0 1 .431.179.61.61 0 0 1 .177.431h0z" fill="#fff"/><path d="M16.987 18.064c0 .189.056.373.161.53s.254.279.428.351.366.091.551.054.355-.128.488-.261.224-.303.261-.488.018-.377-.054-.551-.194-.323-.351-.428-.341-.161-.53-.161c-.253 0-.496.101-.674.279s-.279.421-.279.674h0z" fill="#232222"/><path d="M17.875 17.297a.61.61 0 0 0 .377.564.61.61 0 0 0 .665-.133.61.61 0 0 0 .131-.666.61.61 0 0 0-.565-.375.61.61 0 0 0-.431.179.61.61 0 0 0-.177.431h0z" fill="#fff"/></g><defs><clipPath id="A"><path fill="#fff" d="M0 0h32v32H0z"/></clipPath></defs></svg>