<svg xmlns="http://www.w3.org/2000/svg" width="32" height="32" fill="none" xmlns:v="https://vecta.io/nano"><g clip-path="url(#A)"><path fill="#fff" d="M0 0h32v32H0z"/><path d="M32.088 16.053A15.95 15.95 0 0 0 16.053.197 15.95 15.95 0 0 0 .197 16.233a15.95 15.95 0 0 0 16.035 15.856 15.95 15.95 0 0 0 15.856-16.035z" fill="#fffdcf"/><path d="M15.707 8.863s-.181 5.435-1.148 5.548-2.387-5.139-2.387-5.139-1.884-7.052 1.166-7.267 2.369 6.858 2.369 6.858z" fill="#9e5ec6"/><path d="M15.219 8.92s-.125 3.933-.832 4.014-1.725-3.718-1.725-3.718-1.324-6.034.846-6.184 1.711 5.887 1.711 5.887z" fill="#e2bdf3"/><path d="M16.962 8.863s.181 5.435 1.148 5.548 2.38-5.139 2.38-5.139 1.884-7.052-1.165-7.267-2.363 6.858-2.363 6.858z" fill="#9e5ec6"/><path d="M17.45 8.92s.127 3.933.832 4.014 1.725-3.718 1.725-3.718 1.324-6.034-.844-6.184S17.45 8.92 17.45 8.92z" fill="#e2bdf3"/><path d="M21.616 17.591c.904 1.398 1.521 4.994-5.491 4.994s-5.815-3.763-5.218-5.027c-.251-4.068 2.125-7.206 5.425-7.206s5.425 3.052 5.285 7.238z" fill="#a969c8"/><path d="M17.235 15.158a1.14 1.14 0 0 0 .703 1.053 1.14 1.14 0 0 0 1.241-.247 1.14 1.14 0 0 0 .247-1.241 1.14 1.14 0 0 0-1.053-.703 1.14 1.14 0 0 0-1.139 1.139h0z" fill="#e2bdf3"/><path d="M17.643 15.158a.68.68 0 0 0 .419.626.68.68 0 0 0 .739-.147.68.68 0 0 0 .147-.739.68.68 0 0 0-.626-.419.68.68 0 0 0-.678.678z" fill="#3d342f"/><path d="M18.224 14.604c0 .064.019.127.055.18s.086.095.145.119.124.031.187.018.12-.043.166-.089.076-.103.089-.166.006-.128-.018-.187-.066-.11-.119-.145-.116-.055-.18-.055c-.086 0-.168.034-.229.095s-.095.143-.095.229h0z" fill="#fff"/><path d="M15.589 15.087a1.14 1.14 0 0 1-.703 1.052 1.14 1.14 0 0 1-1.241-.247 1.14 1.14 0 0 1-.247-1.242 1.14 1.14 0 0 1 1.052-.703 1.14 1.14 0 0 1 1.139 1.139h0z" fill="#e2bdf3"/><path d="M15.007 15.158a.68.68 0 0 1-.419.626.68.68 0 0 1-.739-.147.68.68 0 0 1-.147-.739.68.68 0 0 1 .627-.419.68.68 0 0 1 .678.678z" fill="#3d342f"/><path d="M14.427 14.604c0 .064-.019.127-.055.18s-.086.095-.145.119-.124.031-.187.018-.12-.043-.166-.089-.076-.103-.088-.166-.006-.128.018-.187.066-.11.119-.145.116-.055.18-.055c.086 0 .168.034.229.095s.095.143.095.229h0z" fill="#fff"/><path d="M19.531 17.259a6.7 6.7 0 0 0-3.255.843 6.7 6.7 0 0 0-3.255-.843c-3.712 0-6.719 2.542-6.719 6.253a6.72 6.72 0 0 0 3.309 5.79 6.72 6.72 0 0 0 6.668.087 6.72 6.72 0 0 0 6.668-.087 6.72 6.72 0 0 0 3.309-5.79c-.007-3.71-3.016-6.253-6.727-6.253z" fill="#e2bdf3"/><g fill="#3d342f"><path d="M17.647 18.092c0 .429-.917 1.099-1.282 1.099s-1.466-.671-1.466-1.099.615-.779 1.374-.779 1.374.349 1.374.779z"/><path d="M14.946 20.763c-.362 0-.75-.181-1.177-.524-.015-.011-.027-.024-.036-.04s-.015-.033-.017-.051-.001-.036.004-.054.014-.034.025-.048.026-.026.042-.034.034-.013.052-.015.036.001.054.007.033.016.046.028c.497.409.928.543 1.277.416.694-.264.904-1.506.904-1.519.006-.035.025-.066.053-.087s.064-.029.099-.024.066.025.087.053.029.064.024.099c0 .058-.233 1.407-1.07 1.725a.99.99 0 0 1-.365.067h0z"/><path d="M17.416 20.87c-.108 0-.216-.02-.316-.06-.796-.318-.944-1.794-.949-1.857-.003-.035.007-.07.03-.097s.055-.044.09-.048.07.007.097.03.044.055.048.09c.036.383.25 1.421.785 1.627.293.117.669-.02 1.114-.405.027-.024.062-.036.098-.034s.069.018.093.044.036.062.035.097-.018.069-.044.093c-.4.349-.758.519-1.078.519z"/></g><g stroke="#9d4edd" stroke-width=".6" stroke-miterlimit="10" stroke-linecap="round"><path d="M19.3 18.955s1.085-1.063 4.278-1.551m-4.096 1.961s1.32-.756 4.533-.419m-4.477.926s1.447-.439 4.521.608m-11.361-1.657s-1.085-1.065-4.28-1.551m4.096 1.96s-1.32-.754-4.533-.419m4.476.925s-1.456-.439-4.51.608"/></g></g><defs><clipPath id="A"><path fill="#fff" d="M0 0h32v32H0z"/></clipPath></defs></svg>