<svg xmlns="http://www.w3.org/2000/svg" width="32" height="32" fill="none" xmlns:v="https://vecta.io/nano"><g clip-path="url(#A)"><path fill="#fff" d="M0 0h32v32H0z"/><path d="M32.088 16.053A15.95 15.95 0 0 0 16.053.197 15.95 15.95 0 0 0 .197 16.233a15.95 15.95 0 0 0 16.035 15.856 15.95 15.95 0 0 0 15.856-16.035z" fill="#fffdcf"/><path d="M26.087 15.815C29.842 22.758 24.514 25 15.862 25c-9.846 0-11.666-2.785-9.166-9.263 2.145-5.557 5.947-6.239 9.361-6.239s7.332 1.327 10.03 6.317z" fill="#ab62ce"/><g fill="#d299f4"><path d="M25.385 20.759c-.888 1.477-3.247 1.878-6.027 2.17-1.475-.89-1.769-6.141-1.405-7.824.39-1.804 2.177-3.187 4.558-1.308 1.354 1.068 3.764 5.487 2.874 6.962zm-17.799.244c.89 1.475 4.491 1.893 6.271 2.096 1.477-.888 2.007-5.972 1.536-8.263-.347-1.687-2.901-3.511-5.192-1s-3.505 5.692-2.615 7.167z"/></g><path d="M19.532 16.576c0 .311.092.616.265.875s.419.461.707.58.605.151.91.09.586-.211.807-.431.37-.501.431-.807.03-.622-.09-.91-.321-.534-.58-.707-.564-.265-.875-.265c-.418 0-.819.166-1.114.461s-.461.696-.461 1.114h0z" fill="#fff"/><path d="M20.31 16.589a.8.8 0 0 0 .134.443c.088.131.212.233.358.294s.306.076.461.045.297-.107.408-.218.187-.253.218-.408.015-.315-.045-.461-.162-.27-.294-.358-.285-.134-.443-.134c-.211 0-.414.084-.564.234s-.234.352-.234.564h0z" fill="#232222"/><g fill="#fff"><path d="M20.927 15.962a.42.42 0 0 0 .258.387c.076.032.161.04.242.024a.42.42 0 0 0 .305-.57.42.42 0 0 0-.387-.258.42.42 0 0 0-.418.419zm-7.479.214a1.58 1.58 0 0 1-.265.876 1.57 1.57 0 0 1-.707.581c-.288.119-.605.151-.91.09s-.587-.21-.807-.431-.371-.501-.432-.807a1.58 1.58 0 0 1 .089-.911c.119-.288.321-.534.58-.707a1.58 1.58 0 0 1 .876-.266c.418 0 .818.166 1.113.461s.462.695.462 1.113h0z"/></g><path d="M12.67 16.189c0 .158-.047.312-.134.443s-.212.233-.358.294-.306.076-.46.045-.297-.107-.408-.218-.187-.253-.218-.408a.8.8 0 0 1 .045-.461c.06-.146.162-.27.294-.358s.285-.134.443-.134c.105 0 .208.02.305.06s.185.099.259.173.133.162.173.259.06.201.06.305h0z" fill="#232222"/><g fill="#fff"><path d="M12.052 15.565a.42.42 0 0 1-.5.411.42.42 0 0 1-.305-.571c.032-.077.085-.142.154-.188a.42.42 0 0 1 .651.348zm9.559 5.682c0 1.615-3.03 2.925-5.648 2.925s-4.734-1.31-4.734-2.925 2.123-2.925 4.734-2.925 5.648 1.31 5.648 2.925z"/></g><path d="M18.384 21.052c0 .757-.882 1.704-1.967 1.704s-1.967-.947-1.967-1.704.88-1.365 1.967-1.365 1.967.612 1.967 1.365z" fill="#232222"/><path d="M17.697 20.649c-.045.189-.314.269-.598.189s-.479-.278-.434-.46.314-.269.6-.189.479.271.432.46z" fill="#fff"/><path d="M8.648 7.612c-1.43.691.053 5.266.053 5.266l4.853-2.857s-3.475-3.1-4.906-2.409z" fill="#ab62ce"/><path d="M9.231 8.282c-.96.464.036 3.537.036 3.537l3.255-1.92s-2.329-2.081-3.291-1.617z" fill="#d299f4"/><path d="M24.332 7.612c1.43.691-.053 5.266-.053 5.266l-4.844-2.857s3.465-3.1 4.897-2.409z" fill="#ab62ce"/><path d="M23.747 8.282c.962.464-.034 3.537-.034 3.537l-3.255-1.92s2.329-2.081 3.289-1.617z" fill="#d299f4"/></g><defs><clipPath id="A"><path fill="#fff" d="M0 0h32v32H0z"/></clipPath></defs></svg>