<svg xmlns="http://www.w3.org/2000/svg" width="32" height="32" fill="none" xmlns:v="https://vecta.io/nano"><g clip-path="url(#A)"><path fill="#fff" d="M0 0h32v32H0z"/><path d="M32.088 16.053A15.95 15.95 0 0 0 16.053.197 15.95 15.95 0 0 0 .197 16.233a15.95 15.95 0 0 0 16.035 15.856 15.95 15.95 0 0 0 15.856-16.035z" fill="#fffdcf"/><g fill="#b85df0"><path d="M12.036 8.607a2.36 2.36 0 0 0-.356-.405 4.56 4.56 0 0 0-2.424-1.181C7.43 6.747 4.437 8.442 4.03 13.927s1.808 6.027 3.542 6.027c1.432 0 3.085-1.011 4.345-2.448.795-2.999.12-8.896.12-8.9zm7.825.065a2.36 2.36 0 0 1 .356-.405 4.55 4.55 0 0 1 2.422-1.181c1.828-.274 4.695 1.295 5.102 6.78s-1.682 6.153-3.41 6.153c-1.43 0-3.085-1.011-4.344-2.448-.807-2.999-.128-8.896-.126-8.9z"/></g><path d="M22.972 24.677c-.091-.36.634-.429.787-1.574s-.787-.045-.787-.045-.677.787-3.384.608c-2.495-.155-1.804-3.148-1.794-4.16 0-.291.098-.551.187-.59s.334.096.486.342c.378.61.712 1.6.897 2.198.085.277.291.315.394.043.333-.905.091-2.143-.144-2.952-.081-.279.096-.567.197-.805 2.465-6.168.069-9.108.069-9.085a2.95 2.95 0 0 1-.394-.311 5.6 5.6 0 0 0-7.097-.033l-.362.303c-2.54 4.636-.238 8.888-.155 8.97l.14.138a3.35 3.35 0 0 0-.197.486c-.248.764-.63 2.245-.248 3.284.1.273.311.236.393-.041.197-.661.59-1.802 1.015-2.375.173-.234.374-.102.366.197-.055 1.771-.283 3.382 2.338 5.466 2.265 1.8 4.132 1.181 6.269 1.047.291-.018.687-.104.972-.053a3.03 3.03 0 0 0 .679.035c.819-.057-.543-.732-.626-1.094z" fill="#e682ff"/><g fill="#b640ff"><path d="M12.6 17.133l-.734.486a11.11 11.11 0 0 0-.455 3.195c.522 2.361.685.47.939-.273.211-.521.532-.991.941-1.377l-.691-2.031zm6.925.486l-.862-.486-.809 2.027s.807.636 1.102 1.377.488 2.645 1.1.274a9.57 9.57 0 0 0-.531-3.192h0z"/></g><path d="M14.645 12.871c0 .161-.047.318-.136.452s-.216.238-.364.3a.81.81 0 0 1-.47.047c-.158-.031-.303-.108-.417-.222s-.191-.258-.223-.416a.81.81 0 0 1 .046-.47c.061-.149.166-.276.299-.365s.291-.137.452-.137c.215 0 .422.085.574.237a.81.81 0 0 1 .239.573h0z" fill="#313439"/><path d="M13.889 12.218a.52.52 0 0 1-.321.48.52.52 0 0 1-.566-.113.52.52 0 0 1-.113-.566.52.52 0 0 1 .48-.321.52.52 0 0 1 .52.519h0z" fill="#fff"/><path d="M17.329 12.871c0 .161.047.318.136.452s.216.238.365.3.312.078.47.047a.81.81 0 0 0 .639-.639.81.81 0 0 0-.347-.835c-.134-.089-.291-.136-.452-.136a.81.81 0 0 0-.811.811z" fill="#313439"/><path d="M18.084 12.218a.52.52 0 0 0 .321.48.52.52 0 0 0 .566-.114.52.52 0 0 0 .111-.567.52.52 0 0 0-.481-.319.52.52 0 0 0-.518.519h0z" fill="#fff"/></g><defs><clipPath id="A"><path fill="#fff" d="M0 0h32v32H0z"/></clipPath></defs></svg>