<svg xmlns="http://www.w3.org/2000/svg" width="32" height="32" fill="none" xmlns:v="https://vecta.io/nano"><g clip-path="url(#A)"><path fill="#fff" d="M0 0h32v32H0z"/><path d="M32.088 16.053A15.95 15.95 0 0 0 16.053.197 15.95 15.95 0 0 0 .197 16.233a15.95 15.95 0 0 0 16.035 15.856 15.95 15.95 0 0 0 15.856-16.035z" fill="#fffdcf"/><g fill="#9e42be"><path d="M10.764 10.386a4.72 4.72 0 0 0-.983-.821l-.104-.06-.094.393a7.1 7.1 0 0 0-.043 1.232l-.032 1.729a13.59 13.59 0 0 1-.272 1.872 21.63 21.63 0 0 1-1.098 3.471l-.028.064a2.7 2.7 0 0 1-3.851 1.341 2.7 2.7 0 0 1-.784-4.002 16.9 16.9 0 0 0 1.546-2.312 9.58 9.58 0 0 0 .549-1.202 13.7 13.7 0 0 0 .425-1.423c.151-.644.37-1.27.653-1.867a4.89 4.89 0 0 1 .638-1.019 3.19 3.19 0 0 1 .555-.534 2.51 2.51 0 0 1 .832-.408 2.3 2.3 0 0 1 .94-.055 2.59 2.59 0 0 1 .744.23 3.68 3.68 0 0 1 .957.698 6.16 6.16 0 0 1 .638.74 8.87 8.87 0 0 1 .513.791c.126.218.168.474.117.72a1.03 1.03 0 0 1-.392.616 1.02 1.02 0 0 1-.702.199c-.251-.022-.484-.135-.657-.318l-.07-.074zm10.467 0a4.74 4.74 0 0 1 .983-.821l.104-.06.094.393a7.11 7.11 0 0 1 .043 1.232l.032 1.729c.047.63.138 1.255.272 1.872.27 1.186.641 2.348 1.108 3.471l.028.064a2.7 2.7 0 0 0 2.482 1.759c.36.006.718-.059 1.053-.193a2.7 2.7 0 0 0 1.695-2.526 2.7 2.7 0 0 0-.22-1.047c-.095-.234-.22-.453-.374-.653-.577-.727-1.095-1.5-1.546-2.312a9.89 9.89 0 0 1-.551-1.202c-.166-.467-.308-.942-.425-1.423-.151-.644-.37-1.27-.653-1.867a4.89 4.89 0 0 0-.638-1.019 3.19 3.19 0 0 0-.555-.534 2.51 2.51 0 0 0-.832-.408 2.3 2.3 0 0 0-.94-.055 2.55 2.55 0 0 0-.742.23 3.7 3.7 0 0 0-.955.687 6.09 6.09 0 0 0-.638.74c-.185.255-.356.519-.513.791-.126.218-.168.474-.117.72a1.03 1.03 0 0 0 .392.616 1.02 1.02 0 0 0 .702.199c.251-.022.484-.135.657-.318l.057-.064z"/></g><path d="M23.555 15.741a7.4 7.4 0 0 0-7.391-7.404h-.049a7.4 7.4 0 0 0-7.389 7.404c0 .096-1.78 2.101-.564 4.498.672 1.327 4.379 3.769 7.914 3.809 3.748.04 7.329-2.403 8.042-3.809 1.217-2.397-.564-4.403-.564-4.498z" fill="#ba49ff"/><path d="M17.993 14.565c0 .225.067.444.191.631s.302.332.51.418.436.109.656.065.423-.152.582-.311.267-.361.311-.582.021-.449-.065-.656-.232-.385-.418-.51-.406-.192-.631-.192c-.301 0-.59.12-.803.333s-.333.502-.333.803h0z" fill="#232222"/><path d="M18.872 13.668c0 .118.034.234.1.333a.6.6 0 0 0 .613.256.6.6 0 0 0 .471-.469.6.6 0 0 0-.254-.614.6.6 0 0 0-.332-.101c-.078 0-.156.015-.229.045s-.138.074-.194.129-.099.121-.13.193-.046.15-.046.228h0z" fill="#fff"/><path d="M14.635 14.565c0 .225-.067.444-.192.631s-.302.332-.51.418-.436.108-.656.064-.423-.152-.582-.311-.267-.362-.31-.582-.021-.449.066-.656.232-.385.419-.509.407-.191.632-.19c.301.001.589.12.802.334s.332.502.332.802z" fill="#232222"/><path d="M13.757 13.668a.6.6 0 0 1-.368.554.6.6 0 0 1-.345.035c-.116-.023-.223-.08-.306-.163s-.141-.19-.164-.306a.6.6 0 0 1 .254-.614.6.6 0 0 1 .332-.101c.078 0 .156.015.229.045s.138.074.194.129.1.121.13.193.046.15.046.228h0z" fill="#fff"/><path d="M21.596 20.85c0 1.725-2.471 4.15-5.519 4.15s-5.519-2.425-5.519-4.15 2.471-3.122 5.519-3.122 5.519 1.397 5.519 3.122z" fill="#debdf3"/><g fill="#232222"><path d="M17.681 17.739c0 .576-.67 1.291-1.5 1.291s-1.499-.715-1.499-1.291.672-1.04 1.499-1.04 1.5.466 1.5 1.04z"/><path d="M14.618 20.791c-.411 0-.866-.213-1.359-.606-.03-.026-.05-.062-.054-.102s.008-.079.033-.111a.15.15 0 0 1 .102-.055.15.15 0 0 1 .059.006c.019.006.037.015.052.028.579.472 1.063.638 1.476.481.804-.306 1.042-1.744 1.044-1.757.003-.02.01-.039.02-.057s.024-.032.041-.044a.15.15 0 0 1 .115-.026c.04.007.076.029.1.062s.034.074.028.114c-.011.066-.27 1.627-1.238 1.995-.134.049-.276.074-.419.072h0z"/><path d="M17.485 20.925c-.125 0-.249-.024-.366-.07-.919-.368-1.091-2.074-1.1-2.146-.004-.041.008-.081.034-.113s.063-.052.104-.055.081.008.113.034.052.063.055.104c.043.442.289 1.644.908 1.891.34.136.772-.021 1.287-.468.031-.025.07-.038.11-.035s.077.022.103.052.038.07.035.109-.021.076-.05.103c-.459.396-.874.593-1.234.593z"/></g><path d="M17.158 17.428c-.034.138-.238.213-.455.149s-.366-.213-.332-.351.24-.213.457-.149.366.206.33.351z" fill="#fff"/><g fill="#8252a8"><path d="M12.38 18.915c-.034 0-.066-.013-.091-.036-.017-.019-1.808-1.714-6.887-2.491-.017-.002-.032-.008-.047-.016s-.027-.02-.037-.033-.017-.029-.021-.045-.005-.033-.002-.05a.13.13 0 0 1 .145-.109c5.175.791 6.957 2.486 7.03 2.552.012.012.021.026.028.041s.01.032.01.049-.003.033-.01.049-.016.03-.028.041c-.023.027-.055.043-.089.047h0z"/><path d="M12.078 19.581c-.022-.001-.044-.006-.064-.017s-2.184-1.2-7.293-.668c-.017.002-.034 0-.05-.005a.13.13 0 0 1-.044-.023c-.013-.011-.024-.024-.032-.039s-.013-.031-.015-.048 0-.034.005-.05.013-.031.024-.044.024-.024.039-.032.031-.013.048-.015c5.205-.542 7.357.649 7.444.7.029.017.051.045.06.078s.005.068-.011.098c-.012.019-.028.035-.047.046s-.041.017-.063.018h0z"/><path d="M4.653 21.391a.13.13 0 0 1-.041-.251c4.949-1.702 7.315-1.017 7.414-.987.029.013.053.036.066.064a.13.13 0 0 1-.141.182c-.023 0-2.397-.681-7.257.985-.014.004-.028.006-.043.006h0zm15.082-2.221c-.024-.001-.047-.009-.067-.023s-.035-.033-.045-.055-.012-.047-.008-.071.015-.046.031-.064c.072-.072 1.855-1.77 7.019-2.552a.12.12 0 0 1 .05.002c.016.004.032.011.046.021a.12.12 0 0 1 .034.037c.009.015.015.03.017.047a.13.13 0 0 1-.108.147c-5.077.776-6.87 2.471-6.887 2.488-.023.017-.052.025-.081.023zm.302.666c-.023 0-.045-.006-.064-.018s-.035-.028-.046-.048c-.008-.014-.014-.03-.016-.047a.14.14 0 0 1 .003-.05c.004-.016.012-.031.022-.045s.023-.024.038-.033c.089-.051 2.244-1.242 7.444-.7.017.002.033.006.048.014s.028.019.038.032.018.028.023.044a.12.12 0 0 1 .004.05.13.13 0 0 1-.14.115c-5.124-.534-7.272.655-7.293.668a.13.13 0 0 1-.059.017h0zm7.421 1.812c-.013.002-.027.002-.04 0-4.86-1.663-7.232-.991-7.257-.985-.032.01-.067.006-.097-.009s-.052-.043-.062-.076a.13.13 0 0 1 .009-.097c.015-.03.043-.052.076-.062.098-.03 2.463-.708 7.415.987a.13.13 0 0 1 .066.057c.015.026.02.056.015.086a.13.13 0 0 1-.124.108v-.009z"/></g></g><defs><clipPath id="A"><path fill="#fff" d="M0 0h32v32H0z"/></clipPath></defs></svg>